<svg xmlns="http://www.w3.org/2000/svg" width="640" height="260" viewBox="0 0 640 260"><rect width="640" height="260" fill="white"/><text x="30" y="22" font-size="14" fill="#111">M10-PA-008 1d baseline equity</text><line x1="30" y1="230" x2="610" y2="230" stroke="#ccc"/><line x1="30" y1="30" x2="30" y2="230" stroke="#ccc"/><polyline points="30.00,126.12 31.95,131.73 33.91,137.34 35.86,142.89 37.81,148.42 39.76,153.91 41.72,159.38 43.67,164.84 45.62,170.27 47.58,159.65 49.53,165.15 51.48,154.42 53.43,159.94 55.39,165.40 57.34,154.65 59.29,160.12 61.25,165.60 63.20,154.86 65.15,160.35 67.10,165.86 69.06,155.16 71.01,160.65 72.96,166.09 74.92,171.52 76.87,160.90 78.82,150.13 80.77,155.61 82.73,144.79 84.68,133.84 86.63,139.44 88.59,144.97 90.54,150.49 92.49,156.03 94.44,161.51 96.40,150.77 98.35,156.38 100.30,161.84 102.26,151.06 104.21,156.59 106.16,162.12 108.11,151.39 110.07,156.87 112.02,162.33 113.97,167.77 115.93,157.10 117.88,162.57 119.83,168.04 121.78,173.46 123.74,162.78 125.69,168.20 127.64,173.59 129.60,178.97 131.55,184.33 133.50,189.66 135.45,194.96 137.41,184.57 139.36,189.91 141.31,195.19 143.27,184.74 145.22,190.05 147.17,195.32 149.12,184.87 151.08,190.17 153.03,195.46 154.98,200.74 156.94,205.98 158.89,195.64 160.84,200.92 162.79,190.56 164.75,180.09 166.70,185.44 168.65,190.76 170.61,180.30 172.56,169.69 174.51,175.10 176.46,180.49 178.42,185.86 180.37,175.34 182.32,126.12 184.28,131.74 186.23,137.33 188.18,142.88 190.13,148.40 192.09,137.50 194.04,143.04 195.99,132.08 197.95,121.01 199.90,109.84 201.85,98.54 203.80,104.33 205.76,109.19 207.71,97.91 209.66,103.68 211.62,109.42 213.57,115.17 215.52,103.94 217.47,109.67 219.43,98.40 221.38,86.99 223.33,92.80 225.29,81.33 227.24,87.16 229.19,75.65 231.14,81.50 233.10,69.94 235.05,58.26 237.00,64.26 238.96,52.52 240.91,58.53 242.86,64.50 244.81,70.42 246.77,76.36 248.72,82.22 250.67,70.64 252.63,76.53 254.58,82.46 256.53,70.91 258.48,76.78 260.44,82.64 262.39,71.08 264.34,59.42 266.30,65.37 268.25,71.32 270.20,77.22 272.15,65.58 274.11,71.49 276.06,77.35 278.01,83.20 279.97,89.07 281.92,77.56 283.87,65.93 285.82,71.86 287.78,77.74 289.73,66.13 291.68,72.02 293.64,77.89 295.59,66.26 297.54,54.52 299.49,60.47 301.45,66.40 303.40,72.34 305.35,78.21 307.31,84.07 309.26,89.89 311.21,95.70 313.16,84.27 315.12,90.14 317.07,95.94 319.02,84.52 320.98,90.35 322.93,96.16 324.88,101.93 326.84,107.66 328.79,126.12 330.74,131.71 332.69,120.61 334.65,126.23 336.60,131.82 338.55,137.38 340.51,126.36 342.46,131.96 344.41,137.53 346.36,143.06 348.32,148.58 350.27,154.08 352.22,159.54 354.18,148.73 356.13,154.21 358.08,159.67 360.03,165.10 361.99,170.52 363.94,159.82 365.89,165.26 367.85,154.51 369.80,159.96 371.75,149.16 373.70,154.63 375.66,143.78 377.61,149.30 379.56,154.78 381.52,160.23 383.47,165.65 385.42,171.04 387.37,160.34 389.33,165.76 391.28,171.16 393.23,160.48 395.19,165.89 397.14,171.28 399.09,160.60 401.04,166.02 403.00,155.27 404.95,160.72 406.90,166.14 408.86,171.53 410.81,176.89 412.76,182.24 414.71,187.54 416.67,192.82 418.62,198.09 420.57,187.66 422.53,177.12 424.48,182.47 426.43,171.87 428.38,177.23 430.34,182.56 432.29,171.98 434.24,177.34 436.20,182.68 438.15,187.99 440.10,193.28 442.05,198.53 444.01,198.89 445.96,204.11 447.91,209.32 449.87,214.49 451.82,219.65 453.77,209.43 455.72,214.61 457.68,219.77 459.63,224.89 461.58,230.00 463.54,219.89 465.49,126.12 467.44,131.71 469.39,137.27 471.35,142.81 473.30,148.32 475.25,153.80 477.21,142.93 479.16,148.44 481.11,137.51 483.06,143.05 485.02,148.56 486.97,154.03 488.92,159.48 490.88,164.92 492.83,170.32 494.78,159.61 496.73,148.79 498.69,154.26 500.64,143.39 502.59,132.41 504.55,121.33 506.50,126.95 508.45,132.54 510.40,138.09 512.36,143.62 514.31,132.65 516.26,121.58 518.22,127.19 520.17,132.79 522.12,138.34 524.07,143.87 526.03,132.91 527.98,138.47 529.93,144.01 531.89,133.05 533.84,121.97 535.79,110.78 537.74,116.44 539.70,122.08 541.65,127.69 543.60,133.28 545.56,138.84 547.51,127.81 549.46,116.69 551.41,122.34 553.37,111.15 555.32,116.81 557.27,105.57 559.23,94.21 561.18,99.96 563.13,88.54 565.08,94.34 567.04,82.87 568.99,71.28 570.94,59.58 572.90,65.50 574.85,53.75 576.80,59.70 578.75,65.62 580.71,53.87 582.66,42.00 584.61,30.00 586.57,36.08 588.52,42.12 590.47,48.13 592.42,54.12 594.38,42.25 596.33,48.27 598.28,54.24 600.24,60.19 602.19,58.04 604.14,63.98 606.09,69.88 608.05,58.19 610.00,58.97" fill="none" stroke="#2563eb" stroke-width="1.5"/><text x="30" y="252" font-size="11" fill="#555">min 90692.36 / max 108612.25</text></svg>
