<svg xmlns="http://www.w3.org/2000/svg" width="640" height="260" viewBox="0 0 640 260"><rect width="640" height="260" fill="white"/><text x="30" y="22" font-size="14" fill="#111">M10-PA-008 5m baseline equity</text><line x1="30" y1="230" x2="610" y2="230" stroke="#ccc"/><line x1="30" y1="30" x2="30" y2="230" stroke="#ccc"/><polyline points="30.00,171.85 30.20,172.29 30.40,171.71 30.60,172.23 30.79,173.12 30.99,170.86 31.19,170.17 31.39,167.15 31.59,167.98 31.79,168.55 31.99,168.96 32.18,169.39 32.38,170.99 32.58,172.05 32.78,171.11 32.98,172.14 33.18,173.26 33.38,174.26 33.58,175.02 33.77,176.13 33.97,176.87 34.17,178.22 34.37,178.75 34.57,177.28 34.77,178.80 34.97,179.99 35.16,180.92 35.36,182.39 35.56,182.91 35.76,184.42 35.96,185.00 36.16,185.79 36.36,186.10 36.55,186.32 36.75,186.76 36.95,187.08 37.15,185.28 37.35,184.60 37.55,185.71 37.75,185.13 37.95,185.97 38.14,185.53 38.34,185.05 38.54,185.50 38.74,186.11 38.94,186.48 39.14,185.13 39.34,184.66 39.53,185.39 39.73,184.89 39.93,184.61 40.13,182.85 40.33,183.25 40.53,181.91 40.73,183.02 40.92,182.59 41.12,183.25 41.32,184.58 41.52,183.32 41.72,184.83 41.92,185.99 42.12,184.87 42.32,185.29 42.51,185.72 42.71,186.91 42.91,185.75 43.11,185.06 43.31,185.60 43.51,184.82 43.71,185.38 43.90,186.76 44.10,185.28 44.30,185.65 44.50,186.01 44.70,186.64 44.90,185.20 45.10,186.23 45.29,187.10 45.49,186.18 45.69,187.36 45.89,188.19 46.09,186.91 46.29,187.35 46.49,187.71 46.68,188.11 46.88,188.90 47.08,190.05 47.28,190.43 47.48,190.95 47.68,191.30 47.88,191.84 48.08,191.14 48.27,191.53 48.47,191.80 48.67,192.56 48.87,193.10 49.07,193.65 49.27,192.87 49.47,191.43 49.66,192.27 49.86,189.43 50.06,189.96 50.26,187.60 50.46,188.70 50.66,187.18 50.86,188.10 51.05,188.53 51.25,186.79 51.45,187.25 51.65,187.88 51.85,185.03 52.05,183.71 52.25,185.11 52.45,185.69 52.64,183.73 52.84,184.33 53.04,185.59 53.24,187.07 53.44,184.18 53.64,185.01 53.84,183.50 54.03,185.03 54.23,185.94 54.43,186.84 54.63,188.13 54.83,188.77 55.03,190.11 55.23,187.25 55.42,187.77 55.62,189.27 55.82,189.67 56.02,190.18 56.22,189.53 56.42,190.06 56.62,191.05 56.82,190.04 57.01,191.53 57.21,192.30 57.41,193.51 57.61,194.98 57.81,195.68 58.01,196.32 58.21,197.16 58.40,196.11 58.60,197.57 58.80,195.65 59.00,192.86 59.20,193.50 59.40,191.19 59.60,189.91 59.79,190.85 59.99,188.02 60.19,188.86 60.39,187.85 60.59,189.12 60.79,186.51 60.99,187.56 61.18,188.43 61.38,189.00 61.58,189.57 61.78,189.95 61.98,187.95 62.18,188.63 62.38,189.06 62.58,187.74 62.77,185.65 62.97,184.28 63.17,183.76 63.37,183.98 63.57,184.43 63.77,183.11 63.97,184.27 64.16,183.33 64.36,184.31 64.56,183.70 64.76,184.75 64.96,183.19 65.16,182.38 65.36,183.54 65.55,184.57 65.75,183.51 65.95,184.11 66.15,182.54 66.35,181.98 66.55,182.74 66.75,181.97 66.95,181.57 67.14,181.93 67.34,180.92 67.54,179.47 67.74,180.10 67.94,180.52 68.14,180.94 68.34,181.35 68.53,180.19 68.73,178.91 68.93,179.58 69.13,180.17 69.33,179.76 69.53,181.31 69.73,181.91 69.92,181.26 70.12,181.79 70.32,180.74 70.52,179.91 70.72,180.55 70.92,179.70 71.12,181.03 71.32,181.60 71.51,182.09 71.71,182.44 71.91,182.75 72.11,181.96 72.31,183.00 72.51,182.54 72.71,183.45 72.90,184.11 73.10,182.77 73.30,182.51 73.50,179.75 73.70,178.26 73.90,176.44 74.10,178.00 74.29,178.61 74.49,179.57 74.69,178.70 74.89,176.92 75.09,177.28 75.29,176.39 75.49,176.64 75.68,176.91 75.88,176.22 76.08,176.49 76.28,176.74 76.48,177.13 76.68,176.50 76.88,176.86 77.08,177.57 77.27,178.05 77.47,179.60 77.67,179.14 77.87,180.06 78.07,181.16 78.27,180.45 78.47,180.79 78.66,180.42 78.86,180.68 79.06,180.03 79.26,179.47 79.46,180.59 79.66,181.65 79.86,179.98 80.05,177.61 80.25,178.24 80.45,179.21 80.65,179.76 80.85,180.95 81.05,179.03 81.25,178.20 81.45,179.45 81.64,180.48 81.84,178.15 82.04,178.72 82.24,178.02 82.44,179.58 82.64,180.72 82.84,181.83 83.03,183.36 83.23,180.78 83.43,177.85 83.63,178.49 83.83,176.72 84.03,173.98 84.23,174.59 84.42,175.16 84.62,175.50 84.82,175.88 85.02,175.39 85.22,175.81 85.42,176.18 85.62,175.55 85.82,175.98 86.01,174.44 86.21,174.96 86.41,175.74 86.61,174.24 86.81,174.78 87.01,175.31 87.21,176.89 87.40,177.93 87.60,179.48 87.80,178.93 88.00,175.96 88.20,176.69 88.40,177.28 88.60,176.32 88.79,176.72 88.99,177.05 89.19,177.96 89.39,177.06 89.59,176.47 89.79,177.03 89.99,176.03 90.18,176.55 90.38,177.09 90.58,177.46 90.78,178.11 90.98,176.84 91.18,177.31 91.38,176.32 91.58,176.72 91.77,177.38 91.97,176.62 92.17,174.02 92.37,175.30 92.57,176.49 92.77,174.35 92.97,175.29 93.16,172.61 93.36,173.70 93.56,170.70 93.76,167.66 93.96,164.71 94.16,162.82 94.36,164.39 94.55,166.03 94.75,167.65 94.95,169.07 95.15,170.66 95.35,167.74 95.55,169.34 95.75,170.64 95.95,171.75 96.14,172.84 96.34,170.74 96.54,171.60 96.74,169.29 96.94,170.48 97.14,168.60 97.34,166.40 97.53,167.08 97.73,167.88 97.93,168.56 98.13,169.26 98.33,170.07 98.53,170.78 98.73,171.59 98.92,173.17 99.12,170.85 99.32,167.81 99.52,164.76 99.72,166.07 99.92,167.66 100.12,169.24 100.32,170.81 100.51,172.36 100.71,169.30 100.91,170.87 101.11,167.81 101.31,169.39 101.51,170.98 101.71,168.00 101.90,169.05 102.10,170.18 102.30,171.76 102.50,172.95 102.70,174.23 102.90,175.41 103.10,176.96 103.29,174.00 103.49,174.99 103.69,175.77 103.89,172.80 104.09,171.27 104.29,172.86 104.49,173.30 104.68,174.35 104.88,172.26 105.08,170.92 105.28,171.62 105.48,173.20 105.68,172.33 105.88,173.93 106.08,174.77 106.27,173.29 106.47,171.78 106.67,170.29 106.87,171.17 107.07,171.75 107.27,172.51 107.47,171.63 107.66,170.81 107.86,171.55 108.06,172.17 108.26,172.77 108.46,173.28 108.66,172.21 108.86,173.15 109.05,172.37 109.25,173.35 109.45,174.78 109.65,175.93 109.85,174.56 110.05,175.37 110.25,175.91 110.45,176.43 110.64,177.38 110.84,178.22 111.04,176.50 111.24,177.05 111.44,176.69 111.64,177.20 111.84,176.52 112.03,175.25 112.23,172.24 112.43,170.67 112.63,171.27 112.83,171.68 113.03,172.59 113.23,173.57 113.42,172.76 113.62,171.43 113.82,171.95 114.02,173.54 114.22,172.34 114.42,173.91 114.62,174.39 114.82,175.22 115.01,175.95 115.21,177.22 115.41,176.32 115.61,176.86 115.81,177.30 116.01,177.79 116.21,178.27 116.40,177.71 116.60,178.19 116.80,177.05 117.00,175.39 117.20,175.83 117.40,175.30 117.60,173.47 117.79,174.18 117.99,175.75 118.19,176.19 118.39,175.72 118.59,176.09 118.79,176.48 118.99,177.27 119.18,176.45 119.38,176.93 119.58,177.67 119.78,176.93 119.98,175.35 120.18,175.92 120.38,176.22 120.58,176.58 120.77,176.21 120.97,176.43 121.17,177.05 121.37,175.79 121.57,176.07 121.77,176.37 121.97,173.97 122.16,174.64 122.36,171.63 122.56,171.96 122.76,170.86 122.96,169.36 123.16,169.67 123.36,171.27 123.55,170.09 123.75,170.66 123.95,171.51 124.15,173.09 124.35,173.42 124.55,173.84 124.75,174.25 124.95,174.72 125.14,175.18 125.34,174.55 125.54,175.13 125.74,175.43 125.94,175.86 126.14,176.77 126.34,175.71 126.53,174.78 126.73,175.18 126.93,173.74 127.13,174.01 127.33,173.68 127.53,173.80 127.73,174.17 127.92,174.55 128.12,173.46 128.32,174.36 128.52,173.87 128.72,174.24 128.92,175.83 129.12,174.69 129.32,175.21 129.51,174.52 129.71,174.75 129.91,174.44 130.11,173.38 130.31,173.69 130.51,174.13 130.71,173.64 130.90,173.43 131.10,171.79 131.30,171.29 131.50,171.53 131.70,168.50 131.90,168.86 132.10,169.39 132.29,168.34 132.49,169.29 132.69,169.62 132.89,170.08 133.09,168.56 133.29,169.12 133.49,169.74 133.68,167.38 133.88,167.84 134.08,168.20 134.28,168.66 134.48,167.56 134.68,167.87 134.88,168.20 135.08,168.45 135.27,169.34 135.47,170.43 135.67,170.67 135.87,169.33 136.07,169.66 136.27,168.60 136.47,167.81 136.66,164.74 136.86,165.68 137.06,167.17 137.26,167.92 137.46,166.80 137.66,168.41 137.86,166.97 138.05,165.03 138.25,164.61 138.45,163.51 138.65,163.76 138.85,161.20 139.05,162.04 139.25,162.33 139.45,162.75 139.64,162.95 139.84,163.45 140.04,163.90 140.24,165.37 140.44,164.24 140.64,165.86 140.84,164.19 141.03,163.73 141.23,164.55 141.43,164.02 141.63,164.97 141.83,162.56 142.03,163.60 142.23,163.90 142.42,162.90 142.62,163.67 142.82,164.73 143.02,163.22 143.22,164.85 143.42,166.20 143.62,167.07 143.82,164.62 144.01,166.22 144.21,167.83 144.41,169.30 144.61,170.03 144.81,170.44 145.01,171.13 145.21,171.45 145.40,170.84 145.60,171.67 145.80,172.51 146.00,173.07 146.20,173.87 146.40,173.34 146.60,171.87 146.79,171.01 146.99,171.66 147.19,170.74 147.39,171.46 147.59,173.05 147.79,172.38 147.99,172.95 148.18,171.55 148.38,172.24 148.58,173.19 148.78,173.63 148.98,170.64 149.18,168.17 149.38,167.86 149.58,168.21 149.77,169.04 149.97,169.23 150.17,168.03 150.37,168.35 150.57,166.21 150.77,166.68 150.97,165.85 151.16,166.26 151.36,166.78 151.56,168.24 151.76,166.70 151.96,167.18 152.16,166.14 152.36,166.26 152.55,165.52 152.75,163.48 152.95,163.99 153.15,164.42 153.35,163.66 153.55,164.10 153.75,164.51 153.95,165.62 154.14,164.78 154.34,166.07 154.54,165.07 154.74,162.29 154.94,160.41 155.14,159.77 155.34,160.43 155.53,161.01 155.73,161.32 155.93,161.57 156.13,162.05 156.33,162.67 156.53,164.29 156.73,161.73 156.92,162.19 157.12,163.51 157.32,164.99 157.52,161.97 157.72,163.30 157.92,163.71 158.12,164.10 158.32,165.03 158.51,164.22 158.71,165.84 158.91,166.74 159.11,167.73 159.31,169.32 159.51,168.22 159.71,165.17 159.90,165.86 160.10,166.32 160.30,167.12 160.50,165.56 160.70,164.42 160.90,164.82 161.10,165.51 161.29,166.15 161.49,166.67 161.69,166.99 161.89,165.78 162.09,166.86 162.29,168.48 162.49,169.27 162.68,170.24 162.88,168.12 163.08,169.22 163.28,169.75 163.48,168.53 163.68,169.74 163.88,170.38 164.08,171.59 164.27,173.17 164.47,171.39 164.67,172.43 164.87,173.49 165.07,174.93 165.27,176.51 165.47,177.35 165.66,178.89 165.86,180.14 166.06,180.95 166.26,182.04 166.46,183.24 166.66,181.39 166.86,182.89 167.05,184.34 167.25,185.86 167.45,184.20 167.65,185.16 167.85,183.54 168.05,184.71 168.25,186.21 168.45,183.74 168.64,180.81 168.84,181.91 169.04,183.30 169.24,184.19 169.44,182.23 169.64,183.41 169.84,184.27 170.03,185.22 170.23,184.28 170.43,184.53 170.63,185.09 170.83,185.47 171.03,186.59 171.23,185.89 171.42,186.54 171.62,186.88 171.82,187.96 172.02,171.85 172.22,172.20 172.42,171.45 172.62,172.72 172.82,173.98 173.01,175.53 173.21,176.58 173.41,177.43 173.61,176.79 173.81,178.36 174.01,179.46 174.21,179.95 174.40,180.94 174.60,180.17 174.80,181.16 175.00,182.23 175.20,183.27 175.40,183.96 175.60,185.35 175.79,186.41 175.99,187.92 176.19,188.70 176.39,189.34 176.59,190.32 176.79,191.78 176.99,193.02 177.18,193.72 177.38,194.35 177.58,193.45 177.78,194.26 177.98,195.03 178.18,193.01 178.38,194.47 178.58,192.97 178.77,193.73 178.97,194.38 179.17,194.99 179.37,195.31 179.57,195.75 179.77,196.39 179.97,197.15 180.16,198.61 180.36,197.63 180.56,197.08 180.76,196.52 180.96,196.09 181.16,196.45 181.36,196.73 181.55,197.47 181.75,195.67 181.95,196.15 182.15,197.28 182.35,197.61 182.55,198.04 182.75,199.32 182.95,197.74 183.14,198.12 183.34,198.88 183.54,199.25 183.74,200.68 183.94,201.31 184.14,202.38 184.34,200.45 184.53,201.88 184.73,202.99 184.93,204.42 185.13,204.81 185.33,205.65 185.53,204.41 185.73,205.22 185.92,204.69 186.12,205.48 186.32,205.94 186.52,206.41 186.72,207.82 186.92,208.31 187.12,209.35 187.32,209.76 187.51,208.42 187.71,207.22 187.91,207.60 188.11,208.19 188.31,209.47 188.51,208.22 188.71,209.59 188.90,210.43 189.10,211.14 189.30,211.94 189.50,212.78 189.70,213.92 189.90,214.39 190.10,214.97 190.29,212.37 190.49,213.02 190.69,213.89 190.89,214.39 191.09,214.84 191.29,215.28 191.49,214.52 191.68,214.97 191.88,215.82 192.08,216.81 192.28,215.66 192.48,213.40 192.68,214.14 192.88,215.26 193.08,216.06 193.27,216.50 193.47,217.87 193.67,219.21 193.87,217.54 194.07,218.89 194.27,218.08 194.47,216.49 194.66,217.15 194.86,217.85 195.06,219.17 195.26,220.52 195.46,221.44 195.66,218.91 195.86,220.13 196.05,221.11 196.25,219.75 196.45,217.20 196.65,215.54 196.85,216.58 197.05,213.97 197.25,211.35 197.45,212.13 197.64,210.60 197.84,211.98 198.04,213.15 198.24,214.28 198.44,215.65 198.64,216.12 198.84,217.48 199.03,214.88 199.23,215.58 199.43,212.99 199.63,213.68 199.83,214.32 200.03,213.62 200.23,214.36 200.42,212.22 200.62,212.75 200.82,213.28 201.02,214.32 201.22,215.32 201.42,216.69 201.62,215.37 201.82,216.27 202.01,213.73 202.21,214.52 202.41,213.18 202.61,214.54 202.81,215.83 203.01,213.22 203.21,213.90 203.40,215.26 203.60,216.25 203.80,213.65 204.00,212.14 204.20,210.14 204.40,211.52 204.60,210.22 204.79,211.62 204.99,209.59 205.19,210.84 205.39,211.80 205.59,212.62 205.79,210.24 205.99,210.75 206.18,209.11 206.38,209.83 206.58,207.94 206.78,208.64 206.98,205.98 207.18,204.72 207.38,205.03 207.58,205.79 207.77,206.54 207.97,207.95 208.17,208.34 208.37,209.39 208.57,209.93 208.77,207.28 208.97,205.91 209.16,204.82 209.36,206.06 209.56,203.85 209.76,205.26 209.96,206.11 210.16,207.37 210.36,205.85 210.55,206.39 210.75,207.33 210.95,208.14 211.15,209.55 211.35,210.49 211.55,211.48 211.75,211.95 211.95,212.33 212.14,211.27 212.34,211.91 212.54,209.86 212.74,210.36 212.94,211.21 213.14,212.46 213.34,212.98 213.53,213.38 213.73,214.25 213.93,212.45 214.13,210.39 214.33,209.63 214.53,208.73 214.73,207.03 214.92,208.34 215.12,208.99 215.32,206.83 215.52,207.76 215.72,208.64 215.92,207.25 216.12,208.19 216.32,209.33 216.51,209.96 216.71,210.57 216.91,211.22 217.11,211.69 217.31,212.27 217.51,211.68 217.71,212.51 217.90,211.15 218.10,212.37 218.30,213.28 218.50,214.41 218.70,215.21 218.90,213.50 219.10,213.17 219.29,214.45 219.49,212.85 219.69,210.22 219.89,211.59 220.09,212.35 220.29,210.89 220.49,212.26 220.68,212.61 220.88,213.23 221.08,213.84 221.28,214.23 221.48,214.58 221.68,213.79 221.88,214.58 222.08,213.76 222.27,214.14 222.47,214.58 222.67,215.15 222.87,215.82 223.07,215.02 223.27,215.28 223.47,216.49 223.66,217.21 223.86,214.61 224.06,214.88 224.26,215.54 224.46,216.88 224.66,215.95 224.86,216.35 225.05,215.92 225.25,216.50 225.45,217.48 225.65,217.87 225.85,219.10 226.05,220.25 226.25,218.79 226.45,216.23 226.64,216.88 226.84,217.33 227.04,215.60 227.24,216.96 227.44,215.18 227.64,214.38 227.84,215.71 228.03,216.78 228.23,214.62 228.43,215.74 228.63,216.39 228.83,215.65 229.03,216.64 229.23,217.87 229.42,218.97 229.62,220.31 229.82,221.62 230.02,219.10 230.22,216.53 230.42,217.20 230.62,218.20 230.82,218.84 231.01,217.37 231.21,217.97 231.41,218.77 231.61,219.41 231.81,219.90 232.01,220.23 232.21,220.68 232.40,218.73 232.60,219.37 232.80,220.41 233.00,221.75 233.20,222.33 233.40,223.04 233.60,224.35 233.79,222.72 233.99,221.24 234.19,218.68 234.39,219.39 234.59,218.40 234.79,218.92 234.99,219.29 235.18,220.37 235.38,221.35 235.58,222.67 235.78,223.01 235.98,224.33 236.18,223.71 236.38,224.39 236.58,224.93 236.77,225.35 236.97,226.30 237.17,225.01 237.37,225.84 237.57,226.25 237.77,227.20 237.97,226.51 238.16,225.73 238.36,223.24 238.56,224.41 238.76,223.22 238.96,224.54 239.16,225.83 239.36,223.33 239.55,220.82 239.75,222.16 239.95,219.62 240.15,217.07 240.35,218.40 240.55,219.74 240.75,217.17 240.95,218.52 241.14,219.87 241.34,221.20 241.54,222.51 241.74,220.98 241.94,222.29 242.14,219.82 242.34,221.04 242.53,221.77 242.73,220.32 242.93,218.30 243.13,219.32 243.33,217.26 243.53,214.69 243.73,215.84 243.92,213.79 244.12,214.36 244.32,213.45 244.52,213.99 244.72,214.70 244.92,213.06 245.12,213.68 245.32,214.65 245.51,215.91 245.71,213.31 245.91,210.70 246.11,212.07 246.31,213.32 246.51,214.66 246.71,216.01 246.90,217.34 247.10,218.67 247.30,220.00 247.50,221.31 247.70,222.61 247.90,220.06 248.10,221.38 248.29,222.70 248.49,220.19 248.69,217.65 248.89,218.42 249.09,219.36 249.29,220.68 249.49,219.50 249.68,220.59 249.88,221.93 250.08,219.40 250.28,220.36 250.48,221.13 250.68,222.22 250.88,223.40 251.08,224.72 251.27,225.45 251.47,226.73 251.67,227.56 251.87,228.27 252.07,226.76 252.27,225.88 252.47,224.96 252.66,226.27 252.86,227.02 253.06,227.74 253.26,225.81 253.46,226.18 253.66,224.88 253.86,225.62 254.05,226.16 254.25,226.63 254.45,227.48 254.65,228.48 254.85,227.28 255.05,228.51 255.25,228.96 255.45,230.00 255.64,229.00 255.84,228.06 256.04,229.35 256.24,228.16 256.44,226.90 256.64,227.61 256.84,226.79 257.03,227.11 257.23,228.36 257.43,229.05 257.63,226.60 257.83,227.75 258.03,228.28 258.23,227.40 258.42,227.97 258.62,228.30 258.82,226.88 259.02,224.38 259.22,224.90 259.42,225.26 259.62,224.72 259.82,223.23 260.01,224.11 260.21,223.45 260.41,222.37 260.61,221.36 260.81,221.79 261.01,222.64 261.21,221.62 261.40,222.95 261.60,224.06 261.80,224.68 262.00,225.35 262.20,225.75 262.40,226.12 262.60,226.69 262.79,227.02 262.99,226.28 263.19,224.34 263.39,223.85 263.59,225.17 263.79,224.49 263.99,224.83 264.18,225.37 264.38,223.67 264.58,224.33 264.78,224.67 264.98,225.80 265.18,226.22 265.38,227.04 265.58,226.38 265.77,226.72 265.97,225.16 266.17,225.98 266.37,226.32 266.57,226.85 266.77,227.13 266.97,226.81 267.16,224.39 267.36,224.95 267.56,223.98 267.76,224.28 267.96,224.69 268.16,224.35 268.36,224.82 268.55,225.28 268.75,224.80 268.95,225.24 269.15,226.01 269.35,226.27 269.55,226.78 269.75,224.28 269.95,224.57 270.14,225.90 270.34,226.58 270.54,226.96 270.74,225.53 270.94,226.12 271.14,225.87 271.34,224.60 271.53,225.91 271.73,226.22 271.93,226.66 272.13,225.40 272.33,224.60 272.53,225.45 272.73,224.11 272.92,221.60 273.12,222.33 273.32,219.80 273.52,220.27 273.72,219.04 273.92,217.78 274.12,217.17 274.32,216.80 274.51,214.38 274.71,214.76 274.91,215.24 275.11,216.60 275.31,216.89 275.51,217.43 275.71,216.01 275.90,214.63 276.10,215.82 276.30,215.12 276.50,215.44 276.70,216.79 276.90,216.01 277.10,216.47 277.29,215.11 277.49,215.27 277.69,214.59 277.89,212.93 278.09,213.24 278.29,213.69 278.49,214.07 278.68,214.39 278.88,213.55 279.08,213.79 279.28,214.12 279.48,214.71 279.68,213.35 279.88,213.58 280.08,213.00 280.27,213.41 280.47,213.83 280.67,214.83 280.87,216.18 281.07,216.67 281.27,215.58 281.47,216.18 281.66,217.24 281.86,217.72 282.06,218.01 282.26,217.47 282.46,218.82 282.66,219.00 282.86,218.02 283.05,218.41 283.25,218.85 283.45,219.55 283.65,220.01 283.85,217.45 284.05,218.38 284.25,219.73 284.45,218.94 284.64,218.20 284.84,216.99 285.04,217.80 285.24,219.14 285.44,217.23 285.64,216.66 285.84,215.61 286.03,214.28 286.23,211.68 286.43,212.54 286.63,212.15 286.83,212.42 287.03,211.14 287.23,211.56 287.42,212.64 287.62,214.00 287.82,212.53 288.02,212.02 288.22,212.89 288.42,212.40 288.62,213.43 288.82,210.82 289.01,212.21 289.21,213.59 289.41,214.11 289.61,214.97 289.81,215.76 290.01,213.91 290.21,215.27 290.40,212.73 290.60,214.01 290.80,215.00 291.00,212.40 291.20,213.75 291.40,215.12 291.60,216.48 291.79,216.82 291.99,214.24 292.19,213.51 292.39,214.20 292.59,214.75 292.79,212.15 292.99,211.52 293.18,209.96 293.38,208.87 293.58,209.31 293.78,208.41 293.98,208.88 294.18,208.44 294.38,208.92 294.58,209.22 294.77,206.54 294.97,205.65 295.17,207.06 295.37,207.64 295.57,209.04 295.77,210.28 295.97,211.31 296.16,211.72 296.36,213.11 296.56,213.82 296.76,214.08 296.96,214.40 297.16,214.70 297.36,214.98 297.55,213.57 297.75,213.89 297.95,214.48 298.15,214.94 298.35,215.31 298.55,215.91 298.75,217.25 298.95,215.43 299.14,214.51 299.34,213.52 299.54,214.00 299.74,213.57 299.94,211.90 300.14,211.09 300.34,211.59 300.53,210.74 300.73,211.11 300.93,211.70 301.13,212.86 301.33,214.22 301.53,214.91 301.73,216.22 301.92,214.85 302.12,213.13 302.32,214.50 302.52,213.95 302.72,214.58 302.92,213.68 303.12,214.16 303.32,211.66 303.51,212.10 303.71,212.78 303.91,210.79 304.11,208.15 304.31,209.56 304.51,209.05 304.71,210.35 304.90,211.74 305.10,213.12 305.30,213.58 305.50,212.88 305.70,213.54 305.90,214.91 306.10,213.25 306.29,214.15 306.49,215.50 306.69,216.34 306.89,217.17 307.09,217.67 307.29,218.62 307.49,219.62 307.68,220.25 307.88,218.32 308.08,217.57 308.28,216.31 308.48,216.84 308.68,217.03 308.88,218.01 309.08,219.35 309.27,220.10 309.47,221.42 309.67,219.45 309.87,220.29 310.07,220.66 310.27,221.99 310.47,220.50 310.66,221.66 310.86,219.11 311.06,220.45 311.26,218.80 311.46,219.96 311.66,220.57 311.86,221.16 312.05,218.62 312.25,219.54 312.45,220.25 312.65,220.62 312.85,221.44 313.05,221.83 313.25,222.31 313.45,223.17 313.64,221.38 313.84,222.05 314.04,223.34 314.24,224.58 314.44,225.89 314.64,224.24 314.84,222.26 315.03,220.67 315.23,221.57 315.43,222.11 315.63,219.74 315.83,218.91 316.03,216.33 316.23,217.56 316.42,218.91 316.62,220.00 316.82,221.00 317.02,219.76 317.22,218.25 317.42,219.17 317.62,218.04 317.82,217.72 318.01,218.34 318.21,218.72 318.41,220.06 318.61,220.89 318.81,221.64 319.01,222.14 319.21,222.39 319.40,223.50 319.60,171.85 319.80,168.84 320.00,170.43 320.20,167.63 320.40,165.78 320.60,167.41 320.79,168.99 320.99,166.50 321.19,167.97 321.39,169.22 321.59,170.27 321.79,167.19 321.99,168.65 322.18,169.97 322.38,171.54 322.58,168.51 322.78,170.09 322.98,167.04 323.18,163.96 323.38,160.83 323.58,162.45 323.77,164.05 323.97,165.67 324.17,167.26 324.37,164.15 324.57,165.76 324.77,167.39 324.97,164.29 325.16,165.88 325.36,162.76 325.56,164.38 325.76,161.27 325.96,162.89 326.16,164.51 326.36,161.40 326.55,163.01 326.75,164.65 326.95,166.22 327.15,167.45 327.35,164.39 327.55,162.15 327.75,163.78 327.95,165.38 328.14,167.00 328.34,168.58 328.54,169.41 328.74,166.34 328.94,167.65 329.14,169.25 329.34,170.34 329.53,171.95 329.73,168.91 329.93,166.94 330.13,168.30 330.33,169.87 330.53,167.95 330.73,164.86 330.92,166.48 331.12,168.10 331.32,165.02 331.52,166.61 331.72,164.67 331.92,166.04 332.12,167.63 332.32,168.99 332.51,170.60 332.71,172.18 332.91,169.12 333.11,170.70 333.31,167.84 333.51,169.44 333.71,167.30 333.90,164.21 334.10,165.80 334.30,167.40 334.50,169.01 334.70,170.58 334.90,172.17 335.10,169.98 335.29,171.57 335.49,173.15 335.69,170.12 335.89,171.68 336.09,168.63 336.29,170.21 336.49,167.13 336.68,168.74 336.88,170.31 337.08,167.27 337.28,168.88 337.48,165.81 337.68,162.72 337.88,164.35 338.08,165.95 338.27,167.56 338.47,169.14 338.67,170.73 338.87,172.10 339.07,173.65 339.27,175.20 339.47,176.75 339.66,173.77 339.86,175.33 340.06,172.33 340.26,173.91 340.46,170.92 340.66,172.47 340.86,174.02 341.05,171.01 341.25,172.57 341.45,169.54 341.65,171.14 341.85,172.68 342.05,174.23 342.25,171.22 342.45,168.16 342.64,169.75 342.84,166.68 343.04,168.27 343.24,169.85 343.44,171.40 343.64,172.97 343.84,174.52 344.03,176.06 344.23,173.06 344.43,174.60 344.63,176.16 344.83,177.69 345.03,179.23 345.23,180.74 345.42,178.29 345.62,179.85 345.82,181.39 346.02,182.90 346.22,183.95 346.42,181.03 346.62,179.63 346.82,181.16 347.01,182.01 347.21,183.55 347.41,180.63 347.61,177.66 347.81,179.20 348.01,180.74 348.21,182.01 348.40,183.51 348.60,180.61 348.80,182.16 349.00,183.69 349.20,185.20 349.40,186.69 349.60,183.88 349.79,185.39 349.99,186.87 350.19,183.98 350.39,181.05 350.59,182.58 350.79,179.64 350.99,181.19 351.18,182.69 351.38,184.18 351.58,185.68 351.78,182.78 351.98,184.31 352.18,185.82 352.38,187.35 352.58,188.85 352.77,190.32 352.97,191.81 353.17,193.29 353.37,194.39 353.57,195.86 353.77,193.17 353.97,194.63 354.16,192.41 354.36,189.60 354.56,186.72 354.76,184.08 354.96,185.59 355.16,187.09 355.36,184.58 355.55,186.07 355.75,183.16 355.95,184.69 356.15,181.80 356.35,182.81 356.55,184.32 356.75,185.84 356.95,187.32 357.14,188.60 357.34,190.02 357.54,187.17 357.74,187.88 357.94,186.40 358.14,187.16 358.34,185.53 358.53,182.62 358.73,179.69 358.93,181.25 359.13,178.32 359.33,175.34 359.53,176.02 359.73,177.57 359.92,178.92 360.12,180.34 360.32,181.85 360.52,178.92 360.72,180.36 360.92,177.71 361.12,179.25 361.32,176.96 361.51,178.07 361.71,179.40 361.91,176.62 362.11,178.17 362.31,179.71 362.51,176.76 362.71,174.54 362.90,176.07 363.10,177.04 363.30,178.40 363.50,179.94 363.70,181.05 363.90,181.97 364.10,180.11 364.29,181.66 364.49,183.19 364.69,184.70 364.89,186.23 365.09,187.72 365.29,189.22 365.49,190.71 365.68,189.25 365.88,190.75 366.08,192.24 366.28,193.71 366.48,190.86 366.68,188.00 366.88,188.65 367.08,190.14 367.27,191.60 367.47,188.77 367.67,189.82 367.87,187.44 368.07,184.56 368.27,185.73 368.47,183.05 368.66,184.57 368.86,185.28 369.06,186.67 369.26,183.76 369.46,185.12 369.66,186.44 369.86,183.56 370.05,184.59 370.25,186.11 370.45,187.33 370.65,184.46 370.85,181.55 371.05,183.07 371.25,180.14 371.45,181.65 371.64,178.72 371.84,180.27 372.04,177.29 372.24,178.76 372.44,177.33 372.64,178.87 372.84,177.04 373.03,178.58 373.23,179.65 373.43,176.71 373.63,178.26 373.83,175.27 374.03,176.81 374.23,178.37 374.42,175.42 374.62,176.98 374.82,178.54 375.02,180.06 375.22,181.58 375.42,183.08 375.62,180.15 375.82,177.21 376.01,178.77 376.21,175.81 376.41,176.91 376.61,178.45 376.81,179.58 377.01,181.10 377.21,182.64 377.40,183.83 377.60,180.93 377.80,182.17 378.00,183.71 378.20,185.19 378.40,182.27 378.60,183.80 378.79,185.31 378.99,182.39 379.19,179.44 379.39,176.46 379.59,173.48 379.79,175.06 379.99,172.06 380.18,173.61 380.38,170.61 380.58,171.43 380.78,168.66 380.98,170.26 381.18,167.22 381.38,168.81 381.58,165.72 381.77,167.34 381.97,168.94 382.17,167.27 382.37,168.27 382.57,169.86 382.77,171.42 382.97,169.65 383.16,171.23 383.36,168.17 383.56,165.10 383.76,166.67 383.96,163.58 384.16,165.18 384.36,166.78 384.55,163.67 384.75,160.54 384.95,162.16 385.15,159.03 385.35,160.67 385.55,157.50 385.75,159.13 385.95,160.76 386.14,157.60 386.34,159.23 386.54,160.84 386.74,157.71 386.94,159.34 387.14,156.16 387.34,157.81 387.53,154.66 387.73,151.45 387.93,148.20 388.13,149.88 388.33,151.57 388.53,153.22 388.73,154.91 388.92,151.70 389.12,153.35 389.32,150.93 389.52,149.45 389.72,150.63 389.92,152.31 390.12,149.07 390.32,150.76 390.51,147.52 390.71,149.22 390.91,150.91 391.11,152.57 391.31,154.23 391.51,155.88 391.71,157.50 391.90,159.13 392.10,160.74 392.30,162.34 392.50,163.94 392.70,165.53 392.90,162.40 393.10,163.99 393.29,165.58 393.49,167.18 393.69,164.10 393.89,160.99 394.09,157.85 394.29,159.48 394.49,156.31 394.68,157.95 394.88,159.42 395.08,156.28 395.28,157.95 395.48,154.76 395.68,155.86 395.88,152.65 396.08,154.34 396.27,155.99 396.47,157.67 396.67,159.30 396.87,160.91 397.07,157.89 397.27,159.25 397.47,157.19 397.66,158.83 397.86,160.46 398.06,158.84 398.26,160.47 398.46,161.46 398.66,159.02 398.86,159.57 399.05,160.54 399.25,162.16 399.45,159.05 399.65,155.90 399.85,152.71 400.05,150.23 400.25,151.90 400.45,152.80 400.64,149.59 400.84,150.37 401.04,148.42 401.24,150.12 401.44,146.88 401.64,148.50 401.84,145.25 402.03,143.13 402.23,144.34 402.43,141.83 402.63,138.52 402.83,135.15 403.03,136.90 403.23,133.50 403.42,135.27 403.62,136.41 403.82,138.19 404.02,139.65 404.22,136.85 404.42,138.59 404.62,135.22 404.82,137.00 405.01,138.73 405.21,140.49 405.41,138.37 405.61,140.12 405.81,141.74 406.01,143.45 406.21,141.43 406.40,139.80 406.60,141.23 406.80,142.96 407.00,141.31 407.20,143.03 407.40,144.76 407.60,145.64 407.79,146.63 407.99,148.33 408.19,149.54 408.39,151.23 408.59,152.57 408.79,149.34 408.99,150.97 409.18,152.66 409.38,149.43 409.58,146.18 409.78,147.88 409.98,144.62 410.18,145.56 410.38,146.87 410.58,145.63 410.77,144.28 410.97,140.99 411.17,137.64 411.37,134.25 411.57,132.82 411.77,134.27 411.97,136.04 412.16,136.80 412.36,137.71 412.56,138.85 412.76,137.95 412.96,139.58 413.16,136.20 413.36,133.76 413.55,135.04 413.75,136.46 413.95,134.69 414.15,135.93 414.35,137.68 414.55,138.80 414.75,140.56 414.95,138.14 415.14,139.87 415.34,141.28 415.54,137.95 415.74,138.69 415.94,135.33 416.14,131.93 416.34,133.70 416.53,130.29 416.73,126.87 416.93,128.66 417.13,126.76 417.33,128.59 417.53,129.50 417.73,126.10 417.92,127.91 418.12,129.13 418.32,130.81 418.52,131.96 418.72,133.25 418.92,132.64 419.12,134.42 419.32,136.20 419.51,137.94 419.71,139.47 419.91,141.23 420.11,139.00 420.31,136.33 420.51,138.07 420.71,137.22 420.90,138.09 421.10,139.82 421.30,136.48 421.50,138.15 421.70,134.79 421.90,136.55 422.10,134.45 422.29,131.35 422.49,132.43 422.69,134.18 422.89,135.40 423.09,132.91 423.29,134.52 423.49,136.29 423.68,132.92 423.88,134.58 424.08,132.77 424.28,129.36 424.48,130.13 424.68,130.83 424.88,128.34 425.08,129.77 425.27,131.56 425.47,130.07 425.67,128.44 425.87,125.22 426.07,126.68 426.27,128.49 426.47,130.26 426.66,126.82 426.86,125.23 427.06,126.48 427.26,128.01 427.46,124.99 427.66,126.80 427.86,125.12 428.05,121.64 428.25,122.52 428.45,119.87 428.65,116.33 428.85,112.76 429.05,109.14 429.25,105.46 429.45,106.66 429.64,103.23 429.84,104.61 430.04,106.54 430.24,108.43 430.44,110.07 430.64,106.43 430.84,108.36 431.03,104.68 431.23,100.97 431.43,97.23 431.63,94.31 431.83,96.02 432.03,97.98 432.23,99.12 432.42,95.37 432.62,97.36 432.82,98.49 433.02,99.28 433.22,101.21 433.42,103.07 433.62,99.35 433.82,101.04 434.01,97.33 434.21,98.51 434.41,100.48 434.61,102.43 434.81,98.72 435.01,100.65 435.21,96.89 435.40,93.08 435.60,94.86 435.80,96.83 436.00,98.80 436.20,100.78 436.40,102.68 436.60,104.62 436.79,106.51 436.99,108.45 437.19,110.36 437.39,112.24 437.59,114.13 437.79,115.97 437.99,117.80 438.18,114.20 438.38,116.06 438.58,117.93 438.78,119.80 438.98,120.84 439.18,117.27 439.38,119.15 439.58,120.65 439.77,122.48 439.97,123.93 440.17,120.44 440.37,122.04 440.57,123.78 440.77,121.12 440.97,122.96 441.16,124.42 441.36,122.05 441.56,118.54 441.76,120.39 441.96,122.21 442.16,124.03 442.36,125.63 442.55,127.45 442.75,124.00 442.95,120.95 443.15,117.43 443.35,119.22 443.55,120.80 443.75,121.44 443.95,122.43 444.14,118.92 444.34,115.37 444.54,117.24 444.74,117.81 444.94,119.64 445.14,117.04 445.34,118.87 445.53,115.32 445.73,111.79 445.93,108.19 446.13,105.24 446.33,101.55 446.53,103.51 446.73,105.44 446.92,102.34 447.12,100.84 447.32,98.95 447.52,100.79 447.72,102.75 447.92,104.65 448.12,106.01 448.32,107.48 448.51,103.80 448.71,100.11 448.91,102.04 449.11,99.54 449.31,100.68 449.51,102.63 449.71,98.94 449.90,97.55 450.10,99.51 450.30,101.09 450.50,102.31 450.70,98.57 450.90,100.52 451.10,97.68 451.29,99.65 451.49,101.58 451.69,103.50 451.89,99.78 452.09,96.05 452.29,92.23 452.49,93.28 452.68,94.67 452.88,96.04 453.08,97.87 453.28,99.80 453.48,100.66 453.68,96.90 453.88,98.88 454.08,100.83 454.27,102.75 454.47,104.51 454.67,102.43 454.87,104.36 455.07,106.28 455.27,107.24 455.47,109.15 455.66,106.49 455.86,104.12 456.06,106.07 456.26,108.00 456.46,109.68 456.66,106.15 456.86,102.46 457.05,104.40 457.25,106.31 457.45,108.22 457.65,110.11 457.85,106.47 458.05,102.78 458.25,104.72 458.45,106.65 458.64,108.59 458.84,110.50 459.04,107.35 459.24,108.75 459.44,110.67 459.64,112.52 459.84,114.02 460.03,115.89 460.23,117.74 460.43,119.59 460.63,121.40 460.83,123.20 461.03,124.84 461.23,126.59 461.42,123.11 461.62,124.93 461.82,126.74 462.02,128.55 462.22,130.22 462.42,128.26 462.62,130.07 462.82,126.63 463.01,128.43 463.21,129.47 463.41,130.60 463.61,131.50 463.81,133.28 464.01,129.85 464.21,129.02 464.40,129.78 464.60,126.35 464.80,127.92 465.00,129.73 465.20,131.53 465.40,130.12 465.60,130.48 465.79,171.85 465.99,173.40 466.19,170.38 466.39,171.97 466.59,168.93 466.79,170.50 466.99,172.05 467.18,168.99 467.38,170.60 467.58,172.20 467.78,173.75 467.98,170.71 468.18,172.30 468.38,173.87 468.58,175.41 468.77,176.97 468.97,173.99 469.17,175.57 469.37,177.11 469.57,174.13 469.77,175.71 469.97,177.25 470.16,174.23 470.36,171.20 470.56,172.76 470.76,174.31 470.96,171.63 471.16,168.57 471.36,170.15 471.55,171.73 471.75,168.67 471.95,170.27 472.15,171.83 472.35,173.03 472.55,170.02 472.75,171.59 472.95,172.82 473.14,174.41 473.34,175.49 473.54,176.60 473.74,177.95 473.94,175.05 474.14,176.60 474.34,178.12 474.53,176.21 474.73,173.20 474.93,174.22 475.13,175.80 475.33,177.31 475.53,178.54 475.73,175.54 475.92,172.57 476.12,169.81 476.32,171.01 476.52,172.60 476.72,174.18 476.92,175.75 477.12,172.76 477.32,169.72 477.51,170.95 477.71,167.92 477.91,169.07 478.11,166.00 478.31,162.90 478.51,164.31 478.71,165.93 478.90,162.87 479.10,164.50 479.30,166.11 479.50,167.72 479.70,169.32 479.90,166.24 480.10,163.16 480.29,164.77 480.49,161.69 480.69,163.32 480.89,160.20 481.09,157.40 481.29,159.04 481.49,160.70 481.68,162.32 481.88,163.93 482.08,165.29 482.28,162.19 482.48,159.06 482.68,160.70 482.88,162.32 483.08,159.18 483.27,156.01 483.47,157.65 483.67,154.46 483.87,156.12 484.07,157.76 484.27,154.56 484.47,156.23 484.66,153.03 484.86,154.70 485.06,156.35 485.26,157.99 485.46,159.62 485.66,156.46 485.86,158.11 486.05,159.76 486.25,161.41 486.45,163.04 486.65,164.63 486.85,161.52 487.05,158.37 487.25,155.21 487.45,152.00 487.64,148.76 487.84,150.33 488.04,147.08 488.24,148.77 488.44,150.46 488.64,147.22 488.84,143.93 489.03,145.65 489.23,147.35 489.43,149.03 489.63,145.78 489.83,147.47 490.03,144.81 490.23,141.50 490.42,143.09 490.62,144.80 490.82,145.56 491.02,147.26 491.22,148.80 491.42,150.48 491.62,152.16 491.82,153.83 492.01,155.23 492.21,156.91 492.41,158.55 492.61,160.18 492.81,157.02 493.01,158.69 493.21,160.33 493.40,157.16 493.60,153.98 493.80,151.14 494.00,152.22 494.20,153.91 494.40,155.55 494.60,152.74 494.79,154.40 494.99,155.89 495.19,152.71 495.39,149.47 495.59,151.16 495.79,152.84 495.99,154.51 496.18,151.30 496.38,148.07 496.58,149.75 496.78,146.48 496.98,148.16 497.18,149.88 497.38,151.55 497.58,153.01 497.77,154.68 497.97,156.34 498.17,153.15 498.37,149.94 498.57,146.69 498.77,143.38 498.97,140.74 499.16,137.38 499.36,135.21 499.56,136.98 499.76,138.71 499.96,135.37 500.16,137.13 500.36,133.77 500.55,135.52 500.75,137.25 500.95,139.03 501.15,135.65 501.35,137.41 501.55,139.15 501.75,140.87 501.95,142.55 502.14,139.24 502.34,135.86 502.54,137.08 502.74,138.81 502.94,139.98 503.14,136.61 503.34,133.23 503.53,135.00 503.73,135.92 503.93,137.70 504.13,139.43 504.33,140.37 504.53,137.78 504.73,138.69 504.92,140.43 505.12,141.46 505.32,143.16 505.52,144.91 505.72,141.95 505.92,143.70 506.12,140.35 506.32,142.06 506.51,143.80 506.71,140.48 506.91,142.20 507.11,143.53 507.31,140.21 507.51,141.94 507.71,143.67 507.90,145.39 508.10,142.09 508.30,143.79 508.50,145.34 508.70,146.53 508.90,148.25 509.10,149.94 509.29,151.61 509.49,148.34 509.69,150.01 509.89,151.68 510.09,153.33 510.29,154.99 510.49,156.63 510.68,158.28 510.88,155.10 511.08,151.89 511.28,148.64 511.48,150.33 511.68,147.07 511.88,148.74 512.08,145.50 512.27,147.21 512.47,143.92 512.67,145.65 512.87,142.58 513.07,143.85 513.27,145.59 513.47,147.29 513.66,144.00 513.86,145.25 514.06,146.96 514.26,148.64 514.46,145.36 514.66,147.07 514.86,148.74 515.05,145.47 515.25,142.19 515.45,143.92 515.65,145.61 515.85,147.31 516.05,144.02 516.25,145.75 516.45,147.45 516.64,149.13 516.84,150.79 517.04,152.44 517.24,149.19 517.44,150.87 517.64,148.57 517.84,145.27 518.03,146.97 518.23,148.65 518.43,150.35 518.63,152.03 518.83,153.68 519.03,155.34 519.23,156.98 519.42,153.78 519.62,150.56 519.82,152.25 520.02,149.02 520.22,150.69 520.42,152.36 520.62,149.13 520.82,145.87 521.01,147.58 521.21,144.28 521.41,145.99 521.61,147.67 521.81,149.37 522.01,151.07 522.21,147.84 522.40,144.54 522.60,146.28 522.80,148.00 523.00,144.90 523.20,141.62 523.40,143.17 523.60,144.89 523.79,141.58 523.99,143.32 524.19,139.98 524.39,141.70 524.59,143.43 524.79,140.12 524.99,141.84 525.18,143.58 525.38,144.84 525.58,141.55 525.78,143.27 525.98,144.99 526.18,146.73 526.38,148.42 526.58,150.10 526.77,146.87 526.97,143.59 527.17,145.28 527.37,141.99 527.57,143.70 527.77,140.38 527.97,137.16 528.16,138.90 528.36,140.65 528.56,142.38 528.76,144.09 528.96,145.78 529.16,147.46 529.36,149.17 529.55,145.91 529.75,147.59 529.95,144.29 530.15,140.97 530.35,142.68 530.55,144.39 530.75,141.06 530.95,137.70 531.14,139.43 531.34,141.15 531.54,142.86 531.74,144.56 531.94,146.24 532.14,142.92 532.34,144.62 532.53,146.31 532.73,143.01 532.93,139.67 533.13,141.40 533.33,143.11 533.53,139.79 533.73,136.43 533.92,138.18 534.12,139.92 534.32,136.56 534.52,133.16 534.72,134.92 534.92,136.67 535.12,138.41 535.32,140.17 535.51,141.89 535.71,138.53 535.91,140.26 536.11,136.88 536.31,138.64 536.51,140.36 536.71,137.01 536.90,138.75 537.10,135.37 537.30,137.12 537.50,138.88 537.70,135.51 537.90,137.24 538.10,138.97 538.29,135.58 538.49,137.32 538.69,133.91 538.89,130.46 539.09,126.99 539.29,123.49 539.49,119.96 539.68,116.39 539.88,118.26 540.08,120.10 540.28,121.92 540.48,123.73 540.68,125.54 540.88,122.05 541.08,123.86 541.27,120.36 541.47,122.19 541.67,124.01 541.87,125.81 542.07,122.30 542.27,124.10 542.47,125.93 542.66,122.42 542.86,124.23 543.06,126.03 543.26,127.85 543.46,124.39 543.66,126.20 543.86,123.51 544.05,120.00 544.25,121.84 544.45,123.25 544.65,125.06 544.85,121.55 545.05,123.19 545.25,124.99 545.45,126.81 545.64,128.60 545.84,130.40 546.04,132.19 546.24,133.96 546.44,135.51 546.64,132.10 546.84,133.85 547.03,135.62 547.23,137.38 547.43,139.13 547.63,135.79 547.83,132.40 548.03,134.19 548.23,135.94 548.42,137.33 548.62,139.05 548.82,140.80 549.02,142.52 549.22,139.18 549.42,135.83 549.62,137.59 549.82,134.69 550.01,131.25 550.21,132.81 550.41,129.38 550.61,131.16 550.81,127.71 551.01,129.52 551.21,131.32 551.40,133.11 551.60,134.87 551.80,131.45 552.00,133.22 552.20,129.80 552.40,131.59 552.60,128.15 552.79,129.93 552.99,131.57 553.19,128.15 553.39,129.74 553.59,126.27 553.79,122.87 553.99,124.71 554.18,126.51 554.38,128.33 554.58,124.84 554.78,121.33 554.98,118.69 555.18,115.13 555.38,117.00 555.58,118.86 555.77,115.32 555.97,116.68 556.17,118.56 556.37,116.45 556.57,118.30 556.77,120.16 556.97,118.07 557.16,119.90 557.36,121.69 557.56,123.52 557.76,125.33 557.96,127.17 558.16,128.99 558.36,125.50 558.55,122.26 558.75,124.10 558.95,120.61 559.15,117.07 559.35,113.51 559.55,109.88 559.75,106.24 559.95,108.15 560.14,110.08 560.34,111.72 560.54,108.07 560.74,109.98 560.94,111.87 561.14,113.73 561.34,110.85 561.53,112.73 561.73,114.12 561.93,115.99 562.13,117.82 562.33,114.26 562.53,116.11 562.73,117.99 562.92,114.41 563.12,116.18 563.32,118.03 563.52,119.86 563.72,116.40 563.92,118.14 564.12,120.00 564.32,121.79 564.51,118.25 564.71,120.11 564.91,116.58 565.11,118.43 565.31,120.29 565.51,122.14 565.71,121.16 565.90,123.00 566.10,119.47 566.30,120.78 566.50,118.41 566.70,114.87 566.90,116.73 567.10,113.47 567.29,115.35 567.49,111.76 567.69,113.64 567.89,115.53 568.09,116.75 568.29,113.17 568.49,114.78 568.68,116.63 568.88,113.04 569.08,109.40 569.28,111.31 569.48,113.17 569.68,115.05 569.88,111.45 570.08,107.79 570.27,104.14 570.47,106.05 570.67,102.39 570.87,98.69 571.07,100.60 571.27,101.93 571.47,103.87 571.66,100.17 571.86,102.11 572.06,104.04 572.26,105.95 572.46,107.84 572.66,104.16 572.86,106.09 573.05,102.39 573.25,104.29 573.45,106.19 573.65,108.12 573.85,104.45 574.05,100.72 574.25,102.67 574.45,98.94 574.64,95.42 574.84,91.62 575.04,93.54 575.24,89.72 575.44,91.55 575.64,93.56 575.84,95.53 576.03,96.93 576.23,98.88 576.43,100.79 576.63,102.73 576.83,104.66 577.03,106.59 577.23,103.22 577.42,99.53 577.62,101.47 577.82,99.59 578.02,95.84 578.22,92.03 578.42,88.19 578.62,84.32 578.82,86.36 579.01,88.36 579.21,90.36 579.41,86.52 579.61,82.62 579.81,84.64 580.01,80.72 580.21,77.12 580.40,73.77 580.60,69.74 580.80,71.57 581.00,73.66 581.20,69.67 581.40,71.73 581.60,67.68 581.79,69.79 581.99,71.88 582.19,73.98 582.39,69.99 582.59,65.92 582.79,68.02 582.99,63.93 583.18,59.82 583.38,61.81 583.58,63.92 583.78,66.06 583.98,68.18 584.18,70.31 584.38,67.19 584.58,69.08 584.77,71.16 584.97,72.65 585.17,74.76 585.37,75.49 585.57,77.40 585.77,73.46 585.97,69.47 586.16,71.54 586.36,73.49 586.56,69.48 586.76,71.13 586.96,67.09 587.16,63.01 587.36,64.83 587.55,60.72 587.75,62.87 587.95,58.75 588.15,60.42 588.35,62.58 588.55,59.01 588.75,54.87 588.95,57.04 589.14,57.73 589.34,59.25 589.54,56.59 589.74,58.04 589.94,60.19 590.14,62.36 590.34,58.27 590.53,54.14 590.73,50.05 590.93,47.00 591.13,49.25 591.33,45.15 591.53,40.88 591.73,43.12 591.92,45.37 592.12,46.67 592.32,47.67 592.52,49.86 592.72,51.45 592.92,53.63 593.12,49.41 593.32,45.16 593.51,47.40 593.71,43.13 593.91,38.79 594.11,41.04 594.31,37.42 594.51,39.70 594.71,41.91 594.90,37.61 595.10,39.87 595.30,36.67 595.50,38.92 595.70,41.15 595.90,36.80 596.10,32.44 596.29,34.74 596.49,36.53 596.69,38.78 596.89,41.03 597.09,36.73 597.29,32.32 597.49,34.61 597.68,36.87 597.88,32.50 598.08,34.76 598.28,37.06 598.48,39.29 598.68,41.52 598.88,43.11 599.08,38.82 599.27,36.02 599.47,37.70 599.67,39.97 599.87,41.07 600.07,36.73 600.27,38.74 600.47,34.42 600.66,30.00 600.86,32.30 601.06,34.57 601.26,36.85 601.46,32.79 601.66,35.08 601.86,36.85 602.05,39.09 602.25,34.94 602.45,37.23 602.65,39.48 602.85,41.75 603.05,44.02 603.25,45.46 603.45,47.70 603.64,49.77 603.84,51.56 604.04,53.78 604.24,49.57 604.44,45.34 604.64,47.37 604.84,49.52 605.03,51.11 605.23,53.31 605.43,55.51 605.63,51.35 605.83,47.12 606.03,49.36 606.23,45.91 606.42,48.15 606.62,50.38 606.82,46.16 607.02,48.33 607.22,50.57 607.42,46.32 607.62,48.53 607.82,50.74 608.01,52.28 608.21,54.34 608.41,56.52 608.61,58.66 608.81,60.80 609.01,62.94 609.21,58.86 609.40,61.02 609.60,63.15 609.80,64.85 610.00,66.15" fill="none" stroke="#2563eb" stroke-width="1.5"/><text x="30" y="252" font-size="11" fill="#555">min 81076.78 / max 146166.17</text></svg>
