<svg xmlns="http://www.w3.org/2000/svg" width="640" height="260" viewBox="0 0 640 260"><rect width="640" height="260" fill="white"/><text x="30" y="22" font-size="14" fill="#111">M10-PA-009 5m baseline equity</text><line x1="30" y1="230" x2="610" y2="230" stroke="#ccc"/><line x1="30" y1="30" x2="30" y2="230" stroke="#ccc"/><polyline points="30.00,94.98 30.20,96.32 30.41,97.18 30.61,98.35 30.81,98.66 31.01,98.11 31.22,95.59 31.42,92.36 31.62,91.13 31.83,91.95 32.03,91.20 32.23,94.35 32.43,95.61 32.64,97.50 32.84,97.88 33.04,99.51 33.24,100.82 33.45,101.81 33.65,103.40 33.85,106.54 34.06,106.70 34.26,102.76 34.46,104.24 34.66,106.06 34.87,107.96 35.07,107.81 35.27,107.12 35.48,108.02 35.68,110.11 35.88,111.12 36.08,112.32 36.29,111.37 36.49,112.32 36.69,114.32 36.90,114.68 37.10,115.64 37.30,113.20 37.50,109.72 37.71,110.35 37.91,111.41 38.11,105.70 38.31,106.04 38.52,106.62 38.72,109.11 38.92,109.60 39.13,110.24 39.33,108.56 39.53,110.11 39.73,110.61 39.94,110.30 40.14,112.01 40.34,112.92 40.55,111.34 40.75,111.81 40.95,112.37 41.15,112.91 41.36,111.63 41.56,111.01 41.76,105.12 41.97,104.18 42.17,105.13 42.37,105.99 42.57,104.65 42.78,105.58 42.98,104.88 43.18,105.59 43.38,104.20 43.59,105.08 43.79,103.42 43.99,103.62 44.20,105.63 44.40,106.42 44.60,103.86 44.80,103.44 45.01,103.94 45.21,103.09 45.41,97.08 45.62,96.57 45.82,97.65 46.02,99.07 46.22,98.36 46.43,99.48 46.63,100.68 46.83,102.95 47.03,101.99 47.24,102.60 47.44,103.27 47.64,104.12 47.85,100.84 48.05,99.77 48.25,100.79 48.45,100.41 48.66,101.46 48.86,104.42 49.06,105.47 49.27,105.64 49.47,106.03 49.67,106.70 49.87,107.26 50.08,106.41 50.28,107.38 50.48,108.64 50.69,109.40 50.89,109.68 51.09,110.22 51.29,107.11 51.50,106.18 51.70,105.04 51.90,106.84 52.10,107.27 52.31,102.36 52.51,100.30 52.71,101.42 52.92,104.52 53.12,104.98 53.32,103.78 53.52,104.27 53.73,105.12 53.93,104.91 54.13,98.93 54.34,102.10 54.54,104.04 54.74,102.66 54.94,104.22 55.15,98.25 55.35,93.87 55.55,94.93 55.76,92.50 55.96,95.14 56.16,97.73 56.36,91.69 56.57,92.65 56.77,94.50 56.97,96.53 57.17,95.22 57.38,97.06 57.58,98.39 57.78,99.63 57.99,93.58 58.19,92.52 58.39,94.47 58.59,97.66 58.80,98.33 59.00,96.95 59.20,97.75 59.41,99.46 59.61,100.46 59.81,98.82 60.01,97.00 60.22,98.53 60.42,100.59 60.62,96.35 60.83,94.00 61.03,95.35 61.23,96.45 61.43,95.52 61.64,96.31 61.84,94.03 62.04,94.51 62.24,95.78 62.45,96.29 62.65,91.32 62.85,92.31 63.06,86.25 63.26,87.11 63.46,88.54 63.66,86.35 63.87,86.66 64.07,87.85 64.27,88.20 64.48,89.08 64.68,89.59 64.88,86.71 65.08,88.07 65.29,84.04 65.49,86.27 65.69,87.51 65.90,88.10 66.10,88.61 66.30,87.60 66.50,87.79 66.71,89.13 66.91,89.41 67.11,86.93 67.31,87.44 67.52,88.29 67.72,90.87 67.92,91.64 68.13,94.63 68.33,93.34 68.53,94.35 68.73,94.88 68.94,95.27 69.14,94.05 69.34,96.30 69.55,95.62 69.75,96.49 69.95,97.07 70.15,97.81 70.36,95.73 70.56,96.70 70.76,97.65 70.97,96.33 71.17,97.33 71.37,98.66 71.57,97.67 71.78,98.68 71.98,100.00 72.18,98.41 72.38,101.33 72.59,102.07 72.79,102.83 72.99,103.59 73.20,102.93 73.40,101.97 73.60,102.60 73.80,103.86 74.01,102.71 74.21,103.28 74.41,102.63 74.62,103.33 74.82,103.73 75.02,104.47 75.22,105.02 75.43,105.86 75.63,104.24 75.83,105.07 76.03,105.36 76.24,106.20 76.44,102.80 76.64,104.23 76.85,105.41 77.05,106.16 77.25,107.69 77.45,108.73 77.66,107.32 77.86,105.96 78.06,100.73 78.27,99.58 78.47,96.45 78.67,97.03 78.87,93.09 79.08,91.83 79.28,93.34 79.48,91.06 79.69,91.59 79.89,86.32 80.09,86.88 80.29,86.26 80.50,86.85 80.70,86.15 80.90,86.86 81.10,87.43 81.31,90.11 81.51,90.72 81.71,88.99 81.92,88.20 82.12,89.19 82.32,90.05 82.52,91.27 82.73,92.00 82.93,90.52 83.13,91.58 83.34,90.19 83.54,89.73 83.74,90.12 83.94,91.88 84.15,90.48 84.35,92.35 84.55,95.52 84.76,92.35 84.96,94.12 85.16,90.15 85.36,86.89 85.57,87.77 85.77,83.46 85.97,79.23 86.17,80.08 86.38,83.30 86.58,84.03 86.78,87.05 86.99,89.00 87.19,92.22 87.39,93.61 87.59,91.72 87.80,93.16 88.00,88.10 88.20,89.25 88.41,85.21 88.61,84.00 88.81,84.48 89.01,83.13 89.22,76.93 89.42,75.89 89.62,78.69 89.83,79.26 90.03,79.76 90.23,80.52 90.43,81.54 90.64,79.65 90.84,80.51 91.04,82.05 91.24,81.11 91.45,82.38 91.65,84.44 91.85,84.58 92.06,86.06 92.26,87.28 92.46,88.92 92.66,89.96 92.87,87.27 93.07,87.75 93.27,86.46 93.48,84.59 93.68,85.04 93.88,83.59 94.08,84.93 94.29,84.00 94.49,84.94 94.69,85.67 94.90,86.69 95.10,87.39 95.30,86.28 95.50,88.16 95.71,87.51 95.91,88.71 96.11,89.43 96.31,86.38 96.52,87.21 96.72,88.95 96.92,82.83 97.13,85.78 97.33,79.77 97.53,73.55 97.73,76.07 97.94,77.57 98.14,71.32 98.34,74.59 98.55,71.15 98.75,73.44 98.95,73.58 99.15,73.74 99.36,77.04 99.56,71.06 99.76,72.34 99.97,74.29 100.17,67.99 100.37,69.37 100.57,64.51 100.78,62.89 100.98,58.45 101.18,59.88 101.38,56.07 101.59,58.14 101.79,53.36 101.99,55.12 102.20,55.94 102.40,56.93 102.60,58.62 102.80,60.03 103.01,61.48 103.21,62.31 103.41,60.81 103.62,54.45 103.82,56.15 104.02,59.52 104.22,53.11 104.43,56.42 104.63,58.99 104.83,52.56 105.03,55.85 105.24,59.19 105.44,52.75 105.64,56.07 105.85,59.41 106.05,62.74 106.25,66.08 106.45,59.75 106.66,61.53 106.86,64.33 107.06,66.43 107.27,67.89 107.47,70.37 107.67,64.05 107.87,62.42 108.08,58.88 108.28,60.30 108.48,53.92 108.69,56.51 108.89,58.71 109.09,61.89 109.29,63.25 109.50,57.67 109.70,59.91 109.90,58.24 110.10,59.03 110.31,60.51 110.51,61.32 110.71,62.52 110.92,63.18 111.12,61.03 111.32,63.63 111.52,62.12 111.73,65.02 111.93,61.88 112.13,63.11 112.34,61.26 112.54,62.11 112.74,58.47 112.94,59.62 113.15,58.69 113.35,59.09 113.55,52.96 113.76,54.80 113.96,52.30 114.16,54.83 114.36,57.31 114.57,54.03 114.77,55.85 114.97,57.51 115.17,58.00 115.38,58.55 115.58,59.29 115.78,54.62 115.99,58.00 116.19,60.90 116.39,61.71 116.59,55.61 116.80,56.56 117.00,57.11 117.20,53.31 117.41,51.79 117.61,52.66 117.81,53.28 118.01,52.06 118.22,53.66 118.42,50.88 118.62,54.29 118.83,55.48 119.03,58.84 119.23,60.05 119.43,60.74 119.64,61.53 119.84,62.97 120.04,60.63 120.24,61.15 120.45,63.03 120.65,65.81 120.85,66.49 121.06,67.44 121.26,68.47 121.46,68.97 121.66,69.55 121.87,72.27 122.07,72.99 122.27,70.91 122.48,68.27 122.68,66.96 122.88,67.36 123.08,67.83 123.29,68.99 123.49,70.48 123.69,73.79 123.90,74.24 124.10,73.27 124.30,72.34 124.50,72.02 124.71,69.81 124.91,63.51 125.11,64.14 125.31,64.98 125.52,65.44 125.72,64.87 125.92,65.48 126.13,63.76 126.33,62.00 126.53,59.52 126.73,60.16 126.94,61.40 127.14,60.59 127.34,61.02 127.55,61.37 127.75,62.37 127.95,61.46 128.15,62.51 128.36,61.68 128.56,62.59 128.76,57.45 128.97,60.42 129.17,61.41 129.37,62.02 129.57,63.51 129.78,60.58 129.98,61.57 130.18,57.49 130.38,58.50 130.59,57.52 130.79,59.22 130.99,60.24 131.20,60.38 131.40,58.51 131.60,59.46 131.80,61.25 132.01,61.99 132.21,63.15 132.41,64.60 132.62,65.87 132.82,67.12 133.02,67.76 133.22,71.08 133.43,67.73 133.63,68.58 133.83,67.31 134.03,67.76 134.24,68.69 134.44,69.24 134.64,69.93 134.85,68.38 135.05,69.88 135.25,71.14 135.45,69.12 135.66,67.49 135.86,66.52 136.06,65.28 136.27,61.95 136.47,62.85 136.67,63.81 136.87,64.52 137.08,65.37 137.28,66.05 137.48,66.43 137.69,67.20 137.89,67.91 138.09,68.43 138.29,71.75 138.50,69.64 138.70,68.40 138.90,69.16 139.10,68.10 139.31,68.41 139.51,65.33 139.71,62.98 139.92,65.98 140.12,62.94 140.32,63.54 140.52,63.97 140.73,61.99 140.93,62.80 141.13,60.47 141.34,58.15 141.54,58.76 141.74,56.69 141.94,57.13 142.15,58.18 142.35,58.60 142.55,60.07 142.76,59.13 142.96,62.45 143.16,63.19 143.36,64.74 143.57,65.83 143.77,68.15 143.97,62.76 144.17,63.28 144.38,63.80 144.58,64.30 144.78,64.75 144.99,64.06 145.19,63.38 145.39,63.81 145.59,64.49 145.80,65.20 146.00,67.72 146.20,71.05 146.41,66.22 146.61,66.71 146.81,70.05 147.01,71.12 147.22,71.76 147.42,72.75 147.62,73.86 147.83,74.81 148.03,75.45 148.23,74.45 148.43,75.06 148.64,76.30 148.84,77.28 149.04,74.24 149.24,68.54 149.45,71.11 149.65,73.23 149.85,68.23 150.06,70.93 150.26,74.08 150.46,69.46 150.66,70.57 150.87,71.33 151.07,72.74 151.27,70.44 151.48,71.09 151.68,70.50 151.88,71.24 152.08,72.16 152.29,73.87 152.49,74.89 152.69,75.64 152.90,75.05 153.10,75.85 153.30,74.70 153.50,73.77 153.71,74.81 153.91,73.34 154.11,72.68 154.31,73.72 154.52,77.01 154.72,77.61 154.92,79.48 155.13,77.11 155.33,78.01 155.53,77.21 155.73,70.95 155.94,64.69 156.14,66.17 156.34,66.79 156.55,64.77 156.75,64.97 156.95,65.31 157.15,65.88 157.36,66.35 157.56,65.43 157.76,64.36 157.97,64.40 158.17,67.73 158.37,65.59 158.57,66.65 158.78,67.08 158.98,66.65 159.18,62.47 159.38,63.40 159.59,64.27 159.79,63.55 159.99,64.10 160.20,64.28 160.40,65.15 160.60,65.99 160.80,67.21 161.01,67.64 161.21,65.92 161.41,64.87 161.62,62.13 161.82,65.01 162.02,65.90 162.22,67.21 162.43,67.43 162.63,64.45 162.83,62.52 163.03,62.94 163.24,63.33 163.44,63.00 163.64,63.66 163.85,64.86 164.05,66.42 164.25,68.50 164.45,63.28 164.66,65.21 164.86,67.64 165.06,61.47 165.27,64.84 165.47,65.35 165.67,66.15 165.87,65.45 166.08,64.52 166.28,67.65 166.48,69.59 166.69,71.19 166.89,73.21 167.09,74.48 167.29,72.75 167.50,73.61 167.70,74.83 167.90,76.27 168.10,79.45 168.31,73.88 168.51,75.28 168.71,77.53 168.92,78.23 169.12,76.33 169.32,76.68 169.52,74.96 169.73,77.20 169.93,77.79 170.13,79.47 170.34,82.74 170.54,83.19 170.74,85.20 170.94,81.58 171.15,81.77 171.35,79.12 171.55,80.81 171.76,83.22 171.96,77.02 172.16,78.57 172.36,74.49 172.57,71.71 172.77,75.02 172.97,76.75 173.17,77.31 173.38,78.04 173.58,79.55 173.78,81.53 173.99,83.90 174.19,78.48 174.39,79.43 174.59,81.61 174.80,79.88 175.00,78.91 175.20,76.38 175.41,77.95 175.61,79.37 175.81,80.14 176.01,82.13 176.22,82.91 176.42,84.14 176.62,85.20 176.83,87.63 177.03,88.14 177.23,87.26 177.43,87.59 177.64,87.36 177.84,88.16 178.04,86.68 178.24,87.34 178.45,94.98 178.65,97.30 178.85,97.99 179.06,100.52 179.26,102.39 179.46,101.12 179.66,95.14 179.87,95.93 180.07,96.93 180.27,93.39 180.48,93.15 180.68,96.28 180.88,98.11 181.08,96.26 181.29,98.03 181.49,96.33 181.69,98.55 181.90,100.68 182.10,98.23 182.30,101.40 182.50,104.56 182.71,106.07 182.91,106.68 183.11,107.66 183.31,109.07 183.52,112.10 183.72,113.30 183.92,114.91 184.13,109.07 184.33,110.01 184.53,111.72 184.73,113.01 184.94,107.14 185.14,101.69 185.34,99.84 185.55,100.88 185.75,102.24 185.95,103.16 186.15,102.68 186.36,103.55 186.56,104.78 186.76,105.19 186.97,105.61 187.17,106.38 187.37,106.65 187.57,104.02 187.78,102.10 187.98,102.68 188.18,104.18 188.38,104.68 188.59,105.34 188.79,106.05 188.99,102.83 189.20,100.63 189.40,98.81 189.60,101.08 189.80,101.87 190.01,95.90 190.21,94.36 190.41,95.73 190.62,92.79 190.82,90.32 191.02,91.84 191.22,92.83 191.43,90.55 191.63,91.24 191.83,90.22 192.03,87.40 192.24,84.90 192.44,83.65 192.64,79.88 192.85,81.42 193.05,83.66 193.25,80.53 193.45,80.82 193.66,76.96 193.86,78.32 194.06,77.54 194.27,79.57 194.47,78.28 194.67,80.97 194.87,74.81 195.08,78.08 195.28,79.11 195.48,80.49 195.69,81.71 195.89,82.70 196.09,78.08 196.29,79.74 196.50,81.06 196.70,82.74 196.90,83.21 197.10,84.25 197.31,85.23 197.51,86.22 197.71,87.17 197.92,88.13 198.12,89.70 198.32,87.63 198.52,87.47 198.73,87.45 198.93,89.38 199.13,87.21 199.34,88.71 199.54,91.10 199.74,92.04 199.94,92.58 200.15,89.96 200.35,86.12 200.55,87.59 200.76,88.13 200.96,87.02 201.16,85.00 201.36,85.98 201.57,87.55 201.77,81.42 201.97,76.02 202.17,79.28 202.38,77.07 202.58,78.64 202.78,81.82 202.99,82.64 203.19,84.81 203.39,81.92 203.59,85.19 203.80,88.37 204.00,91.51 204.20,94.72 204.41,92.12 204.61,93.68 204.81,95.25 205.01,96.66 205.22,98.30 205.42,99.69 205.62,100.92 205.83,98.34 206.03,96.67 206.23,99.16 206.43,99.79 206.64,101.11 206.84,100.22 207.04,97.80 207.24,99.30 207.45,100.36 207.65,97.73 207.85,100.88 208.06,95.34 208.26,93.89 208.46,91.61 208.66,90.37 208.87,92.02 209.07,87.53 209.27,90.74 209.48,84.60 209.68,85.44 209.88,88.29 210.08,90.85 210.29,94.07 210.49,95.40 210.69,97.02 210.90,98.80 211.10,101.20 211.30,104.29 211.50,105.29 211.71,103.88 211.91,104.94 212.11,105.90 212.31,106.82 212.52,108.57 212.72,105.58 212.92,106.94 213.13,105.42 213.33,106.62 213.53,103.84 213.73,106.01 213.94,102.82 214.14,103.38 214.34,104.67 214.55,98.72 214.75,95.31 214.95,92.01 215.15,93.70 215.36,96.05 215.56,99.24 215.76,101.08 215.97,104.21 216.17,105.25 216.37,106.41 216.57,107.69 216.78,101.81 216.98,99.19 217.18,100.44 217.38,99.65 217.59,97.20 217.79,95.45 217.99,96.57 218.20,96.82 218.40,98.04 218.60,101.18 218.80,102.97 219.01,104.10 219.21,102.42 219.41,103.61 219.62,105.61 219.82,107.84 220.02,105.31 220.22,103.76 220.43,106.13 220.63,107.41 220.83,102.60 221.03,101.60 221.24,101.02 221.44,102.53 221.64,103.28 221.85,104.79 222.05,98.84 222.25,97.41 222.45,92.85 222.66,93.94 222.86,96.96 223.06,97.98 223.27,98.94 223.47,99.83 223.67,97.31 223.87,94.54 224.08,95.74 224.28,97.54 224.48,94.81 224.69,95.78 224.89,97.38 225.09,98.79 225.29,97.08 225.50,91.04 225.70,89.30 225.90,83.20 226.10,82.24 226.31,85.00 226.51,86.31 226.71,87.79 226.92,88.57 227.12,89.25 227.32,89.98 227.52,91.96 227.73,92.61 227.93,91.13 228.13,90.12 228.34,92.68 228.54,93.66 228.74,94.17 228.94,95.40 229.15,92.96 229.35,90.71 229.55,91.27 229.76,87.38 229.96,85.81 230.16,87.14 230.36,87.70 230.57,85.50 230.77,85.76 230.97,86.51 231.17,84.13 231.38,86.89 231.58,84.65 231.78,86.81 231.99,88.85 232.19,91.19 232.39,92.38 232.59,92.70 232.80,94.24 233.00,95.72 233.20,90.65 233.41,91.82 233.61,93.19 233.81,87.80 234.01,85.90 234.22,88.24 234.42,91.42 234.62,94.56 234.83,89.97 235.03,91.79 235.23,92.96 235.43,95.85 235.64,96.12 235.84,91.51 236.04,85.44 236.24,84.73 236.45,84.92 236.65,82.27 236.85,83.35 237.06,84.63 237.26,85.61 237.46,87.67 237.66,88.48 237.87,86.79 238.07,88.95 238.27,88.46 238.48,89.27 238.68,84.91 238.88,85.62 239.08,82.76 239.29,80.56 239.49,81.67 239.69,75.50 239.90,74.14 240.10,75.63 240.30,76.54 240.50,74.26 240.71,71.80 240.91,68.96 241.11,71.46 241.31,71.43 241.52,73.21 241.72,75.20 241.92,75.36 242.13,72.28 242.33,74.04 242.53,67.73 242.73,61.40 242.94,55.04 243.14,48.56 243.34,51.98 243.55,45.50 243.75,46.86 243.95,40.34 244.15,35.97 244.36,38.70 244.56,32.09 244.76,33.28 244.97,36.75 245.17,31.54 245.37,35.03 245.57,38.52 245.78,41.97 245.98,39.14 246.18,41.17 246.38,36.33 246.59,32.84 246.79,35.17 246.99,36.52 247.20,39.34 247.40,42.75 247.60,44.45 247.80,42.71 248.01,45.45 248.21,47.07 248.41,49.18 248.62,51.07 248.82,52.31 249.02,54.80 249.22,57.39 249.43,59.38 249.63,62.74 249.83,65.76 250.03,69.05 250.24,72.30 250.44,65.99 250.64,69.30 250.85,72.57 251.05,74.91 251.25,68.62 251.45,70.99 251.66,73.16 251.86,73.89 252.06,76.19 252.27,79.38 252.47,80.88 252.67,76.31 252.87,70.80 253.08,66.94 253.28,70.27 253.48,73.59 253.69,75.36 253.89,74.02 254.09,72.36 254.29,67.85 254.50,70.97 254.70,69.15 254.90,70.16 255.10,72.50 255.31,73.28 255.51,76.57 255.71,78.05 255.92,80.61 256.12,83.84 256.32,85.26 256.52,81.65 256.73,82.58 256.93,83.91 257.13,77.70 257.34,78.56 257.54,73.86 257.74,71.76 257.94,72.65 258.15,73.51 258.35,76.78 258.55,75.93 258.76,71.00 258.96,67.94 259.16,69.72 259.36,67.87 259.57,65.76 259.77,64.48 259.97,65.29 260.17,68.57 260.38,70.55 260.58,72.00 260.78,67.59 260.99,68.24 261.19,68.99 261.39,64.17 261.59,63.42 261.80,61.12 262.00,62.50 262.20,63.45 262.41,64.27 262.61,65.26 262.81,62.29 263.01,64.54 263.22,66.40 263.42,64.16 263.62,62.32 263.83,64.18 264.03,65.33 264.23,60.76 264.43,58.89 264.64,61.18 264.84,63.60 265.04,66.46 265.24,62.96 265.45,60.93 265.65,61.49 265.85,62.57 266.06,63.18 266.26,60.79 266.46,64.15 266.66,65.14 266.87,63.39 267.07,65.25 267.27,61.77 267.48,59.69 267.68,58.43 267.88,58.02 268.08,58.86 268.29,61.77 268.49,60.68 268.69,55.68 268.90,55.04 269.10,56.09 269.30,57.05 269.50,58.23 269.71,59.37 269.91,60.22 270.11,61.14 270.31,62.04 270.52,59.64 270.72,61.36 270.92,62.21 271.13,62.81 271.33,63.58 271.53,64.42 271.73,63.83 271.94,64.61 272.14,66.16 272.34,63.11 272.55,64.43 272.75,64.37 272.95,60.64 273.15,61.31 273.36,62.05 273.56,61.32 273.76,59.91 273.97,60.64 274.17,57.96 274.37,59.01 274.57,61.34 274.78,56.55 274.98,54.57 275.18,55.75 275.38,49.30 275.59,50.58 275.79,48.49 275.99,49.54 276.20,47.60 276.40,46.18 276.60,47.01 276.80,47.98 277.01,51.42 277.21,53.73 277.41,57.05 277.62,58.42 277.82,56.30 278.02,56.73 278.22,57.34 278.43,58.10 278.63,56.17 278.83,57.30 279.03,54.12 279.24,51.48 279.44,49.16 279.64,49.59 279.85,48.13 280.05,48.85 280.25,49.68 280.45,48.78 280.66,52.16 280.86,53.56 281.06,54.99 281.27,55.26 281.47,55.74 281.67,56.09 281.87,54.61 282.08,56.47 282.28,51.49 282.48,52.71 282.69,50.42 282.89,51.55 283.09,52.18 283.29,52.78 283.50,53.31 283.70,54.11 283.90,50.69 284.10,48.19 284.31,49.00 284.51,49.75 284.71,51.54 284.92,51.87 285.12,54.88 285.32,48.36 285.52,49.59 285.73,51.05 285.93,53.85 286.13,55.05 286.34,58.41 286.54,61.17 286.74,62.01 286.94,63.55 287.15,65.55 287.35,66.33 287.55,67.98 287.76,69.45 287.96,70.00 288.16,68.53 288.36,69.31 288.57,69.84 288.77,70.02 288.97,67.51 289.17,67.50 289.38,68.69 289.58,62.33 289.78,64.82 289.99,61.26 290.19,54.88 290.39,54.08 290.59,55.41 290.80,56.24 291.00,57.62 291.20,59.78 291.41,53.41 291.61,54.33 291.81,55.06 292.01,58.43 292.22,59.60 292.42,59.96 292.62,61.00 292.83,62.56 293.03,64.94 293.23,63.00 293.43,66.30 293.64,68.12 293.84,61.83 294.04,65.19 294.24,58.84 294.45,54.24 294.65,55.49 294.85,57.05 295.06,58.00 295.26,54.99 295.46,54.08 295.66,54.85 295.87,57.04 296.07,57.73 296.27,58.50 296.48,60.33 296.68,57.72 296.88,59.25 297.08,59.86 297.29,55.90 297.49,56.84 297.69,59.18 297.90,62.55 298.10,64.21 298.30,65.86 298.50,61.93 298.71,64.41 298.91,58.00 299.11,51.58 299.31,54.07 299.52,54.91 299.72,55.60 299.92,53.41 300.13,53.70 300.33,50.20 300.53,50.61 300.73,49.19 300.94,49.99 301.14,50.99 301.34,54.36 301.55,54.97 301.75,54.19 301.95,54.58 302.15,53.44 302.36,55.66 302.56,53.99 302.76,56.27 302.97,58.10 303.17,58.90 303.37,58.12 303.57,56.63 303.78,59.96 303.98,61.13 304.18,61.51 304.38,58.82 304.59,62.17 304.79,63.84 304.99,66.28 305.20,67.55 305.40,63.85 305.60,66.68 305.80,67.36 306.01,68.51 306.21,69.47 306.41,70.03 306.62,70.95 306.82,69.46 307.02,70.41 307.22,73.54 307.43,75.64 307.63,78.89 307.83,79.31 308.03,82.39 308.24,85.47 308.44,86.91 308.64,80.73 308.85,81.69 309.05,84.21 309.25,82.96 309.45,84.53 309.66,84.76 309.86,81.33 310.06,83.00 310.27,84.48 310.47,86.27 310.67,87.74 310.87,88.56 311.08,90.06 311.28,93.27 311.48,91.43 311.69,90.19 311.89,89.03 312.09,89.66 312.29,92.88 312.50,95.76 312.70,98.93 312.90,100.67 313.10,103.78 313.31,104.87 313.51,105.95 313.71,109.02 313.92,103.99 314.12,104.36 314.32,106.55 314.52,109.68 314.73,108.40 314.93,102.44 315.13,103.94 315.34,105.67 315.54,106.16 315.74,107.93 315.94,108.35 316.15,109.41 316.35,110.77 316.55,112.68 316.76,115.25 316.96,111.01 317.16,111.92 317.36,113.59 317.57,113.31 317.77,111.67 317.97,113.56 318.17,111.67 318.38,114.71 318.58,113.30 318.78,114.39 318.99,116.05 319.19,119.12 319.39,117.77 319.59,115.48 319.80,117.59 320.00,118.96 320.20,119.61 320.41,120.67 320.61,121.75 320.81,122.18 321.01,122.74 321.22,120.93 321.42,121.84 321.62,123.75 321.83,124.94 322.03,125.71 322.23,123.20 322.43,94.98 322.64,98.12 322.84,101.25 323.04,102.51 323.24,104.62 323.45,107.76 323.65,110.85 323.85,112.97 324.06,115.35 324.26,109.47 324.46,112.58 324.66,115.66 324.87,118.69 325.07,119.33 325.27,120.96 325.48,115.13 325.68,109.24 325.88,112.31 326.08,114.68 326.29,117.77 326.49,120.46 326.69,114.64 326.90,117.68 327.10,119.99 327.30,114.16 327.50,108.27 327.71,111.35 327.91,105.38 328.11,108.52 328.31,111.59 328.52,114.66 328.72,109.67 328.92,103.76 329.13,106.85 329.33,100.89 329.53,104.05 329.73,106.44 329.94,109.49 330.14,103.59 330.34,106.70 330.55,109.75 330.75,111.89 330.95,113.91 331.15,116.95 331.36,111.49 331.56,113.24 331.76,110.19 331.97,112.31 332.17,107.50 332.37,109.29 332.57,111.46 332.78,112.04 332.98,113.68 333.18,115.07 333.38,109.20 333.59,111.19 333.79,105.25 333.99,108.34 334.20,111.24 334.40,114.27 334.60,117.34 334.80,111.51 335.01,114.56 335.21,108.69 335.41,103.68 335.62,105.33 335.82,107.00 336.02,110.07 336.22,113.12 336.43,107.25 336.63,107.48 336.83,110.56 337.03,113.46 337.24,116.51 337.44,110.68 337.64,113.77 337.85,107.85 338.05,110.90 338.25,113.96 338.45,108.10 338.66,111.16 338.86,114.19 339.06,117.22 339.27,120.25 339.47,123.24 339.67,126.25 339.87,129.19 340.08,123.42 340.28,117.63 340.48,111.74 340.69,113.38 340.89,116.47 341.09,119.50 341.29,113.62 341.50,110.02 341.70,111.99 341.90,114.73 342.10,117.76 342.31,111.95 342.51,114.98 342.71,111.93 342.92,106.01 343.12,100.00 343.32,103.14 343.52,106.22 343.73,109.26 343.93,112.11 344.13,115.14 344.34,118.22 344.54,121.25 344.74,123.99 344.94,126.21 345.15,120.44 345.35,123.42 345.55,117.61 345.76,120.61 345.96,123.60 346.16,126.58 346.36,129.61 346.57,132.57 346.77,126.84 346.97,129.76 347.17,132.71 347.38,135.61 347.58,138.54 347.78,141.42 347.99,144.27 348.19,147.19 348.39,142.01 348.59,144.89 348.80,139.26 349.00,141.54 349.20,144.47 349.41,138.84 349.61,140.89 349.81,142.32 350.01,136.70 350.22,139.57 350.42,133.97 350.62,136.91 350.83,139.83 351.03,134.16 351.23,133.10 351.43,136.05 351.64,130.41 351.84,133.33 352.04,128.11 352.24,131.11 352.45,125.34 352.65,119.53 352.85,122.50 353.06,116.73 353.26,119.71 353.46,122.71 353.66,125.70 353.87,119.92 354.07,114.12 354.27,117.17 354.48,119.44 354.68,118.65 354.88,121.66 355.08,124.71 355.29,120.39 355.49,116.06 355.69,110.17 355.90,113.13 356.10,116.17 356.30,118.51 356.50,121.11 356.71,123.38 356.91,126.41 357.11,127.70 357.31,121.94 357.52,125.00 357.72,119.20 357.92,121.64 358.13,118.46 358.33,120.32 358.53,123.34 358.73,117.51 358.94,112.12 359.14,115.15 359.34,118.17 359.55,121.19 359.75,121.66 359.95,118.32 360.15,120.64 360.36,122.07 360.56,116.26 360.76,117.36 360.97,111.51 361.17,113.12 361.37,110.76 361.57,108.32 361.78,110.08 361.98,104.12 362.18,100.15 362.38,103.23 362.59,105.41 362.79,105.70 362.99,108.81 363.20,106.94 363.40,103.32 363.60,100.10 363.80,103.22 364.01,97.21 364.21,99.23 364.41,96.83 364.62,98.97 364.82,101.16 365.02,98.63 365.22,101.78 365.43,104.22 365.63,107.32 365.83,109.70 366.03,111.10 366.24,114.14 366.44,116.53 366.64,110.66 366.85,104.75 367.05,99.70 367.25,102.81 367.45,104.27 367.66,98.25 367.86,101.37 368.06,104.47 368.27,107.28 368.47,101.51 368.67,103.43 368.87,105.91 369.08,107.94 369.28,110.13 369.48,106.11 369.69,108.06 369.89,105.75 370.09,107.84 370.29,110.28 370.50,104.35 370.70,106.21 370.90,107.99 371.10,105.06 371.31,107.35 371.51,110.40 371.71,106.74 371.92,109.81 372.12,103.91 372.32,97.93 372.52,91.93 372.73,95.09 372.93,98.26 373.13,92.26 373.34,94.85 373.54,88.82 373.74,92.01 373.94,94.54 374.15,97.67 374.35,99.79 374.55,102.39 374.76,97.74 374.96,98.88 375.16,101.25 375.36,104.36 375.57,107.44 375.77,101.43 375.97,102.76 376.17,96.74 376.38,99.83 376.58,93.78 376.78,89.42 376.99,92.59 377.19,94.83 377.39,97.99 377.59,100.94 377.80,103.82 378.00,106.12 378.20,109.20 378.41,112.25 378.61,115.33 378.81,118.38 379.01,121.38 379.22,124.41 379.42,127.40 379.62,130.37 379.83,124.65 380.03,127.64 380.23,130.60 380.43,133.58 380.64,136.12 380.84,130.47 381.04,133.43 381.24,129.14 381.45,132.09 381.65,126.34 381.85,126.66 382.06,120.99 382.26,115.13 382.46,116.71 382.66,116.92 382.87,119.93 383.07,122.95 383.27,117.17 383.48,120.24 383.68,114.42 383.88,108.53 384.08,102.57 384.29,96.56 384.49,90.46 384.69,84.28 384.90,87.45 385.10,81.27 385.30,75.03 385.50,78.25 385.71,81.52 385.91,84.73 386.11,78.58 386.31,81.83 386.52,85.02 386.72,78.78 386.92,72.52 387.13,75.76 387.33,69.51 387.53,72.73 387.73,67.58 387.94,68.40 388.14,64.43 388.34,67.77 388.55,71.04 388.75,74.26 388.95,77.46 389.15,80.73 389.36,83.70 389.56,80.89 389.76,81.98 389.97,83.44 390.17,86.06 390.37,88.72 390.57,91.94 390.78,85.86 390.98,89.06 391.18,82.91 391.38,86.16 391.59,89.23 391.79,92.39 391.99,87.04 392.20,80.86 392.40,84.05 392.60,77.84 392.80,81.03 393.01,84.28 393.21,78.08 393.41,79.57 393.62,73.38 393.82,76.61 394.02,70.32 394.22,73.61 394.43,76.87 394.63,74.67 394.83,77.92 395.03,81.19 395.24,74.99 395.44,76.79 395.64,80.06 395.85,73.82 396.05,77.11 396.25,80.35 396.45,74.18 396.66,67.87 396.86,71.17 397.06,72.69 397.27,66.44 397.47,67.69 397.67,69.17 397.87,65.93 398.08,69.19 398.28,70.68 398.48,72.51 398.69,75.75 398.89,78.10 399.09,71.80 399.29,65.48 399.50,68.76 399.70,64.93 399.90,68.21 400.10,71.51 400.31,65.22 400.51,66.79 400.71,70.08 400.92,73.34 401.12,76.19 401.32,77.71 401.52,79.80 401.73,80.09 401.93,81.95 402.13,75.71 402.34,78.97 402.54,81.69 402.74,84.93 402.94,87.35 403.15,81.19 403.35,76.88 403.55,80.10 403.76,82.18 403.96,85.42 404.16,86.34 404.36,89.58 404.57,92.76 404.77,95.29 404.97,96.64 405.17,99.78 405.38,101.39 405.58,103.74 405.78,104.45 405.99,106.70 406.19,102.79 406.39,105.92 406.59,108.99 406.80,112.08 407.00,106.15 407.20,100.15 407.41,95.18 407.61,98.35 407.81,100.31 408.01,97.27 408.22,99.18 408.42,94.69 408.62,92.51 408.83,95.71 409.03,98.36 409.23,99.78 409.43,95.36 409.64,89.33 409.84,83.24 410.04,86.48 410.24,87.12 410.45,81.62 410.65,84.03 410.85,86.11 411.06,87.81 411.26,89.56 411.46,91.05 411.66,91.68 411.87,94.73 412.07,93.36 412.27,96.56 412.48,97.61 412.68,100.14 412.88,101.70 413.08,104.73 413.29,98.78 413.49,95.73 413.69,97.83 413.90,100.67 414.10,103.75 414.30,105.02 414.50,108.13 414.71,111.22 414.91,105.30 415.11,106.47 415.31,108.34 415.52,102.40 415.72,103.16 415.92,105.99 416.13,108.29 416.33,110.54 416.53,113.59 416.73,115.05 416.94,118.11 417.14,119.65 417.34,114.71 417.55,116.59 417.75,118.21 417.95,120.72 418.15,123.75 418.36,126.75 418.56,120.97 418.76,115.20 418.97,117.28 419.17,111.39 419.37,112.41 419.57,109.64 419.78,105.78 419.98,108.46 420.18,111.52 420.38,112.38 420.59,115.39 420.79,109.51 420.99,112.61 421.20,106.74 421.40,109.85 421.60,112.91 421.80,108.93 422.01,106.19 422.21,109.27 422.41,110.85 422.62,104.90 422.82,106.55 423.02,109.64 423.22,106.50 423.43,100.56 423.63,98.18 423.83,99.89 424.03,96.69 424.24,92.30 424.44,86.15 424.64,84.65 424.85,85.93 425.05,89.09 425.25,91.30 425.45,92.84 425.66,86.74 425.86,88.49 426.06,82.30 426.27,76.11 426.47,77.47 426.67,71.37 426.87,73.49 427.08,67.23 427.28,70.54 427.48,72.86 427.69,66.59 427.89,68.00 428.09,71.24 428.29,73.49 428.50,67.23 428.70,63.61 428.90,66.93 429.10,69.72 429.31,63.41 429.51,66.76 429.71,60.39 429.92,54.01 430.12,47.57 430.32,43.14 430.52,36.57 430.73,40.02 430.93,43.48 431.13,45.97 431.34,42.19 431.54,43.16 431.74,46.62 431.94,47.66 432.15,51.07 432.35,53.77 432.55,57.12 432.76,60.44 432.96,63.76 433.16,58.44 433.36,52.02 433.57,55.38 433.77,50.73 433.97,54.14 434.17,47.84 434.38,51.25 434.58,44.73 434.78,48.13 434.99,41.54 435.19,43.07 435.39,46.47 435.59,48.57 435.80,42.19 436.00,45.59 436.20,39.68 436.41,33.23 436.61,36.70 436.81,30.00 437.01,30.51 437.22,33.99 437.42,37.42 437.62,40.81 437.83,44.26 438.03,47.71 438.23,51.14 438.43,47.47 438.64,50.08 438.84,53.51 439.04,47.07 439.24,49.28 439.45,52.66 439.65,50.39 439.85,45.55 440.06,47.58 440.26,50.93 440.46,54.27 440.66,57.62 440.87,59.37 441.07,62.64 441.27,65.75 441.48,69.06 441.68,72.39 441.88,74.80 442.08,78.06 442.29,81.25 442.49,75.03 442.69,78.27 442.90,76.91 443.10,77.78 443.30,79.00 443.50,77.07 443.71,78.74 443.91,76.71 444.11,77.51 444.31,75.19 444.52,78.01 444.72,71.78 444.92,74.73 445.13,77.93 445.33,80.79 445.53,81.73 445.73,84.88 445.94,86.26 446.14,88.11 446.34,90.28 446.55,92.48 446.75,95.60 446.95,97.83 447.15,93.41 447.36,96.45 447.56,91.81 447.76,87.60 447.97,87.90 448.17,89.38 448.37,91.62 448.57,93.39 448.78,94.60 448.98,95.81 449.18,89.79 449.38,92.38 449.59,95.17 449.79,98.33 449.99,92.32 450.20,95.51 450.40,98.51 450.60,101.63 450.80,104.78 451.01,102.14 451.21,104.70 451.41,107.84 451.62,101.91 451.82,105.06 452.02,108.20 452.22,111.19 452.43,114.23 452.63,115.65 452.83,116.09 453.03,117.77 453.24,120.73 453.44,123.77 453.64,126.79 453.85,122.60 454.05,121.06 454.25,123.74 454.45,126.71 454.66,123.57 454.86,126.38 455.06,124.48 455.27,127.50 455.47,121.79 455.67,124.63 455.87,127.63 456.08,125.13 456.28,127.49 456.48,130.51 456.69,131.11 456.89,133.34 457.09,135.69 457.29,133.96 457.50,136.20 457.70,139.12 457.90,133.82 458.10,135.32 458.31,137.92 458.51,132.30 458.71,134.82 458.92,137.79 459.12,134.31 459.32,136.39 459.52,139.34 459.73,141.48 459.93,139.54 460.13,135.26 460.34,137.22 460.54,140.15 460.74,141.59 460.94,143.52 461.15,145.42 461.35,146.10 461.55,148.99 461.76,145.75 461.96,144.43 462.16,145.63 462.36,148.51 462.57,151.35 462.77,147.07 462.97,149.45 463.17,152.31 463.38,152.92 463.58,149.24 463.78,94.98 463.99,98.16 464.19,101.23 464.39,104.29 464.59,107.07 464.80,101.35 465.00,104.43 465.20,98.48 465.41,101.62 465.61,102.47 465.81,105.59 466.01,108.70 466.22,102.79 466.42,103.26 466.62,97.22 466.83,99.49 467.03,102.61 467.23,105.67 467.43,100.84 467.64,103.20 467.84,106.20 468.04,109.27 468.24,112.33 468.45,106.38 468.65,109.47 468.85,103.49 469.06,106.61 469.26,109.66 469.46,103.70 469.66,97.65 469.87,91.60 470.07,94.73 470.27,97.91 470.48,98.20 470.68,101.36 470.88,104.49 471.08,98.48 471.29,100.13 471.49,103.20 471.69,105.03 471.90,108.15 472.10,103.79 472.30,97.82 472.50,99.63 472.71,102.79 472.91,104.95 473.11,107.94 473.31,109.11 473.52,103.18 473.72,106.26 473.92,107.86 474.13,101.96 474.33,99.78 474.53,93.77 474.73,96.90 474.94,99.94 475.14,93.87 475.34,97.03 475.55,100.17 475.75,95.52 475.95,98.68 476.15,96.27 476.36,98.66 476.56,92.63 476.76,95.79 476.97,98.73 477.17,101.81 477.37,103.35 477.57,97.38 477.78,100.48 477.98,103.58 478.18,105.16 478.38,108.25 478.59,111.35 478.79,114.24 478.99,108.35 479.20,111.34 479.40,113.73 479.60,116.17 479.80,119.19 480.01,122.15 480.21,118.44 480.41,114.90 480.62,111.19 480.82,106.18 481.02,100.24 481.22,101.96 481.43,98.91 481.63,100.69 481.83,103.82 482.03,105.92 482.24,99.98 482.44,95.07 482.64,88.97 482.85,91.62 483.05,94.75 483.25,97.87 483.45,92.26 483.66,95.37 483.86,98.47 484.06,92.42 484.27,95.58 484.47,98.61 484.67,101.76 484.87,104.82 485.08,98.79 485.28,94.90 485.48,88.80 485.69,91.10 485.89,84.99 486.09,88.17 486.29,88.77 486.50,91.92 486.70,85.86 486.90,89.09 487.10,83.69 487.31,86.90 487.51,90.06 487.71,93.14 487.92,87.05 488.12,90.19 488.32,93.33 488.52,96.48 488.73,90.45 488.93,93.66 489.13,96.80 489.34,99.92 489.54,103.02 489.74,106.07 489.94,109.16 490.15,112.23 490.35,115.27 490.55,109.41 490.76,112.49 490.96,107.93 491.16,109.33 491.36,103.89 491.57,107.00 491.77,110.12 491.97,113.13 492.17,116.03 492.38,118.05 492.58,121.08 492.78,122.71 492.99,118.13 493.19,120.54 493.39,123.16 493.59,126.12 493.80,120.35 494.00,114.49 494.20,117.57 494.41,120.59 494.61,123.62 494.81,126.39 495.01,122.22 495.22,125.27 495.42,128.18 495.62,131.16 495.83,134.14 496.03,136.14 496.23,139.04 496.43,135.54 496.64,137.82 496.84,140.73 497.04,143.63 497.24,140.65 497.45,135.39 497.65,138.30 497.85,141.26 498.06,144.14 498.26,146.37 498.46,149.29 498.66,145.73 498.87,148.65 499.07,151.49 499.27,146.96 499.48,141.61 499.68,135.99 499.88,138.94 500.08,141.89 500.29,136.27 500.49,139.24 500.69,142.08 500.90,144.68 501.10,147.07 501.30,149.94 501.50,150.23 501.71,153.13 501.91,149.30 502.11,152.18 502.31,154.27 502.52,157.07 502.72,158.99 502.92,161.77 503.13,156.33 503.33,153.93 503.53,156.64 503.73,159.45 503.94,162.28 504.14,163.90 504.34,159.91 504.55,162.02 504.75,164.86 504.95,166.61 505.15,168.57 505.36,169.85 505.56,164.51 505.76,166.36 505.97,161.04 506.17,163.82 506.37,165.32 506.57,168.14 506.78,162.80 506.98,165.33 507.18,167.53 507.38,162.17 507.59,164.96 507.79,160.22 507.99,161.72 508.20,164.48 508.40,166.13 508.60,168.92 508.80,163.54 509.01,166.30 509.21,169.09 509.41,171.82 509.62,166.69 509.82,169.47 510.02,172.22 510.22,167.65 510.43,162.29 510.63,157.06 510.83,151.58 511.03,154.44 511.24,157.29 511.44,153.74 511.64,148.21 511.85,151.06 512.05,153.94 512.25,148.45 512.45,142.88 512.66,145.54 512.86,148.44 513.06,151.33 513.27,145.83 513.47,140.29 513.67,137.78 513.87,132.12 514.08,128.88 514.28,131.89 514.48,134.85 514.69,129.15 514.89,132.12 515.09,135.05 515.29,137.99 515.50,140.89 515.70,143.76 515.90,146.68 516.10,141.07 516.31,143.96 516.51,146.60 516.71,149.46 516.92,152.31 517.12,155.13 517.32,157.93 517.52,160.74 517.73,163.58 517.93,158.20 518.13,159.36 518.34,161.90 518.54,164.70 518.74,167.47 518.94,170.27 519.15,173.05 519.35,175.80 519.55,170.54 519.76,165.22 519.96,159.83 520.16,162.62 520.36,157.24 520.57,151.74 520.77,146.22 520.97,149.13 521.17,143.54 521.38,146.46 521.58,149.35 521.78,143.98 521.99,146.85 522.19,149.36 522.39,143.81 522.59,138.22 522.80,134.69 523.00,137.63 523.20,133.64 523.41,136.60 523.61,139.50 523.81,141.35 524.01,135.75 524.22,133.13 524.42,136.05 524.62,138.94 524.83,141.84 525.03,144.76 525.23,139.18 525.43,142.09 525.64,139.68 525.84,142.51 526.04,138.51 526.24,141.47 526.45,144.35 526.65,146.45 526.85,149.35 527.06,152.10 527.26,146.59 527.46,147.18 527.66,149.84 527.87,151.62 528.07,154.49 528.27,157.34 528.48,159.04 528.68,156.17 528.88,150.64 529.08,145.13 529.29,148.01 529.49,150.86 529.69,145.31 529.90,139.72 530.10,134.07 530.30,128.39 530.50,131.39 530.71,125.69 530.91,119.87 531.11,114.01 531.31,117.03 531.52,119.67 531.72,122.65 531.92,125.12 532.13,119.36 532.33,113.48 532.53,107.56 532.73,101.59 532.94,102.94 533.14,106.07 533.34,100.14 533.55,103.26 533.75,97.29 533.95,91.22 534.15,85.11 534.36,88.36 534.56,82.20 534.76,85.37 534.97,88.57 535.17,91.68 535.37,94.88 535.57,98.02 535.78,101.19 535.98,104.25 536.18,107.32 536.38,110.41 536.59,113.45 536.79,116.52 536.99,116.84 537.20,119.84 537.40,114.01 537.60,117.00 537.80,111.12 538.01,114.12 538.21,108.19 538.41,111.28 538.62,114.32 538.82,117.33 539.02,120.34 539.22,114.46 539.43,108.57 539.63,102.61 539.83,105.74 540.03,108.86 540.24,102.91 540.44,105.99 540.64,109.12 540.85,112.20 541.05,115.26 541.25,118.30 541.45,120.94 541.66,123.93 541.86,126.90 542.06,121.12 542.27,115.29 542.47,117.88 542.67,120.85 542.87,115.03 543.08,118.07 543.28,121.05 543.48,124.06 543.69,127.05 543.89,129.05 544.09,132.06 544.29,127.83 544.50,122.02 544.70,125.07 544.90,128.04 545.10,131.01 545.31,125.33 545.51,128.30 545.71,122.59 545.92,125.59 546.12,128.24 546.32,129.73 546.52,132.66 546.73,135.49 546.93,138.41 547.13,141.35 547.34,141.91 547.54,137.71 547.74,140.58 547.94,143.51 548.15,138.15 548.35,141.09 548.55,135.46 548.76,138.40 548.96,132.74 549.16,134.47 549.36,137.40 549.57,131.74 549.77,134.64 549.97,128.94 550.17,131.94 550.38,134.89 550.58,137.82 550.78,140.78 550.99,143.03 551.19,145.94 551.39,148.86 551.59,151.75 551.80,154.61 552.00,157.41 552.20,160.24 552.41,155.99 552.61,158.84 552.81,154.70 553.01,157.51 553.22,152.08 553.42,154.60 553.62,157.18 553.83,159.97 554.03,158.96 554.23,155.60 554.43,153.41 554.64,156.25 554.84,157.81 555.04,160.60 555.24,162.72 555.45,157.36 555.65,151.87 555.85,154.72 556.06,157.60 556.26,160.38 556.46,162.74 556.66,165.20 556.87,167.38 557.07,170.15 557.27,165.53 557.48,160.11 557.68,154.65 557.88,156.64 558.08,159.29 558.29,162.15 558.49,162.82 558.69,157.41 558.90,151.98 559.10,154.69 559.30,156.70 559.50,159.52 559.71,162.32 559.91,156.93 560.11,151.48 560.31,149.60 560.52,152.51 560.72,155.20 560.92,157.39 561.13,159.83 561.33,162.69 561.53,165.49 561.73,160.13 561.94,162.93 562.14,164.15 562.34,158.76 562.55,161.60 562.75,164.09 562.95,161.58 563.15,164.27 563.36,167.04 563.56,169.84 563.76,171.86 563.97,173.54 564.17,168.24 564.37,171.05 564.57,172.70 564.78,167.39 564.98,170.20 565.18,171.80 565.38,173.77 565.59,176.55 565.79,179.29 565.99,181.98 566.20,184.66 566.40,179.51 566.60,182.26 566.80,184.93 567.01,185.69 567.21,180.53 567.41,183.24 567.62,178.05 567.82,180.42 568.02,183.12 568.22,180.42 568.43,182.54 568.63,185.20 568.83,187.89 569.03,190.59 569.24,185.46 569.44,188.18 569.64,185.84 569.85,188.52 570.05,189.37 570.25,184.21 570.45,185.41 570.66,186.05 570.86,188.76 571.06,191.41 571.27,186.24 571.47,188.94 571.67,191.59 571.87,194.03 572.08,196.66 572.28,199.29 572.48,201.94 572.69,196.90 572.89,199.52 573.09,201.31 573.29,203.94 573.50,199.26 573.70,194.20 573.90,196.76 574.10,199.38 574.31,202.00 574.51,203.37 574.71,198.39 574.92,200.11 575.12,202.72 575.32,205.32 575.52,207.39 575.73,209.96 575.93,212.56 576.13,215.00 576.34,210.08 576.54,205.16 576.74,202.52 576.94,197.47 577.15,200.07 577.35,195.02 577.55,197.67 577.76,200.29 577.96,198.46 578.16,201.11 578.36,196.12 578.57,191.04 578.77,193.68 578.97,196.34 579.17,198.35 579.38,200.99 579.58,202.71 579.78,205.31 579.99,207.91 580.19,202.95 580.39,199.12 580.59,194.08 580.80,196.68 581.00,191.63 581.20,186.50 581.41,181.33 581.61,184.02 581.81,178.82 582.01,181.55 582.22,184.28 582.42,179.10 582.62,177.80 582.83,180.52 583.03,183.03 583.23,185.72 583.43,188.42 583.64,191.11 583.84,189.98 584.04,191.56 584.24,186.47 584.45,183.14 584.65,177.96 584.85,175.70 585.06,178.26 585.26,173.04 585.46,175.79 585.66,172.15 585.87,174.88 586.07,177.62 586.27,179.96 586.48,182.71 586.68,185.17 586.88,184.90 587.08,186.22 587.29,188.37 587.49,186.62 587.69,181.49 587.90,176.24 588.10,173.85 588.30,176.62 588.50,178.20 588.71,180.30 588.91,182.16 589.11,179.77 589.31,182.49 589.52,184.53 589.72,187.25 589.92,189.28 590.13,190.50 590.33,190.95 590.53,193.62 590.73,195.62 590.94,197.02 591.14,193.33 591.34,188.93 591.55,191.27 591.75,186.11 591.95,187.58 592.15,190.23 592.36,192.12 592.56,187.04 592.76,188.30 592.97,190.99 593.17,192.54 593.37,187.39 593.57,189.06 593.78,186.97 593.98,189.63 594.18,186.78 594.38,189.45 594.59,192.14 594.79,194.80 594.99,197.45 595.20,192.38 595.40,195.04 595.60,197.70 595.80,200.33 596.01,202.66 596.21,201.64 596.41,204.24 596.62,205.30 596.82,207.18 597.02,209.23 597.22,211.83 597.43,212.97 597.63,208.04 597.83,209.83 598.03,212.23 598.24,214.78 598.44,216.01 598.64,213.52 598.85,215.40 599.05,212.09 599.25,213.34 599.45,214.94 599.66,217.46 599.86,219.36 600.06,214.50 600.27,210.48 600.47,213.04 600.67,208.10 600.87,203.17 601.08,204.48 601.28,199.46 601.48,201.83 601.69,204.39 601.89,207.01 602.09,209.62 602.29,212.19 602.50,213.56 602.70,216.06 602.90,218.58 603.10,219.84 603.31,220.98 603.51,223.46 603.71,223.92 603.92,219.16 604.12,221.65 604.32,216.84 604.52,218.64 604.73,220.14 604.93,216.98 605.13,212.13 605.34,209.09 605.54,211.66 605.74,213.80 605.94,214.32 606.15,216.89 606.35,212.83 606.55,207.95 606.76,210.48 606.96,212.50 607.16,215.01 607.36,217.55 607.57,214.44 607.77,216.44 607.97,218.97 608.17,221.34 608.38,223.85 608.58,226.33 608.78,227.49 608.99,230.00 609.19,225.28 609.39,220.51 609.59,221.42 609.80,223.13 610.00,224.52" fill="none" stroke="#2563eb" stroke-width="1.5"/><text x="30" y="252" font-size="11" fill="#555">min 78040.06 / max 110568.67</text></svg>
