<svg xmlns="http://www.w3.org/2000/svg" width="640" height="260" viewBox="0 0 640 260"><rect width="640" height="260" fill="white"/><text x="30" y="22" font-size="14" fill="#111">M10-PA-013 15m baseline equity</text><line x1="30" y1="230" x2="610" y2="230" stroke="#ccc"/><line x1="30" y1="30" x2="30" y2="230" stroke="#ccc"/><polyline points="30.00,90.26 30.40,91.94 30.81,88.59 31.21,90.67 31.61,93.76 32.02,95.90 32.42,98.78 32.83,95.87 33.23,92.47 33.63,94.79 34.04,84.93 34.44,87.62 34.84,83.49 35.25,77.62 35.65,80.76 36.05,75.20 36.46,76.41 36.86,78.20 37.27,79.80 37.67,80.90 38.07,80.25 38.48,81.99 38.88,79.32 39.28,80.29 39.69,80.90 40.09,78.88 40.49,80.14 40.90,78.64 41.30,76.58 41.70,78.37 42.11,76.64 42.51,78.09 42.92,75.29 43.32,76.13 43.72,71.81 44.13,69.99 44.53,68.70 44.93,70.07 45.34,75.37 45.74,76.72 46.14,77.97 46.55,80.44 46.95,78.76 47.36,81.47 47.76,80.39 48.16,77.16 48.57,78.74 48.97,82.62 49.37,83.90 49.78,84.98 50.18,85.62 50.58,83.06 50.99,84.09 51.39,83.90 51.80,85.61 52.20,85.55 52.60,81.79 53.01,82.82 53.41,84.39 53.81,82.10 54.22,85.49 54.62,86.18 55.02,87.48 55.43,88.57 55.83,89.96 56.24,86.80 56.64,85.00 57.04,75.04 57.45,66.71 57.85,69.13 58.25,65.75 58.66,61.91 59.06,63.52 59.46,65.42 59.87,66.10 60.27,66.97 60.68,69.79 61.08,67.19 61.48,72.44 61.89,71.52 62.29,70.96 62.69,67.85 63.10,66.05 63.50,67.84 63.90,65.55 64.31,69.05 64.71,70.86 65.11,69.83 65.52,70.89 65.92,72.48 66.33,74.96 66.73,70.23 67.13,71.66 67.54,70.47 67.94,71.54 68.34,69.20 68.75,70.15 69.15,73.29 69.55,75.32 69.96,76.59 70.36,77.89 70.77,75.08 71.17,74.31 71.57,72.15 71.98,72.79 72.38,73.62 72.78,70.22 73.19,66.91 73.59,68.45 73.99,69.60 74.40,70.90 74.80,70.23 75.21,71.92 75.61,65.68 76.01,66.85 76.42,67.80 76.82,68.88 77.22,66.42 77.63,66.96 78.03,68.18 78.43,70.50 78.84,71.77 79.24,72.09 79.65,77.36 80.05,78.07 80.45,79.97 80.86,80.61 81.26,81.60 81.66,79.96 82.07,79.56 82.47,80.87 82.87,79.62 83.28,80.65 83.68,81.59 84.08,80.63 84.49,80.37 84.89,79.32 85.30,78.15 85.70,75.08 86.10,76.54 86.51,78.10 86.91,81.61 87.31,82.81 87.72,82.29 88.12,85.13 88.52,83.71 88.93,86.91 89.33,88.81 89.74,88.13 90.14,87.78 90.54,88.36 90.95,86.88 91.35,88.11 91.75,87.26 92.16,91.37 92.56,92.65 92.96,95.52 93.37,93.79 93.77,91.08 94.18,94.26 94.58,93.45 94.98,94.88 95.39,96.08 95.79,93.61 96.19,92.57 96.60,94.51 97.00,98.81 97.40,101.83 97.81,104.19 98.21,109.30 98.62,113.94 99.02,110.98 99.42,101.69 99.83,105.25 100.23,100.19 100.63,93.12 101.04,86.91 101.44,92.11 101.84,91.28 102.25,93.52 102.65,96.05 103.05,95.35 103.46,94.06 103.86,95.48 104.27,94.59 104.67,97.05 105.07,87.28 105.48,90.77 105.88,80.89 106.28,83.85 106.69,86.68 107.09,91.73 107.49,85.58 107.90,90.77 108.30,95.94 108.71,98.11 109.11,100.94 109.51,99.17 109.92,103.36 110.32,104.36 110.72,96.69 111.13,99.20 111.53,102.45 111.93,107.58 112.34,109.62 112.74,113.58 113.15,108.31 113.55,110.61 113.95,112.58 114.36,114.02 114.76,115.75 115.16,116.71 115.57,117.56 115.97,122.08 116.37,123.18 116.78,127.48 117.18,123.63 117.59,122.78 117.99,123.25 118.39,123.89 118.80,124.56 119.20,120.06 119.60,125.04 120.01,125.88 120.41,129.10 120.81,126.93 121.22,129.37 121.62,129.87 122.03,130.47 122.43,130.98 122.83,132.40 123.24,132.84 123.64,128.04 124.04,129.12 124.45,124.05 124.85,122.63 125.25,123.26 125.66,124.85 126.06,125.77 126.46,126.08 126.87,124.06 127.27,124.89 127.68,125.99 128.08,126.49 128.48,127.87 128.89,132.27 129.29,133.08 129.69,130.61 130.10,132.18 130.50,133.15 130.90,134.02 131.31,136.78 131.71,137.73 132.12,134.89 132.52,136.42 132.92,137.75 133.33,142.11 133.73,144.26 134.13,145.64 134.54,147.14 134.94,147.52 135.34,141.84 135.75,140.28 136.15,141.00 136.56,137.92 136.96,136.11 137.36,136.60 137.77,137.69 138.17,138.94 138.57,139.88 138.98,137.21 139.38,137.59 139.78,140.22 140.19,141.33 140.59,142.24 141.00,143.08 141.40,138.59 141.80,139.89 142.21,141.09 142.61,141.59 143.01,141.32 143.42,141.90 143.82,142.75 144.22,139.52 144.63,137.30 145.03,140.40 145.43,131.05 145.84,125.59 146.24,130.59 146.65,132.04 147.05,131.20 147.45,127.18 147.86,129.09 148.26,130.06 148.66,131.15 149.07,128.80 149.47,121.51 149.87,123.43 150.28,127.36 150.68,126.06 151.09,127.19 151.49,127.96 151.89,129.96 152.30,131.71 152.70,135.79 153.10,138.90 153.51,136.06 153.91,139.44 154.31,140.53 154.72,141.66 155.12,137.78 155.53,139.07 155.93,142.44 156.33,143.94 156.74,146.21 157.14,146.97 157.54,148.20 157.95,148.85 158.35,150.03 158.75,149.07 159.16,143.37 159.56,147.93 159.97,149.80 160.37,147.81 160.77,149.02 161.18,149.59 161.58,149.94 161.98,148.92 162.39,150.04 162.79,151.46 163.19,152.75 163.60,153.37 164.00,151.40 164.41,154.00 164.81,157.03 165.21,157.86 165.62,159.26 166.02,161.18 166.42,164.61 166.83,165.43 167.23,167.80 167.63,168.76 168.04,170.09 168.44,170.67 168.84,168.93 169.25,159.85 169.65,153.67 170.06,149.07 170.46,144.01 170.86,146.57 171.27,150.73 171.67,152.31 172.07,147.87 172.48,149.98 172.88,148.37 173.28,149.30 173.69,152.48 174.09,145.96 174.50,136.64 174.90,137.10 175.30,138.31 175.71,140.42 176.11,141.03 176.51,143.98 176.92,146.09 177.32,148.02 177.72,150.69 178.13,153.18 178.53,148.33 178.94,146.41 179.34,148.68 179.74,150.08 180.15,153.00 180.55,155.42 180.95,154.98 181.36,150.49 181.76,151.67 182.16,152.86 182.57,153.58 182.97,154.47 183.38,155.30 183.78,156.62 184.18,154.92 184.59,90.26 184.99,86.42 185.39,86.94 185.80,90.42 186.20,84.49 186.60,74.49 187.01,76.05 187.41,78.64 187.81,81.73 188.22,77.41 188.62,80.06 189.03,80.80 189.43,83.54 189.83,73.62 190.24,74.94 190.64,77.48 191.04,75.02 191.45,76.24 191.85,76.79 192.25,71.40 192.66,73.63 193.06,74.34 193.47,72.12 193.87,74.05 194.27,71.56 194.68,72.41 195.08,73.96 195.48,71.49 195.89,68.79 196.29,70.14 196.69,72.06 197.10,64.16 197.50,69.17 197.91,70.90 198.31,72.04 198.71,74.46 199.12,72.59 199.52,71.17 199.92,72.76 200.33,78.03 200.73,80.57 201.13,82.28 201.54,79.70 201.94,83.95 202.35,80.61 202.75,77.20 203.15,71.54 203.56,76.36 203.96,78.83 204.36,79.95 204.77,82.66 205.17,83.00 205.57,83.93 205.98,86.20 206.38,83.46 206.78,88.65 207.19,90.82 207.59,92.80 208.00,94.08 208.40,95.63 208.80,87.69 209.21,84.68 209.61,83.40 210.01,86.11 210.42,89.85 210.82,85.62 211.22,82.00 211.63,83.77 212.03,88.97 212.44,91.00 212.84,82.89 213.24,83.64 213.65,86.02 214.05,81.38 214.45,86.63 214.86,89.31 215.26,93.50 215.66,95.36 216.07,100.52 216.47,102.27 216.88,100.73 217.28,101.96 217.68,103.29 218.09,104.91 218.49,103.49 218.89,105.71 219.30,106.52 219.70,103.86 220.10,99.39 220.51,101.80 220.91,96.36 221.32,98.51 221.72,102.58 222.12,107.68 222.53,109.72 222.93,111.91 223.33,113.99 223.74,112.92 224.14,110.12 224.54,112.47 224.95,109.95 225.35,112.65 225.76,107.65 226.16,109.51 226.56,110.90 226.97,111.91 227.37,113.07 227.77,115.45 228.18,119.41 228.58,121.52 228.98,125.23 229.39,126.33 229.79,118.95 230.19,120.46 230.60,121.85 231.00,124.45 231.41,125.58 231.81,126.75 232.21,131.68 232.62,125.38 233.02,127.99 233.42,129.00 233.83,126.87 234.23,129.95 234.63,128.74 235.04,127.28 235.44,128.56 235.85,130.65 236.25,127.14 236.65,125.03 237.06,125.74 237.46,123.19 237.86,128.13 238.27,125.48 238.67,124.27 239.07,120.48 239.48,117.55 239.88,119.59 240.29,111.25 240.69,112.64 241.09,109.01 241.50,104.03 241.90,106.31 242.30,107.52 242.71,105.91 243.11,104.45 243.51,102.04 243.92,103.24 244.32,104.81 244.73,106.77 245.13,110.36 245.53,108.23 245.94,110.87 246.34,114.80 246.74,112.94 247.15,115.03 247.55,111.11 247.95,104.07 248.36,98.55 248.76,99.94 249.16,93.11 249.57,97.45 249.97,102.55 250.38,92.78 250.78,89.34 251.18,79.47 251.59,83.58 251.99,76.71 252.39,79.77 252.80,69.99 253.20,75.24 253.60,79.34 254.01,82.68 254.41,87.41 254.82,92.60 255.22,93.68 255.62,95.51 256.03,96.97 256.43,95.72 256.83,98.93 257.24,89.16 257.64,92.89 258.04,97.98 258.45,101.61 258.85,105.14 259.26,96.88 259.66,89.14 260.06,94.29 260.47,89.23 260.87,92.08 261.27,87.81 261.68,88.84 262.08,92.42 262.48,95.67 262.89,99.27 263.29,104.36 263.70,107.24 264.10,97.50 264.50,102.68 264.91,104.71 265.31,101.09 265.71,92.10 266.12,90.64 266.52,86.24 266.92,87.20 267.33,88.41 267.73,91.19 268.14,96.40 268.54,98.16 268.94,103.20 269.35,105.27 269.75,105.92 270.15,108.80 270.56,106.33 270.96,108.86 271.36,113.89 271.77,117.07 272.17,121.95 272.57,119.33 272.98,109.74 273.38,111.03 273.79,112.67 274.19,115.42 274.59,117.22 275.00,118.26 275.40,112.99 275.80,108.10 276.21,112.51 276.61,106.82 277.01,104.82 277.42,105.62 277.82,107.39 278.23,104.60 278.63,98.72 279.03,99.90 279.44,101.43 279.84,99.97 280.24,102.02 280.65,95.23 281.05,100.20 281.45,99.42 281.86,101.06 282.26,102.01 282.67,105.16 283.07,106.84 283.47,108.01 283.88,111.54 284.28,115.97 284.68,118.56 285.09,120.72 285.49,125.29 285.89,128.53 286.30,130.11 286.70,129.61 287.11,130.24 287.51,127.95 287.91,128.36 288.32,126.26 288.72,127.07 289.12,128.34 289.53,129.87 289.93,130.79 290.33,127.82 290.74,132.80 291.14,133.52 291.54,134.15 291.95,139.13 292.35,140.62 292.76,141.18 293.16,141.93 293.56,145.16 293.97,143.67 294.37,144.75 294.77,147.16 295.18,145.40 295.58,148.98 295.98,146.10 296.39,148.59 296.79,151.15 297.20,153.44 297.60,152.21 298.00,156.98 298.41,160.01 298.81,161.00 299.21,162.36 299.62,163.93 300.02,157.01 300.42,159.67 300.83,160.46 301.23,165.30 301.64,163.96 302.04,165.47 302.44,156.37 302.85,160.29 303.25,165.07 303.65,168.94 304.06,173.37 304.46,174.93 304.86,179.70 305.27,183.99 305.67,186.43 306.08,183.41 306.48,184.53 306.88,182.57 307.29,183.99 307.69,184.84 308.09,179.31 308.50,184.02 308.90,187.28 309.30,178.71 309.71,183.41 310.11,184.26 310.51,185.75 310.92,188.17 311.32,191.51 311.73,191.94 312.13,193.34 312.53,195.23 312.94,195.83 313.34,188.49 313.74,192.05 314.15,195.98 314.55,194.91 314.95,196.53 315.36,199.73 315.76,204.32 316.17,204.98 316.57,200.79 316.97,197.34 317.38,198.57 317.78,199.80 318.18,200.60 318.59,205.20 318.99,196.40 319.39,200.59 319.80,205.14 320.20,209.75 320.61,214.31 321.01,213.66 321.41,214.15 321.82,208.62 322.22,209.47 322.62,213.98 323.03,216.11 323.43,219.39 323.83,221.36 324.24,225.89 324.64,226.78 325.05,229.11 325.45,230.00 325.85,224.31 326.26,227.07 326.66,229.17 327.06,226.46 327.47,229.14 327.87,223.88 328.27,220.84 328.68,222.69 329.08,223.81 329.49,225.62 329.89,220.01 330.29,220.94 330.70,223.28 331.10,226.03 331.50,227.11 331.91,220.36 332.31,222.38 332.71,213.82 333.12,215.43 333.52,216.37 333.92,218.01 334.33,219.02 334.73,221.34 335.14,218.67 335.54,90.26 335.94,80.89 336.35,70.86 336.75,60.70 337.15,50.49 337.56,52.42 337.96,44.93 338.36,50.32 338.77,40.01 339.17,45.47 339.58,50.83 339.98,56.24 340.38,60.60 340.79,65.93 341.19,70.31 341.59,75.49 342.00,65.45 342.40,55.30 342.80,60.57 343.21,65.89 343.61,71.22 344.02,76.47 344.42,81.61 344.82,71.54 345.23,76.71 345.63,66.63 346.03,71.30 346.44,66.28 346.84,71.50 347.24,74.04 347.65,79.34 348.05,83.79 348.46,85.28 348.86,90.42 349.26,95.57 349.67,100.66 350.07,105.71 350.47,110.83 350.88,115.79 351.28,120.75 351.68,125.71 352.09,116.10 352.49,121.08 352.89,126.01 353.30,131.02 353.70,121.48 354.11,126.46 354.51,116.88 354.91,107.20 355.32,111.81 355.72,116.81 356.12,121.79 356.53,112.18 356.93,117.27 357.33,107.59 357.74,97.81 358.14,87.96 358.55,93.14 358.95,98.30 359.35,88.36 359.76,93.53 360.16,98.56 360.56,101.24 360.97,91.41 361.37,96.59 361.77,101.38 362.18,106.45 362.58,111.43 362.99,101.70 363.39,91.89 363.79,95.60 364.20,100.78 364.60,105.78 365.00,109.15 365.41,112.34 365.81,117.32 366.21,122.37 366.62,127.30 367.02,131.99 367.43,136.92 367.83,129.70 368.23,134.59 368.64,125.14 369.04,115.53 369.44,105.88 369.85,107.93 370.25,98.15 370.65,103.31 371.06,105.99 371.46,110.99 371.86,115.97 372.27,118.92 372.67,109.35 373.08,112.04 373.48,115.22 373.88,117.28 374.29,122.24 374.69,126.93 375.09,131.02 375.50,135.27 375.90,125.77 376.30,130.65 376.71,123.35 377.11,128.27 377.52,131.88 377.92,136.35 378.32,141.20 378.73,131.73 379.13,127.88 379.53,132.80 379.94,123.27 380.34,128.25 380.74,132.68 381.15,137.66 381.55,139.34 381.96,133.52 382.36,138.46 382.76,129.06 383.17,119.53 383.57,123.46 383.97,113.86 384.38,118.82 384.78,123.87 385.18,114.26 385.59,118.36 385.99,123.38 386.40,125.56 386.80,128.70 387.20,132.81 387.61,137.68 388.01,134.40 388.41,125.59 388.82,130.56 389.22,133.38 389.62,138.33 390.03,128.87 390.43,133.81 390.84,126.83 391.24,117.23 391.64,122.20 392.05,127.21 392.45,132.09 392.85,137.01 393.26,141.98 393.66,144.40 394.06,141.51 394.47,135.46 394.87,140.32 395.27,130.83 395.68,125.72 396.08,130.72 396.49,135.62 396.89,140.51 397.29,144.14 397.70,148.93 398.10,139.50 398.50,144.37 398.91,149.14 399.31,139.82 399.71,130.55 400.12,121.05 400.52,125.97 400.93,130.94 401.33,121.39 401.73,126.41 402.14,122.35 402.54,119.68 402.94,123.84 403.35,128.78 403.75,119.22 404.15,124.17 404.56,129.07 404.96,133.98 405.37,124.54 405.77,129.50 406.17,134.45 406.58,125.04 406.98,115.48 407.38,120.55 407.79,124.39 408.19,119.84 408.59,124.86 409.00,127.27 409.40,117.77 409.81,120.23 410.21,123.10 410.61,115.75 411.02,119.25 411.42,124.19 411.82,114.61 412.23,117.34 412.63,121.55 413.03,123.91 413.44,114.37 413.84,116.53 414.24,121.57 414.65,124.04 415.05,129.01 415.46,132.73 415.86,135.51 416.26,140.49 416.67,145.41 417.07,150.28 417.47,155.17 417.88,153.15 418.28,145.87 418.68,150.72 419.09,141.36 419.49,145.12 419.90,149.99 420.30,152.89 420.70,143.62 421.11,140.96 421.51,144.93 421.91,135.56 422.32,137.13 422.72,142.10 423.12,144.37 423.53,149.23 423.93,153.80 424.34,144.52 424.74,146.72 425.14,140.26 425.55,145.11 425.95,147.76 426.35,139.66 426.76,142.05 427.16,146.97 427.56,137.56 427.97,135.01 428.37,132.37 428.78,137.27 429.18,131.47 429.58,121.97 429.99,119.86 430.39,122.49 430.79,114.23 431.20,115.54 431.60,108.54 432.00,112.88 432.41,113.57 432.81,103.95 433.22,106.41 433.62,96.63 434.02,87.09 434.43,91.09 434.83,81.13 435.23,75.05 435.64,80.20 436.04,85.33 436.44,81.25 436.85,74.44 437.25,79.64 437.65,83.84 438.06,82.49 438.46,85.59 438.87,90.74 439.27,95.53 439.67,98.24 440.08,103.35 440.48,93.49 440.88,83.55 441.29,88.71 441.69,93.92 442.09,84.07 442.50,78.08 442.90,83.25 443.31,86.67 443.71,88.24 444.11,81.83 444.52,87.02 444.92,80.66 445.32,84.11 445.73,74.10 446.13,79.30 446.53,83.11 446.94,88.27 447.34,90.32 447.75,94.32 448.15,96.71 448.55,101.82 448.96,106.86 449.36,99.35 449.76,104.46 450.17,94.70 450.57,84.87 450.97,87.87 451.38,81.55 451.78,78.35 452.19,83.54 452.59,88.73 452.99,93.60 453.40,98.66 453.80,101.55 454.20,106.60 454.61,109.52 455.01,114.56 455.41,111.68 455.82,114.24 456.22,119.20 456.62,109.48 457.03,114.50 457.43,104.82 457.84,95.62 458.24,100.80 458.64,91.05 459.05,96.24 459.45,101.33 459.85,106.38 460.26,109.73 460.66,103.39 461.06,108.43 461.47,113.55 461.87,118.61 462.28,123.55 462.68,118.32 463.08,123.36 463.49,125.07 463.89,126.12 464.29,117.13 464.70,119.67 465.10,124.60 465.50,117.20 465.91,121.45 466.31,126.40 466.72,121.43 467.12,118.66 467.52,109.07 467.93,114.14 468.33,104.49 468.73,106.78 469.14,107.76 469.54,90.26 469.94,80.33 470.35,85.48 470.75,90.59 471.16,95.70 471.56,85.81 471.96,91.03 472.37,81.06 472.77,85.24 473.17,90.35 473.58,80.46 473.98,85.64 474.38,90.79 474.79,95.85 475.19,100.84 475.59,91.18 476.00,96.25 476.40,101.12 476.81,91.29 477.21,96.37 477.61,101.52 478.02,106.66 478.42,108.11 478.82,98.38 479.23,103.46 479.63,108.43 480.03,113.54 480.44,118.55 480.84,123.58 481.25,116.73 481.65,119.05 482.05,121.15 482.46,111.51 482.86,105.51 483.26,96.01 483.67,86.12 484.07,91.29 484.47,82.60 484.88,72.66 485.28,65.21 485.69,70.32 486.09,75.59 486.49,65.46 486.90,70.66 487.30,75.89 487.70,81.12 488.11,71.19 488.51,76.44 488.91,66.45 489.32,56.40 489.72,61.61 490.13,66.89 490.53,56.72 490.93,46.44 491.34,35.99 491.74,39.49 492.14,44.92 492.55,34.83 492.95,40.31 493.35,42.19 493.76,47.63 494.16,52.99 494.57,58.25 494.97,48.00 495.37,51.13 495.78,56.46 496.18,61.69 496.58,67.00 496.99,72.27 497.39,75.76 497.79,79.72 498.20,69.64 498.60,72.66 499.00,77.82 499.41,67.76 499.81,57.72 500.22,61.96 500.62,67.18 501.02,71.03 501.43,72.49 501.83,65.95 502.23,71.12 502.64,60.97 503.04,51.42 503.44,56.67 503.85,61.92 504.25,65.01 504.66,69.42 505.06,74.74 505.46,64.66 505.87,60.27 506.27,50.00 506.67,55.29 507.08,45.05 507.48,49.70 507.88,39.40 508.29,44.75 508.69,34.38 509.10,30.00 509.50,32.17 509.90,34.77 510.31,40.11 510.71,45.48 511.11,49.30 511.52,54.58 511.92,59.90 512.32,64.32 512.73,66.98 513.13,60.41 513.54,63.37 513.94,68.58 514.34,73.86 514.75,79.06 515.15,68.98 515.55,74.15 515.96,79.40 516.36,69.34 516.76,74.56 517.17,78.66 517.57,72.97 517.97,78.21 518.38,83.39 518.78,88.59 519.19,93.69 519.59,96.72 519.99,101.79 520.40,106.78 520.80,96.98 521.20,87.09 521.61,92.18 522.01,82.20 522.41,87.33 522.82,92.44 523.22,95.41 523.63,85.57 524.03,76.51 524.43,81.78 524.84,87.02 525.24,89.77 525.64,94.88 526.05,85.01 526.45,90.17 526.85,80.21 527.26,85.43 527.66,90.56 528.07,80.59 528.47,85.78 528.87,90.99 529.28,96.18 529.68,100.54 530.08,105.56 530.49,109.95 530.89,114.99 531.29,119.93 531.70,110.28 532.10,102.11 532.51,92.23 532.91,97.34 533.31,102.45 533.72,92.68 534.12,97.79 534.52,87.87 534.93,77.88 535.33,67.82 535.73,57.70 536.14,63.05 536.54,52.90 536.95,42.61 537.35,47.89 537.75,53.19 538.16,56.40 538.56,46.09 538.96,51.38 539.37,56.63 539.77,61.89 540.17,64.86 540.58,57.41 540.98,47.11 541.38,52.44 541.79,57.67 542.19,62.91 542.60,67.80 543.00,57.63 543.40,47.41 543.81,52.70 544.21,57.99 544.61,63.27 545.02,53.03 545.42,58.32 545.82,61.81 546.23,55.98 546.63,45.71 547.04,35.39 547.44,40.77 547.84,45.31 548.25,50.68 548.65,53.27 549.05,47.14 549.46,52.48 549.86,57.63 550.26,47.39 550.67,52.73 551.07,55.62 551.48,60.90 551.88,66.20 552.28,71.47 552.69,62.28 553.09,63.24 553.49,66.36 553.90,71.66 554.30,61.48 554.70,64.89 555.11,54.77 555.51,58.56 555.92,63.26 556.32,66.99 556.72,72.21 557.13,77.47 557.53,80.13 557.93,85.13 558.34,90.28 558.74,95.38 559.14,98.99 559.55,101.90 559.95,106.93 560.35,112.01 560.76,114.90 561.16,105.96 561.57,111.03 561.97,116.03 562.37,110.44 562.78,114.99 563.18,116.88 563.58,112.43 563.99,117.40 564.39,107.79 564.79,110.47 565.20,115.44 565.60,120.48 566.01,125.41 566.41,130.13 566.81,135.00 567.22,139.83 567.62,131.72 568.02,122.29 568.43,116.52 568.83,106.87 569.23,109.43 569.64,111.98 570.04,117.03 570.45,121.14 570.85,126.05 571.25,129.45 571.66,134.33 572.06,137.64 572.46,142.51 572.87,147.45 573.27,149.71 573.67,154.48 574.08,159.01 574.48,151.76 574.89,144.26 575.29,149.16 575.69,152.90 576.10,143.67 576.50,148.08 576.90,138.68 577.31,143.50 577.71,138.69 578.11,133.20 578.52,138.17 578.92,143.05 579.32,147.97 579.73,152.73 580.13,143.42 580.54,148.22 580.94,153.06 581.34,143.76 581.75,147.58 582.15,152.39 582.55,157.09 582.96,161.89 583.36,158.14 583.76,148.96 584.17,152.32 584.57,156.68 584.98,161.48 585.38,165.80 585.78,170.55 586.19,175.28 586.59,179.12 586.99,170.15 587.40,165.05 587.80,168.63 588.20,173.38 588.61,168.75 589.01,172.34 589.42,177.04 589.82,181.69 590.22,183.55 590.63,185.26 591.03,187.63 591.43,179.08 591.84,182.17 592.24,185.09 592.64,187.38 593.05,178.35 593.45,182.99 593.86,174.00 594.26,178.74 594.66,169.76 595.07,174.51 595.47,179.19 595.87,170.11 596.28,160.99 596.68,165.06 597.08,167.19 597.49,171.99 597.89,165.47 598.30,156.36 598.70,161.22 599.10,158.66 599.51,163.44 599.91,166.39 600.31,160.14 600.72,164.86 601.12,156.56 601.52,160.02 601.93,164.83 602.33,169.59 602.73,172.74 603.14,175.01 603.54,179.75 603.95,181.28 604.35,185.89 604.75,187.77 605.16,183.65 605.56,184.59 605.96,187.21 606.37,191.82 606.77,195.51 607.17,199.95 607.58,204.53 607.98,208.11 608.39,211.18 608.79,207.59 609.19,212.13 609.60,216.70 610.00,209.06" fill="none" stroke="#2563eb" stroke-width="1.5"/><text x="30" y="252" font-size="11" fill="#555">min 86071.12 / max 106006.91</text></svg>
