<svg xmlns="http://www.w3.org/2000/svg" width="640" height="260" viewBox="0 0 640 260"><rect width="640" height="260" fill="white"/><text x="30" y="22" font-size="14" fill="#111">M10-PA-011 5m baseline equity</text><line x1="30" y1="230" x2="610" y2="230" stroke="#ccc"/><line x1="30" y1="30" x2="30" y2="230" stroke="#ccc"/><polyline points="30.00,93.71 38.66,107.08 47.31,110.38 55.97,115.31 64.63,120.59 73.28,124.30 81.94,130.67 90.60,136.36 99.25,141.66 107.91,144.94 116.57,152.24 125.22,154.36 133.88,156.91 142.54,132.15 151.19,142.64 159.85,155.53 168.51,160.64 177.16,164.82 185.82,168.90 194.48,164.13 203.13,167.56 211.79,170.84 220.45,173.95 229.10,176.91 237.76,180.08 246.42,191.12 255.07,197.54 263.73,205.71 272.39,212.86 281.04,225.61 289.70,230.00 298.36,93.71 307.01,102.33 315.67,115.59 324.33,122.64 332.99,97.72 341.64,106.85 350.30,84.79 358.96,70.77 367.61,81.17 376.27,88.43 384.93,76.78 393.58,51.17 402.24,62.08 410.90,71.54 419.55,84.73 428.21,91.50 436.87,97.55 445.52,107.03 454.18,97.11 462.84,109.36 471.49,116.21 480.15,121.21 488.81,124.85 497.46,104.05 506.12,111.69 514.78,122.11 523.43,97.07 532.09,93.71 540.75,106.64 549.40,83.25 558.06,93.71 566.72,106.79 575.37,81.39 584.03,55.70 592.69,30.00 601.34,43.43 610.00,56.82" fill="none" stroke="#2563eb" stroke-width="1.5"/><text x="30" y="252" font-size="11" fill="#555">min 94699.51 / max 102477.99</text></svg>
