<svg xmlns="http://www.w3.org/2000/svg" width="640" height="260" viewBox="0 0 640 260"><rect width="640" height="260" fill="white"/><text x="30" y="22" font-size="14" fill="#111">M10-PA-013 5m baseline equity</text><line x1="30" y1="230" x2="610" y2="230" stroke="#ccc"/><line x1="30" y1="30" x2="30" y2="230" stroke="#ccc"/><polyline points="30.00,80.21 30.13,80.99 30.27,81.21 30.40,81.88 30.54,82.25 30.67,83.16 30.81,83.69 30.94,84.06 31.08,84.27 31.21,85.24 31.34,85.77 31.48,86.03 31.61,86.58 31.75,89.08 31.88,88.46 32.02,87.20 32.15,88.16 32.29,88.67 32.42,88.46 32.55,89.37 32.69,89.97 32.82,89.53 32.96,90.20 33.09,88.97 33.23,90.29 33.36,86.62 33.50,87.34 33.63,85.39 33.76,83.21 33.90,83.81 34.03,84.34 34.17,81.40 34.30,81.88 34.44,79.34 34.57,77.92 34.71,77.29 34.84,77.93 34.97,78.70 35.11,80.03 35.24,79.84 35.38,78.98 35.51,79.56 35.65,80.43 35.78,80.77 35.92,80.55 36.05,80.92 36.18,81.20 36.32,80.90 36.45,81.48 36.59,80.30 36.72,81.42 36.86,79.92 36.99,80.80 37.13,80.34 37.26,80.78 37.39,79.94 37.53,80.24 37.66,79.93 37.80,80.11 37.93,78.88 38.07,79.19 38.20,78.72 38.34,78.33 38.47,78.45 38.60,79.11 38.74,77.75 38.87,78.32 39.01,78.57 39.14,78.89 39.28,79.21 39.41,79.50 39.55,79.35 39.68,79.83 39.81,79.63 39.95,79.87 40.08,80.25 40.22,80.69 40.35,80.99 40.49,81.29 40.62,81.63 40.76,81.45 40.89,81.72 41.02,82.55 41.16,83.18 41.29,82.75 41.43,83.30 41.56,83.93 41.70,84.53 41.83,85.01 41.97,85.29 42.10,86.81 42.23,87.31 42.37,87.68 42.50,88.33 42.64,89.24 42.77,90.02 42.91,90.54 43.04,91.29 43.18,91.63 43.31,91.98 43.44,92.25 43.58,91.28 43.71,91.90 43.85,91.16 43.98,91.71 44.12,90.89 44.25,91.39 44.39,92.04 44.52,92.48 44.65,94.51 44.79,95.28 44.92,95.57 45.06,98.10 45.19,98.59 45.33,98.86 45.46,98.34 45.60,98.71 45.73,98.03 45.86,96.42 46.00,95.70 46.13,96.21 46.27,96.52 46.40,96.94 46.54,97.40 46.67,97.83 46.81,97.66 46.94,98.62 47.07,99.12 47.21,98.58 47.34,98.22 47.48,98.95 47.61,99.20 47.75,100.89 47.88,101.24 48.02,101.76 48.15,102.44 48.28,102.69 48.42,103.31 48.55,103.08 48.69,103.47 48.82,103.81 48.96,103.38 49.09,102.63 49.23,102.06 49.36,102.42 49.49,102.69 49.63,102.93 49.76,102.87 49.90,103.24 50.03,104.00 50.17,104.51 50.30,105.04 50.44,105.27 50.57,106.54 50.70,106.84 50.84,104.78 50.97,103.86 51.11,104.13 51.24,105.09 51.38,105.56 51.51,104.83 51.65,105.23 51.78,105.60 51.91,106.12 52.05,103.97 52.18,104.34 52.32,103.69 52.45,104.20 52.59,104.48 52.72,103.53 52.86,104.67 52.99,102.90 53.12,102.44 53.26,103.53 53.39,104.39 53.53,105.22 53.66,105.65 53.80,106.03 53.93,104.64 54.07,103.69 54.20,103.48 54.33,104.20 54.47,103.31 54.60,104.39 54.74,104.96 54.87,101.86 55.01,101.08 55.14,99.85 55.28,101.26 55.41,102.45 55.54,101.71 55.68,103.13 55.81,103.63 55.95,104.57 56.08,105.50 56.22,106.27 56.35,106.74 56.49,105.62 56.62,106.05 56.75,106.81 56.89,107.15 57.02,107.42 57.16,107.86 57.29,107.37 57.43,105.87 57.56,105.10 57.70,105.39 57.83,106.58 57.96,106.34 58.10,106.60 58.23,105.63 58.37,104.92 58.50,105.15 58.64,104.71 58.77,106.12 58.91,106.35 59.04,104.54 59.17,103.88 59.31,103.42 59.44,106.14 59.58,107.09 59.71,106.88 59.85,107.63 59.98,106.59 60.12,106.89 60.25,107.55 60.38,108.03 60.52,107.83 60.65,107.04 60.79,104.82 60.92,103.71 61.06,104.50 61.19,105.23 61.33,105.87 61.46,105.33 61.59,106.29 61.73,106.83 61.86,102.43 62.00,102.90 62.13,101.95 62.27,102.33 62.40,102.95 62.54,103.37 62.67,103.18 62.80,104.06 62.94,104.98 63.07,103.84 63.21,104.15 63.34,105.43 63.48,104.69 63.61,104.93 63.75,105.19 63.88,106.23 64.01,107.39 64.15,108.27 64.28,108.77 64.42,109.75 64.55,108.46 64.69,108.73 64.82,109.31 64.96,109.88 65.09,110.31 65.22,109.95 65.36,110.32 65.49,110.77 65.63,109.66 65.76,109.94 65.90,110.23 66.03,110.95 66.17,111.23 66.30,112.21 66.43,110.77 66.57,110.62 66.70,111.39 66.84,112.37 66.97,111.09 67.11,110.73 67.24,111.00 67.38,111.71 67.51,112.18 67.64,112.97 67.78,113.61 67.91,113.43 68.05,113.69 68.18,112.35 68.32,112.08 68.45,112.31 68.59,111.73 68.72,112.37 68.85,112.83 68.99,113.03 69.12,113.40 69.26,113.81 69.39,113.27 69.53,113.92 69.66,113.49 69.80,113.98 69.93,114.83 70.06,115.13 70.20,114.52 70.33,114.95 70.47,114.81 70.60,115.01 70.74,115.50 70.87,115.86 71.01,116.67 71.14,117.37 71.27,116.84 71.41,117.77 71.54,118.38 71.68,119.71 71.81,119.19 71.95,119.55 72.08,119.19 72.22,119.78 72.35,120.41 72.48,121.20 72.62,120.46 72.75,122.50 72.89,122.89 73.02,123.52 73.16,124.09 73.29,124.87 73.43,124.30 73.56,124.75 73.69,125.04 73.83,124.75 73.96,124.97 74.10,125.43 74.23,126.05 74.37,126.74 74.50,127.08 74.64,127.35 74.77,127.65 74.90,127.85 75.04,128.31 75.17,128.50 75.31,128.94 75.44,129.49 75.58,130.00 75.71,130.70 75.85,130.27 75.98,129.29 76.11,128.92 76.25,129.44 76.38,129.11 76.52,129.01 76.65,129.45 76.79,128.76 76.92,129.31 77.06,129.74 77.19,129.40 77.32,129.60 77.46,129.97 77.59,129.85 77.73,130.07 77.86,129.86 78.00,130.25 78.13,130.51 78.27,130.86 78.40,131.23 78.54,131.59 78.67,131.12 78.80,131.28 78.94,131.45 79.07,131.38 79.21,130.76 79.34,131.09 79.48,130.83 79.61,131.04 79.75,130.67 79.88,131.02 80.01,131.28 80.15,131.59 80.28,131.90 80.42,131.85 80.55,132.12 80.69,131.46 80.82,131.09 80.96,130.48 81.09,130.01 81.22,130.45 81.36,130.11 81.49,130.36 81.63,130.70 81.76,131.01 81.90,131.51 82.03,134.11 82.17,134.73 82.30,135.22 82.43,136.94 82.57,137.85 82.70,138.33 82.84,139.62 82.97,140.24 83.11,140.60 83.24,141.26 83.38,141.75 83.51,142.71 83.64,143.08 83.78,143.82 83.91,143.62 84.05,144.17 84.18,144.85 84.32,146.00 84.45,146.87 84.59,146.37 84.72,146.72 84.85,147.12 84.99,146.87 85.12,147.35 85.26,147.76 85.39,146.90 85.53,147.65 85.66,148.41 85.80,147.33 85.93,148.42 86.06,148.97 86.20,146.54 86.33,145.59 86.47,144.95 86.60,144.57 86.74,144.78 86.87,144.45 87.01,145.12 87.14,145.53 87.27,145.82 87.41,145.48 87.54,145.70 87.68,145.99 87.81,146.21 87.95,146.04 88.08,145.67 88.22,145.47 88.35,145.32 88.48,144.91 88.62,144.28 88.75,144.72 88.89,144.51 89.02,144.96 89.16,145.59 89.29,146.35 89.43,146.74 89.56,143.51 89.69,143.38 89.83,143.78 89.96,144.19 90.10,139.35 90.23,139.88 90.37,139.50 90.50,139.17 90.64,138.59 90.77,138.93 90.90,139.15 91.04,140.54 91.17,141.17 91.31,141.35 91.44,141.71 91.58,142.16 91.71,142.59 91.85,142.14 91.98,142.46 92.11,142.79 92.25,143.18 92.38,143.38 92.52,143.18 92.65,143.41 92.79,142.83 92.92,143.51 93.06,141.26 93.19,141.70 93.32,142.10 93.46,143.03 93.59,141.93 93.73,142.56 93.86,143.36 94.00,144.04 94.13,144.89 94.27,144.28 94.40,145.31 94.53,145.83 94.67,144.73 94.80,146.10 94.94,145.19 95.07,146.58 95.21,145.29 95.34,144.14 95.48,140.61 95.61,143.18 95.74,144.77 95.88,143.37 96.01,144.27 96.15,140.78 96.28,138.79 96.42,139.34 96.55,137.95 96.69,135.85 96.82,137.52 96.95,138.17 97.09,138.67 97.22,139.68 97.36,138.90 97.49,137.95 97.63,138.50 97.76,138.98 97.90,137.55 98.03,138.43 98.16,140.95 98.30,139.24 98.43,138.72 98.57,138.49 98.70,139.02 98.84,139.33 98.97,139.72 99.11,139.94 99.24,140.27 99.37,140.68 99.51,140.24 99.64,139.96 99.78,138.91 99.91,138.44 100.05,139.44 100.18,139.16 100.32,138.54 100.45,139.50 100.58,138.97 100.72,139.87 100.85,140.58 100.99,141.26 101.12,143.77 101.26,144.34 101.39,142.47 101.53,143.22 101.66,143.95 101.79,144.63 101.93,139.79 102.06,142.36 102.20,144.05 102.33,144.77 102.47,146.90 102.60,148.30 102.74,150.81 102.87,149.75 103.00,152.08 103.14,153.35 103.27,154.93 103.41,155.15 103.54,152.65 103.68,153.80 103.81,152.46 103.95,153.43 104.08,154.55 104.21,155.15 104.35,156.11 104.48,157.39 104.62,157.87 104.75,158.50 104.89,159.23 105.02,158.40 105.16,157.78 105.29,158.95 105.42,159.80 105.56,160.82 105.69,161.18 105.83,158.75 105.96,159.04 106.10,157.62 106.23,158.48 106.37,158.71 106.50,159.62 106.63,158.65 106.77,157.71 106.90,158.33 107.04,159.05 107.17,159.81 107.31,160.29 107.44,160.59 107.58,160.34 107.71,160.15 107.84,160.50 107.98,160.76 108.11,161.47 108.25,160.85 108.38,160.27 108.52,160.90 108.65,161.63 108.79,161.99 108.92,162.52 109.05,162.98 109.19,163.72 109.32,164.13 109.46,166.54 109.59,166.94 109.73,167.37 109.86,167.76 110.00,169.59 110.13,170.65 110.26,169.33 110.40,169.88 110.53,170.60 110.67,169.12 110.80,171.49 110.94,171.71 111.07,172.19 111.21,171.60 111.34,172.00 111.47,169.97 111.61,170.72 111.74,171.46 111.88,171.73 112.01,173.09 112.15,172.88 112.28,173.30 112.42,173.59 112.55,172.78 112.68,173.09 112.82,171.18 112.95,170.96 113.09,171.89 113.22,172.11 113.36,171.71 113.49,171.45 113.63,171.69 113.76,171.61 113.89,172.55 114.03,171.74 114.16,170.64 114.30,170.47 114.43,170.13 114.57,170.57 114.70,169.31 114.84,169.59 114.97,170.13 115.10,169.64 115.24,170.52 115.37,171.20 115.51,171.74 115.64,168.13 115.78,168.89 115.91,169.19 116.05,169.69 116.18,168.90 116.31,169.23 116.45,169.49 116.58,169.76 116.72,170.06 116.85,170.32 116.99,170.30 117.12,170.66 117.26,170.41 117.39,170.63 117.52,171.03 117.66,170.18 117.79,170.37 117.93,170.56 118.06,171.01 118.20,171.02 118.33,171.42 118.47,170.64 118.60,170.30 118.73,170.66 118.87,170.86 119.00,171.14 119.14,171.34 119.27,169.82 119.41,169.69 119.54,170.16 119.68,170.41 119.81,170.24 119.94,169.55 120.08,170.07 120.21,170.71 120.35,171.15 120.48,171.80 120.62,171.99 120.75,172.30 120.89,172.68 121.02,173.07 121.15,172.81 121.29,172.93 121.42,173.19 121.56,173.42 121.69,173.76 121.83,173.92 121.96,173.72 122.10,174.00 122.23,174.15 122.36,174.86 122.50,175.40 122.63,175.83 122.77,175.61 122.90,175.09 123.04,174.61 123.17,175.22 123.31,174.59 123.44,172.99 123.57,172.39 123.71,171.56 123.84,171.91 123.98,172.28 124.11,172.61 124.25,172.98 124.38,173.79 124.52,174.13 124.65,174.81 124.78,175.35 124.92,175.89 125.05,176.70 125.19,175.90 125.32,176.21 125.46,171.71 125.59,171.97 125.73,172.24 125.86,172.72 125.99,173.02 126.13,173.28 126.26,173.08 126.40,173.39 126.53,172.88 126.67,173.56 126.80,173.84 126.94,174.11 127.07,174.28 127.20,174.67 127.34,174.84 127.47,175.96 127.61,175.53 127.74,175.99 127.88,176.19 128.01,176.52 128.15,177.08 128.28,177.39 128.41,177.57 128.55,178.00 128.68,177.76 128.82,177.94 128.95,178.28 129.09,178.43 129.22,178.67 129.36,178.26 129.49,177.86 129.62,177.53 129.76,176.93 129.89,177.08 130.03,177.71 130.16,177.00 130.30,177.39 130.43,178.65 130.57,179.40 130.70,179.00 130.83,179.60 130.97,179.94 131.10,180.16 131.24,180.39 131.37,180.60 131.51,180.99 131.64,181.41 131.78,181.71 131.91,181.94 132.04,182.11 132.18,181.05 132.31,180.96 132.45,181.15 132.58,181.45 132.72,181.60 132.85,182.05 132.99,182.25 133.12,183.37 133.25,183.96 133.39,183.57 133.52,183.17 133.66,183.57 133.79,183.45 133.93,185.14 134.06,185.30 134.20,185.44 134.33,185.72 134.46,185.98 134.60,186.20 134.73,185.35 134.87,187.69 135.00,188.11 135.14,188.41 135.27,188.68 135.41,189.21 135.54,189.50 135.67,188.78 135.81,188.41 135.94,188.65 136.08,188.81 136.21,189.09 136.35,189.31 136.48,187.84 136.62,187.63 136.75,187.79 136.88,188.02 137.02,188.23 137.15,187.73 137.29,187.64 137.42,187.85 137.56,187.78 137.69,188.09 137.83,188.31 137.96,188.51 138.09,190.83 138.23,190.38 138.36,190.80 138.50,189.06 138.63,188.51 138.77,186.95 138.90,184.87 139.04,187.20 139.17,188.30 139.30,189.57 139.44,187.48 139.57,187.80 139.71,187.61 139.84,187.79 139.98,188.20 140.11,187.91 140.25,186.35 140.38,186.30 140.51,186.92 140.65,187.29 140.78,187.68 140.92,187.94 141.05,188.58 141.19,188.88 141.32,189.08 141.46,189.05 141.59,189.20 141.72,188.44 141.86,188.62 141.99,188.98 142.13,188.67 142.26,189.05 142.40,189.42 142.53,189.60 142.67,190.29 142.80,190.73 142.93,190.60 143.07,189.94 143.20,190.60 143.34,191.42 143.47,190.50 143.61,190.64 143.74,191.52 143.88,191.73 144.01,192.54 144.14,193.30 144.28,193.63 144.41,193.92 144.55,193.03 144.68,193.23 144.82,193.07 144.95,193.46 145.09,193.70 145.22,194.37 145.35,194.77 145.49,194.01 145.62,194.59 145.76,195.15 145.89,196.00 146.03,196.80 146.16,196.38 146.30,196.77 146.43,196.25 146.56,196.84 146.70,198.21 146.83,198.77 146.97,199.27 147.10,199.61 147.24,200.18 147.37,200.55 147.51,200.99 147.64,201.67 147.77,202.36 147.91,202.82 148.04,203.96 148.18,204.67 148.31,204.42 148.45,204.63 148.58,205.11 148.72,201.37 148.85,201.81 148.98,201.06 149.12,201.87 149.25,201.38 149.39,200.99 149.52,200.75 149.66,200.39 149.79,200.62 149.93,202.33 150.06,201.52 150.19,201.73 150.33,202.18 150.46,202.46 150.60,202.67 150.73,203.65 150.87,203.98 151.00,203.26 151.14,203.57 151.27,202.86 151.40,203.20 151.54,202.84 151.67,203.28 151.81,203.56 151.94,203.76 152.08,204.04 152.21,204.67 152.35,204.01 152.48,204.16 152.61,204.68 152.75,205.11 152.88,206.47 153.02,205.43 153.15,205.95 153.29,206.74 153.42,205.83 153.56,206.15 153.69,206.58 153.82,206.92 153.96,207.14 154.09,207.45 154.23,207.61 154.36,207.85 154.50,208.00 154.63,208.31 154.77,208.44 154.90,208.00 155.03,208.17 155.17,208.30 155.30,208.53 155.44,208.41 155.57,208.65 155.71,208.57 155.84,208.73 155.98,209.30 156.11,209.86 156.24,209.04 156.38,209.59 156.51,209.82 156.65,208.95 156.78,209.18 156.92,209.39 157.05,209.64 157.19,210.02 157.32,208.69 157.45,209.07 157.59,208.98 157.72,209.15 157.86,209.42 157.99,209.65 158.13,210.02 158.26,209.76 158.40,209.66 158.53,210.81 158.66,210.34 158.80,210.55 158.93,210.80 159.07,211.31 159.20,210.57 159.34,210.19 159.47,209.81 159.61,208.95 159.74,209.20 159.87,205.43 160.01,205.95 160.14,205.51 160.28,206.37 160.41,206.61 160.55,206.39 160.68,206.71 160.82,207.13 160.95,207.47 161.08,207.79 161.22,207.56 161.35,208.13 161.49,207.97 161.62,207.24 161.76,208.03 161.89,209.01 162.03,209.64 162.16,208.68 162.29,207.36 162.43,208.39 162.56,208.68 162.70,209.37 162.83,210.30 162.97,210.72 163.10,211.34 163.24,212.27 163.37,212.60 163.50,213.57 163.64,211.71 163.77,212.20 163.91,212.97 164.04,213.24 164.18,211.45 164.31,211.65 164.45,212.15 164.58,212.53 164.71,211.94 164.85,211.49 164.98,211.75 165.12,212.46 165.25,212.88 165.39,214.03 165.52,213.38 165.66,213.91 165.79,212.90 165.92,213.38 166.06,210.90 166.19,211.35 166.33,211.69 166.46,212.61 166.60,210.72 166.73,209.38 166.87,210.51 167.00,209.13 167.13,209.97 167.27,209.56 167.40,209.78 167.54,210.45 167.67,211.02 167.81,210.28 167.94,209.41 168.08,209.96 168.21,209.60 168.34,209.11 168.48,210.23 168.61,209.57 168.75,210.04 168.88,210.71 169.02,210.93 169.15,211.31 169.29,212.01 169.42,212.80 169.55,213.54 169.69,212.49 169.82,213.10 169.96,208.93 170.09,209.59 170.23,210.09 170.36,210.71 170.50,210.05 170.63,209.19 170.76,209.46 170.90,209.26 171.03,209.87 171.17,209.41 171.30,209.89 171.44,210.52 171.57,210.75 171.71,211.04 171.84,212.12 171.97,212.70 172.11,212.19 172.24,214.35 172.38,215.91 172.51,216.40 172.65,216.72 172.78,218.03 172.92,217.46 173.05,216.30 173.18,216.68 173.32,216.98 173.45,217.87 173.59,218.29 173.72,218.66 173.86,219.00 173.99,218.31 174.13,217.92 174.26,218.33 174.39,218.80 174.53,219.84 174.66,220.00 174.80,220.25 174.93,219.72 175.07,219.28 175.20,218.88 175.34,219.19 175.47,219.67 175.61,219.86 175.74,220.18 175.87,220.49 176.01,220.04 176.14,221.28 176.28,221.46 176.41,221.74 176.55,222.19 176.68,222.66 176.82,223.03 176.95,223.29 177.08,222.83 177.22,223.86 177.35,223.77 177.49,224.07 177.62,223.43 177.76,223.89 177.89,80.21 178.03,81.40 178.16,81.81 178.29,83.66 178.43,83.24 178.56,83.62 178.70,84.12 178.83,84.60 178.97,84.44 179.10,85.32 179.24,83.91 179.37,82.67 179.50,80.10 179.64,80.89 179.77,81.39 179.91,82.01 180.04,81.14 180.18,83.04 180.31,84.25 180.45,85.22 180.58,85.69 180.71,85.14 180.85,85.60 180.98,86.54 181.12,85.80 181.25,86.53 181.39,85.55 181.52,87.06 181.66,83.24 181.79,81.56 181.92,79.42 182.06,76.91 182.19,77.53 182.33,78.51 182.46,79.98 182.60,80.88 182.73,77.64 182.87,75.38 183.00,74.17 183.13,74.46 183.27,75.53 183.40,77.23 183.54,77.64 183.67,75.68 183.81,76.36 183.94,75.40 184.08,75.89 184.21,76.16 184.34,76.66 184.48,76.97 184.61,75.92 184.75,74.41 184.88,72.69 185.02,73.00 185.15,73.89 185.29,72.53 185.42,73.21 185.55,73.57 185.69,73.93 185.82,73.51 185.96,73.96 186.09,73.29 186.23,74.24 186.36,74.55 186.50,74.93 186.63,74.56 186.76,74.19 186.90,72.98 187.03,73.56 187.17,73.99 187.30,73.61 187.44,74.24 187.57,75.07 187.71,75.77 187.84,76.19 187.97,76.72 188.11,75.81 188.24,76.23 188.38,76.73 188.51,77.20 188.65,77.48 188.78,78.14 188.92,76.92 189.05,77.61 189.18,76.15 189.32,76.71 189.45,77.41 189.59,75.92 189.72,76.64 189.86,77.47 189.99,78.34 190.13,76.88 190.26,77.58 190.39,78.26 190.53,78.65 190.66,79.34 190.80,78.96 190.93,79.44 191.07,79.96 191.20,79.33 191.34,78.89 191.47,81.34 191.60,80.59 191.74,78.70 191.87,78.98 192.01,79.41 192.14,78.58 192.28,77.47 192.41,77.95 192.55,78.62 192.68,77.94 192.81,80.28 192.95,78.17 193.08,79.57 193.22,77.86 193.35,78.94 193.49,79.40 193.62,80.00 193.76,80.83 193.89,81.30 194.02,82.82 194.16,81.62 194.29,82.37 194.43,82.83 194.56,83.41 194.70,82.06 194.83,82.58 194.97,83.59 195.10,83.94 195.23,84.52 195.37,82.17 195.50,82.32 195.64,83.27 195.77,84.19 195.91,84.55 196.04,79.16 196.18,79.70 196.31,82.21 196.44,81.41 196.58,81.77 196.71,80.38 196.85,80.81 196.98,81.18 197.12,80.86 197.25,81.48 197.39,81.03 197.52,80.14 197.65,80.73 197.79,79.97 197.92,80.38 198.06,80.05 198.19,80.39 198.33,79.88 198.46,78.37 198.60,75.56 198.73,77.03 198.86,77.83 199.00,74.95 199.13,75.48 199.27,76.38 199.40,77.10 199.54,77.80 199.67,78.61 199.81,74.62 199.94,75.27 200.07,74.21 200.21,74.05 200.34,75.41 200.48,76.23 200.61,77.95 200.75,75.61 200.88,72.94 201.02,72.08 201.15,72.75 201.28,73.79 201.42,74.35 201.55,75.02 201.69,71.69 201.82,72.91 201.96,70.54 202.09,71.07 202.23,71.42 202.36,70.13 202.49,71.09 202.63,73.97 202.76,75.58 202.90,77.22 203.03,78.65 203.17,79.50 203.30,79.96 203.44,77.17 203.57,77.99 203.70,78.49 203.84,77.08 203.97,77.84 204.11,76.04 204.24,76.89 204.38,75.19 204.51,75.68 204.65,76.29 204.78,72.47 204.91,73.29 205.05,73.99 205.18,73.77 205.32,74.07 205.45,74.87 205.59,74.54 205.72,73.91 205.86,73.11 205.99,73.78 206.12,72.34 206.26,73.41 206.39,76.27 206.53,74.59 206.66,72.16 206.80,71.51 206.93,70.80 207.07,70.34 207.20,70.66 207.33,69.70 207.47,70.46 207.60,68.87 207.74,70.56 207.87,69.16 208.01,70.34 208.14,72.04 208.28,72.85 208.41,74.85 208.54,75.56 208.68,74.00 208.81,74.83 208.95,76.01 209.08,77.12 209.22,77.78 209.35,78.40 209.49,79.10 209.62,79.44 209.75,76.30 209.89,77.67 210.02,78.84 210.16,79.42 210.29,79.77 210.43,80.57 210.56,80.94 210.70,81.39 210.83,79.12 210.96,79.39 211.10,79.79 211.23,80.44 211.37,77.09 211.50,78.02 211.64,80.88 211.77,79.23 211.91,79.89 212.04,81.16 212.17,79.26 212.31,80.03 212.44,80.72 212.58,81.34 212.71,79.50 212.85,80.35 212.98,81.15 213.12,81.70 213.25,83.00 213.38,81.49 213.52,83.15 213.65,82.24 213.79,84.06 213.92,81.91 214.06,82.84 214.19,84.76 214.33,85.10 214.46,84.67 214.59,85.04 214.73,86.00 214.86,86.42 215.00,86.94 215.13,87.13 215.27,86.75 215.40,84.89 215.54,83.70 215.67,81.86 215.80,81.55 215.94,79.85 216.07,80.86 216.21,79.58 216.34,80.10 216.48,78.98 216.61,79.79 216.75,81.42 216.88,80.14 217.01,80.85 217.15,81.91 217.28,82.66 217.42,83.43 217.55,83.29 217.69,83.64 217.82,84.58 217.96,85.87 218.09,86.47 218.22,86.93 218.36,87.37 218.49,87.89 218.63,89.57 218.76,89.98 218.90,90.85 219.03,91.65 219.17,92.95 219.30,91.92 219.43,91.45 219.57,90.71 219.70,91.37 219.84,92.45 219.97,93.23 220.11,93.43 220.24,93.96 220.38,94.23 220.51,94.49 220.64,94.81 220.78,94.35 220.91,92.34 221.05,92.93 221.18,92.92 221.32,93.36 221.45,93.15 221.59,93.42 221.72,94.58 221.85,95.21 221.99,95.60 222.12,95.94 222.26,96.53 222.39,98.06 222.53,98.59 222.66,99.16 222.80,99.74 222.93,100.43 223.06,101.11 223.20,98.60 223.33,98.32 223.47,96.11 223.60,96.81 223.74,96.08 223.87,96.62 224.01,97.99 224.14,98.36 224.27,98.78 224.41,99.46 224.54,98.85 224.68,99.47 224.81,99.99 224.95,100.45 225.08,101.25 225.22,101.13 225.35,101.61 225.48,102.06 225.62,102.78 225.75,103.11 225.89,103.84 226.02,103.15 226.16,103.35 226.29,102.35 226.43,102.90 226.56,103.37 226.69,103.76 226.83,103.26 226.96,101.55 227.10,100.96 227.23,101.46 227.37,102.27 227.50,102.62 227.64,102.93 227.77,103.51 227.90,104.43 228.04,104.93 228.17,103.93 228.31,104.25 228.44,105.23 228.58,105.60 228.71,105.38 228.85,105.67 228.98,103.76 229.11,105.69 229.25,106.31 229.38,106.78 229.52,107.75 229.65,108.23 229.79,105.16 229.92,105.61 230.06,103.69 230.19,104.16 230.32,104.43 230.46,103.78 230.59,104.23 230.73,105.25 230.86,106.27 231.00,104.94 231.13,105.80 231.27,105.04 231.40,105.83 231.53,102.71 231.67,104.51 231.80,104.98 231.94,103.60 232.07,102.99 232.21,103.75 232.34,101.94 232.48,102.70 232.61,101.44 232.74,102.37 232.88,99.62 233.01,97.48 233.15,96.06 233.28,94.81 233.42,95.22 233.55,91.22 233.69,92.23 233.82,91.45 233.95,91.90 234.09,92.29 234.22,93.11 234.36,93.57 234.49,93.03 234.63,92.74 234.76,93.59 234.90,89.82 235.03,90.04 235.16,90.33 235.30,90.56 235.43,90.89 235.57,91.39 235.70,91.75 235.84,92.42 235.97,93.39 236.11,94.99 236.24,94.50 236.37,95.12 236.51,95.66 236.64,94.05 236.78,95.21 236.91,95.55 237.05,92.07 237.18,93.02 237.32,94.24 237.45,88.89 237.58,89.40 237.72,88.55 237.85,89.24 237.99,88.42 238.12,88.15 238.26,88.71 238.39,89.14 238.53,91.09 238.66,91.88 238.79,92.99 238.93,93.31 239.06,93.89 239.20,93.46 239.33,93.99 239.47,94.61 239.60,94.19 239.74,94.44 239.87,93.68 240.00,93.21 240.14,92.41 240.27,89.97 240.41,90.36 240.54,89.99 240.68,90.38 240.81,86.56 240.95,86.81 241.08,86.48 241.21,87.58 241.35,88.45 241.48,88.95 241.62,87.86 241.75,88.53 241.89,89.02 242.02,90.45 242.16,87.96 242.29,86.36 242.42,86.75 242.56,87.46 242.69,88.25 242.83,84.55 242.96,85.49 243.10,86.67 243.23,85.43 243.37,86.95 243.50,87.76 243.63,89.03 243.77,90.68 243.90,91.86 244.04,93.56 244.17,89.74 244.31,91.33 244.44,92.14 244.58,86.82 244.71,88.09 244.84,88.69 244.98,89.70 245.11,91.02 245.25,86.99 245.38,83.55 245.52,84.23 245.65,79.42 245.79,77.62 245.92,79.64 246.05,82.00 246.19,81.23 246.32,79.51 246.46,78.74 246.59,79.06 246.73,80.31 246.86,79.26 247.00,80.58 247.13,80.73 247.26,81.51 247.40,79.13 247.53,80.10 247.67,80.85 247.80,81.57 247.94,82.21 248.07,83.22 248.21,84.03 248.34,84.65 248.47,82.47 248.61,80.91 248.74,82.44 248.88,82.75 249.01,81.72 249.15,83.18 249.28,82.39 249.42,85.26 249.55,86.17 249.68,87.07 249.82,89.84 249.95,90.60 250.09,87.95 250.22,88.84 250.36,89.66 250.49,84.27 250.63,87.11 250.76,81.74 250.89,83.86 251.03,78.42 251.16,74.09 251.30,76.58 251.43,78.06 251.57,80.87 251.70,83.65 251.84,86.50 251.97,88.58 252.10,90.31 252.24,90.68 252.37,87.72 252.51,89.32 252.64,87.61 252.78,88.91 252.91,90.51 253.05,91.22 253.18,92.51 253.31,94.46 253.45,95.58 253.58,96.38 253.72,97.48 253.85,96.63 253.99,95.94 254.12,94.17 254.26,96.80 254.39,97.94 254.52,99.48 254.66,99.95 254.79,102.20 254.93,103.30 255.06,100.80 255.20,101.06 255.33,99.22 255.47,99.68 255.60,96.21 255.73,95.75 255.87,96.63 256.00,97.49 256.14,98.54 256.27,99.53 256.41,100.21 256.54,100.62 256.68,101.01 256.81,100.70 256.94,101.37 257.08,102.73 257.21,103.26 257.35,100.80 257.48,100.03 257.62,100.41 257.75,99.63 257.89,100.23 258.02,99.59 258.15,98.13 258.29,98.56 258.42,97.57 258.56,97.95 258.69,97.15 258.83,95.25 258.96,95.70 259.10,94.44 259.23,95.44 259.36,95.67 259.50,93.69 259.63,94.15 259.77,96.56 259.90,97.95 260.04,96.20 260.17,95.04 260.31,96.05 260.44,94.05 260.57,94.31 260.71,94.65 260.84,94.88 260.98,93.85 261.11,94.15 261.25,91.74 261.38,89.03 261.52,89.58 261.65,89.16 261.78,89.71 261.92,90.24 262.05,90.55 262.19,88.86 262.32,89.16 262.46,89.69 262.59,87.92 262.73,89.22 262.86,89.61 262.99,89.89 263.13,90.81 263.26,92.20 263.40,90.61 263.53,91.00 263.67,90.37 263.80,90.03 263.94,88.84 264.07,89.13 264.20,88.66 264.34,89.39 264.47,90.14 264.61,89.78 264.74,89.35 264.88,89.80 265.01,86.33 265.15,87.64 265.28,88.27 265.41,84.69 265.55,85.19 265.68,85.71 265.82,85.35 265.95,85.81 266.09,86.51 266.22,86.94 266.36,87.29 266.49,87.59 266.62,88.76 266.76,89.77 266.89,90.13 267.03,89.92 267.16,90.25 267.30,88.15 267.43,87.06 267.57,85.71 267.70,86.05 267.83,86.31 267.97,85.90 268.10,87.68 268.24,88.87 268.37,89.13 268.51,88.62 268.64,89.06 268.78,89.86 268.91,90.27 269.04,90.64 269.18,91.13 269.31,90.51 269.45,89.61 269.58,89.99 269.72,90.31 269.85,90.72 269.99,91.15 270.12,91.60 270.25,92.54 270.39,92.95 270.52,93.39 270.66,93.15 270.79,93.47 270.93,93.97 271.06,92.59 271.20,93.45 271.33,92.79 271.46,93.74 271.60,94.44 271.73,93.90 271.87,91.76 272.00,92.37 272.14,92.93 272.27,91.51 272.41,90.93 272.54,91.19 272.68,90.80 272.81,90.06 272.94,89.62 273.08,91.32 273.21,92.04 273.35,92.34 273.48,93.38 273.62,94.39 273.75,94.25 273.89,95.22 274.02,96.34 274.15,95.68 274.29,96.03 274.42,90.72 274.56,91.01 274.69,91.38 274.83,90.75 274.96,91.58 275.10,93.05 275.23,92.64 275.36,93.09 275.50,92.45 275.63,93.63 275.77,93.89 275.90,94.69 276.04,95.20 276.17,95.79 276.31,97.03 276.44,96.16 276.57,98.70 276.71,98.96 276.84,99.23 276.98,100.01 277.11,100.43 277.25,100.73 277.38,101.03 277.52,101.38 277.65,102.26 277.78,101.32 277.92,101.59 278.05,101.84 278.19,102.24 278.32,102.62 278.46,103.20 278.59,103.61 278.73,104.08 278.86,104.49 278.99,104.92 279.13,104.39 279.26,105.40 279.40,106.77 279.53,106.99 279.67,108.64 279.80,108.33 279.94,107.91 280.07,108.24 280.20,107.98 280.34,107.35 280.47,107.80 280.61,108.16 280.74,108.62 280.88,108.86 281.01,108.41 281.15,108.22 281.28,107.90 281.41,108.25 281.55,107.26 281.68,107.65 281.82,107.92 281.95,108.24 282.09,108.42 282.22,107.63 282.36,107.21 282.49,107.59 282.62,108.67 282.76,108.00 282.89,108.77 283.03,109.13 283.16,109.49 283.30,109.80 283.43,110.16 283.57,110.45 283.70,110.86 283.83,111.18 283.97,111.44 284.10,110.24 284.24,108.55 284.37,109.53 284.51,110.05 284.64,110.43 284.78,110.81 284.91,111.19 285.04,108.66 285.18,109.09 285.31,110.71 285.45,111.06 285.58,111.30 285.72,111.58 285.85,111.78 285.99,111.41 286.12,109.37 286.25,109.14 286.39,108.67 286.52,107.84 286.66,107.62 286.79,107.91 286.93,107.86 287.06,108.94 287.20,108.65 287.33,109.00 287.46,109.43 287.60,109.75 287.73,110.06 287.87,109.48 288.00,107.46 288.14,106.70 288.27,104.76 288.41,101.92 288.54,104.65 288.67,106.02 288.81,108.23 288.94,105.10 289.08,105.50 289.21,105.96 289.35,106.46 289.48,105.42 289.62,103.31 289.75,104.54 289.88,103.39 290.02,103.79 290.15,104.35 290.29,104.30 290.42,104.73 290.56,105.06 290.69,105.05 290.83,103.37 290.96,103.57 291.09,102.12 291.23,102.79 291.36,100.95 291.50,99.77 291.63,100.21 291.77,100.73 291.90,100.94 292.04,100.39 292.17,101.17 292.30,102.28 292.44,102.42 292.57,101.96 292.71,102.21 292.84,104.04 292.98,102.21 293.11,101.52 293.25,103.50 293.38,102.40 293.51,103.12 293.65,103.81 293.78,102.63 293.92,102.23 294.05,101.86 294.19,100.22 294.32,100.86 294.46,96.82 294.59,97.57 294.72,96.18 294.86,97.09 294.99,98.29 295.13,99.44 295.26,102.22 295.40,100.53 295.53,101.54 295.67,104.07 295.80,101.98 295.93,103.18 296.07,104.27 296.20,105.38 296.34,104.44 296.47,105.57 296.61,106.62 296.74,108.62 296.88,109.28 297.01,111.17 297.14,112.07 297.28,112.55 297.41,113.25 297.55,108.12 297.68,108.58 297.82,107.52 297.95,108.66 298.09,108.17 298.22,108.43 298.35,108.90 298.49,109.35 298.62,108.76 298.76,108.58 298.89,106.32 299.03,106.03 299.16,105.90 299.30,108.64 299.43,108.19 299.56,109.22 299.70,108.08 299.83,108.72 299.97,107.72 300.10,108.44 300.24,107.52 300.37,107.32 300.51,108.35 300.64,109.06 300.77,109.84 300.91,108.93 301.04,110.15 301.18,109.49 301.31,111.97 301.45,111.12 301.58,111.93 301.72,113.03 301.85,111.72 301.98,112.19 302.12,112.78 302.25,113.12 302.39,112.88 302.52,113.29 302.66,114.73 302.79,115.03 302.93,115.25 303.06,114.62 303.19,114.35 303.33,114.11 303.46,114.87 303.60,115.05 303.73,115.73 303.87,116.66 304.00,115.58 304.14,116.16 304.27,117.11 304.40,117.38 304.54,117.66 304.67,118.15 304.81,118.36 304.94,119.01 305.08,117.72 305.21,118.03 305.35,118.54 305.48,117.94 305.61,118.21 305.75,118.46 305.88,119.13 306.02,118.92 306.15,120.05 306.29,119.38 306.42,119.91 306.56,120.98 306.69,121.65 306.82,122.39 306.96,121.56 307.09,118.67 307.23,119.48 307.36,120.02 307.50,120.71 307.63,121.50 307.77,121.79 307.90,122.15 308.03,122.58 308.17,121.35 308.30,121.79 308.44,122.18 308.57,122.53 308.71,122.87 308.84,121.06 308.98,121.36 309.11,122.32 309.24,123.92 309.38,123.16 309.51,124.77 309.65,125.22 309.78,124.35 309.92,124.83 310.05,125.16 310.19,126.76 310.32,127.36 310.45,128.59 310.59,129.16 310.72,131.03 310.86,130.03 310.99,128.59 311.13,129.24 311.26,129.69 311.40,130.26 311.53,129.19 311.66,130.21 311.80,130.93 311.93,131.46 312.07,132.31 312.20,130.78 312.34,131.33 312.47,132.25 312.61,133.01 312.74,133.89 312.87,134.55 313.01,136.00 313.14,131.11 313.28,129.25 313.41,128.02 313.55,128.99 313.68,129.49 313.82,128.59 313.95,128.87 314.08,129.99 314.22,130.86 314.35,129.50 314.49,130.33 314.62,129.72 314.76,130.26 314.89,132.18 315.03,131.36 315.16,131.95 315.29,133.71 315.43,133.43 315.56,133.78 315.70,132.44 315.83,129.47 315.97,130.36 316.10,131.64 316.24,132.29 316.37,132.69 316.50,133.11 316.64,133.96 316.77,134.89 316.91,129.94 317.04,130.84 317.18,128.95 317.31,129.70 317.45,128.86 317.58,128.29 317.71,128.04 317.85,127.00 317.98,127.28 318.12,127.61 318.25,128.27 318.39,127.72 318.52,126.62 318.66,127.47 318.79,128.09 318.92,128.63 319.06,127.68 319.19,126.65 319.33,125.41 319.46,128.00 319.60,129.97 319.73,130.31 319.87,130.71 320.00,132.50 320.13,133.24 320.27,133.87 320.40,134.43 320.54,134.84 320.67,136.03 320.81,136.50 320.94,136.87 321.08,137.22 321.21,137.60 321.34,136.31 321.48,137.99 321.61,136.65 321.75,138.25 321.88,137.76 322.02,136.99 322.15,137.39 322.29,137.15 322.42,137.79 322.55,138.07 322.69,138.54 322.82,139.00 322.96,138.19 323.09,139.56 323.23,140.22 323.36,140.73 323.50,141.65 323.63,142.22 323.76,142.67 323.90,142.37 324.03,143.63 324.17,143.47 324.30,144.06 324.44,143.30 324.57,144.03 324.71,80.21 324.84,76.94 324.97,77.70 325.11,79.98 325.24,82.68 325.38,80.57 325.51,82.71 325.65,83.94 325.78,86.35 325.92,84.26 326.05,80.56 326.18,81.62 326.32,82.41 326.45,83.89 326.59,84.92 326.72,86.92 326.86,83.83 326.99,85.34 327.13,86.94 327.26,86.22 327.39,87.02 327.53,87.84 327.66,90.67 327.80,87.19 327.93,85.85 328.07,88.70 328.20,91.24 328.34,88.55 328.47,89.85 328.60,92.69 328.74,95.49 328.87,90.19 329.01,91.96 329.14,93.54 329.28,96.34 329.41,92.31 329.55,94.21 329.68,96.05 329.81,97.21 329.95,91.88 330.08,93.33 330.22,90.66 330.35,91.61 330.49,86.24 330.62,84.81 330.76,87.63 330.89,90.02 331.02,88.18 331.16,82.82 331.29,85.65 331.43,86.20 331.56,87.28 331.70,86.06 331.83,83.75 331.97,86.61 332.10,85.27 332.23,86.32 332.37,87.23 332.50,83.37 332.64,80.90 332.77,75.45 332.91,72.36 333.04,73.62 333.18,70.54 333.31,69.52 333.44,72.41 333.58,73.45 333.71,75.28 333.85,75.70 333.98,76.59 334.12,78.03 334.25,80.65 334.39,81.93 334.52,82.64 334.65,83.69 334.79,82.38 334.92,81.03 335.06,81.81 335.19,80.35 335.33,81.88 335.46,84.75 335.60,79.33 335.73,73.85 335.86,72.84 336.00,74.24 336.13,77.11 336.27,78.20 336.40,72.73 336.54,74.93 336.67,73.87 336.81,76.74 336.94,75.29 337.07,77.14 337.21,79.52 337.34,82.21 337.48,83.82 337.61,86.63 337.75,87.38 337.88,84.21 338.02,83.30 338.15,82.26 338.28,85.06 338.42,86.15 338.55,84.91 338.69,86.51 338.82,83.14 338.96,81.17 339.09,75.70 339.23,77.77 339.36,72.41 339.49,75.30 339.63,77.34 339.76,78.10 339.90,80.29 340.03,74.80 340.17,72.96 340.30,67.40 340.44,68.68 340.57,71.63 340.70,66.06 340.84,66.68 340.97,62.93 341.11,57.27 341.24,53.15 341.38,56.16 341.51,57.59 341.65,60.54 341.78,62.23 341.91,56.59 342.05,58.19 342.18,61.15 342.32,63.11 342.45,58.50 342.59,55.66 342.72,58.66 342.86,56.83 342.99,54.30 343.12,57.30 343.26,59.02 343.39,61.32 343.53,56.27 343.66,58.18 343.80,60.76 343.93,60.00 344.07,56.95 344.20,58.27 344.33,59.20 344.47,53.54 344.60,55.50 344.74,57.58 344.87,55.21 345.01,58.19 345.14,55.92 345.28,54.94 345.41,57.37 345.54,55.11 345.68,58.10 345.81,59.62 345.95,55.57 346.08,52.76 346.22,54.76 346.35,56.30 346.49,57.41 346.62,58.24 346.75,59.13 346.89,61.50 347.02,62.80 347.16,57.12 347.29,60.05 347.43,61.86 347.56,56.22 347.70,58.65 347.83,61.61 347.96,64.53 348.10,64.98 348.23,66.73 348.37,69.65 348.50,72.54 348.64,74.34 348.77,77.21 348.91,71.67 349.04,73.66 349.17,76.54 349.31,79.44 349.44,80.81 349.58,75.33 349.71,77.72 349.85,72.17 349.98,75.09 350.12,76.83 350.25,79.69 350.38,77.48 350.52,71.92 350.65,73.73 350.79,74.63 350.92,75.81 351.06,70.29 351.19,72.32 351.33,74.52 351.46,73.53 351.59,67.96 351.73,69.29 351.86,63.70 352.00,66.43 352.13,67.23 352.27,70.12 352.40,66.32 352.54,67.31 352.67,64.60 352.80,60.61 352.94,62.02 353.07,63.75 353.21,61.82 353.34,64.74 353.48,62.59 353.61,56.91 353.75,58.15 353.88,60.21 354.01,58.95 354.15,61.17 354.28,55.49 354.42,57.47 354.55,58.71 354.69,56.25 354.82,58.74 354.96,60.58 355.09,62.85 355.22,64.05 355.36,58.46 355.49,54.06 355.63,49.06 355.76,43.27 355.90,44.85 356.03,47.44 356.17,48.87 356.30,49.97 356.43,51.92 356.57,54.11 356.70,56.73 356.84,57.98 356.97,58.39 357.11,52.70 357.24,55.32 357.38,52.99 357.51,55.24 357.64,49.52 357.78,51.13 357.91,45.35 358.05,42.90 358.18,41.07 358.32,42.04 358.45,43.86 358.59,42.04 358.72,45.09 358.85,46.28 358.99,49.31 359.12,50.78 359.26,51.74 359.39,52.66 359.53,55.62 359.66,51.94 359.80,49.14 359.93,52.17 360.06,53.21 360.20,53.85 360.33,52.15 360.47,54.67 360.60,56.40 360.74,57.51 360.87,55.79 361.01,54.44 361.14,48.72 361.27,48.04 361.41,48.74 361.54,50.96 361.68,51.25 361.81,53.22 361.95,54.56 362.08,56.66 362.22,58.44 362.35,56.17 362.48,56.54 362.62,53.59 362.75,50.89 362.89,52.72 363.02,52.00 363.16,54.98 363.29,52.62 363.43,48.82 363.56,50.14 363.69,46.47 363.83,47.73 363.96,49.91 364.10,44.84 364.23,46.63 364.37,47.72 364.50,49.54 364.64,43.72 364.77,45.64 364.90,47.33 365.04,45.43 365.17,48.49 365.31,49.36 365.44,43.56 365.58,41.44 365.71,35.60 365.85,37.03 365.98,37.62 366.11,39.94 366.25,40.87 366.38,42.20 366.52,45.22 366.65,46.42 366.79,45.30 366.92,46.27 367.06,43.26 367.19,39.64 367.32,40.29 367.46,34.42 367.59,37.50 367.73,35.11 367.86,35.93 368.00,30.00 368.13,31.23 368.27,34.21 368.40,36.21 368.54,34.57 368.67,35.46 368.80,37.48 368.94,38.74 369.07,40.76 369.21,43.84 369.34,46.11 369.48,47.14 369.61,48.39 369.75,47.20 369.88,44.05 370.01,45.07 370.15,48.06 370.28,50.03 370.42,52.36 370.55,48.07 370.69,51.06 370.82,52.60 370.96,50.49 371.09,53.46 371.22,54.97 371.36,49.23 371.49,50.49 371.63,51.41 371.76,53.34 371.90,54.06 372.03,55.84 372.17,53.14 372.30,51.42 372.43,52.30 372.57,54.05 372.70,55.24 372.84,56.02 372.97,59.01 373.11,60.54 373.24,61.67 373.38,64.60 373.51,66.83 373.64,68.19 373.78,69.08 373.91,63.52 374.05,65.28 374.18,68.17 374.32,69.26 374.45,69.95 374.59,72.83 374.72,74.21 374.85,73.35 374.99,76.14 375.12,76.92 375.26,79.79 375.39,74.98 375.53,77.84 375.66,80.00 375.80,81.08 375.93,83.29 376.06,86.13 376.20,86.95 376.33,81.52 376.47,82.21 376.60,81.18 376.74,82.31 376.87,82.81 377.01,84.61 377.14,85.90 377.27,84.46 377.41,85.82 377.54,88.63 377.68,90.00 377.81,91.15 377.95,89.33 378.08,85.00 378.22,86.86 378.35,87.41 378.48,88.05 378.62,89.56 378.75,91.18 378.89,93.36 379.02,88.02 379.16,88.27 379.29,83.32 379.43,77.91 379.56,72.41 379.69,74.23 379.83,75.46 379.96,74.04 380.10,76.02 380.23,77.37 380.37,80.25 380.50,80.79 380.64,75.33 380.77,77.47 380.90,79.18 381.04,82.02 381.17,82.68 381.31,85.51 381.44,81.59 381.58,80.34 381.71,80.94 381.85,82.27 381.98,79.90 382.11,81.36 382.25,84.16 382.38,86.98 382.52,89.06 382.65,91.88 382.79,93.66 382.92,96.48 383.06,98.88 383.19,101.65 383.32,100.23 383.46,102.65 383.59,103.74 383.73,105.09 383.86,106.03 384.00,107.11 384.13,108.10 384.27,103.68 384.40,104.92 384.53,105.60 384.67,106.20 384.80,103.60 384.94,105.43 385.07,106.08 385.21,108.80 385.34,105.40 385.48,101.32 385.61,102.02 385.74,103.65 385.88,106.39 386.01,107.48 386.15,102.26 386.28,101.80 386.42,104.56 386.55,107.32 386.69,108.32 386.82,111.05 386.95,113.72 387.09,114.80 387.22,109.66 387.36,112.39 387.49,115.03 387.63,117.64 387.76,120.33 387.90,122.99 388.03,124.38 388.16,127.03 388.30,128.67 388.43,131.22 388.57,133.38 388.70,135.95 388.84,131.05 388.97,129.22 389.11,131.62 389.24,133.17 389.37,135.75 389.51,136.85 389.64,138.74 389.78,140.70 389.91,143.25 390.05,145.76 390.18,140.96 390.32,143.47 390.45,142.76 390.58,137.89 390.72,133.24 390.85,132.34 390.99,134.90 391.12,137.49 391.26,138.84 391.39,141.36 391.53,143.73 391.66,145.65 391.79,148.12 391.93,145.43 392.06,146.68 392.20,147.69 392.33,148.37 392.47,147.07 392.60,147.86 392.74,145.47 392.87,147.51 393.00,150.01 393.14,147.40 393.27,145.47 393.41,147.14 393.54,145.15 393.68,146.97 393.81,148.94 393.95,144.14 394.08,145.74 394.21,147.47 394.35,149.74 394.48,150.38 394.62,152.37 394.75,147.59 394.89,142.77 395.02,145.32 395.16,147.08 395.29,142.30 395.42,144.84 395.56,147.37 395.69,145.11 395.83,147.61 395.96,142.80 396.10,139.33 396.23,141.10 396.37,141.94 396.50,137.10 396.63,132.43 396.77,134.03 396.90,136.30 397.04,133.11 397.17,135.68 397.31,136.93 397.44,138.10 397.58,140.67 397.71,137.84 397.84,139.41 397.98,140.14 398.11,141.38 398.25,142.93 398.38,145.49 398.52,141.58 398.65,142.57 398.79,141.42 398.92,142.06 399.05,143.74 399.19,144.76 399.32,145.82 399.46,141.60 399.59,143.02 399.73,144.76 399.86,145.78 400.00,145.11 400.13,145.68 400.26,143.44 400.40,140.06 400.53,142.59 400.67,140.93 400.80,142.12 400.94,143.24 401.07,141.37 401.21,141.06 401.34,139.56 401.47,140.17 401.61,137.70 401.74,139.00 401.88,138.55 402.01,139.91 402.15,142.45 402.28,139.59 402.42,142.09 402.55,143.10 402.68,143.46 402.82,145.42 402.95,146.04 403.09,148.55 403.22,150.12 403.36,150.64 403.49,148.16 403.63,148.82 403.76,150.12 403.89,149.36 404.03,150.21 404.16,150.84 404.30,151.65 404.43,146.88 404.57,148.14 404.70,150.66 404.84,151.27 404.97,152.45 405.10,147.71 405.24,148.27 405.37,150.76 405.51,151.36 405.64,148.75 405.78,146.48 405.91,144.45 406.05,142.45 406.18,144.98 406.31,140.15 406.45,138.06 406.58,139.66 406.72,140.86 406.85,140.14 406.99,139.14 407.12,136.01 407.26,137.25 407.39,138.56 407.52,140.84 407.66,139.56 407.79,140.58 407.93,141.74 408.06,136.90 408.20,137.70 408.33,133.13 408.47,135.37 408.60,136.03 408.73,138.62 408.87,139.49 409.00,139.92 409.14,140.58 409.27,142.03 409.41,143.06 409.54,141.75 409.68,140.03 409.81,141.07 409.94,142.51 410.08,141.03 410.21,142.18 410.35,143.17 410.48,144.21 410.62,145.58 410.75,143.97 410.89,144.73 411.02,145.88 411.15,144.63 411.29,145.21 411.42,140.37 411.56,135.51 411.69,136.20 411.83,132.17 411.96,133.16 412.10,134.36 412.23,135.34 412.36,136.16 412.50,138.73 412.63,139.41 412.77,139.60 412.90,139.03 413.04,139.33 413.17,139.63 413.31,140.49 413.44,143.05 413.57,143.65 413.71,142.84 413.84,144.87 413.98,144.52 414.11,144.84 414.25,145.51 414.38,146.58 414.52,147.67 414.65,146.30 414.78,143.12 414.92,145.68 415.05,146.63 415.19,143.92 415.32,145.65 415.46,146.29 415.59,147.75 415.73,146.04 415.86,141.21 415.99,139.32 416.13,140.18 416.26,136.01 416.40,138.10 416.53,140.67 416.67,139.60 416.80,138.19 416.94,139.13 417.07,141.67 417.20,142.07 417.34,139.31 417.47,135.39 417.61,136.89 417.74,139.40 417.88,139.86 418.01,138.66 418.15,139.27 418.28,140.28 418.41,139.32 418.55,139.82 418.68,141.82 418.82,143.43 418.95,141.29 419.09,143.15 419.22,143.50 419.36,144.76 419.49,145.64 419.62,144.53 419.76,146.63 419.89,146.86 420.03,147.73 420.16,148.47 420.30,147.28 420.43,147.84 420.57,145.63 420.70,143.52 420.83,144.88 420.97,145.96 421.10,147.90 421.24,146.09 421.37,147.04 421.51,145.94 421.64,141.15 421.78,141.72 421.91,138.02 422.04,139.59 422.18,140.38 422.31,140.85 422.45,136.41 422.58,137.96 422.72,136.42 422.85,134.13 422.99,132.24 423.12,134.80 423.25,136.06 423.39,138.64 423.52,138.95 423.66,139.87 423.79,140.64 423.93,141.47 424.06,142.08 424.20,140.79 424.33,141.75 424.46,143.27 424.60,143.74 424.73,144.80 424.87,145.12 425.00,147.66 425.14,149.33 425.27,150.95 425.41,151.84 425.54,152.51 425.67,153.16 425.81,154.13 425.94,149.36 426.08,146.67 426.21,144.76 426.35,145.89 426.48,145.00 426.62,140.98 426.75,142.04 426.88,142.83 427.02,145.38 427.15,146.27 427.29,148.02 427.42,148.43 427.56,147.65 427.69,143.32 427.83,141.71 427.96,143.72 428.09,144.37 428.23,145.42 428.36,144.62 428.50,141.44 428.63,139.11 428.77,141.42 428.90,142.49 429.04,145.04 429.17,146.46 429.30,148.96 429.44,148.18 429.57,146.13 429.71,147.80 429.84,149.35 429.98,145.19 430.11,147.66 430.25,148.96 430.38,151.43 430.51,147.25 430.65,145.29 430.78,147.81 430.92,146.97 431.05,147.58 431.19,149.41 431.32,149.61 431.46,151.99 431.59,154.47 431.72,155.55 431.86,156.13 431.99,156.83 432.13,157.33 432.26,158.27 432.40,159.02 432.53,161.48 432.67,156.84 432.80,158.51 432.93,156.21 433.07,158.05 433.20,156.15 433.34,156.80 433.47,158.75 433.61,158.24 433.74,159.06 433.88,160.42 434.01,158.74 434.14,159.62 434.28,161.73 434.41,162.32 434.55,159.73 434.68,162.16 434.82,162.67 434.95,161.33 435.09,162.55 435.22,164.51 435.35,165.64 435.49,168.07 435.62,166.29 435.76,167.24 435.89,169.34 436.03,166.12 436.16,166.67 436.30,168.17 436.43,165.71 436.56,167.25 436.70,169.07 436.83,164.96 436.97,163.17 437.10,164.53 437.24,166.39 437.37,168.54 437.51,170.30 437.64,172.47 437.77,174.83 437.91,177.18 438.04,178.54 438.18,179.96 438.31,182.25 438.45,183.30 438.58,184.61 438.72,183.31 438.85,184.09 438.98,185.12 439.12,183.51 439.25,184.28 439.39,184.94 439.52,181.41 439.66,182.41 439.79,183.07 439.93,185.41 440.06,185.74 440.19,186.71 440.33,187.92 440.46,185.21 440.60,186.01 440.73,181.87 440.87,180.94 441.00,179.10 441.14,174.63 441.27,175.44 441.40,173.58 441.54,174.48 441.67,174.84 441.81,173.48 441.94,174.20 442.08,175.12 442.21,174.43 442.35,169.86 442.48,165.71 442.61,167.02 442.75,163.10 442.88,161.37 443.02,160.78 443.15,158.55 443.29,158.00 443.42,153.30 443.56,154.04 443.69,153.73 443.82,153.12 443.96,152.41 444.09,152.95 444.23,153.39 444.36,152.98 444.50,153.30 444.63,155.64 444.77,156.22 444.90,158.34 445.03,159.29 445.17,159.81 445.30,158.21 445.44,158.76 445.57,159.71 445.71,159.47 445.84,158.79 445.98,156.43 446.11,158.87 446.24,159.56 446.38,160.39 446.51,160.77 446.65,162.29 446.78,163.07 446.92,163.98 447.05,159.35 447.19,160.05 447.32,160.44 447.45,161.63 447.59,160.29 447.72,162.75 447.86,163.46 447.99,161.72 448.13,163.04 448.26,163.90 448.40,165.02 448.53,165.51 448.66,166.24 448.80,164.93 448.93,165.43 449.07,167.87 449.20,168.36 449.34,167.17 449.47,166.03 449.61,165.26 449.74,163.74 449.87,160.14 450.01,160.99 450.14,162.64 450.28,163.77 450.41,166.22 450.55,164.72 450.68,165.48 450.82,167.09 450.95,168.47 451.08,170.87 451.22,172.47 451.35,173.89 451.49,169.32 451.62,166.89 451.76,166.04 451.89,167.95 452.03,168.32 452.16,166.36 452.29,165.32 452.43,160.71 452.56,161.07 452.70,158.16 452.83,158.95 452.97,159.70 453.10,161.21 453.24,161.69 453.37,163.42 453.50,164.57 453.64,162.44 453.77,163.83 453.91,164.79 454.04,165.92 454.18,167.47 454.31,168.91 454.45,170.62 454.58,169.20 454.71,167.55 454.85,168.30 454.98,169.32 455.12,171.32 455.25,172.24 455.39,170.95 455.52,170.59 455.66,170.89 455.79,173.25 455.92,174.61 456.06,176.01 456.19,176.87 456.33,172.31 456.46,171.49 456.60,168.50 456.73,164.83 456.87,166.71 457.00,165.61 457.13,166.76 457.27,165.35 457.40,167.76 457.54,166.23 457.67,167.18 457.81,164.35 457.94,165.46 458.08,164.44 458.21,164.87 458.34,166.34 458.48,168.72 458.61,169.98 458.75,170.51 458.88,171.22 459.02,171.77 459.15,172.59 459.29,174.93 459.42,175.60 459.55,176.04 459.69,175.49 459.82,176.74 459.96,175.24 460.09,177.11 460.23,177.96 460.36,176.24 460.50,173.46 460.63,171.29 460.76,172.01 460.90,174.24 461.03,174.87 461.17,176.08 461.30,177.10 461.44,177.44 461.57,179.80 461.71,180.68 461.84,181.42 461.97,182.12 462.11,183.10 462.24,183.71 462.38,184.34 462.51,180.86 462.65,181.64 462.78,182.56 462.92,180.96 463.05,179.70 463.18,180.89 463.32,181.57 463.45,182.39 463.59,179.79 463.72,178.83 463.86,179.76 463.99,180.30 464.13,181.06 464.26,179.95 464.39,182.15 464.53,182.77 464.66,180.50 464.80,181.83 464.93,182.43 465.07,180.01 465.20,180.27 465.34,181.74 465.47,180.48 465.61,80.21 465.74,80.78 465.87,81.60 466.01,84.41 466.14,87.27 466.28,87.97 466.41,89.42 466.55,90.20 466.68,92.79 466.82,95.57 466.95,93.21 467.08,89.62 467.22,86.45 467.35,81.02 467.49,82.43 467.62,83.08 467.76,85.91 467.89,87.67 468.03,88.47 468.16,89.38 468.29,91.05 468.43,92.28 468.56,93.72 468.70,95.19 468.83,92.45 468.97,94.71 469.10,91.22 469.24,91.47 469.37,93.34 469.50,94.17 469.64,95.94 469.77,97.82 469.91,95.08 470.04,97.84 470.18,98.62 470.31,94.52 470.45,91.03 470.58,93.79 470.71,88.66 470.85,86.05 470.98,88.53 471.12,89.51 471.25,84.10 471.39,85.08 471.52,87.92 471.66,83.69 471.79,84.96 471.92,87.77 472.06,90.59 472.19,93.41 472.33,88.66 472.46,91.46 472.60,87.28 472.73,81.88 472.87,84.74 473.00,79.34 473.13,76.70 473.27,79.54 473.40,78.79 473.54,79.89 473.67,77.04 473.81,78.03 473.94,76.15 474.08,78.12 474.21,72.60 474.34,73.92 474.48,75.27 474.61,70.60 474.75,66.92 474.88,67.37 475.02,69.62 475.15,70.36 475.29,65.74 475.42,66.66 475.55,67.70 475.69,70.64 475.82,71.63 475.96,72.84 476.09,74.03 476.23,72.36 476.36,74.56 476.50,75.45 476.63,76.28 476.76,79.11 476.90,80.42 477.03,80.82 477.17,81.82 477.30,83.03 477.44,85.18 477.57,86.10 477.71,80.65 477.84,81.29 477.97,82.59 478.11,84.55 478.24,85.55 478.38,83.25 478.51,84.20 478.65,78.76 478.78,79.99 478.92,82.86 479.05,79.30 479.18,82.17 479.32,79.83 479.45,80.92 479.59,81.85 479.72,82.78 479.86,80.63 479.99,81.88 480.13,83.27 480.26,84.05 480.39,86.85 480.53,85.41 480.66,88.22 480.80,89.17 480.93,90.47 481.07,87.81 481.20,86.70 481.34,89.18 481.47,90.92 481.60,91.69 481.74,94.49 481.87,89.92 482.01,87.55 482.14,85.56 482.28,86.22 482.41,80.77 482.55,77.23 482.68,79.54 482.81,81.26 482.95,82.63 483.08,80.85 483.22,82.12 483.35,82.55 483.49,83.41 483.62,84.52 483.76,85.41 483.89,84.11 484.02,85.97 484.16,85.51 484.29,87.71 484.43,89.25 484.56,92.02 484.70,90.31 484.83,93.12 484.97,88.61 485.10,85.56 485.23,88.29 485.37,89.13 485.50,91.71 485.64,94.38 485.77,97.15 485.91,98.64 486.04,99.83 486.18,97.01 486.31,99.79 486.44,102.21 486.58,96.98 486.71,99.72 486.85,101.42 486.98,103.19 487.12,97.96 487.25,100.72 487.39,99.60 487.52,102.37 487.65,97.60 487.79,99.35 487.92,99.95 488.06,100.72 488.19,103.47 488.33,106.22 488.46,104.06 488.60,106.64 488.73,108.46 488.86,105.51 489.00,108.21 489.13,109.73 489.27,107.04 489.40,108.79 489.54,111.52 489.67,110.62 489.81,112.45 489.94,113.35 490.07,116.03 490.21,117.34 490.34,119.98 490.48,120.76 490.61,123.44 490.75,126.06 490.88,127.04 491.02,129.29 491.15,130.51 491.28,131.32 491.42,128.33 491.55,130.94 491.69,131.37 491.82,133.04 491.96,134.17 492.09,134.82 492.23,137.25 492.36,132.31 492.49,133.81 492.63,136.35 492.76,138.33 492.90,139.04 493.03,134.16 493.17,131.40 493.30,132.42 493.44,133.79 493.57,132.64 493.70,135.20 493.84,133.18 493.97,134.10 494.11,136.15 494.24,137.81 494.38,140.39 494.51,141.37 494.65,142.41 494.78,144.95 494.91,145.67 495.05,146.50 495.18,141.68 495.32,138.75 495.45,133.82 495.59,131.05 495.72,133.49 495.86,130.85 495.99,129.81 496.12,128.25 496.26,130.86 496.39,133.41 496.53,131.57 496.66,133.22 496.80,135.54 496.93,138.07 497.07,140.20 497.20,141.54 497.33,136.69 497.47,138.46 497.60,137.24 497.74,139.38 497.87,138.44 498.01,134.89 498.14,132.38 498.28,127.38 498.41,129.34 498.54,124.67 498.68,125.21 498.81,126.70 498.95,123.04 499.08,123.96 499.22,119.23 499.35,121.83 499.49,124.42 499.62,125.02 499.75,123.88 499.89,125.01 500.02,122.90 500.16,123.36 500.29,122.15 500.43,123.57 500.56,125.86 500.70,128.43 500.83,129.36 500.96,131.42 501.10,132.34 501.23,132.89 501.37,135.48 501.50,131.38 501.64,129.79 501.77,128.17 501.91,126.79 502.04,127.51 502.17,128.24 502.31,127.31 502.44,129.95 502.58,126.62 502.71,127.87 502.85,125.96 502.98,128.54 503.12,126.84 503.25,121.80 503.38,122.99 503.52,124.83 503.65,121.40 503.79,122.47 503.92,123.80 504.06,124.76 504.19,125.76 504.33,124.11 504.46,120.31 504.59,119.23 504.73,118.66 504.86,116.63 505.00,117.84 505.13,118.57 505.27,116.40 505.40,114.09 505.54,111.65 505.67,107.09 505.80,108.57 505.94,103.34 506.07,99.99 506.21,97.83 506.34,96.12 506.48,97.09 506.61,98.67 506.75,99.70 506.88,97.89 507.01,99.41 507.15,100.53 507.28,103.29 507.42,102.42 507.55,103.02 507.69,103.87 507.82,105.91 507.96,108.63 508.09,111.06 508.22,110.18 508.36,112.54 508.49,114.83 508.63,117.51 508.76,113.84 508.90,111.70 509.03,113.35 509.17,115.93 509.30,117.21 509.43,118.51 509.57,121.19 509.70,123.18 509.84,125.83 509.97,127.22 510.11,128.57 510.24,129.24 510.38,131.37 510.51,128.75 510.64,127.23 510.78,129.82 510.91,132.45 511.05,127.46 511.18,130.07 511.32,131.59 511.45,126.62 511.59,129.20 511.72,130.88 511.85,133.43 511.99,135.05 512.12,137.57 512.26,138.03 512.39,140.59 512.53,141.29 512.66,142.91 512.80,145.41 512.93,146.56 513.06,149.09 513.20,150.67 513.33,145.92 513.47,147.26 513.60,149.74 513.74,152.26 513.87,153.73 514.01,151.36 514.14,148.50 514.27,146.61 514.41,148.63 514.54,146.92 514.68,147.77 514.81,146.16 514.95,143.91 515.08,142.35 515.22,142.95 515.35,145.05 515.48,145.62 515.62,143.98 515.75,141.28 515.89,142.04 516.02,137.14 516.16,137.37 516.29,139.46 516.43,134.56 516.56,136.09 516.69,135.02 516.83,137.61 516.96,132.73 517.10,135.08 517.23,137.64 517.37,138.97 517.50,141.53 517.64,139.74 517.77,142.25 517.90,137.35 518.04,139.92 518.17,140.62 518.31,141.94 518.44,144.06 518.58,145.41 518.71,145.95 518.85,141.56 518.98,139.96 519.11,141.36 519.25,138.68 519.38,133.74 519.52,129.36 519.65,131.98 519.79,133.96 519.92,135.91 520.06,136.96 520.19,135.53 520.32,137.31 520.46,137.88 520.59,132.99 520.73,135.04 520.86,130.09 521.00,125.49 521.13,128.06 521.27,129.96 521.40,128.05 521.53,123.57 521.67,118.54 521.80,116.41 521.94,118.93 522.07,119.86 522.21,121.17 522.34,123.82 522.48,121.87 522.61,122.31 522.74,123.98 522.88,125.37 523.01,128.00 523.15,129.10 523.28,130.41 523.42,127.37 523.55,126.33 523.69,128.42 523.82,125.51 523.95,125.74 524.09,127.96 524.22,129.53 524.36,124.53 524.49,119.48 524.63,121.91 524.76,124.51 524.90,121.26 525.03,122.89 525.16,125.54 525.30,126.81 525.43,123.48 525.57,125.12 525.70,126.87 525.84,125.10 525.97,126.30 526.11,128.29 526.24,129.83 526.37,131.21 526.51,133.47 526.64,130.28 526.78,130.93 526.91,132.05 527.05,133.84 527.18,135.43 527.32,136.71 527.45,137.50 527.58,138.68 527.72,134.38 527.85,132.53 527.99,134.62 528.12,137.16 528.26,134.20 528.39,135.62 528.53,134.27 528.66,131.40 528.79,132.66 528.93,135.14 529.06,135.43 529.20,132.37 529.33,127.38 529.47,130.01 529.60,132.58 529.74,135.16 529.87,130.73 530.00,133.35 530.14,134.97 530.27,137.56 530.41,138.91 530.54,135.00 530.68,136.51 530.81,138.16 530.95,140.03 531.08,142.59 531.21,144.59 531.35,139.77 531.48,142.31 531.62,144.86 531.75,141.87 531.89,143.39 532.02,145.91 532.16,148.42 532.29,150.30 532.42,152.78 532.56,155.00 532.69,150.24 532.83,151.68 532.96,146.93 533.10,148.87 533.23,144.05 533.37,145.95 533.50,143.97 533.63,142.73 533.77,145.22 533.90,145.93 534.04,142.04 534.17,140.68 534.31,142.73 534.44,145.24 534.58,143.92 534.71,139.07 534.84,139.77 534.98,142.26 535.11,144.81 535.25,147.35 535.38,142.56 535.52,139.01 535.65,134.13 535.79,136.67 535.92,139.24 536.05,141.28 536.19,143.83 536.32,139.24 536.46,141.74 536.59,142.99 536.73,138.91 536.86,133.98 537.00,136.22 537.13,134.78 537.26,137.33 537.40,139.87 537.53,142.43 537.67,144.97 537.80,147.20 537.94,149.72 538.07,144.89 538.21,146.89 538.34,142.01 538.47,144.53 538.61,147.04 538.74,142.19 538.88,143.43 539.01,138.55 539.15,140.69 539.28,141.60 539.42,144.13 539.55,146.63 539.68,141.83 539.82,138.29 539.95,139.79 540.09,141.03 540.22,138.89 540.36,140.43 540.49,135.57 540.63,130.61 540.76,129.18 540.89,127.70 541.03,130.28 541.16,131.30 541.30,126.33 541.43,124.65 541.57,127.21 541.70,129.03 541.84,130.69 541.97,132.07 542.10,127.13 542.24,128.16 542.37,129.60 542.51,130.32 542.64,131.96 542.78,134.53 542.91,135.71 543.05,132.09 543.18,133.97 543.31,131.40 543.45,132.74 543.58,128.15 543.72,130.13 543.85,131.01 543.99,132.34 544.12,134.89 544.26,129.97 544.39,132.58 544.52,134.16 544.66,135.21 544.79,136.17 544.93,136.95 545.06,138.45 545.20,139.61 545.33,142.17 545.47,144.68 545.60,147.19 545.73,149.73 545.87,148.49 546.00,150.80 546.14,151.93 546.27,154.40 546.41,156.01 546.54,158.35 546.68,159.96 546.81,161.34 546.94,163.77 547.08,165.21 547.21,166.34 547.35,168.01 547.48,166.16 547.62,167.89 547.75,169.48 547.89,167.43 548.02,169.82 548.15,165.22 548.29,167.64 548.42,170.03 548.56,171.17 548.69,173.36 548.83,173.71 548.96,171.39 549.10,170.78 549.23,166.22 549.36,161.57 549.50,159.34 549.63,161.78 549.77,163.92 549.90,166.34 550.04,167.48 550.17,168.88 550.31,171.30 550.44,172.12 550.57,167.57 550.71,162.97 550.84,164.62 550.98,167.06 551.11,169.46 551.25,170.75 551.38,167.82 551.52,168.62 551.65,170.02 551.78,166.68 551.92,169.11 552.05,167.27 552.19,169.62 552.32,165.01 552.46,165.76 552.59,162.53 552.73,164.04 552.86,166.46 552.99,166.95 553.13,162.36 553.26,163.71 553.40,165.41 553.53,162.54 553.67,163.04 553.80,160.64 553.94,161.97 554.07,160.49 554.20,162.41 554.34,164.28 554.47,164.95 554.61,161.71 554.74,159.86 554.88,162.32 555.01,159.34 555.15,157.18 555.28,158.91 555.41,157.39 555.55,152.68 555.68,150.77 555.82,145.99 555.95,148.05 556.09,150.56 556.22,152.22 556.36,152.80 556.49,155.28 556.62,157.46 556.76,158.82 556.89,160.44 557.03,162.30 557.16,163.63 557.30,165.85 557.43,167.37 557.57,169.07 557.70,170.58 557.83,172.72 557.97,168.63 558.10,167.09 558.24,167.95 558.37,163.32 558.51,164.86 558.64,166.11 558.78,168.50 558.91,165.73 559.04,162.57 559.18,164.70 559.31,166.22 559.45,168.30 559.58,169.31 559.72,164.72 559.85,167.16 559.99,166.37 560.12,168.58 560.25,170.46 560.39,171.53 560.52,172.03 560.66,173.03 560.79,174.51 560.93,176.88 561.06,179.23 561.20,181.03 561.33,179.15 561.46,175.13 561.60,175.67 561.73,176.57 561.87,177.56 562.00,178.47 562.14,180.81 562.27,181.86 562.41,184.16 562.54,184.82 562.68,183.58 562.81,179.14 562.94,179.96 563.08,178.81 563.21,181.18 563.35,181.95 563.48,182.38 563.62,183.11 563.75,179.70 563.89,180.65 564.02,181.07 564.15,182.28 564.29,182.76 564.42,180.56 564.56,181.92 564.69,177.47 564.83,175.13 564.96,176.15 565.10,177.33 565.23,174.31 565.36,176.63 565.50,174.70 565.63,176.86 565.77,177.77 565.90,178.90 566.04,176.25 566.17,177.31 566.31,172.79 566.44,173.91 566.57,175.93 566.71,178.31 566.84,176.84 566.98,178.61 567.11,179.32 567.25,177.67 567.38,179.79 567.52,177.83 567.65,178.70 567.78,176.59 567.92,177.89 568.05,178.33 568.19,179.05 568.32,181.37 568.46,179.27 568.59,177.45 568.73,179.74 568.86,180.18 568.99,176.31 569.13,177.16 569.26,173.93 569.40,176.30 569.53,178.67 569.67,180.76 569.80,182.67 569.94,183.97 570.07,182.98 570.20,178.55 570.34,179.30 570.47,181.49 570.61,183.42 570.74,184.20 570.88,185.44 571.01,186.25 571.15,187.43 571.28,183.02 571.41,184.12 571.55,180.91 571.68,183.05 571.82,184.55 571.95,183.47 572.09,185.76 572.22,181.36 572.36,182.39 572.49,184.56 572.62,184.93 572.76,187.26 572.89,188.46 573.03,187.43 573.16,188.37 573.30,189.28 573.43,190.83 573.57,186.42 573.70,187.43 573.83,189.75 573.97,191.19 574.10,192.05 574.24,193.19 574.37,194.28 574.51,191.04 574.64,187.01 574.78,187.68 574.91,190.00 575.04,187.24 575.18,189.16 575.31,190.83 575.45,192.25 575.58,189.89 575.72,190.52 575.85,192.32 575.99,194.06 576.12,196.29 576.25,197.43 576.39,193.09 576.52,195.36 576.66,197.08 576.79,199.30 576.93,201.56 577.06,200.12 577.20,202.34 577.33,199.47 577.46,201.42 577.60,202.98 577.73,201.26 577.87,202.77 578.00,204.98 578.14,206.91 578.27,202.72 578.41,199.75 578.54,201.88 578.67,199.56 578.81,195.23 578.94,196.09 579.08,198.26 579.21,200.08 579.35,197.89 579.48,200.12 579.62,201.44 579.75,203.30 579.88,200.50 580.02,202.75 580.15,198.60 580.29,199.08 580.42,200.42 580.56,196.13 580.69,197.68 580.83,199.10 580.96,200.12 581.09,202.34 581.23,203.68 581.36,204.49 581.50,205.44 581.63,206.65 581.77,202.42 581.90,201.03 582.04,200.10 582.17,195.84 582.30,196.81 582.44,198.09 582.57,197.81 582.71,200.04 582.84,200.54 582.98,201.30 583.11,202.34 583.25,200.87 583.38,196.60 583.51,197.06 583.65,198.24 583.78,200.46 583.92,199.08 584.05,200.54 584.19,201.06 584.32,201.29 584.46,197.64 584.59,194.38 584.72,196.62 584.86,198.36 584.99,199.53 585.13,200.60 585.26,201.83 585.40,203.71 585.53,202.33 585.67,203.43 585.80,204.54 585.93,206.75 586.07,204.51 586.20,205.50 586.34,201.92 586.47,202.50 586.61,201.23 586.74,203.40 586.88,204.54 587.01,200.27 587.14,200.71 587.28,202.97 587.41,203.45 587.55,205.19 587.68,205.89 587.82,206.95 587.95,206.04 588.09,206.52 588.22,207.20 588.35,209.41 588.49,210.25 588.62,209.44 588.76,208.14 588.89,209.92 589.03,211.22 589.16,209.76 589.30,210.24 589.43,209.10 589.56,210.60 589.70,210.09 589.83,208.86 589.97,206.96 590.10,207.77 590.24,208.80 590.37,207.48 590.51,209.57 590.64,207.37 590.77,205.49 590.91,207.48 591.04,208.81 591.18,209.94 591.31,210.84 591.45,211.36 591.58,212.27 591.72,212.59 591.85,213.51 591.98,214.04 592.12,215.80 592.25,214.01 592.39,216.16 592.52,216.82 592.66,217.60 592.79,218.36 592.93,219.00 593.06,219.92 593.19,220.06 593.33,221.66 593.46,217.58 593.60,218.21 593.73,215.90 593.87,217.40 594.00,218.36 594.14,219.04 594.27,221.16 594.40,222.76 594.54,223.49 594.67,225.63 594.81,226.94 594.94,222.90 595.08,221.79 595.21,220.72 595.35,218.63 595.48,217.37 595.61,215.88 595.75,216.79 595.88,215.92 596.02,213.66 596.15,214.91 596.29,210.78 596.42,211.41 596.56,213.60 596.69,214.12 596.82,215.49 596.96,211.61 597.09,208.60 597.23,205.64 597.36,206.66 597.50,207.98 597.63,209.18 597.77,210.17 597.90,211.00 598.03,211.65 598.17,212.60 598.30,213.33 598.44,214.87 598.57,216.15 598.71,217.34 598.84,219.07 598.98,219.40 599.11,217.52 599.24,219.11 599.38,220.12 599.51,218.15 599.65,219.25 599.78,221.41 599.92,219.81 600.05,218.86 600.19,218.15 600.32,214.07 600.45,215.84 600.59,216.64 600.72,217.43 600.86,216.25 600.99,217.01 601.13,215.49 601.26,217.66 601.40,216.48 601.53,217.01 601.66,215.45 601.80,216.66 601.93,212.53 602.07,210.67 602.20,211.65 602.34,212.18 602.47,211.50 602.61,212.70 602.74,211.83 602.87,214.00 603.01,214.92 603.14,215.64 603.28,212.90 603.41,212.22 603.55,210.61 603.68,211.27 603.82,213.47 603.95,211.81 604.08,213.95 604.22,212.20 604.35,212.50 604.49,213.45 604.62,213.90 604.76,215.79 604.89,216.49 605.03,217.51 605.16,218.93 605.29,217.20 605.43,217.55 605.56,218.27 605.70,215.84 605.83,216.79 605.97,217.55 606.10,218.16 606.24,219.05 606.37,219.85 606.50,215.74 606.64,216.37 606.77,217.01 606.91,215.57 607.04,216.24 607.18,217.12 607.31,219.29 607.45,220.44 607.58,218.07 607.71,217.45 607.85,218.43 607.98,219.37 608.12,220.28 608.25,221.92 608.39,219.70 608.52,221.02 608.66,222.22 608.79,221.46 608.92,223.30 609.06,224.05 609.19,226.16 609.33,228.27 609.46,229.07 609.60,227.89 609.73,230.00 609.87,229.03 610.00,229.58" fill="none" stroke="#2563eb" stroke-width="1.5"/><text x="30" y="252" font-size="11" fill="#555">min 73005.45 / max 109049.76</text></svg>
