<svg xmlns="http://www.w3.org/2000/svg" width="640" height="260" viewBox="0 0 640 260"><rect width="640" height="260" fill="white"/><text x="30" y="22" font-size="14" fill="#111">M10-PA-009 15m baseline equity</text><line x1="30" y1="230" x2="610" y2="230" stroke="#ccc"/><line x1="30" y1="30" x2="30" y2="230" stroke="#ccc"/><polyline points="30.00,207.56 30.64,211.82 31.28,209.77 31.92,211.80 32.57,203.57 33.21,206.65 33.85,209.58 34.49,201.40 35.13,195.07 35.77,196.79 36.42,199.29 37.06,203.63 37.70,204.88 38.34,206.05 38.98,208.41 39.62,209.58 40.27,209.98 40.91,206.34 41.55,198.08 42.19,200.47 42.83,203.50 43.47,206.03 44.12,209.48 44.76,213.82 45.40,216.19 46.04,208.08 46.68,209.42 47.32,205.57 47.96,207.96 48.61,202.30 49.25,199.59 49.89,200.43 50.53,202.63 51.17,204.92 51.81,208.14 52.46,209.01 53.10,210.79 53.74,215.05 54.38,210.03 55.02,212.53 55.66,215.79 56.31,220.02 56.95,214.76 57.59,215.19 58.23,217.58 58.87,221.85 59.51,224.67 60.15,227.40 60.80,230.00 61.44,221.95 62.08,224.93 62.72,227.63 63.36,228.71 64.00,224.02 64.65,215.88 65.29,208.05 65.93,209.25 66.57,210.38 67.21,213.62 67.85,217.45 68.50,221.44 69.14,219.03 69.78,219.27 70.42,212.20 71.06,213.25 71.70,210.25 72.35,212.74 72.99,215.10 73.63,208.38 74.27,210.25 74.91,211.05 75.55,213.12 76.19,209.35 76.84,202.63 77.48,203.94 78.12,204.12 78.76,203.83 79.40,204.94 80.04,201.77 80.69,203.99 81.33,208.28 81.97,211.35 82.61,210.31 83.25,213.43 83.89,205.21 84.54,205.84 85.18,208.46 85.82,204.30 86.46,208.55 87.10,210.92 87.74,214.51 88.38,218.81 89.03,222.17 89.67,223.90 90.31,222.71 90.95,223.60 91.59,215.68 92.23,207.82 92.88,208.64 93.52,212.92 94.16,211.50 94.80,213.57 95.44,215.14 96.08,209.34 96.73,213.63 97.37,217.90 98.01,209.80 98.65,201.50 99.29,205.80 99.93,210.11 100.58,203.60 101.22,206.32 101.86,198.09 102.50,196.20 103.14,197.90 103.78,202.26 104.42,206.52 105.07,210.80 105.71,202.53 106.35,206.75 106.99,198.54 107.63,202.82 108.27,207.05 108.92,198.80 109.56,196.70 110.20,201.06 110.84,198.29 111.48,202.59 112.12,194.44 112.77,196.75 113.41,200.33 114.05,202.89 114.69,201.39 115.33,205.14 115.97,208.10 116.62,212.41 117.26,206.43 117.90,198.11 118.54,199.30 119.18,203.61 119.82,207.74 120.46,209.24 121.11,211.51 121.75,213.76 122.39,210.41 123.03,211.04 123.67,211.79 124.31,203.60 124.96,204.45 125.60,202.87 126.24,204.02 126.88,205.47 127.52,207.84 128.16,202.61 128.81,203.53 129.45,204.38 130.09,200.80 130.73,203.05 131.37,205.27 132.01,200.69 132.65,203.08 133.30,204.20 133.94,206.72 134.58,203.70 135.22,199.32 135.86,201.08 136.50,203.13 137.15,204.50 137.79,203.98 138.43,202.26 139.07,204.52 139.71,205.64 140.35,209.19 141.00,200.90 141.64,192.53 142.28,185.18 142.92,186.48 143.56,188.03 144.20,189.48 144.85,191.37 145.49,183.05 146.13,174.61 146.77,177.35 147.41,181.80 148.05,173.34 148.69,174.20 149.34,175.39 149.98,176.80 150.62,180.01 151.26,177.50 151.90,171.59 152.54,169.69 153.19,174.23 153.83,175.78 154.47,176.15 155.11,176.69 155.75,178.34 156.39,179.73 157.04,174.61 157.68,167.43 158.32,165.15 158.96,168.70 159.60,167.02 160.24,171.40 160.88,172.53 161.53,176.96 162.17,178.15 162.81,181.23 163.45,182.20 164.09,184.43 164.73,188.83 165.38,190.44 166.02,194.44 166.66,198.78 167.30,199.03 167.94,201.95 168.58,193.64 169.23,196.37 169.87,198.35 170.51,200.89 171.15,205.17 171.79,207.60 172.43,209.85 173.08,201.57 173.72,202.90 174.36,195.98 175.00,187.60 175.64,190.14 176.28,191.91 176.92,193.53 177.57,187.71 178.21,183.80 178.85,207.56 179.49,211.86 180.13,203.65 180.77,207.98 181.42,210.99 182.06,205.87 182.70,210.21 183.34,212.97 183.98,215.60 184.62,218.56 185.27,219.75 185.91,223.51 186.55,226.03 187.19,223.67 187.83,217.45 188.47,218.78 189.12,220.98 189.76,222.56 190.40,215.37 191.04,218.93 191.68,220.53 192.32,212.62 192.96,204.38 193.61,200.64 194.25,204.78 194.89,208.93 195.53,210.45 196.17,211.99 196.81,208.68 197.46,200.44 198.10,192.10 198.74,196.48 199.38,200.84 200.02,205.12 200.66,196.85 201.31,188.45 201.95,180.00 202.59,171.45 203.23,162.84 203.87,167.41 204.51,158.70 205.15,163.26 205.80,167.72 206.44,169.62 207.08,174.13 207.72,178.53 208.36,183.01 209.00,179.65 209.65,171.05 210.29,175.50 210.93,179.31 211.57,183.71 212.21,177.23 212.85,180.84 213.50,172.25 214.14,175.13 214.78,166.60 215.42,157.99 216.06,154.31 216.70,153.88 217.35,158.38 217.99,159.84 218.63,163.46 219.27,155.14 219.91,159.75 220.55,164.27 221.19,155.58 221.84,146.91 222.48,148.10 223.12,142.29 223.76,146.64 224.40,137.76 225.04,135.60 225.69,137.63 226.33,141.56 226.97,145.22 227.61,149.87 228.25,151.39 228.89,142.53 229.54,147.12 230.18,151.72 230.82,156.30 231.46,157.47 232.10,159.27 232.74,163.82 233.38,168.33 234.03,170.27 234.67,174.78 235.31,179.23 235.95,176.01 236.59,169.56 237.23,160.96 237.88,155.41 238.52,153.66 239.16,158.19 239.80,162.76 240.44,158.57 241.08,163.15 241.73,165.12 242.37,156.57 243.01,150.14 243.65,154.69 244.29,145.90 244.93,136.96 245.58,141.57 246.22,146.17 246.86,148.03 247.50,152.64 248.14,156.06 248.78,147.32 249.42,150.08 250.07,152.17 250.71,156.77 251.35,147.92 251.99,152.46 252.63,143.62 253.27,148.14 253.92,152.74 254.56,157.13 255.20,148.41 255.84,139.49 256.48,130.52 257.12,131.58 257.77,122.54 258.41,124.57 259.05,128.47 259.69,119.49 260.33,121.33 260.97,124.69 261.62,126.44 262.26,130.03 262.90,134.66 263.54,131.74 264.18,136.48 264.82,130.89 265.46,133.70 266.11,138.41 266.75,143.04 267.39,138.54 268.03,143.14 268.67,134.25 269.31,134.85 269.96,136.22 270.60,139.79 271.24,137.91 271.88,142.44 272.52,146.92 273.16,143.60 273.81,146.00 274.45,149.27 275.09,141.45 275.73,142.91 276.37,141.03 277.01,141.80 277.65,146.42 278.30,150.75 278.94,144.88 279.58,140.38 280.22,131.50 280.86,122.55 281.50,113.42 282.15,105.39 282.79,108.10 283.43,109.68 284.07,111.82 284.71,102.62 285.35,104.15 286.00,109.03 286.64,111.18 287.28,107.98 287.92,110.42 288.56,111.68 289.20,112.85 289.85,103.59 290.49,94.24 291.13,84.91 291.77,87.01 292.41,91.59 293.05,83.37 293.69,84.60 294.34,86.57 294.98,87.70 295.62,92.65 296.26,96.84 296.90,101.35 297.54,93.84 298.19,98.65 298.83,89.29 299.47,91.22 300.11,93.27 300.75,95.19 301.39,99.22 302.04,102.61 302.68,106.05 303.32,102.99 303.96,107.80 304.60,98.50 305.24,99.28 305.88,100.64 306.53,102.79 307.17,105.80 307.81,101.81 308.45,102.68 309.09,106.76 309.73,110.48 310.38,112.20 311.02,113.05 311.66,114.27 312.30,119.06 312.94,123.75 313.58,126.13 314.23,130.84 314.87,134.93 315.51,139.55 316.15,144.21 316.79,146.45 317.43,138.85 318.08,142.42 318.72,133.51 319.36,128.96 320.00,119.91 320.64,110.81 321.28,115.58 321.92,109.17 322.57,111.35 323.21,114.62 323.85,119.38 324.49,123.28 325.13,118.53 325.77,122.52 326.42,207.56 327.06,211.80 327.70,216.07 328.34,220.23 328.98,212.08 329.62,203.89 330.27,208.16 330.91,212.41 331.55,216.68 332.19,208.45 332.83,200.19 333.47,191.79 334.12,183.36 334.76,186.67 335.40,190.98 336.04,195.13 336.68,186.73 337.32,191.06 337.96,182.63 338.61,174.04 339.25,174.58 339.89,165.91 340.53,170.34 341.17,174.79 341.81,166.13 342.46,157.38 343.10,161.84 343.74,166.28 344.38,160.07 345.02,151.37 345.66,142.46 346.31,147.06 346.95,151.68 347.59,156.23 348.23,147.39 348.87,138.45 349.51,129.43 350.15,120.35 350.80,111.13 351.44,115.85 352.08,106.61 352.72,111.37 353.36,116.14 354.00,120.81 354.65,125.46 355.29,130.06 355.93,120.98 356.57,125.63 357.21,116.47 357.85,107.29 358.50,112.10 359.14,116.86 359.78,121.56 360.42,126.35 361.06,121.36 361.70,126.01 362.35,130.70 362.99,121.66 363.63,112.60 364.27,103.43 364.91,104.26 365.55,109.02 366.19,113.81 366.84,118.56 367.48,121.87 368.12,126.65 368.76,117.56 369.40,108.39 370.04,99.08 370.69,103.90 371.33,95.69 371.97,86.28 372.61,91.24 373.25,96.12 373.89,100.03 374.54,104.91 375.18,95.56 375.82,100.37 376.46,105.15 377.10,95.84 377.74,86.53 378.38,76.99 379.03,81.89 379.67,86.74 380.31,91.61 380.95,92.91 381.59,97.73 382.23,102.57 382.88,107.37 383.52,98.06 384.16,102.82 384.80,107.59 385.44,112.32 386.08,103.03 386.73,107.79 387.37,100.61 388.01,105.36 388.65,110.14 389.29,114.85 389.93,119.54 390.58,124.22 391.22,128.92 391.86,119.87 392.50,124.60 393.14,115.44 393.78,106.17 394.42,110.87 395.07,115.65 395.71,120.35 396.35,121.77 396.99,126.40 397.63,128.57 398.27,133.27 398.92,124.23 399.56,128.91 400.20,119.83 400.84,124.62 401.48,129.34 402.12,134.04 402.77,138.73 403.41,143.34 404.05,146.19 404.69,150.75 405.33,155.25 405.97,159.77 406.62,164.03 407.26,164.83 407.90,159.21 408.54,163.71 409.18,166.58 409.82,157.89 410.46,149.19 411.11,140.33 411.75,144.99 412.39,148.59 413.03,152.37 413.67,156.88 414.31,148.08 414.96,139.20 415.60,143.77 416.24,148.35 416.88,152.87 417.52,144.02 418.16,135.14 418.81,126.12 419.45,126.61 420.09,129.70 420.73,134.33 421.37,125.36 422.01,116.24 422.65,120.98 423.30,125.69 423.94,130.46 424.58,132.77 425.22,137.40 425.86,142.03 426.50,144.96 427.15,149.48 427.79,140.66 428.43,145.24 429.07,149.75 429.71,140.89 430.35,145.52 431.00,150.10 431.64,153.49 432.28,157.60 432.92,162.07 433.56,166.64 434.20,171.08 434.85,175.53 435.49,179.93 436.13,184.38 436.77,175.85 437.41,180.24 438.05,184.59 438.69,177.50 439.34,168.96 439.98,160.29 440.62,151.58 441.26,156.07 441.90,147.22 442.54,151.87 443.19,156.41 443.83,160.92 444.47,153.58 445.11,158.13 445.75,150.90 446.39,152.92 447.04,157.51 447.68,161.18 448.32,165.63 448.96,156.91 449.60,160.55 450.24,164.36 450.88,168.85 451.53,173.28 452.17,177.72 452.81,170.18 453.45,173.35 454.09,177.72 454.73,182.17 455.38,173.62 456.02,178.01 456.66,182.09 457.30,173.50 457.94,177.92 458.58,182.28 459.23,173.70 459.87,168.81 460.51,172.74 461.15,164.13 461.79,168.64 462.43,170.68 463.08,175.18 463.72,179.01 464.36,180.71 465.00,207.56 465.64,199.24 466.28,190.87 466.92,195.22 467.57,186.76 468.21,191.08 468.85,195.41 469.49,199.71 470.13,204.02 470.77,195.66 471.42,199.99 472.06,191.58 472.70,195.91 473.34,200.17 473.98,204.47 474.62,208.73 475.27,212.96 475.91,204.72 476.55,208.98 477.19,213.18 477.83,217.36 478.47,221.51 479.12,225.70 479.76,217.59 480.40,221.82 481.04,226.06 481.68,227.78 482.32,227.51 482.96,219.49 483.61,211.28 484.25,215.49 484.89,219.72 485.53,223.85 486.17,228.01 486.81,229.60 487.46,221.48 488.10,225.60 488.74,217.46 489.38,221.66 490.02,213.56 490.66,217.76 491.31,209.53 491.95,201.24 492.59,205.51 493.23,197.21 493.87,188.80 494.51,180.27 495.15,171.66 495.80,176.08 496.44,180.49 497.08,171.87 497.72,176.36 498.36,180.79 499.00,184.63 499.65,188.97 500.29,193.40 500.93,197.74 501.57,189.43 502.21,181.06 502.85,185.40 503.50,189.78 504.14,181.36 504.78,185.81 505.42,190.21 506.06,181.76 506.70,186.13 507.35,190.52 507.99,194.85 508.63,196.24 509.27,196.44 509.91,200.70 510.55,204.97 511.19,196.65 511.84,188.26 512.48,192.55 513.12,196.85 513.76,201.16 514.40,205.40 515.04,209.67 515.69,213.86 516.33,205.67 516.97,197.42 517.61,201.76 518.25,193.38 518.89,197.72 519.54,189.31 520.18,193.64 520.82,197.97 521.46,202.30 522.10,193.99 522.74,185.55 523.38,189.91 524.03,194.19 524.67,198.54 525.31,190.37 525.95,181.88 526.59,186.25 527.23,190.60 527.88,182.10 528.52,173.51 529.16,164.84 529.80,169.29 530.44,160.60 531.08,165.07 531.73,156.33 532.37,160.80 533.01,165.24 533.65,156.51 534.29,160.97 534.93,165.46 535.58,169.88 536.22,174.28 536.86,178.63 537.50,183.02 538.14,187.35 538.78,191.71 539.42,183.22 540.07,187.53 540.71,191.83 541.35,196.17 541.99,192.14 542.63,196.43 543.27,200.69 543.92,204.95 544.56,196.62 545.20,200.88 545.84,192.52 546.48,196.68 547.12,188.28 547.77,192.58 548.41,196.87 549.05,201.21 549.69,192.84 550.33,197.16 550.97,188.70 551.62,180.24 552.26,171.67 552.90,176.10 553.54,167.50 554.18,171.95 554.82,176.38 555.46,167.74 556.11,172.19 556.75,163.58 557.39,168.02 558.03,172.56 558.67,177.04 559.31,181.40 559.96,185.79 560.60,177.31 561.24,168.75 561.88,160.04 562.52,164.52 563.16,166.80 563.81,158.19 564.45,162.62 565.09,167.09 565.73,171.61 566.37,176.14 567.01,167.53 567.65,171.52 568.30,163.19 568.94,154.53 569.58,159.04 570.22,163.57 570.86,168.02 571.50,159.35 572.15,150.66 572.79,155.17 573.43,159.69 574.07,164.12 574.71,168.54 575.35,172.95 576.00,164.33 576.64,155.59 577.28,146.80 577.92,137.94 578.56,128.95 579.20,133.65 579.85,124.71 580.49,115.60 581.13,120.33 581.77,111.17 582.41,101.90 583.05,92.63 583.69,97.45 584.34,102.20 584.98,92.83 585.62,83.35 586.26,88.18 586.90,93.05 587.54,97.89 588.19,102.79 588.83,93.48 589.47,98.31 590.11,103.08 590.75,106.30 591.39,96.97 592.04,87.69 592.68,78.52 593.32,83.39 593.96,73.93 594.60,78.94 595.24,69.39 595.88,74.40 596.53,73.16 597.17,63.47 597.81,68.44 598.45,73.49 599.09,63.82 599.73,54.04 600.38,44.21 601.02,47.45 601.66,37.53 602.30,41.02 602.94,46.17 603.58,51.33 604.23,56.33 604.87,46.53 605.51,51.56 606.15,56.61 606.79,49.74 607.43,39.95 608.08,30.00 608.72,35.10 609.36,40.30 610.00,34.75" fill="none" stroke="#2563eb" stroke-width="1.5"/><text x="30" y="252" font-size="11" fill="#555">min 97316.50 / max 121237.85</text></svg>
