<svg xmlns="http://www.w3.org/2000/svg" width="640" height="260" viewBox="0 0 640 260"><rect width="640" height="260" fill="white"/><text x="30" y="22" font-size="14" fill="#111">M10-PA-009 1d baseline equity</text><line x1="30" y1="230" x2="610" y2="230" stroke="#ccc"/><line x1="30" y1="30" x2="30" y2="230" stroke="#ccc"/><polyline points="30.00,150.43 32.01,139.71 34.01,145.23 36.02,147.94 38.03,153.37 40.03,158.78 42.04,164.14 44.05,169.50 46.06,158.98 48.06,164.35 50.07,169.71 52.08,175.04 54.08,180.35 56.09,185.66 58.10,190.91 60.10,180.65 62.11,170.23 64.12,163.86 66.12,153.37 68.13,158.79 70.14,164.22 72.15,153.65 74.15,159.13 76.16,164.49 78.17,153.94 80.17,159.35 82.18,164.70 84.19,170.04 86.19,159.49 88.20,164.88 90.21,154.29 92.21,159.75 94.22,163.24 96.23,152.78 98.24,158.36 100.24,147.72 102.25,153.19 104.26,158.58 106.26,164.07 108.27,169.42 110.28,174.77 112.28,180.15 114.29,185.51 116.30,190.75 118.30,180.40 120.31,185.65 122.32,175.27 124.33,180.65 126.33,170.21 128.34,175.63 130.35,181.02 132.35,186.28 134.36,175.92 136.37,181.19 138.37,186.51 140.38,190.65 142.39,180.31 144.39,169.90 146.40,175.27 148.41,180.58 150.42,186.02 152.42,175.66 154.43,180.98 156.44,170.57 158.44,176.00 160.45,165.68 162.46,155.08 164.46,160.54 166.47,165.92 168.48,160.56 170.48,165.96 172.49,164.48 174.50,150.43 176.51,155.83 178.51,161.23 180.52,166.58 182.53,171.90 184.53,177.20 186.54,182.36 188.55,187.64 190.55,192.97 192.56,182.74 194.57,172.41 196.57,177.78 198.58,183.08 200.59,188.34 202.60,193.58 204.60,198.80 206.61,203.95 208.62,193.74 210.62,198.93 212.63,204.11 214.64,193.92 216.64,183.60 218.65,188.84 220.66,194.09 222.66,199.28 224.67,204.46 226.68,209.63 228.69,214.74 230.69,219.86 232.70,224.94 234.71,230.00 236.71,220.07 238.72,210.11 240.73,199.98 242.73,205.18 244.74,194.99 246.75,184.74 248.75,182.16 250.76,171.73 252.77,177.03 254.78,182.33 256.78,187.56 258.79,192.80 260.80,182.56 262.80,187.80 264.81,193.02 266.82,198.21 268.82,203.38 270.83,208.52 272.84,198.36 274.84,203.52 276.85,193.38 278.86,183.07 280.87,188.32 282.87,193.54 284.88,183.25 286.89,172.83 288.89,178.18 290.90,183.48 292.91,188.72 294.91,193.94 296.92,183.64 298.93,150.43 300.93,139.67 302.94,145.12 304.95,150.55 306.96,155.94 308.96,145.24 310.97,150.66 312.98,139.92 314.98,145.41 316.99,150.85 319.00,140.11 321.00,145.60 323.01,151.02 325.02,140.31 327.02,129.49 329.03,135.02 331.04,140.49 333.04,129.67 335.05,118.71 337.06,124.27 339.07,129.81 341.07,118.88 343.08,124.47 345.09,113.46 347.09,119.05 349.10,109.38 351.11,114.99 353.11,120.57 355.12,126.14 357.13,131.66 359.13,137.17 361.14,142.64 363.15,148.08 365.16,137.33 367.16,126.50 369.17,115.52 371.18,104.43 373.18,110.19 375.19,115.78 377.20,121.38 379.20,110.35 381.21,115.95 383.22,121.52 385.22,110.51 387.23,116.11 389.24,121.67 391.25,127.20 393.25,132.77 395.26,138.25 397.27,143.70 399.27,149.15 401.28,138.39 403.29,127.52 405.29,133.03 407.30,138.52 409.31,144.02 411.31,149.45 413.32,154.85 415.33,144.14 417.34,149.57 419.34,154.97 421.35,160.34 423.36,165.69 425.36,171.00 427.37,176.29 429.38,181.55 431.38,186.83 433.39,192.05 435.40,197.23 437.40,186.95 439.41,192.16 441.42,197.35 443.43,202.50 445.43,207.63 447.44,212.73 449.45,217.84 451.45,222.92 453.46,212.89 455.47,217.97 457.47,223.08 459.48,228.11 461.49,150.43 463.49,139.70 465.50,128.83 467.51,134.33 469.52,139.81 471.52,145.25 473.53,150.67 475.54,156.06 477.54,145.37 479.55,150.78 481.56,156.18 483.56,157.06 485.57,146.38 487.58,151.80 489.58,157.18 491.59,162.54 493.60,167.87 495.61,173.18 497.61,162.66 499.62,168.00 501.63,173.32 503.63,178.60 505.64,183.85 507.65,189.09 509.65,178.72 511.66,168.25 513.67,173.57 515.67,163.06 517.68,168.38 519.69,157.83 521.70,163.28 523.70,168.61 525.71,173.96 527.72,163.48 529.72,168.82 531.73,174.12 533.74,163.60 535.74,152.98 537.75,158.36 539.76,163.72 541.76,169.05 543.77,174.36 545.78,179.63 547.79,184.89 549.79,174.47 551.80,179.74 553.81,169.28 555.81,158.72 557.82,148.05 559.83,153.48 561.83,158.88 563.84,148.22 565.85,137.44 567.85,142.89 569.86,148.32 571.87,153.73 573.88,143.01 575.88,148.43 577.89,137.66 579.90,143.11 581.90,132.29 583.91,121.35 585.92,110.32 587.92,99.16 589.93,104.81 591.94,93.60 593.94,82.28 595.95,70.85 597.96,59.30 599.97,65.15 601.97,53.55 603.98,41.83 605.99,30.00 607.99,36.00 610.00,41.99" fill="none" stroke="#2563eb" stroke-width="1.5"/><text x="30" y="252" font-size="11" fill="#555">min 92606.24 / max 111189.46</text></svg>
