<svg xmlns="http://www.w3.org/2000/svg" width="640" height="260" viewBox="0 0 640 260"><rect width="640" height="260" fill="white"/><text x="30" y="22" font-size="14" fill="#111">M10-PA-003 15m baseline equity</text><line x1="30" y1="230" x2="610" y2="230" stroke="#ccc"/><line x1="30" y1="30" x2="30" y2="230" stroke="#ccc"/><polyline points="30.00,156.64 30.52,153.26 31.03,144.70 31.55,149.22 32.07,151.59 32.59,156.04 33.10,147.56 33.62,152.03 34.14,143.48 34.66,134.89 35.17,126.23 35.69,128.44 36.21,123.34 36.73,115.28 37.24,112.20 37.76,109.77 38.28,100.83 38.80,103.68 39.31,108.28 39.83,112.93 40.35,114.41 40.87,119.10 41.38,113.56 41.90,116.32 42.42,107.44 42.93,103.66 43.45,108.37 43.97,99.35 44.49,93.13 45.00,97.92 45.52,95.68 46.04,91.51 46.56,87.93 47.07,92.75 47.59,94.59 48.11,87.52 48.63,92.34 49.14,97.07 49.66,101.63 50.18,92.53 50.70,97.21 51.21,101.91 51.73,92.88 52.25,87.08 52.77,84.87 53.28,79.01 53.80,71.28 54.32,68.14 54.83,72.23 55.35,74.75 55.87,78.21 56.39,82.03 56.90,76.86 57.42,67.62 57.94,70.53 58.46,75.34 58.97,78.93 59.49,69.68 60.01,60.36 60.53,50.92 61.04,55.86 61.56,57.34 62.08,47.83 62.60,43.70 63.11,45.43 63.63,47.99 64.15,50.55 64.67,47.18 65.18,39.93 65.70,35.05 66.22,37.37 66.74,31.85 67.25,36.85 67.77,41.16 68.29,33.48 68.80,30.00 69.32,35.09 69.84,37.02 70.36,41.64 70.87,44.44 71.39,49.49 71.91,39.96 72.43,42.35 72.94,46.48 73.46,49.03 73.98,45.28 74.50,47.74 75.01,45.01 75.53,49.31 76.05,51.70 76.57,54.26 77.08,57.16 77.60,60.52 78.12,61.33 78.64,63.39 79.15,68.21 79.67,61.74 80.19,56.03 80.70,60.97 81.22,65.87 81.74,70.80 82.26,75.47 82.77,66.18 83.29,69.24 83.81,73.01 84.33,77.44 84.84,80.84 85.36,75.12 85.88,77.33 86.40,74.04 86.91,75.52 87.43,80.33 87.95,84.58 88.47,89.32 88.98,80.16 89.50,77.60 90.02,82.43 90.54,87.22 91.05,92.03 91.57,86.99 92.09,77.84 92.60,82.68 93.12,85.74 93.64,90.53 94.16,95.23 94.67,99.93 95.19,104.68 95.71,95.64 96.23,100.39 96.74,105.06 97.26,109.69 97.78,114.36 98.30,105.41 98.81,110.08 99.33,113.65 99.85,115.73 100.37,118.98 100.88,123.57 101.40,128.11 101.92,119.26 102.44,123.80 102.95,128.30 103.47,119.42 103.99,123.93 104.50,128.49 105.02,119.66 105.54,124.21 106.06,128.78 106.57,119.94 107.09,111.71 107.61,116.37 108.13,120.33 108.64,113.83 109.16,117.54 109.68,122.14 110.20,126.80 110.71,120.57 111.23,123.55 111.75,114.75 112.27,107.30 112.78,111.55 113.30,104.96 113.82,107.75 114.34,112.14 114.85,116.84 115.37,121.50 115.89,126.06 116.40,128.38 116.92,132.95 117.44,126.26 117.96,127.57 118.47,121.62 118.99,123.91 119.51,128.51 120.03,130.23 120.54,128.09 121.06,132.66 121.58,135.83 122.10,131.76 122.61,135.48 123.13,133.80 123.65,127.79 124.17,124.81 124.68,118.75 125.20,120.20 125.72,123.37 126.24,117.84 126.75,119.35 127.27,121.15 127.79,115.27 128.31,106.34 128.82,104.72 129.34,100.48 129.86,102.76 130.37,100.13 130.89,103.17 131.41,106.25 131.93,109.79 132.44,112.63 132.96,117.29 133.48,110.22 134.00,106.72 134.51,101.25 135.03,102.59 135.55,104.34 136.07,107.13 136.58,108.26 137.10,105.16 137.62,107.76 138.14,112.48 138.65,114.37 139.17,107.92 139.69,105.54 140.21,101.53 140.72,104.92 141.24,106.83 141.76,102.40 142.27,104.56 142.79,109.24 143.31,113.90 143.83,118.58 144.34,123.22 144.86,127.79 145.38,119.03 145.90,121.83 146.41,123.50 146.93,127.52 147.45,131.42 147.97,134.00 148.48,138.05 149.00,142.60 149.52,147.06 150.04,151.54 150.55,142.98 151.07,147.52 151.59,151.81 152.11,143.31 152.62,147.79 153.14,152.18 153.66,146.34 154.17,139.24 154.69,142.34 155.21,146.28 155.73,149.50 156.24,151.07 156.76,155.49 157.28,159.94 157.80,162.29 158.31,160.43 158.83,162.49 159.35,163.25 159.87,164.88 160.38,169.23 160.90,169.86 161.42,171.90 161.94,175.14 162.45,179.49 162.97,180.54 163.49,175.17 164.01,179.43 164.52,183.76 165.04,187.10 165.56,178.91 166.07,183.20 166.59,187.50 167.11,191.76 167.63,183.59 168.14,187.87 168.66,192.18 169.18,195.79 169.70,199.98 170.21,204.14 170.73,207.52 171.25,211.72 171.77,213.08 172.28,217.15 172.80,221.31 173.32,223.87 173.84,216.00 174.35,220.13 174.87,212.25 175.39,216.39 175.91,220.53 176.42,224.60 176.94,225.99 177.46,230.00 177.98,226.88 178.49,221.95 179.01,216.15 179.53,209.26 180.04,212.14 180.56,211.58 181.08,156.64 181.60,161.04 182.11,152.52 182.63,156.97 183.15,159.61 183.67,164.01 184.18,155.59 184.70,147.13 185.22,151.57 185.74,143.00 186.25,136.76 186.77,128.06 187.29,119.28 187.81,123.83 188.32,127.17 188.84,131.69 189.36,125.22 189.88,122.56 190.39,125.72 190.91,116.96 191.43,112.09 191.94,114.47 192.46,119.11 192.98,122.15 193.50,119.11 194.01,123.69 194.53,128.25 195.05,132.71 195.57,123.99 196.08,128.56 196.60,119.76 197.12,116.63 197.64,121.30 198.15,112.40 198.67,117.10 199.19,119.12 199.71,110.29 200.22,108.98 200.74,100.04 201.26,91.86 201.78,94.15 202.29,98.76 202.81,103.48 203.33,108.22 203.84,111.54 204.36,116.21 204.88,118.22 205.40,115.30 205.91,106.42 206.43,111.08 206.95,115.70 207.47,120.32 207.98,111.39 208.50,116.03 209.02,120.60 209.54,111.72 210.05,104.47 210.57,109.07 211.09,100.13 211.61,95.62 212.12,100.39 212.64,91.32 213.16,96.00 213.68,99.93 214.19,90.84 214.71,81.67 215.23,84.39 215.74,75.99 216.26,79.67 216.78,70.45 217.30,72.30 217.81,77.20 218.33,71.46 218.85,76.14 219.37,79.36 219.88,73.87 220.40,78.63 220.92,83.46 221.44,76.62 221.95,81.48 222.47,83.24 222.99,88.06 223.51,92.80 224.02,97.52 224.54,93.45 225.06,95.47 225.58,100.26 226.09,91.18 226.61,93.56 227.13,95.25 227.64,99.25 228.16,103.92 228.68,106.97 229.20,109.76 229.71,112.62 230.23,117.24 230.75,108.31 231.27,99.38 231.78,91.59 232.30,96.29 232.82,101.06 233.34,105.76 233.85,110.44 234.37,115.07 234.89,118.35 235.41,122.98 235.92,127.51 236.44,130.40 236.96,134.74 237.48,137.69 237.99,142.14 238.51,146.58 239.03,139.27 239.55,140.96 240.06,134.91 240.58,138.31 241.10,129.58 241.61,120.76 242.13,125.30 242.65,129.84 243.17,134.33 243.68,138.83 244.20,143.33 244.72,147.75 245.24,152.16 245.75,156.57 246.27,160.95 246.79,165.27 247.31,168.18 247.82,172.50 248.34,164.19 248.86,168.51 249.38,160.06 249.89,164.39 250.41,168.68 250.93,160.20 251.45,164.51 251.96,168.84 252.48,173.15 253.00,164.74 253.51,156.37 254.03,160.76 254.55,165.20 255.07,169.63 255.58,173.95 256.10,176.99 256.62,181.34 257.14,176.00 257.65,180.04 258.17,182.24 258.69,186.52 259.21,188.69 259.72,184.96 260.24,176.76 260.76,169.27 261.28,163.56 261.79,165.43 262.31,167.08 262.83,171.44 263.35,175.81 263.86,179.38 264.38,171.65 264.90,172.78 265.41,174.71 265.93,166.66 266.45,171.06 266.97,172.84 267.48,177.15 268.00,179.25 268.52,176.49 269.04,168.95 269.55,170.40 270.07,174.73 270.59,170.39 271.11,164.84 271.62,158.56 272.14,160.42 272.66,163.05 273.18,166.99 273.69,158.61 274.21,163.00 274.73,167.02 275.25,171.35 275.76,174.03 276.28,177.14 276.80,180.95 277.31,182.32 277.83,186.54 278.35,183.93 278.87,187.91 279.38,191.16 279.90,195.38 280.42,187.24 280.94,183.66 281.45,178.25 281.97,180.15 282.49,183.18 283.01,177.12 283.52,178.76 284.04,182.73 284.56,183.81 285.08,181.31 285.59,185.62 286.11,189.86 286.63,191.58 287.15,187.49 287.66,188.70 288.18,192.96 288.70,196.29 289.21,191.42 289.73,194.24 290.25,198.26 290.77,202.41 291.28,206.56 291.80,210.69 292.32,214.81 292.84,206.89 293.35,202.36 293.87,206.57 294.39,202.09 294.91,206.28 295.42,210.46 295.94,214.55 296.46,218.61 296.98,210.71 297.49,212.69 298.01,216.84 298.53,208.94 299.05,213.07 299.56,217.17 300.08,221.24 300.60,213.33 301.12,205.37 301.63,197.38 302.15,189.31 302.67,192.01 303.18,196.04 303.70,197.16 304.22,200.46 304.74,204.65 305.25,208.87 305.77,212.21 306.29,208.59 306.81,212.56 307.32,206.78 307.84,198.82 308.36,200.38 308.88,204.26 309.39,208.45 309.91,212.64 310.43,206.44 310.95,199.26 311.46,203.48 311.98,205.01 312.50,197.02 313.02,200.32 313.53,204.50 314.05,208.64 314.57,200.61 315.08,204.75 315.60,208.90 316.12,213.07 316.64,217.14 317.15,220.10 317.67,212.26 318.19,216.42 318.71,220.48 319.22,223.15 319.74,215.27 320.26,219.40 320.78,211.56 321.29,203.62 321.81,206.23 322.33,210.42 322.85,214.52 323.36,218.58 323.88,220.51 324.40,224.65 324.92,216.78 325.43,219.17 325.95,211.31 326.47,203.38 326.98,207.58 327.50,208.82 328.02,213.02 328.54,156.64 329.05,161.01 329.57,152.61 330.09,157.02 330.61,161.49 331.12,165.82 331.64,170.15 332.16,161.74 332.68,153.23 333.19,157.65 333.71,149.14 334.23,140.53 334.75,144.56 335.26,135.89 335.78,140.40 336.30,144.92 336.82,136.21 337.33,140.67 337.85,132.02 338.37,136.51 338.88,140.98 339.40,132.30 339.92,136.76 340.44,128.02 340.95,119.20 341.47,123.78 341.99,128.34 342.51,132.83 343.02,124.03 343.54,128.32 344.06,119.45 344.58,124.00 345.09,128.56 345.61,133.12 346.13,137.58 346.65,142.06 347.16,146.51 347.68,137.85 348.20,142.26 348.72,146.66 349.23,151.04 349.75,155.42 350.27,146.82 350.79,151.22 351.30,155.59 351.82,159.93 352.34,151.37 352.85,142.74 353.37,134.02 353.89,125.30 354.41,116.40 354.92,107.44 355.44,112.03 355.96,116.58 356.48,107.61 356.99,112.25 357.51,116.86 358.03,121.44 358.55,112.63 359.06,117.27 359.58,121.87 360.10,112.98 360.62,117.55 361.13,108.59 361.65,113.25 362.17,117.82 362.69,108.93 363.20,113.55 363.72,118.17 364.24,122.50 364.75,127.02 365.27,131.49 365.79,136.02 366.31,140.60 366.82,131.97 367.34,123.29 367.86,127.91 368.38,119.16 368.89,110.21 369.41,101.17 369.93,105.82 370.45,110.43 370.96,101.42 371.48,92.38 372.00,97.11 372.52,87.97 373.03,92.65 373.55,97.36 374.07,102.06 374.59,106.70 375.10,111.39 375.62,115.94 376.14,120.49 376.65,125.05 377.17,116.20 377.69,107.31 378.21,111.92 378.72,116.50 379.24,121.07 379.76,112.14 380.28,103.12 380.79,107.74 381.31,98.76 381.83,89.63 382.35,94.28 382.86,98.93 383.38,103.54 383.90,108.15 384.42,112.72 384.93,103.76 385.45,94.67 385.97,99.37 386.49,90.23 387.00,94.93 387.52,99.61 388.04,104.25 388.55,95.17 389.07,99.81 389.59,104.43 390.11,95.33 390.62,99.97 391.14,104.65 391.66,109.27 392.18,113.84 392.69,118.50 393.21,123.09 393.73,114.19 394.25,118.83 394.76,109.91 395.28,114.49 395.80,119.04 396.32,110.11 396.83,114.66 397.35,105.68 397.87,110.26 398.39,114.81 398.90,105.85 399.42,110.53 399.94,115.10 400.45,119.66 400.97,124.22 401.49,128.80 402.01,119.93 402.52,124.60 403.04,115.78 403.56,106.78 404.08,111.39 404.59,116.00 405.11,120.57 405.63,125.15 406.15,116.28 406.66,120.95 407.18,125.52 407.70,130.02 408.22,134.52 408.73,126.17 409.25,117.29 409.77,108.37 410.29,113.06 410.80,117.67 411.32,122.29 411.84,113.38 412.36,118.01 412.87,109.12 413.39,113.82 413.91,104.84 414.42,109.43 414.94,100.43 415.46,91.41 415.98,95.33 416.49,100.09 417.01,104.81 417.53,109.51 418.05,114.15 418.56,105.29 419.08,98.73 419.60,89.66 420.12,94.36 420.63,99.13 421.15,103.74 421.67,108.43 422.19,113.03 422.70,117.67 423.22,122.23 423.74,113.43 424.26,104.40 424.77,109.03 425.29,113.50 425.81,104.57 426.32,109.19 426.84,104.56 427.36,109.15 427.88,100.16 428.39,91.09 428.91,95.78 429.43,100.44 429.95,105.07 430.46,96.11 430.98,86.96 431.50,77.69 432.02,82.46 432.53,73.14 433.05,63.71 433.57,68.51 434.09,59.07 434.60,63.88 435.12,68.79 435.64,73.63 436.16,78.37 436.67,83.13 437.19,87.87 437.71,92.54 438.22,97.19 438.74,101.87 439.26,92.76 439.78,97.44 440.29,88.35 440.81,93.06 441.33,97.78 441.85,102.50 442.36,107.11 442.88,110.45 443.40,115.08 443.92,119.68 444.43,124.27 444.95,128.84 445.47,133.40 445.99,137.97 446.50,129.28 447.02,131.55 447.54,135.53 448.06,140.04 448.57,144.49 449.09,135.83 449.61,127.05 450.12,131.60 450.64,136.08 451.16,140.61 451.68,145.06 452.19,137.17 452.71,141.70 453.23,133.00 453.75,137.49 454.26,141.98 454.78,136.42 455.30,140.91 455.82,145.37 456.33,136.74 456.85,128.03 457.37,132.52 457.89,137.00 458.40,141.52 458.92,132.88 459.44,137.40 459.96,141.83 460.47,146.24 460.99,150.73 461.51,155.13 462.02,157.37 462.54,148.81 463.06,151.94 463.58,143.37 464.09,134.71 464.61,139.25 465.13,140.27 465.65,156.64 466.16,148.08 466.68,139.42 467.20,143.83 467.72,148.28 468.23,152.68 468.75,157.03 469.27,148.43 469.79,152.81 470.30,157.15 470.82,161.57 471.34,153.16 471.86,157.55 472.37,161.88 472.89,166.24 473.41,170.55 473.93,174.82 474.44,169.14 474.96,160.70 475.48,165.04 475.99,156.63 476.51,148.09 477.03,152.53 477.55,143.90 478.06,148.30 478.58,139.70 479.10,130.95 479.62,135.45 480.13,139.90 480.65,131.14 481.17,135.60 481.69,140.11 482.20,144.54 482.72,135.86 483.24,140.31 483.76,144.72 484.27,136.02 484.79,140.51 485.31,144.99 485.83,136.32 486.34,140.75 486.86,132.01 487.38,123.20 487.89,127.80 488.41,132.29 488.93,123.45 489.45,127.99 489.96,119.12 490.48,120.98 491.00,112.05 491.52,116.60 492.03,121.22 492.55,121.80 493.07,126.39 493.59,130.98 494.10,135.45 494.62,139.90 495.14,144.31 495.66,148.10 496.17,139.56 496.69,143.98 497.21,148.38 497.73,151.92 498.24,143.39 498.76,147.83 499.28,152.25 499.79,143.60 500.31,148.06 500.83,152.47 501.35,143.86 501.86,148.25 502.38,152.75 502.90,144.15 503.42,148.59 503.93,152.95 504.45,157.30 504.97,161.74 505.49,166.11 506.00,157.69 506.52,162.10 507.04,153.56 507.56,145.03 508.07,136.36 508.59,140.84 509.11,145.24 509.63,149.65 510.14,154.01 510.66,145.41 511.18,149.83 511.69,154.21 512.21,158.58 512.73,150.02 513.25,141.39 513.76,145.81 514.28,150.22 514.80,154.58 515.32,145.96 515.83,150.37 516.35,154.80 516.87,159.20 517.39,150.72 517.90,155.12 518.42,146.52 518.94,137.96 519.46,129.19 519.97,120.37 520.49,124.89 521.01,129.44 521.53,133.95 522.04,138.46 522.56,142.88 523.08,134.17 523.60,138.64 524.11,129.86 524.63,134.32 525.15,138.76 525.66,129.99 526.18,134.45 526.70,138.91 527.22,143.32 527.73,147.71 528.25,152.07 528.77,156.43 529.29,160.77 529.80,152.25 530.32,143.67 530.84,135.02 531.36,139.46 531.87,143.93 532.39,148.35 532.91,152.71 533.43,144.07 533.94,148.45 534.46,139.80 534.98,144.20 535.50,148.59 536.01,152.98 536.53,157.33 537.05,148.74 537.56,153.15 538.08,144.57 538.60,135.85 539.12,140.29 539.63,144.69 540.15,149.13 540.67,140.48 541.19,144.91 541.70,149.31 542.22,153.71 542.74,145.12 543.26,136.41 543.77,140.86 544.29,145.31 544.81,136.61 545.33,127.83 545.84,119.01 546.36,123.53 546.88,128.05 547.40,132.52 547.91,137.00 548.43,141.41 548.95,132.68 549.46,123.94 549.98,128.43 550.50,119.59 551.02,110.67 551.53,105.02 552.05,109.66 552.57,103.34 553.09,94.29 553.60,98.95 554.12,103.61 554.64,94.50 555.16,99.21 555.67,90.07 556.19,80.93 556.71,85.68 557.23,90.49 557.74,95.18 558.26,99.94 558.78,90.85 559.30,81.69 559.81,72.36 560.33,77.13 560.85,81.89 561.36,86.55 561.88,91.30 562.40,82.05 562.92,86.84 563.43,91.53 563.95,96.21 564.47,100.87 564.99,91.87 565.50,96.53 566.02,101.22 566.54,92.13 567.06,96.11 567.57,100.87 568.09,105.53 568.61,110.11 569.13,114.73 569.64,119.29 570.16,123.82 570.68,128.35 571.20,132.83 571.71,137.36 572.23,128.59 572.75,133.11 573.26,124.33 573.78,115.47 574.30,120.07 574.82,124.60 575.33,129.12 575.85,120.25 576.37,124.77 576.89,115.89 577.40,106.91 577.92,111.52 578.44,116.06 578.96,120.59 579.47,125.14 579.99,116.33 580.51,120.92 581.03,112.06 581.54,103.12 582.06,107.76 582.58,112.35 583.10,117.05 583.61,108.09 584.13,111.95 584.65,116.49 585.17,121.04 585.68,125.60 586.20,130.12 586.72,121.33 587.23,112.46 587.75,117.04 588.27,121.61 588.79,126.20 589.30,130.72 589.82,121.93 590.34,126.47 590.86,131.02 591.37,135.49 591.89,140.00 592.41,144.42 592.93,135.83 593.44,127.03 593.96,131.55 594.48,136.07 595.00,140.54 595.51,144.97 596.03,149.48 596.55,153.87 597.07,145.26 597.58,149.71 598.10,153.62 598.62,157.99 599.13,149.56 599.65,153.96 600.17,158.39 600.69,162.35 601.20,165.03 601.72,169.32 602.24,173.61 602.76,165.28 603.27,156.84 603.79,161.17 604.31,165.51 604.83,169.83 605.34,161.45 605.86,152.96 606.38,144.36 606.90,135.75 607.41,126.99 607.93,125.81 608.45,129.45 608.97,120.62 609.48,116.04 610.00,115.34" fill="none" stroke="#2563eb" stroke-width="1.5"/><text x="30" y="252" font-size="11" fill="#555">min 91478.74 / max 114709.39</text></svg>
