<svg xmlns="http://www.w3.org/2000/svg" width="640" height="260" viewBox="0 0 640 260"><rect width="640" height="260" fill="white"/><text x="30" y="22" font-size="14" fill="#111">M10-PA-008 1h baseline equity</text><line x1="30" y1="230" x2="610" y2="230" stroke="#ccc"/><line x1="30" y1="30" x2="30" y2="230" stroke="#ccc"/><polyline points="30.00,154.61 32.57,143.08 35.13,131.40 37.70,137.50 40.27,125.77 42.83,131.93 45.40,137.97 47.96,126.28 50.53,132.30 53.10,120.49 55.66,126.65 58.23,114.83 60.80,120.94 63.36,109.17 65.93,115.37 68.50,121.45 71.06,109.61 73.63,104.32 76.19,93.80 78.76,100.01 81.33,106.13 83.89,112.28 86.46,118.40 89.03,106.59 91.59,112.70 94.16,100.75 96.73,88.68 99.29,76.42 101.86,82.67 104.42,88.92 106.99,76.79 109.56,64.56 112.12,52.16 114.69,58.58 117.26,65.07 119.82,71.56 122.39,59.84 124.96,47.45 127.52,52.71 130.09,59.14 132.65,65.66 135.22,72.08 137.79,78.35 140.35,84.59 142.92,90.50 145.49,78.35 148.05,84.64 150.62,73.58 153.19,61.24 155.75,48.79 158.32,55.27 160.88,61.64 163.45,67.97 166.02,55.54 168.58,154.61 171.15,143.03 173.72,131.33 176.28,137.38 178.85,125.63 181.42,131.71 183.98,119.97 186.55,108.12 189.12,114.24 191.68,120.29 194.25,108.38 196.81,96.35 199.38,84.21 201.95,90.52 204.51,78.37 207.08,84.66 209.65,90.88 212.21,78.72 214.78,66.54 217.35,72.88 219.91,79.27 222.48,66.97 225.04,73.29 227.61,79.55 230.18,67.30 232.74,73.62 235.31,61.32 237.88,67.67 240.44,55.26 243.01,42.73 245.58,30.00 248.14,36.47 250.71,42.94 253.27,49.50 255.84,55.92 258.41,62.35 260.97,49.91 263.54,56.34 266.11,62.78 268.67,50.38 271.24,56.82 273.81,58.15 276.37,45.76 278.94,52.29 281.50,58.68 284.07,46.20 286.64,52.59 289.20,58.97 291.77,65.44 294.34,53.00 296.90,59.40 299.47,65.74 302.04,53.28 304.60,59.66 307.17,66.00 309.73,53.56 312.30,59.92 314.87,66.26 317.43,72.60 320.00,76.30 322.57,154.61 325.13,143.00 327.70,148.89 330.27,154.78 332.83,160.63 335.40,161.04 337.96,149.51 340.53,137.85 343.10,143.77 345.66,149.65 348.23,138.00 350.80,143.93 353.36,132.22 355.93,138.17 358.50,144.09 361.06,132.39 363.63,120.58 366.19,108.70 368.76,114.76 371.33,120.80 373.89,126.81 376.46,114.94 379.03,120.98 381.59,127.00 384.16,115.18 386.73,121.20 389.29,109.26 391.86,97.21 394.42,85.01 396.99,91.19 399.56,97.35 402.12,103.50 404.69,109.62 407.26,111.27 409.82,117.35 412.39,105.38 414.96,111.48 417.52,117.58 420.09,123.61 422.65,129.62 425.22,135.65 427.79,141.61 430.35,147.53 432.92,153.42 435.49,159.28 438.05,165.09 440.62,170.91 443.19,176.68 445.75,182.43 448.32,188.12 450.88,193.82 453.45,199.45 456.02,205.06 458.58,210.64 461.15,216.27 463.72,221.80 466.28,227.35 468.85,230.00 471.42,154.61 473.98,143.01 476.55,148.90 479.12,154.79 481.68,160.64 484.25,166.43 486.81,154.94 489.38,160.77 491.95,149.24 494.51,137.59 497.08,125.82 499.65,113.93 502.21,119.99 504.78,126.06 507.35,114.17 509.91,120.23 512.48,108.27 515.04,114.33 517.61,102.32 520.18,108.41 522.74,114.46 525.31,120.49 527.88,108.55 530.44,114.60 533.01,102.59 535.58,90.47 538.14,96.62 540.71,84.45 543.27,90.65 545.84,78.41 548.41,66.04 550.97,72.31 553.54,59.89 556.11,66.19 558.67,72.48 561.24,60.06 563.81,47.52 566.37,53.90 568.94,60.25 571.50,66.57 574.07,72.84 576.64,79.09 579.20,85.31 581.77,91.51 584.34,97.68 586.90,85.51 589.47,91.70 592.04,97.86 594.60,103.98 597.17,91.88 599.73,98.04 602.30,104.16 604.87,92.06 607.43,98.23 610.00,86.08" fill="none" stroke="#2563eb" stroke-width="1.5"/><text x="30" y="252" font-size="11" fill="#555">min 93514.55 / max 110719.81</text></svg>
