<svg xmlns="http://www.w3.org/2000/svg" width="640" height="260" viewBox="0 0 640 260"><rect width="640" height="260" fill="white"/><text x="30" y="22" font-size="14" fill="#111">M10-PA-013 1d baseline equity</text><line x1="30" y1="230" x2="610" y2="230" stroke="#ccc"/><line x1="30" y1="30" x2="30" y2="230" stroke="#ccc"/><polyline points="30.00,130.47 32.51,120.40 35.02,125.70 37.53,130.85 40.04,136.03 42.55,131.97 45.06,136.06 47.58,126.11 50.09,131.27 52.60,136.46 55.11,141.61 57.62,146.72 60.13,136.96 62.64,138.50 65.15,143.58 67.66,148.74 70.17,153.83 72.68,157.73 75.19,148.01 77.71,150.11 80.22,154.63 82.73,155.83 85.24,150.00 87.75,155.11 90.26,160.09 92.77,150.36 95.28,140.63 97.79,145.69 100.30,136.13 102.81,141.21 105.32,146.36 107.84,136.44 110.35,126.74 112.86,116.68 115.37,121.87 117.88,127.16 120.39,132.28 122.90,137.45 125.41,140.50 127.92,142.81 130.43,135.71 132.94,140.81 135.45,145.91 137.97,143.60 140.48,147.85 142.99,152.95 145.50,158.08 148.01,163.13 150.52,163.57 153.03,168.57 155.54,165.48 158.05,170.51 160.56,175.41 163.07,165.86 165.58,156.18 168.10,161.19 170.61,151.43 173.12,156.11 175.63,157.70 178.14,147.99 180.65,153.00 183.16,158.10 185.67,163.12 188.18,168.08 190.69,173.09 193.20,178.05 195.71,178.75 198.23,179.02 200.74,180.18 203.25,185.06 205.76,185.35 208.27,189.21 210.78,194.00 213.29,184.70 215.80,189.58 218.31,194.38 220.82,199.18 223.33,203.96 225.84,208.71 228.35,213.48 230.87,204.43 233.38,209.28 235.89,203.78 238.40,204.78 240.91,209.54 243.42,214.36 245.93,215.08 248.44,219.77 250.95,217.21 253.46,220.16 255.97,224.86 258.48,226.80 261.00,220.55 263.51,223.91 266.02,214.79 268.53,215.14 271.04,219.82 273.55,220.50 276.06,225.25 278.57,230.00 281.08,227.32 283.59,218.22 286.10,223.00 288.61,219.35 291.13,224.02 293.64,228.74 296.15,130.47 298.66,135.57 301.17,140.75 303.68,130.85 306.19,136.07 308.70,141.22 311.21,146.38 313.72,136.57 316.23,141.69 318.74,146.75 321.26,149.49 323.77,150.46 326.28,140.72 328.79,130.86 331.30,136.01 333.81,141.14 336.32,146.28 338.83,136.44 341.34,140.73 343.85,145.76 346.36,150.80 348.87,155.81 351.39,159.46 353.90,164.46 356.41,169.52 358.92,159.86 361.43,160.76 363.94,161.49 366.45,152.01 368.96,142.23 371.47,147.26 373.98,137.36 376.49,141.45 379.00,131.57 381.52,121.60 384.03,112.95 386.54,118.14 389.05,121.75 391.56,111.66 394.07,116.87 396.58,122.08 399.09,111.97 401.60,102.54 404.11,92.24 406.62,93.64 409.13,98.24 411.65,103.51 414.16,105.48 416.67,107.67 419.18,112.46 421.69,117.75 424.20,118.16 426.71,118.63 429.22,123.88 431.73,129.04 434.24,132.23 436.75,137.34 439.26,127.41 441.77,132.56 444.29,136.48 446.80,126.46 449.31,120.88 451.82,121.62 454.33,126.75 456.84,131.87 459.35,136.98 461.86,140.58 464.37,130.63 466.88,134.14 469.39,124.14 471.90,129.31 474.42,119.22 476.93,109.14 479.44,98.97 481.95,88.57 484.46,93.87 486.97,99.16 489.48,104.58 491.99,109.89 494.50,99.67 497.01,104.94 499.52,110.32 502.03,115.52 504.55,105.36 507.06,104.08 509.57,109.34 512.08,102.27 514.59,91.93 517.10,97.21 519.61,102.49 522.12,107.78 524.63,113.12 527.14,102.95 529.65,96.97 532.16,86.56 534.68,91.93 537.19,97.25 539.70,102.63 542.21,130.47 544.72,124.12 547.23,129.23 549.74,119.14 552.25,108.92 554.76,114.18 557.27,104.01 559.78,93.69 562.29,83.26 564.81,72.74 567.32,78.15 569.83,83.57 572.34,73.01 574.85,78.41 577.36,67.84 579.87,57.16 582.38,46.33 584.89,51.86 587.40,40.99 589.91,30.00 592.42,35.57 594.94,41.23 597.45,46.78 599.96,35.85 602.47,130.47 604.98,135.55 607.49,140.64 610.00,142.57" fill="none" stroke="#2563eb" stroke-width="1.5"/><text x="30" y="252" font-size="11" fill="#555">min 90160.63 / max 109931.56</text></svg>
