<svg xmlns="http://www.w3.org/2000/svg" width="640" height="260" viewBox="0 0 640 260"><rect width="640" height="260" fill="white"/><text x="30" y="22" font-size="14" fill="#111">M10-PA-003 1h baseline equity</text><line x1="30" y1="230" x2="610" y2="230" stroke="#ccc"/><line x1="30" y1="30" x2="30" y2="230" stroke="#ccc"/><polyline points="30.00,112.10 32.19,117.29 34.38,122.50 36.57,127.64 38.75,132.77 40.94,122.76 43.13,112.74 45.32,117.95 47.51,107.81 49.70,112.40 51.89,102.23 54.08,95.65 56.26,100.90 58.45,106.15 60.64,111.46 62.83,116.73 65.02,106.57 67.21,111.93 69.40,116.85 71.58,122.12 73.77,127.26 75.96,132.36 78.15,137.51 80.34,139.23 82.53,143.88 84.72,148.93 86.91,153.94 89.09,158.94 91.28,163.91 93.47,168.88 95.66,173.81 97.85,178.69 100.04,169.19 102.23,174.05 104.42,178.97 106.60,183.85 108.79,188.68 110.98,193.55 113.17,184.19 115.36,174.73 117.55,179.67 119.74,184.55 121.92,175.13 124.11,165.59 126.30,157.26 128.49,162.33 130.68,152.68 132.87,157.75 135.06,161.71 137.25,164.84 139.43,169.85 141.62,174.83 143.81,179.76 146.00,184.74 148.19,189.58 150.38,194.50 152.57,199.41 154.75,204.25 156.94,208.95 159.13,199.72 161.32,190.92 163.51,195.80 165.70,192.57 167.89,197.45 170.08,202.20 172.26,194.54 174.45,199.37 176.64,204.15 178.83,208.91 181.02,213.72 183.21,218.39 185.40,223.15 187.58,227.78 189.77,230.00 191.96,220.96 194.15,215.61 196.34,217.12 198.53,219.34 200.72,112.10 202.91,117.38 205.09,122.53 207.28,127.66 209.47,132.78 211.66,137.86 213.85,142.91 216.04,132.98 218.23,123.07 220.42,128.21 222.60,133.31 224.79,123.29 226.98,128.47 229.17,118.45 231.36,112.25 233.55,117.43 235.74,122.57 237.92,112.48 240.11,117.70 242.30,122.89 244.49,112.76 246.68,118.06 248.87,123.25 251.06,128.37 253.25,133.48 255.43,138.55 257.62,128.62 259.81,133.73 262.00,123.75 264.19,128.89 266.38,134.02 268.57,139.12 270.75,144.26 272.94,149.25 275.13,154.21 277.32,159.22 279.51,164.20 281.70,169.15 283.89,159.48 286.08,164.52 288.26,154.81 290.45,145.04 292.64,150.19 294.83,140.42 297.02,130.50 299.21,135.62 301.40,140.75 303.58,130.85 305.77,136.02 307.96,141.16 310.15,146.21 312.34,151.27 314.53,156.36 316.72,161.33 318.91,166.31 321.09,171.20 323.28,161.58 325.47,166.57 327.66,171.55 329.85,176.46 332.04,181.40 334.23,186.34 336.42,191.20 338.60,196.07 340.79,186.77 342.98,191.58 345.17,196.37 347.36,201.13 349.55,205.87 351.74,210.59 353.92,201.35 356.11,192.02 358.30,188.45 360.49,112.10 362.68,117.26 364.87,107.06 367.06,112.28 369.25,117.45 371.43,107.25 373.62,112.45 375.81,102.21 378.00,107.43 380.19,97.14 382.38,86.76 384.57,92.06 386.75,97.33 388.94,102.55 391.13,107.76 393.32,112.94 395.51,102.70 397.70,92.38 399.89,97.64 402.08,102.96 404.26,108.22 406.45,113.40 408.64,118.55 410.83,123.68 413.02,128.91 415.21,134.02 417.40,124.00 419.58,129.13 421.77,134.21 423.96,124.18 426.15,129.26 428.34,119.18 430.53,124.35 432.72,129.47 434.91,119.39 437.09,109.20 439.28,98.92 441.47,88.55 443.66,78.07 445.85,83.43 448.04,72.96 450.23,62.43 452.42,51.70 454.60,40.91 456.79,30.00 458.98,35.57 461.17,41.13 463.36,46.65 465.55,52.18 467.74,57.66 469.92,46.88 472.11,52.36 474.30,57.88 476.49,47.15 478.68,36.30 480.87,41.85 483.06,47.39 485.25,52.88 487.43,58.38 489.62,63.81 491.81,69.22 494.00,74.64 496.19,74.03 498.38,112.10 500.57,101.84 502.75,91.53 504.94,96.81 507.13,86.40 509.32,91.70 511.51,81.24 513.70,70.68 515.89,60.00 518.08,65.42 520.26,54.70 522.45,60.15 524.64,62.36 526.83,51.61 529.02,57.07 531.21,46.31 533.40,51.80 535.58,57.26 537.77,62.69 539.96,51.98 542.15,41.12 544.34,46.62 546.53,52.09 548.72,41.23 550.91,46.77 553.09,52.28 555.28,57.76 557.47,63.19 559.66,68.59 561.85,73.96 564.04,79.30 566.23,68.74 568.42,74.11 570.60,79.47 572.79,84.78 574.98,74.26 577.17,79.63 579.36,84.98 581.55,90.28 583.74,95.58 585.92,85.19 588.11,74.67 590.30,64.08 592.49,53.35 594.68,58.81 596.87,64.24 599.06,69.67 601.25,75.07 603.43,64.46 605.62,69.89 607.81,75.26 610.00,78.07" fill="none" stroke="#2563eb" stroke-width="1.5"/><text x="30" y="252" font-size="11" fill="#555">min 88523.78 / max 107991.01</text></svg>
