<svg xmlns="http://www.w3.org/2000/svg" width="640" height="260" viewBox="0 0 640 260"><rect width="640" height="260" fill="white"/><text x="30" y="22" font-size="14" fill="#111">M10-PA-011 15m baseline equity</text><line x1="30" y1="230" x2="610" y2="230" stroke="#ccc"/><line x1="30" y1="30" x2="30" y2="230" stroke="#ccc"/><polyline points="30.00,79.53 32.48,83.73 34.96,75.80 37.44,82.25 39.91,73.75 42.39,76.59 44.87,84.19 47.35,86.54 49.83,90.07 52.31,92.54 54.79,94.37 57.26,99.56 59.74,93.86 62.22,96.44 64.70,99.57 67.18,102.42 69.66,105.01 72.14,98.74 74.62,101.31 77.09,106.46 79.57,100.16 82.05,92.55 84.53,96.52 87.01,91.39 89.49,95.76 91.97,97.95 94.44,103.91 96.92,99.76 99.40,101.99 101.88,97.32 104.36,99.18 106.84,102.54 109.32,105.79 111.79,96.81 114.27,89.48 116.75,75.22 119.23,66.48 121.71,72.40 124.19,76.46 126.67,61.94 129.15,65.10 131.62,67.94 134.10,69.95 136.58,72.32 139.06,70.39 141.54,56.86 144.02,64.50 146.50,72.15 148.97,76.50 151.45,79.32 153.93,86.92 156.41,94.32 158.89,79.97 161.37,87.53 163.85,73.23 166.32,79.07 168.80,85.65 171.28,76.86 173.76,71.66 176.24,74.24 178.72,78.80 181.20,71.03 183.68,69.45 186.15,72.54 188.63,74.51 191.11,64.92 193.59,67.39 196.07,61.94 198.55,65.12 201.03,59.18 203.50,61.79 205.98,64.23 208.46,66.81 210.94,68.68 213.42,70.30 215.90,76.86 218.38,80.93 220.85,74.42 223.33,64.53 225.81,67.71 228.29,64.11 230.77,70.11 233.25,62.02 235.73,69.71 238.21,74.93 240.68,60.48 243.16,64.36 245.64,60.26 248.12,66.69 250.60,59.16 253.08,64.94 255.56,67.03 258.03,73.55 260.51,75.94 262.99,81.92 265.47,87.32 267.95,73.42 270.43,61.48 272.91,66.48 275.38,71.75 277.86,62.17 280.34,57.77 282.82,60.66 285.30,79.53 287.78,82.29 290.26,88.58 292.74,92.72 295.21,100.20 297.69,103.17 300.17,110.19 302.65,112.61 305.13,119.16 307.61,123.88 310.09,109.91 312.56,113.46 315.04,119.96 317.52,105.95 320.00,113.04 322.48,98.93 324.96,87.24 327.44,94.72 329.91,80.50 332.39,87.00 334.87,94.57 337.35,102.08 339.83,88.65 342.31,94.37 344.79,97.09 347.26,82.99 349.74,72.74 352.22,59.89 354.70,65.90 357.18,73.48 359.66,58.91 362.14,49.66 364.62,53.93 367.09,56.83 369.57,42.24 372.05,49.92 374.53,57.57 377.01,65.26 379.49,50.65 381.97,58.22 384.44,65.88 386.92,51.30 389.40,39.79 391.88,47.56 394.36,51.62 396.84,56.27 399.32,46.43 401.79,50.25 404.27,54.35 406.75,58.98 409.23,51.28 411.71,58.02 414.19,61.96 416.67,69.64 419.15,73.32 421.62,80.96 424.10,70.51 426.58,74.47 429.06,70.28 431.54,77.93 434.02,84.96 436.50,92.26 438.97,99.74 441.45,85.59 443.93,92.62 446.41,78.38 448.89,83.08 451.37,90.67 453.85,94.03 456.32,79.53 458.80,86.96 461.28,94.32 463.76,101.63 466.24,87.32 468.72,94.71 471.20,80.36 473.68,65.97 476.15,73.46 478.63,80.96 481.11,66.38 483.59,73.89 486.07,81.38 488.55,66.88 491.03,52.16 493.50,37.32 495.98,44.91 498.46,30.00 500.94,37.70 503.42,45.44 505.90,53.23 508.38,40.39 510.85,48.07 513.33,55.78 515.81,63.36 518.29,70.92 520.77,78.42 523.25,85.88 525.73,71.42 528.21,79.53 530.68,86.89 533.16,94.28 535.64,101.63 538.12,108.91 540.60,94.65 543.08,102.01 545.56,109.31 548.03,116.61 550.51,123.85 552.99,109.76 555.47,117.06 557.95,124.26 560.43,131.41 562.91,138.52 565.38,145.70 567.86,152.87 570.34,159.90 572.82,166.93 575.30,153.36 577.78,160.46 580.26,167.58 582.74,174.61 585.21,181.58 587.69,188.48 590.17,195.41 592.65,202.27 595.13,209.13 597.61,215.90 600.09,222.71 602.56,229.43 605.04,216.49 607.52,223.26 610.00,230.00" fill="none" stroke="#2563eb" stroke-width="1.5"/><text x="30" y="252" font-size="11" fill="#555">min 89723.19 / max 103382.84</text></svg>
