<svg xmlns="http://www.w3.org/2000/svg" width="640" height="260" viewBox="0 0 640 260"><rect width="640" height="260" fill="white"/><text x="30" y="22" font-size="14" fill="#111">M10-PA-003 5m baseline equity</text><line x1="30" y1="230" x2="610" y2="230" stroke="#ccc"/><line x1="30" y1="30" x2="30" y2="230" stroke="#ccc"/><polyline points="30.00,114.17 30.17,114.74 30.33,115.03 30.50,114.45 30.66,115.18 30.83,114.20 30.99,116.14 31.16,116.76 31.32,118.12 31.49,119.10 31.65,119.98 31.82,121.91 31.98,120.84 32.15,121.64 32.31,123.15 32.48,120.77 32.64,117.14 32.81,115.01 32.97,113.61 33.14,114.96 33.30,116.03 33.47,116.76 33.63,118.03 33.80,115.54 33.96,117.29 34.13,119.23 34.29,117.46 34.46,115.60 34.62,116.52 34.79,117.31 34.95,114.89 35.12,115.61 35.28,116.68 35.45,117.84 35.61,118.89 35.78,119.45 35.94,120.09 36.11,120.50 36.27,121.36 36.44,122.59 36.60,121.33 36.77,119.48 36.93,120.66 37.10,121.67 37.26,122.25 37.43,124.13 37.59,120.63 37.76,121.24 37.92,122.46 38.09,121.16 38.26,120.16 38.42,119.53 38.59,120.03 38.75,118.80 38.92,119.20 39.08,119.48 39.25,118.76 39.41,117.54 39.58,116.74 39.74,117.53 39.91,116.19 40.07,116.79 40.24,117.40 40.40,117.88 40.57,118.31 40.73,119.05 40.90,116.36 41.06,118.29 41.23,119.02 41.39,119.56 41.56,121.04 41.72,122.07 41.89,122.92 42.05,121.22 42.22,117.60 42.38,116.06 42.55,116.70 42.71,117.28 42.88,116.47 43.04,117.09 43.21,114.86 43.37,116.05 43.54,114.77 43.70,113.80 43.87,113.00 44.03,113.71 44.20,112.42 44.36,113.01 44.53,111.90 44.69,110.66 44.86,106.89 45.02,108.10 45.19,109.21 45.35,110.09 45.52,110.75 45.68,108.87 45.85,106.67 46.01,107.70 46.18,106.52 46.35,107.15 46.51,106.22 46.68,106.50 46.84,105.08 47.01,105.70 47.17,106.29 47.34,107.20 47.50,107.60 47.67,108.22 47.83,108.80 48.00,110.33 48.16,111.09 48.33,112.90 48.49,111.77 48.66,112.57 48.82,111.29 48.99,110.15 49.15,109.56 49.32,108.38 49.48,106.84 49.65,105.84 49.81,106.52 49.98,106.89 50.14,107.30 50.31,107.07 50.47,106.24 50.64,105.87 50.80,106.42 50.97,106.95 51.13,103.92 51.30,104.49 51.46,105.40 51.63,107.12 51.79,106.09 51.96,104.27 52.12,104.66 52.29,100.87 52.45,101.60 52.62,102.55 52.78,103.00 52.95,104.36 53.11,102.42 53.28,103.17 53.44,105.14 53.61,102.98 53.77,100.89 53.94,102.90 54.10,104.91 54.27,106.16 54.43,105.14 54.60,105.79 54.77,107.79 54.93,108.28 55.10,106.11 55.26,106.96 55.43,104.82 55.59,101.99 55.76,103.07 55.92,99.24 56.09,97.46 56.25,99.06 56.42,95.19 56.58,96.34 56.75,98.38 56.91,94.54 57.08,96.59 57.24,97.72 57.41,99.74 57.57,101.75 57.74,98.36 57.90,95.26 58.07,96.18 58.23,94.64 58.40,93.58 58.56,94.35 58.73,92.71 58.89,93.38 59.06,92.04 59.22,92.52 59.39,90.09 59.55,89.76 59.72,90.93 59.88,92.08 60.05,92.55 60.21,93.19 60.38,94.03 60.54,95.67 60.71,97.72 60.87,95.52 61.04,92.83 61.20,93.96 61.37,94.47 61.53,95.33 61.70,95.01 61.86,95.52 62.03,96.32 62.19,98.35 62.36,99.66 62.52,100.12 62.69,98.72 62.86,99.38 63.02,98.31 63.19,99.71 63.35,100.56 63.52,96.73 63.68,98.63 63.85,100.66 64.01,101.93 64.18,103.32 64.34,104.03 64.51,102.33 64.67,103.04 64.84,105.03 65.00,101.25 65.17,99.48 65.33,97.76 65.50,95.72 65.66,92.78 65.83,94.53 65.99,94.98 66.16,96.15 66.32,96.86 66.49,95.99 66.65,96.59 66.82,97.17 66.98,97.91 67.15,99.93 67.31,100.81 67.48,101.34 67.64,102.11 67.81,99.82 67.97,100.41 68.14,101.41 68.30,100.80 68.47,100.36 68.63,101.06 68.80,102.64 68.96,101.94 69.13,100.77 69.29,101.08 69.46,100.01 69.62,100.94 69.79,99.99 69.95,101.84 70.12,102.92 70.28,103.72 70.45,105.32 70.61,104.58 70.78,105.56 70.95,106.20 71.11,108.12 71.28,107.08 71.44,106.09 71.61,106.99 71.77,108.08 71.94,108.63 72.10,109.14 72.27,108.25 72.43,105.17 72.60,105.59 72.76,105.95 72.93,106.44 73.09,107.06 73.26,105.96 73.42,105.36 73.59,104.80 73.75,106.10 73.92,106.82 74.08,107.19 74.25,106.05 74.41,106.81 74.58,108.80 74.74,108.02 74.91,109.12 75.07,110.60 75.24,111.43 75.40,111.00 75.57,112.46 75.73,113.43 75.90,114.95 76.06,113.82 76.23,115.46 76.39,117.31 76.56,117.56 76.72,118.11 76.89,114.85 77.05,116.74 77.22,113.39 77.38,112.02 77.55,108.36 77.71,108.65 77.88,107.90 78.04,108.65 78.21,107.88 78.37,108.20 78.54,107.55 78.70,108.64 78.87,109.54 79.04,109.95 79.20,108.30 79.37,106.91 79.53,105.72 79.70,107.61 79.86,105.83 80.03,107.39 80.19,105.04 80.36,102.43 80.52,103.24 80.69,103.65 80.85,102.40 81.02,102.94 81.18,102.24 81.35,100.75 81.51,101.22 81.68,101.53 81.84,102.34 82.01,101.76 82.17,102.15 82.34,100.88 82.50,101.35 82.67,101.81 82.83,102.11 83.00,101.15 83.16,101.65 83.33,102.43 83.49,102.82 83.66,103.49 83.82,104.18 83.99,104.99 84.15,105.63 84.32,106.34 84.48,107.17 84.65,107.56 84.81,105.87 84.98,106.53 85.14,106.95 85.31,107.65 85.47,103.96 85.64,100.17 85.80,101.31 85.97,102.20 86.13,104.18 86.30,100.37 86.46,101.88 86.63,103.56 86.79,105.45 86.96,105.94 87.12,103.37 87.29,101.96 87.46,102.70 87.62,103.35 87.79,103.98 87.95,104.30 88.12,103.14 88.28,104.45 88.45,105.24 88.61,106.14 88.78,103.18 88.94,104.19 89.11,104.71 89.27,106.47 89.44,108.43 89.60,105.24 89.77,104.20 89.93,103.07 90.10,102.35 90.26,100.15 90.43,101.07 90.59,102.62 90.76,103.68 90.92,104.85 91.09,106.82 91.25,104.44 91.42,105.71 91.58,107.11 91.75,103.30 91.91,102.32 92.08,100.65 92.24,102.21 92.41,103.13 92.57,103.69 92.74,102.08 92.90,102.54 93.07,101.75 93.23,102.03 93.40,103.04 93.56,101.69 93.73,102.26 93.89,98.44 94.06,99.57 94.22,100.08 94.39,101.30 94.55,102.26 94.72,104.28 94.88,105.12 95.05,106.15 95.21,106.98 95.38,107.42 95.55,105.48 95.71,107.42 95.88,108.41 96.04,108.86 96.21,109.17 96.37,106.74 96.54,105.76 96.70,106.67 96.87,107.68 97.03,108.48 97.20,108.87 97.36,109.35 97.53,110.40 97.69,107.69 97.86,104.80 98.02,103.80 98.19,104.41 98.35,104.98 98.52,103.27 98.68,100.90 98.85,98.76 99.01,94.90 99.18,95.80 99.34,93.63 99.51,95.65 99.67,97.08 99.84,98.61 100.00,99.99 100.17,101.99 100.33,103.46 100.50,105.47 100.66,101.84 100.83,98.01 100.99,99.44 101.16,97.08 101.32,99.12 101.49,100.94 101.65,97.13 101.82,99.14 101.98,101.02 102.15,97.17 102.31,99.15 102.48,101.19 102.64,103.17 102.81,105.18 102.97,102.92 103.14,100.77 103.30,102.75 103.47,98.94 103.64,100.96 103.80,102.79 103.97,104.75 104.13,100.96 104.30,101.94 104.46,103.51 104.63,104.49 104.79,102.95 104.96,104.30 105.12,105.60 105.29,107.58 105.45,108.50 105.62,110.44 105.78,109.57 105.95,110.44 106.11,111.20 106.28,113.05 106.44,114.40 106.61,110.69 106.77,112.65 106.94,114.41 107.10,115.81 107.27,117.73 107.43,119.42 107.60,121.26 107.76,122.90 107.93,119.27 108.09,115.63 108.26,112.90 108.42,114.82 108.59,116.73 108.75,118.63 108.92,114.95 109.08,111.23 109.25,113.15 109.41,115.06 109.58,116.95 109.74,118.84 109.91,115.17 110.07,111.47 110.24,112.80 110.40,110.30 110.57,106.53 110.73,102.76 110.90,98.92 111.06,100.95 111.23,102.94 111.39,103.88 111.56,105.84 111.73,102.79 111.89,103.69 112.06,99.90 112.22,96.44 112.39,98.44 112.55,94.85 112.72,96.89 112.88,93.01 113.05,90.95 113.21,92.09 113.38,90.34 113.54,92.35 113.71,94.35 113.87,91.02 114.04,92.16 114.20,93.68 114.37,94.74 114.53,96.26 114.70,98.12 114.86,100.16 115.03,101.60 115.19,102.04 115.36,100.66 115.52,102.68 115.69,98.86 115.85,100.30 116.02,98.03 116.18,99.01 116.35,96.64 116.51,93.44 116.68,93.87 116.84,92.01 117.01,92.80 117.17,92.36 117.34,92.94 117.50,94.98 117.67,96.29 117.83,96.95 118.00,98.24 118.16,96.52 118.33,98.57 118.49,100.56 118.66,101.86 118.82,103.05 118.99,105.01 119.15,106.64 119.32,108.16 119.48,107.51 119.65,108.19 119.81,106.81 119.98,104.06 120.15,104.72 120.31,103.13 120.48,105.12 120.64,103.52 120.81,104.12 120.97,102.64 121.14,103.23 121.30,103.53 121.47,104.14 121.63,106.13 121.80,107.77 121.96,106.04 122.13,104.77 122.29,105.31 122.46,106.77 122.62,107.32 122.79,108.38 122.95,109.41 123.12,110.18 123.28,110.87 123.45,111.75 123.61,113.69 123.78,114.58 123.94,112.41 124.11,113.54 124.27,114.46 124.44,115.58 124.60,114.37 124.77,114.93 124.93,116.26 125.10,117.84 125.26,119.78 125.43,116.13 125.59,112.42 125.76,111.66 125.92,111.14 126.09,109.95 126.25,109.19 126.42,108.62 126.58,110.00 126.75,110.60 126.91,109.16 127.08,106.84 127.24,107.56 127.41,108.08 127.57,108.89 127.74,109.83 127.90,107.72 128.07,108.17 128.24,106.63 128.40,106.01 128.57,107.15 128.73,107.51 128.90,106.26 129.06,107.00 129.23,107.36 129.39,108.99 129.56,108.49 129.72,109.30 129.89,109.76 130.05,109.16 130.22,109.66 130.38,107.76 130.55,108.66 130.71,107.33 130.88,105.03 131.04,104.00 131.21,103.23 131.37,104.14 131.54,104.65 131.70,105.89 131.87,107.61 132.03,106.42 132.20,106.92 132.36,106.03 132.53,106.30 132.69,106.96 132.86,108.49 133.02,107.56 133.19,108.42 133.35,109.24 133.52,109.75 133.68,107.57 133.85,108.19 134.01,104.73 134.18,106.68 134.34,108.25 134.51,109.14 134.67,107.83 134.84,108.20 135.00,109.40 135.17,111.38 135.33,112.06 135.50,112.78 135.66,111.57 135.83,109.06 135.99,110.15 136.16,107.68 136.33,107.99 136.49,107.06 136.66,106.04 136.82,105.52 136.99,107.50 137.15,108.21 137.32,108.74 137.48,109.57 137.65,110.50 137.81,111.42 137.98,112.05 138.14,113.99 138.31,112.96 138.47,114.33 138.64,115.37 138.80,117.28 138.97,116.66 139.13,116.06 139.30,115.77 139.46,116.80 139.63,116.43 139.79,115.32 139.96,116.07 140.12,116.84 140.29,117.17 140.45,117.99 140.62,116.40 140.78,114.83 140.95,111.15 141.11,110.34 141.28,109.87 141.44,111.83 141.61,112.19 141.77,112.87 141.94,113.16 142.10,109.45 142.27,108.84 142.43,106.18 142.60,106.63 142.76,106.97 142.93,107.76 143.09,106.67 143.26,107.35 143.42,108.32 143.59,106.92 143.75,107.53 143.92,106.43 144.08,107.31 144.25,106.54 144.42,104.72 144.58,103.59 144.75,104.59 144.91,103.25 145.08,102.30 145.24,103.08 145.41,103.52 145.57,104.24 145.74,103.40 145.90,101.57 146.07,100.21 146.23,99.89 146.40,100.25 146.56,101.14 146.73,100.57 146.89,100.87 147.06,101.77 147.22,102.25 147.39,103.73 147.55,104.15 147.72,103.33 147.88,105.30 148.05,106.53 148.21,107.92 148.38,108.53 148.54,105.38 148.71,106.95 148.87,108.69 149.04,107.64 149.20,109.32 149.37,107.77 149.53,108.60 149.70,110.56 149.86,111.49 150.03,110.01 150.19,110.74 150.36,111.17 150.52,112.55 150.69,114.19 150.85,110.77 151.02,111.01 151.18,108.49 151.35,108.84 151.51,109.11 151.68,108.93 151.84,109.58 152.01,108.58 152.17,109.18 152.34,108.23 152.50,108.74 152.67,106.95 152.84,104.14 153.00,105.54 153.17,104.55 153.33,105.34 153.50,106.49 153.66,104.98 153.83,106.30 153.99,107.05 154.16,108.29 154.32,104.55 154.49,106.19 154.65,104.11 154.82,104.81 154.98,105.54 155.15,106.72 155.31,105.25 155.48,106.18 155.64,106.79 155.81,104.64 155.97,106.47 156.14,107.37 156.30,108.56 156.47,109.26 156.63,105.53 156.80,106.56 156.96,107.37 157.13,108.93 157.29,110.91 157.46,108.27 157.62,104.50 157.79,106.46 157.95,102.67 158.12,104.24 158.28,105.85 158.45,102.84 158.61,100.47 158.78,96.63 158.94,94.28 159.11,95.08 159.27,96.22 159.44,96.66 159.60,94.69 159.77,94.01 159.93,95.52 160.10,96.98 160.26,94.72 160.43,95.83 160.59,96.49 160.76,97.41 160.93,97.04 161.09,99.07 161.26,99.50 161.42,95.66 161.59,97.34 161.75,98.18 161.92,94.95 162.08,95.88 162.25,97.91 162.41,98.45 162.58,97.74 162.74,97.37 162.91,96.45 163.07,95.98 163.24,96.23 163.40,94.37 163.57,94.97 163.73,95.41 163.90,94.31 164.06,94.75 164.23,95.58 164.39,92.69 164.56,93.20 164.72,94.50 164.89,93.32 165.05,93.72 165.22,94.30 165.38,95.53 165.55,96.64 165.71,98.56 165.88,99.24 166.04,99.63 166.21,100.81 166.37,102.37 166.54,102.77 166.70,103.36 166.87,104.62 167.03,103.44 167.20,102.29 167.36,102.80 167.53,103.45 167.69,103.92 167.86,102.14 168.02,103.48 168.19,104.69 168.35,105.42 168.52,107.00 168.68,108.99 168.85,109.59 169.02,108.89 169.18,110.81 169.35,111.05 169.51,110.81 169.68,111.36 169.84,113.31 170.01,111.62 170.17,112.70 170.34,112.99 170.50,114.94 170.67,113.97 170.83,115.25 171.00,115.87 171.16,117.32 171.33,118.55 171.49,119.52 171.66,121.20 171.82,118.22 171.99,119.44 172.15,119.76 172.32,120.44 172.48,121.20 172.65,117.56 172.81,118.10 172.98,114.43 173.14,112.06 173.31,114.00 173.47,114.59 173.64,116.52 173.80,115.14 173.97,116.32 174.13,117.15 174.30,118.97 174.46,117.22 174.63,118.32 174.79,118.95 174.96,119.33 175.12,116.16 175.29,116.98 175.45,113.29 175.62,113.97 175.78,114.91 175.95,116.83 176.11,118.75 176.28,116.12 176.44,118.06 176.61,119.97 176.77,116.34 176.94,112.65 177.11,114.18 177.27,115.69 177.44,116.76 177.60,118.68 177.77,120.59 177.93,122.38 178.10,123.14 178.26,123.65 178.43,125.52 178.59,126.82 178.76,125.80 178.92,127.40 179.09,123.84 179.25,125.70 179.42,127.59 179.58,128.34 179.75,126.23 179.91,127.02 180.08,128.22 180.24,129.84 180.41,131.21 180.57,133.06 180.74,134.88 180.90,136.30 181.07,137.39 181.23,134.41 181.40,130.89 181.56,132.59 181.73,133.54 181.89,134.81 182.06,135.80 182.22,134.45 182.39,136.23 182.55,137.05 182.72,135.19 182.88,134.47 183.05,134.79 183.21,133.31 183.38,131.70 183.54,132.03 183.71,130.92 183.87,129.73 184.04,130.82 184.20,131.96 184.37,133.05 184.53,131.26 184.70,132.64 184.86,114.17 185.03,114.80 185.19,115.96 185.36,116.96 185.53,115.77 185.69,117.68 185.86,118.64 186.02,120.57 186.19,121.71 186.35,123.59 186.52,125.11 186.68,125.90 186.85,123.04 187.01,124.03 187.18,125.86 187.34,127.38 187.51,129.24 187.67,125.68 187.84,126.71 188.00,125.45 188.17,127.23 188.33,123.65 188.50,124.77 188.66,122.58 188.83,118.97 188.99,120.79 189.16,118.53 189.32,116.58 189.49,117.72 189.65,114.38 189.82,112.45 189.98,109.98 190.15,111.26 190.31,109.49 190.48,111.47 190.64,111.93 190.81,112.67 190.97,113.27 191.14,114.32 191.30,115.54 191.47,113.99 191.63,115.44 191.80,117.37 191.96,113.70 192.13,110.67 192.29,112.65 192.46,113.74 192.62,114.35 192.79,115.49 192.95,114.89 193.12,115.47 193.28,113.86 193.45,114.40 193.62,115.82 193.78,116.40 193.95,114.34 194.11,112.53 194.28,112.98 194.44,112.17 194.61,113.14 194.77,113.84 194.94,114.87 195.10,115.64 195.27,113.76 195.43,114.37 195.60,115.31 195.76,116.01 195.93,117.43 196.09,113.80 196.26,115.45 196.42,113.08 196.59,114.80 196.75,116.75 196.92,115.64 197.08,117.00 197.25,118.26 197.41,116.13 197.58,112.46 197.74,114.42 197.91,115.33 198.07,113.83 198.24,110.14 198.40,107.21 198.57,106.05 198.73,106.60 198.90,105.57 199.06,106.54 199.23,107.22 199.39,108.23 199.56,109.58 199.72,107.60 199.89,105.76 200.05,101.94 200.22,103.61 200.38,105.29 200.55,106.92 200.71,107.89 200.88,108.61 201.04,109.88 201.21,110.99 201.37,109.26 201.54,109.83 201.71,107.96 201.87,106.38 202.04,107.51 202.20,108.98 202.37,110.74 202.53,111.62 202.70,112.51 202.86,112.93 203.03,114.86 203.19,113.50 203.36,111.42 203.52,108.91 203.69,109.86 203.85,108.10 204.02,106.62 204.18,106.92 204.35,107.81 204.51,108.39 204.68,109.50 204.84,110.59 205.01,109.90 205.17,110.71 205.34,106.95 205.50,108.93 205.67,106.74 205.83,107.90 206.00,109.76 206.16,107.80 206.33,104.81 206.49,105.78 206.66,106.91 206.82,108.88 206.99,110.15 207.15,111.97 207.32,109.90 207.48,106.47 207.65,107.47 207.81,105.69 207.98,103.06 208.14,105.02 208.31,107.01 208.47,108.17 208.64,110.13 208.80,111.27 208.97,107.54 209.13,109.35 209.30,106.45 209.46,108.43 209.63,109.92 209.80,106.15 209.96,102.42 210.13,98.56 210.29,100.24 210.46,102.25 210.62,104.22 210.79,105.68 210.95,107.65 211.12,109.61 211.28,111.58 211.45,107.83 211.61,108.90 211.78,105.16 211.94,106.35 212.11,104.99 212.27,103.09 212.44,99.29 212.60,95.44 212.77,96.45 212.93,94.92 213.10,93.89 213.26,91.61 213.43,92.38 213.59,90.74 213.76,89.74 213.92,90.47 214.09,87.49 214.25,83.52 214.42,85.59 214.58,87.22 214.75,88.96 214.91,84.99 215.08,85.46 215.24,87.56 215.41,88.01 215.57,84.05 215.74,86.15 215.90,88.21 216.07,86.50 216.23,82.73 216.40,84.71 216.56,86.79 216.73,88.87 216.89,84.93 217.06,86.57 217.22,87.91 217.39,85.66 217.55,87.16 217.72,89.22 217.88,85.27 218.05,81.28 218.22,77.68 218.38,73.64 218.55,75.22 218.71,77.37 218.88,78.18 219.04,79.77 219.21,81.05 219.37,81.78 219.54,83.86 219.70,85.66 219.87,86.89 220.03,87.63 220.20,89.00 220.36,90.60 220.53,88.83 220.69,90.73 220.86,87.42 221.02,86.62 221.19,88.22 221.35,89.00 221.52,90.24 221.68,92.29 221.85,94.36 222.01,96.40 222.18,97.05 222.34,99.07 222.51,97.84 222.67,99.86 222.84,96.02 223.00,94.56 223.17,91.53 223.33,92.79 223.50,93.90 223.66,94.62 223.83,95.76 223.99,96.60 224.16,97.36 224.32,98.16 224.49,99.80 224.65,100.51 224.82,102.50 224.98,104.16 225.15,106.15 225.31,107.36 225.48,107.87 225.64,109.23 225.81,109.63 225.97,111.12 226.14,112.65 226.31,113.61 226.47,114.96 226.64,115.74 226.80,117.00 226.97,118.94 227.13,120.42 227.30,122.31 227.46,120.04 227.63,119.01 227.79,117.00 227.96,118.58 228.12,118.99 228.29,120.86 228.45,122.78 228.62,123.61 228.78,125.00 228.95,126.66 229.11,128.49 229.28,129.59 229.44,130.37 229.61,129.19 229.77,131.03 229.94,129.82 230.10,130.21 230.27,130.94 230.43,131.93 230.60,132.99 230.76,134.56 230.93,136.08 231.09,137.25 231.26,137.96 231.42,139.78 231.59,140.96 231.75,139.35 231.92,139.82 232.08,140.91 232.25,142.70 232.41,141.44 232.58,138.52 232.74,140.25 232.91,142.05 233.07,143.21 233.24,141.94 233.40,138.53 233.57,136.75 233.73,137.53 233.90,137.96 234.06,136.46 234.23,135.60 234.40,135.92 234.56,136.29 234.73,137.26 234.89,137.96 235.06,138.35 235.22,139.97 235.39,140.63 235.55,142.10 235.72,143.12 235.88,142.03 236.05,138.58 236.21,139.04 236.38,139.74 236.54,140.59 236.71,141.23 236.87,140.04 237.04,140.59 237.20,141.76 237.37,138.31 237.53,140.14 237.70,138.35 237.86,134.87 238.03,136.24 238.19,133.08 238.36,131.59 238.52,128.07 238.69,126.89 238.85,127.38 239.02,128.09 239.18,128.97 239.35,129.35 239.51,125.79 239.68,127.01 239.84,128.13 240.01,129.28 240.17,131.11 240.34,132.93 240.50,129.42 240.67,127.60 240.83,128.83 241.00,127.99 241.16,125.82 241.33,127.71 241.49,129.03 241.66,130.45 241.82,132.28 241.99,133.29 242.15,130.94 242.32,132.78 242.49,134.61 242.65,131.07 242.82,132.85 242.98,133.62 243.15,135.47 243.31,133.07 243.48,133.55 243.64,134.21 243.81,134.75 243.97,135.57 244.14,136.37 244.30,136.82 244.47,138.62 244.63,140.45 244.80,140.80 244.96,139.88 245.13,140.94 245.29,141.92 245.46,143.72 245.62,144.79 245.79,141.39 245.95,141.80 246.12,142.49 246.28,143.44 246.45,140.51 246.61,141.71 246.78,142.28 246.94,140.49 247.11,138.99 247.27,140.08 247.44,141.87 247.60,140.29 247.77,137.01 247.93,137.89 248.10,134.71 248.26,133.02 248.43,133.80 248.59,134.76 248.76,135.73 248.92,136.90 249.09,137.88 249.25,134.61 249.42,131.92 249.58,133.42 249.75,131.41 249.91,127.86 250.08,129.15 250.24,131.02 250.41,132.48 250.58,134.05 250.74,135.87 250.91,137.53 251.07,139.14 251.24,135.67 251.40,137.50 251.57,139.30 251.73,135.85 251.90,132.33 252.06,134.04 252.23,135.87 252.39,132.90 252.56,134.74 252.72,136.59 252.89,138.39 253.05,140.22 253.22,136.75 253.38,138.57 253.55,140.37 253.71,138.11 253.88,135.66 254.04,137.47 254.21,139.28 254.37,141.06 254.54,142.88 254.70,139.47 254.87,141.28 255.03,142.57 255.20,144.33 255.36,145.27 255.53,146.37 255.69,147.71 255.86,149.43 256.02,150.24 256.19,151.06 256.35,148.55 256.52,149.29 256.68,151.04 256.85,152.55 257.01,153.92 257.18,150.59 257.34,152.05 257.51,153.78 257.67,155.48 257.84,157.21 258.00,158.94 258.17,160.65 258.33,157.39 258.50,154.11 258.66,151.47 258.83,153.22 259.00,154.93 259.16,156.63 259.33,158.32 259.49,155.03 259.66,156.73 259.82,158.42 259.99,160.10 260.15,161.76 260.32,158.51 260.48,160.19 260.65,161.88 260.81,159.47 260.98,156.21 261.14,157.93 261.31,159.63 261.47,160.36 261.64,162.05 261.80,162.76 261.97,159.54 262.13,156.30 262.30,158.01 262.46,159.69 262.63,161.28 262.79,162.97 262.96,159.73 263.12,157.94 263.29,158.92 263.45,160.54 263.62,162.21 263.78,160.49 263.95,162.20 264.11,158.98 264.28,160.70 264.44,157.42 264.61,159.09 264.77,160.54 264.94,161.27 265.10,162.14 265.27,162.54 265.43,164.09 265.60,164.72 265.76,163.63 265.93,162.15 266.09,162.99 266.26,164.03 266.42,160.82 266.59,162.50 266.75,163.48 266.92,161.75 267.09,158.51 267.25,159.14 267.42,159.64 267.58,160.59 267.75,161.35 267.91,160.61 268.08,161.90 268.24,162.38 268.41,164.07 268.57,165.58 268.74,166.31 268.90,167.53 269.07,165.02 269.23,166.67 269.40,167.70 269.56,169.32 269.73,169.96 269.89,170.70 270.06,167.56 270.22,168.00 270.39,169.40 270.55,166.23 270.72,166.78 270.88,167.81 271.05,169.46 271.21,167.79 271.38,168.91 271.54,167.29 271.71,165.53 271.87,164.43 272.04,165.26 272.20,166.37 272.37,167.03 272.53,167.70 272.70,169.35 272.86,170.96 273.03,172.58 273.19,173.12 273.36,173.68 273.52,174.07 273.69,174.67 273.85,175.25 274.02,176.39 274.18,177.37 274.35,178.98 274.51,179.72 274.68,181.31 274.84,182.29 275.01,183.88 275.18,185.47 275.34,186.16 275.51,186.90 275.67,188.06 275.84,189.61 276.00,191.15 276.17,188.20 276.33,188.51 276.50,186.96 276.66,186.38 276.83,187.14 276.99,185.31 277.16,186.65 277.32,187.45 277.49,185.18 277.65,186.77 277.82,187.21 277.98,186.54 278.15,187.35 278.31,187.97 278.48,188.54 278.64,189.11 278.81,189.64 278.97,191.19 279.14,189.51 279.30,189.80 279.47,188.39 279.63,187.36 279.80,188.93 279.96,187.78 280.13,187.08 280.29,186.23 280.46,187.16 280.62,187.64 280.79,186.74 280.95,188.31 281.12,189.00 281.28,187.81 281.45,187.08 281.61,187.61 281.78,187.84 281.94,189.39 282.11,188.86 282.27,189.61 282.44,190.09 282.60,191.62 282.77,188.73 282.93,189.34 283.10,186.39 283.27,187.92 283.43,188.74 283.60,190.10 283.76,190.80 283.93,187.85 284.09,186.47 284.26,187.83 284.42,189.38 284.59,190.34 284.75,188.63 284.92,187.34 285.08,184.35 285.25,184.81 285.41,185.18 285.58,185.97 285.74,187.07 285.91,187.78 286.07,188.28 286.24,187.53 286.40,186.42 286.57,185.67 286.73,183.71 286.90,184.24 287.06,185.12 287.23,185.53 287.39,186.06 287.56,186.73 287.72,185.21 287.89,185.82 288.05,187.36 288.22,185.98 288.38,187.44 288.55,188.98 288.71,189.42 288.88,189.65 289.04,190.05 289.21,190.57 289.37,191.09 289.54,191.50 289.70,192.77 289.87,191.37 290.03,190.22 290.20,191.07 290.36,191.73 290.53,190.11 290.69,189.40 290.86,190.94 291.02,191.35 291.19,192.17 291.35,189.65 291.52,189.94 291.69,188.94 291.85,189.24 292.02,189.87 292.18,190.19 292.35,190.43 292.51,191.13 292.68,191.84 292.84,189.72 293.01,190.06 293.17,190.64 293.34,190.99 293.50,189.79 293.67,190.72 293.83,191.07 294.00,188.56 294.16,190.13 294.33,188.89 294.49,189.89 294.66,190.85 294.82,191.51 294.99,190.69 295.15,188.34 295.32,187.74 295.48,188.93 295.65,189.57 295.81,189.94 295.98,191.49 296.14,190.74 296.31,191.14 296.47,191.54 296.64,190.72 296.80,192.23 296.97,193.76 297.13,191.68 297.30,190.97 297.46,188.03 297.63,189.56 297.79,191.12 297.96,189.03 298.12,190.50 298.29,189.17 298.45,186.21 298.62,187.76 298.78,189.00 298.95,188.66 299.11,188.97 299.28,189.51 299.44,191.06 299.61,188.11 299.78,188.56 299.94,187.09 300.11,186.86 300.27,187.51 300.44,186.86 300.60,186.05 300.77,187.26 300.93,188.83 301.10,186.02 301.26,184.88 301.43,186.15 301.59,185.15 301.76,185.95 301.92,186.93 302.09,185.65 302.25,186.87 302.42,188.25 302.58,189.81 302.75,186.85 302.91,188.38 303.08,189.20 303.24,187.43 303.41,186.55 303.57,187.04 303.74,188.21 303.90,186.77 304.07,187.88 304.23,185.75 304.40,187.31 304.56,188.88 304.73,190.43 304.89,191.07 305.06,192.62 305.22,194.13 305.39,195.53 305.55,197.04 305.72,198.56 305.88,199.82 306.05,197.18 306.21,198.30 306.38,195.41 306.54,192.50 306.71,194.02 306.87,195.46 307.04,195.90 307.20,193.63 307.37,194.39 307.53,193.06 307.70,194.33 307.87,195.13 308.03,192.88 308.20,193.14 308.36,194.35 308.53,195.88 308.69,197.36 308.86,196.04 309.02,196.44 309.19,196.65 309.35,198.16 309.52,199.65 309.68,200.08 309.85,197.21 310.01,198.72 310.18,199.53 310.34,200.27 310.51,201.34 310.67,202.10 310.84,202.58 311.00,202.31 311.17,201.45 311.33,200.84 311.50,201.23 311.66,202.64 311.83,203.33 311.99,202.17 312.16,201.56 312.32,200.38 312.49,201.14 312.65,198.51 312.82,199.19 312.98,199.71 313.15,198.24 313.31,198.91 313.48,199.83 313.64,199.08 313.81,198.72 313.97,199.49 314.14,200.93 314.30,201.72 314.47,202.07 314.63,203.36 314.80,204.85 314.96,203.11 315.13,203.76 315.29,204.78 315.46,205.19 315.62,205.87 315.79,207.00 315.96,208.02 316.12,209.02 316.29,209.50 316.45,210.96 316.62,212.39 316.78,213.61 316.95,214.41 317.11,214.71 317.28,214.17 317.44,212.60 317.61,213.02 317.77,214.46 317.94,214.85 318.10,215.46 318.27,212.73 318.43,214.02 318.60,214.99 318.76,216.40 318.93,217.32 319.09,218.17 319.26,215.48 319.42,213.21 319.59,214.05 319.75,215.16 319.92,216.58 320.08,217.99 320.25,218.94 320.41,220.35 320.58,221.08 320.74,221.71 320.91,222.43 321.07,223.44 321.24,223.95 321.40,221.31 321.57,218.66 321.73,220.06 321.90,221.38 322.06,222.16 322.23,223.41 322.39,220.78 322.56,221.26 322.72,221.79 322.89,220.66 323.05,221.96 323.22,222.73 323.38,224.10 323.55,225.48 323.71,226.50 323.88,223.89 324.04,224.50 324.21,225.85 324.38,223.22 324.54,224.09 324.71,224.97 324.87,226.16 325.04,227.53 325.20,228.88 325.37,227.17 325.53,226.18 325.70,224.44 325.86,225.82 326.03,227.17 326.19,224.57 326.36,225.06 326.52,226.19 326.69,224.14 326.85,225.52 327.02,226.87 327.18,227.80 327.35,228.14 327.51,226.82 327.68,227.50 327.84,227.86 328.01,226.17 328.17,227.52 328.34,226.36 328.50,227.49 328.67,228.76 328.83,226.17 329.00,227.51 329.16,228.87 329.33,230.00 329.49,228.99 329.66,226.42 329.82,224.66 329.99,225.44 330.15,226.64 330.32,226.05 330.48,224.51 330.65,225.64 330.81,227.00 330.98,228.34 331.14,229.47 331.31,228.62 331.47,226.04 331.64,226.96 331.80,228.22 331.97,229.01 332.13,228.01 332.30,228.84 332.47,229.20 332.63,227.79 332.80,226.97 332.96,225.40 333.13,225.81 333.29,224.52 333.46,222.76 333.62,223.18 333.79,223.53 333.95,222.31 334.12,221.65 334.28,222.28 334.45,223.11 334.61,224.31 334.78,224.98 334.94,226.28 335.11,227.35 335.27,114.17 335.44,110.46 335.60,112.40 335.77,114.33 335.93,116.26 336.10,112.56 336.26,114.49 336.43,116.42 336.59,112.71 336.76,108.96 336.92,110.85 337.09,112.76 337.25,114.68 337.42,110.99 337.58,112.96 337.75,114.90 337.91,111.18 338.08,107.42 338.24,109.38 338.41,105.59 338.57,107.56 338.74,103.77 338.90,99.94 339.07,96.06 339.23,98.04 339.40,94.17 339.56,90.26 339.73,92.31 339.89,94.33 340.06,90.41 340.22,92.42 340.39,94.10 340.56,96.13 340.72,98.16 340.89,100.13 341.05,96.27 341.22,98.30 341.38,94.44 341.55,90.55 341.71,92.57 341.88,94.60 342.04,96.62 342.21,98.66 342.37,100.66 342.54,102.68 342.70,104.37 342.87,105.11 343.03,106.51 343.20,107.54 343.36,109.48 343.53,105.74 343.69,107.73 343.86,103.95 344.02,100.65 344.19,102.64 344.35,99.83 344.52,101.82 344.68,102.58 344.85,100.95 345.01,102.95 345.18,99.09 345.34,95.25 345.51,91.36 345.67,87.42 345.84,83.42 346.00,85.49 346.17,87.58 346.33,89.66 346.50,85.69 346.66,81.72 346.83,77.67 346.99,73.62 347.16,75.33 347.32,71.22 347.49,67.09 347.65,62.91 347.82,58.66 347.98,54.40 348.15,50.09 348.31,45.76 348.48,48.03 348.65,43.63 348.81,45.90 348.98,48.15 349.14,50.44 349.31,46.08 349.47,48.34 349.64,50.60 349.80,52.84 349.97,55.06 350.13,50.76 350.30,53.01 350.46,48.67 350.63,50.91 350.79,53.13 350.96,48.80 351.12,51.02 351.29,53.27 351.45,55.50 351.62,51.21 351.78,53.43 351.95,55.41 352.11,57.64 352.28,59.85 352.44,61.55 352.61,57.29 352.77,59.49 352.94,57.33 353.10,59.57 353.27,61.78 353.43,63.95 353.60,66.10 353.76,67.73 353.93,69.92 354.09,72.04 354.26,74.18 354.42,75.64 354.59,71.53 354.75,73.69 354.92,75.82 355.08,76.86 355.25,78.94 355.41,81.05 355.58,83.12 355.74,85.19 355.91,81.20 356.07,83.28 356.24,79.37 356.40,75.27 356.57,71.20 356.73,73.31 356.90,75.42 357.07,71.29 357.23,73.42 357.40,75.56 357.56,71.47 357.73,73.59 357.89,75.71 358.06,71.58 358.22,67.43 358.39,69.56 358.55,71.69 358.72,73.82 358.88,75.96 359.05,78.05 359.21,80.13 359.38,76.03 359.54,78.15 359.71,74.09 359.87,76.21 360.04,72.09 360.20,67.94 360.37,69.27 360.53,71.39 360.70,73.56 360.86,69.43 361.03,65.29 361.19,67.47 361.36,69.62 361.52,71.79 361.69,72.73 361.85,74.85 362.02,76.96 362.18,79.05 362.35,74.99 362.51,77.08 362.68,79.22 362.84,81.31 363.01,83.38 363.17,85.45 363.34,87.54 363.50,89.57 363.67,85.58 363.83,87.66 364.00,89.70 364.16,85.73 364.33,81.71 364.49,83.78 364.66,85.85 364.82,87.94 364.99,90.00 365.16,92.03 365.32,88.06 365.49,90.09 365.65,86.11 365.82,82.10 365.98,84.21 366.15,86.26 366.31,82.29 366.48,78.24 366.64,74.19 366.81,75.77 366.97,77.87 367.14,79.99 367.30,76.74 367.47,78.84 367.63,75.77 367.80,71.67 367.96,73.21 368.13,75.36 368.29,73.47 368.46,69.34 368.62,71.51 368.79,73.63 368.95,71.21 369.12,73.36 369.28,69.21 369.45,71.38 369.61,67.22 369.78,69.37 369.94,66.03 370.11,68.19 370.27,70.38 370.44,66.25 370.60,62.03 370.77,64.24 370.93,66.22 371.10,64.10 371.26,66.26 371.43,68.45 371.59,70.59 371.76,72.72 371.92,74.08 372.09,74.88 372.25,70.74 372.42,72.87 372.58,69.14 372.75,71.33 372.91,72.21 373.08,74.32 373.25,71.90 373.41,68.02 373.58,70.17 373.74,72.04 373.91,67.92 374.07,63.77 374.24,65.97 374.40,67.16 374.57,69.33 374.73,68.11 374.90,70.29 375.06,71.77 375.23,73.84 375.39,75.36 375.56,77.51 375.72,79.64 375.89,81.73 376.05,77.94 376.22,78.79 376.38,80.49 376.55,76.42 376.71,72.32 376.88,74.45 377.04,76.55 377.21,78.69 377.37,80.83 377.54,82.91 377.70,85.01 377.87,87.11 378.03,89.17 378.20,85.23 378.36,86.48 378.53,88.56 378.69,84.58 378.86,86.68 379.02,88.74 379.19,90.76 379.35,92.82 379.52,94.47 379.68,96.44 379.85,92.55 380.01,88.65 380.18,90.72 380.34,92.52 380.51,94.54 380.67,96.56 380.84,98.54 381.00,100.53 381.17,96.65 381.34,97.56 381.50,99.57 381.67,95.72 381.83,91.79 382.00,93.41 382.16,95.47 382.33,97.50 382.49,93.63 382.66,95.66 382.82,97.69 382.99,93.81 383.15,90.14 383.32,92.13 383.48,94.13 383.65,90.20 383.81,92.25 383.98,89.36 384.14,91.43 384.31,87.51 384.47,89.18 384.64,91.24 384.80,87.28 384.97,88.71 385.13,90.79 385.30,86.82 385.46,88.86 385.63,84.87 385.79,86.93 385.96,88.98 386.12,91.06 386.29,93.09 386.45,94.85 386.62,96.86 386.78,92.97 386.95,89.01 387.11,85.06 387.28,87.16 387.44,83.14 387.61,80.41 387.77,82.50 387.94,84.62 388.10,86.70 388.27,82.71 388.43,80.14 388.60,82.22 388.76,84.32 388.93,80.29 389.09,76.24 389.26,78.33 389.42,80.45 389.59,82.55 389.76,84.66 389.92,80.68 390.09,81.68 390.25,82.90 390.42,85.02 390.58,81.38 390.75,77.33 390.91,74.05 391.08,75.22 391.24,77.31 391.41,79.40 391.57,75.31 391.74,77.40 391.90,79.50 392.07,81.61 392.23,83.67 392.40,79.67 392.56,75.59 392.73,77.71 392.89,79.81 393.06,75.73 393.22,77.81 393.39,79.93 393.55,75.86 393.72,77.95 393.88,80.05 394.05,76.03 394.21,78.16 394.38,74.06 394.54,69.95 394.71,72.12 394.87,68.77 395.04,70.88 395.20,72.76 395.37,68.66 395.53,64.47 395.70,66.65 395.86,62.50 396.03,58.29 396.19,60.50 396.36,56.72 396.52,54.38 396.69,56.60 396.85,52.30 397.02,47.96 397.18,50.20 397.35,52.42 397.51,54.65 397.68,50.37 397.85,52.58 398.01,54.81 398.18,57.01 398.34,59.21 398.51,54.94 398.67,57.15 398.84,52.85 399.00,55.09 399.17,50.77 399.33,53.00 399.50,55.20 399.66,50.89 399.83,46.51 399.99,48.76 400.16,50.98 400.32,53.22 400.49,55.42 400.65,51.10 400.82,53.36 400.98,55.58 401.15,57.82 401.31,60.06 401.48,56.57 401.64,58.75 401.81,60.95 401.97,63.12 402.14,65.32 402.30,67.49 402.47,69.63 402.63,65.44 402.80,61.21 402.96,63.41 403.13,65.13 403.29,67.29 403.46,63.08 403.62,58.83 403.79,61.03 403.95,56.81 404.12,59.00 404.28,61.19 404.45,56.95 404.61,52.63 404.78,48.26 404.94,50.49 405.11,52.71 405.27,48.36 405.44,43.96 405.60,46.21 405.77,41.80 405.94,44.05 406.10,46.30 406.27,48.54 406.43,50.78 406.60,53.03 406.76,55.25 406.93,50.93 407.09,53.15 407.26,48.79 407.42,51.05 407.59,53.27 407.75,48.93 407.92,51.17 408.08,47.58 408.25,43.18 408.41,38.74 408.58,34.29 408.74,36.62 408.91,38.98 409.07,41.27 409.24,43.57 409.40,45.85 409.57,48.12 409.73,50.37 409.90,52.63 410.06,54.89 410.23,56.55 410.39,58.52 410.56,59.67 410.72,55.39 410.89,57.07 411.05,59.28 411.22,55.02 411.38,57.25 411.55,59.10 411.71,60.48 411.88,56.20 412.04,58.42 412.21,60.64 412.37,62.84 412.54,65.02 412.70,67.20 412.87,68.39 413.03,64.23 413.20,66.40 413.36,62.21 413.53,64.38 413.69,66.52 413.86,68.71 414.03,64.56 414.19,65.48 414.36,67.67 414.52,69.55 414.69,65.42 414.85,61.23 415.02,63.41 415.18,59.19 415.35,60.33 415.51,62.51 415.68,60.44 415.84,62.24 416.01,58.82 416.17,61.04 416.34,56.80 416.50,59.02 416.67,61.22 416.83,63.45 417.00,65.63 417.16,67.82 417.33,70.00 417.49,72.14 417.66,74.31 417.82,76.43 417.99,78.54 418.15,80.63 418.32,78.83 418.48,79.79 418.65,81.22 418.81,83.34 418.98,85.44 419.14,86.92 419.31,82.93 419.47,84.51 419.64,85.20 419.80,81.17 419.97,77.15 420.13,74.28 420.30,76.40 420.46,77.50 420.63,79.18 420.79,80.66 420.96,82.75 421.12,79.70 421.29,81.80 421.45,82.66 421.62,78.64 421.78,80.78 421.95,82.87 422.12,83.90 422.28,85.97 422.45,82.52 422.61,83.76 422.78,84.29 422.94,80.24 423.11,82.37 423.27,78.35 423.44,74.30 423.60,76.44 423.77,73.85 423.93,70.36 424.10,67.07 424.26,62.89 424.43,58.68 424.59,57.07 424.76,57.89 424.92,58.38 425.09,56.48 425.25,52.19 425.42,47.89 425.58,50.18 425.75,45.83 425.91,41.47 426.08,39.80 426.24,41.18 426.41,39.83 426.57,36.50 426.74,34.48 426.90,30.00 427.07,32.36 427.23,34.11 427.40,36.37 427.56,31.89 427.73,34.20 427.89,36.53 428.06,38.85 428.22,35.76 428.39,38.12 428.55,38.91 428.72,41.25 428.88,38.35 429.05,40.64 429.21,42.96 429.38,44.34 429.54,46.64 429.71,45.17 429.87,46.89 430.04,49.17 430.20,44.79 430.37,40.42 430.54,42.75 430.70,45.04 430.87,47.33 431.03,48.38 431.20,50.45 431.36,51.57 431.53,53.78 431.69,56.01 431.86,51.74 432.02,49.12 432.19,44.77 432.35,46.86 432.52,43.35 432.68,45.61 432.85,41.20 433.01,43.51 433.18,39.12 433.34,34.68 433.51,37.01 433.67,38.35 433.84,40.66 434.00,41.53 434.17,43.83 434.33,46.15 434.50,47.25 434.66,49.55 434.83,51.83 434.99,52.98 435.16,55.18 435.32,57.43 435.49,53.54 435.65,55.80 435.82,57.26 435.98,53.01 436.15,55.21 436.31,57.44 436.48,53.16 436.64,55.37 436.81,57.57 436.97,58.89 437.14,61.09 437.30,56.88 437.47,59.12 437.63,61.20 437.80,62.98 437.96,64.22 438.13,66.41 438.29,68.57 438.46,64.42 438.63,66.59 438.79,68.09 438.96,70.25 439.12,72.39 439.29,74.19 439.45,76.33 439.62,78.45 439.78,76.71 439.95,72.66 440.11,74.78 440.28,76.91 440.44,79.01 440.61,81.12 440.77,77.69 440.94,73.65 441.10,75.78 441.27,77.91 441.43,73.83 441.60,70.49 441.76,71.53 441.93,73.66 442.09,69.53 442.26,65.36 442.42,67.52 442.59,63.35 442.75,59.13 442.92,54.86 443.08,57.08 443.25,59.33 443.41,55.10 443.58,57.32 443.74,59.55 443.91,61.74 444.07,63.94 444.24,66.13 444.40,68.30 444.57,64.14 444.73,59.92 444.90,55.64 445.06,57.83 445.23,60.03 445.39,62.25 445.56,64.46 445.72,66.59 445.89,62.39 446.05,58.17 446.22,60.38 446.38,62.60 446.55,58.37 446.72,60.60 446.88,61.93 447.05,57.69 447.21,59.91 447.38,62.07 447.54,57.87 447.71,60.10 447.87,56.06 448.04,57.28 448.20,59.50 448.37,61.49 448.53,63.69 448.70,65.87 448.86,67.99 449.03,69.46 449.19,70.57 449.36,71.82 449.52,67.68 449.69,68.68 449.85,65.69 450.02,66.26 450.18,67.41 450.35,69.05 450.51,66.54 450.68,68.67 450.84,70.10 451.01,66.36 451.17,67.41 451.34,69.60 451.50,71.75 451.67,67.60 451.83,69.79 452.00,71.11 452.16,68.84 452.33,67.01 452.49,69.18 452.66,65.03 452.82,67.17 452.99,69.34 453.15,70.62 453.32,72.79 453.48,74.89 453.65,77.02 453.81,79.14 453.98,81.25 454.14,77.24 454.31,74.27 454.47,75.61 454.64,77.74 454.81,79.27 454.97,80.58 455.14,82.60 455.30,84.70 455.47,81.91 455.63,77.88 455.80,79.72 455.96,75.64 456.13,71.53 456.29,73.67 456.46,75.79 456.62,77.91 456.79,80.02 456.95,75.97 457.12,77.84 457.28,79.91 457.45,81.43 457.61,83.50 457.78,84.78 457.94,80.78 458.11,77.36 458.27,73.25 458.44,75.41 458.60,77.38 458.77,73.32 458.93,70.90 459.10,73.04 459.26,68.94 459.43,69.51 459.59,71.64 459.76,73.13 459.92,75.01 460.09,70.86 460.25,73.01 460.42,70.39 460.58,72.53 460.75,74.68 460.91,76.21 461.08,72.20 461.24,74.36 461.41,76.47 461.57,78.56 461.74,80.67 461.90,82.78 462.07,83.78 462.23,79.75 462.40,81.87 462.56,83.51 462.73,85.56 462.89,87.64 463.06,88.79 463.23,89.85 463.39,91.92 463.56,93.94 463.72,90.98 463.89,92.52 464.05,94.48 464.22,95.86 464.38,91.93 464.55,93.72 464.71,90.82 464.88,92.48 465.04,89.99 465.21,91.26 465.37,93.31 465.54,95.32 465.70,97.33 465.87,98.86 466.03,100.87 466.20,97.05 466.36,93.15 466.53,91.65 466.69,87.74 466.86,89.45 467.02,91.52 467.19,87.56 467.35,84.82 467.52,82.95 467.68,85.01 467.85,86.99 468.01,84.58 468.18,80.54 468.34,82.37 468.51,78.37 468.67,80.48 468.84,81.87 469.00,77.86 469.17,78.75 469.33,75.21 469.50,77.33 469.66,74.78 469.83,70.89 469.99,71.78 470.16,72.64 470.32,70.09 470.49,72.27 470.65,74.43 470.82,114.17 470.98,115.38 471.15,113.24 471.32,115.16 471.48,117.10 471.65,113.40 471.81,109.66 471.98,105.92 472.14,107.91 472.31,104.12 472.47,106.08 472.64,108.02 472.80,109.96 472.97,106.71 473.13,108.67 473.30,110.63 473.46,112.60 473.63,114.55 473.79,115.68 473.96,117.58 474.12,119.26 474.29,115.60 474.45,117.52 474.62,113.83 474.78,115.72 474.95,117.64 475.11,119.57 475.28,115.91 475.44,117.82 475.61,114.13 475.77,116.05 475.94,112.34 476.10,114.29 476.27,116.20 476.43,118.12 476.60,114.45 476.76,111.25 476.93,113.19 477.09,109.47 477.26,111.39 477.42,107.62 477.59,109.56 477.75,111.50 477.92,113.41 478.08,115.31 478.25,117.21 478.41,113.52 478.58,115.34 478.74,117.24 478.91,119.14 479.07,120.59 479.24,122.45 479.41,124.23 479.57,120.88 479.74,122.34 479.90,119.66 480.07,121.54 480.23,123.28 480.40,125.15 480.56,121.57 480.73,123.48 480.89,125.39 481.06,126.78 481.22,128.65 481.39,130.48 481.55,132.34 481.72,129.76 481.88,131.59 482.05,130.56 482.21,132.37 482.38,134.22 482.54,135.38 482.71,137.19 482.87,138.99 483.04,135.54 483.20,137.37 483.37,139.03 483.53,140.80 483.70,137.32 483.86,139.12 484.03,140.90 484.19,142.69 484.36,144.47 484.52,146.21 484.69,148.00 484.85,149.74 485.02,150.89 485.18,147.51 485.35,144.10 485.51,145.46 485.68,142.56 485.84,139.11 486.01,140.93 486.17,138.02 486.34,139.68 486.50,136.18 486.67,137.98 486.83,139.78 487.00,136.33 487.16,132.80 487.33,129.24 487.50,125.65 487.66,127.54 487.83,129.39 487.99,131.22 488.16,133.04 488.32,134.89 488.49,136.69 488.65,138.49 488.82,140.28 488.98,142.04 489.15,143.79 489.31,140.36 489.48,142.14 489.64,138.67 489.81,140.46 489.97,142.25 490.14,144.02 490.30,145.79 490.47,147.52 490.63,144.12 490.80,145.88 490.96,147.66 491.13,149.38 491.29,151.11 491.46,148.20 491.62,149.94 491.79,151.67 491.95,148.32 492.12,150.10 492.28,151.82 492.45,153.52 492.61,155.25 492.78,151.94 492.94,148.58 493.11,150.33 493.27,152.04 493.44,153.79 493.60,150.45 493.77,147.12 493.93,143.73 494.10,145.51 494.26,147.17 494.43,148.93 494.59,150.65 494.76,152.40 494.92,149.05 495.09,150.79 495.25,147.41 495.42,149.15 495.58,146.25 495.75,148.03 495.92,149.79 496.08,151.51 496.25,153.25 496.41,149.89 496.58,151.61 496.74,152.99 496.91,154.73 497.07,151.42 497.24,152.89 497.40,149.58 497.57,151.13 497.73,152.85 497.90,154.57 498.06,151.24 498.23,147.89 498.39,149.63 498.56,151.39 498.72,148.03 498.89,149.78 499.05,151.51 499.22,148.18 499.38,149.95 499.55,151.67 499.71,148.32 499.88,150.04 500.04,151.78 500.21,153.52 500.37,155.24 500.54,156.94 500.70,158.61 500.87,160.29 501.03,162.00 501.20,158.73 501.36,160.43 501.53,162.12 501.69,158.87 501.86,155.56 502.02,157.25 502.19,153.96 502.35,150.66 502.52,152.40 502.68,154.12 502.85,150.82 503.01,152.58 503.18,154.25 503.34,155.98 503.51,154.04 503.67,155.74 503.84,157.45 504.01,159.17 504.17,160.86 504.34,162.34 504.50,164.03 504.67,162.38 504.83,164.07 505.00,165.72 505.16,167.36 505.33,164.51 505.49,166.15 505.66,167.80 505.82,169.42 505.99,171.05 506.15,172.67 506.32,174.32 506.48,175.93 506.65,177.56 506.81,179.15 506.98,180.73 507.14,177.67 507.31,179.26 507.47,176.17 507.64,177.48 507.80,179.10 507.97,180.69 508.13,181.97 508.30,183.56 508.46,181.90 508.63,182.54 508.79,183.73 508.96,185.28 509.12,182.28 509.29,179.24 509.45,176.86 509.62,178.44 509.78,180.04 509.95,181.62 510.11,183.21 510.28,180.18 510.44,181.78 510.61,178.74 510.77,180.33 510.94,177.27 511.10,178.88 511.27,180.45 511.43,182.06 511.60,183.59 511.76,180.56 511.93,177.47 512.10,174.39 512.26,175.99 512.43,177.58 512.59,179.16 512.76,180.72 512.92,182.31 513.09,183.87 513.25,185.41 513.42,186.95 513.58,183.98 513.75,185.52 513.91,187.06 514.08,188.62 514.24,185.63 514.41,187.19 514.57,188.75 514.74,190.31 514.90,187.36 515.07,188.91 515.23,190.47 515.40,188.56 515.56,185.58 515.73,183.36 515.89,180.32 516.06,181.88 516.22,183.44 516.39,180.39 516.55,181.99 516.72,178.91 516.88,180.49 517.05,177.43 517.21,174.36 517.38,171.23 517.54,172.86 517.71,174.49 517.87,171.35 518.04,168.20 518.20,165.01 518.37,161.77 518.53,158.51 518.70,160.19 518.86,156.94 519.03,158.62 519.19,155.31 519.36,157.00 519.52,158.69 519.69,160.37 519.85,162.03 520.02,163.70 520.19,160.45 520.35,157.18 520.52,158.85 520.68,160.53 520.85,162.23 521.01,163.92 521.18,160.66 521.34,157.40 521.51,159.09 521.67,160.76 521.84,157.48 522.00,154.18 522.17,155.88 522.33,157.59 522.50,159.28 522.66,160.95 522.83,162.61 522.99,164.28 523.16,161.04 523.32,162.69 523.49,164.34 523.65,166.00 523.82,167.65 523.98,164.46 524.15,166.14 524.31,167.79 524.48,169.44 524.64,166.28 524.81,167.92 524.97,164.71 525.14,161.48 525.30,158.25 525.47,154.95 525.63,156.69 525.80,158.38 525.96,155.10 526.13,156.80 526.29,158.49 526.46,160.22 526.62,161.92 526.79,163.58 526.95,165.22 527.12,166.87 527.28,168.50 527.45,165.31 527.61,166.74 527.78,168.39 527.94,166.86 528.11,163.68 528.27,165.32 528.44,166.98 528.61,163.78 528.77,160.55 528.94,157.28 529.10,158.99 529.27,155.73 529.43,152.41 529.60,154.11 529.76,155.82 529.93,157.52 530.09,159.24 530.26,160.91 530.42,162.57 530.59,160.62 530.75,162.28 530.92,159.05 531.08,160.73 531.25,162.43 531.41,164.11 531.58,160.89 531.74,162.56 531.91,164.25 532.07,161.03 532.24,157.76 532.40,154.45 532.57,156.16 532.73,157.85 532.90,159.53 533.06,156.25 533.23,157.95 533.39,154.64 533.56,151.30 533.72,147.92 533.89,149.65 534.05,151.37 534.22,147.99 534.38,149.72 534.55,151.44 534.71,153.17 534.88,149.81 535.04,146.42 535.21,148.15 535.37,144.76 535.54,146.51 535.70,143.08 535.87,144.85 536.03,146.60 536.20,148.35 536.36,150.07 536.53,151.80 536.70,148.43 536.86,145.03 537.03,146.76 537.19,148.49 537.36,150.23 537.52,146.87 537.69,148.62 537.85,150.38 538.02,152.11 538.18,148.75 538.35,150.47 538.51,152.21 538.68,153.90 538.84,155.60 539.01,157.29 539.17,159.00 539.34,160.67 539.50,162.33 539.67,163.98 539.83,165.62 540.00,167.25 540.16,168.88 540.33,165.68 540.49,167.32 540.66,164.11 540.82,165.75 540.99,167.40 541.15,169.05 541.32,170.68 541.48,172.30 541.65,173.90 541.81,175.54 541.98,172.40 542.14,174.02 542.31,170.87 542.47,172.48 542.64,174.12 542.80,170.98 542.97,167.79 543.13,164.58 543.30,166.23 543.46,167.89 543.63,169.52 543.79,171.14 543.96,172.77 544.12,174.38 544.29,175.98 544.45,177.57 544.62,179.17 544.79,180.76 544.95,177.72 545.12,175.24 545.28,176.86 545.45,178.46 545.61,175.36 545.78,176.95 545.94,173.84 546.11,175.49 546.27,172.35 546.44,169.21 546.60,166.01 546.77,167.56 546.93,169.19 547.10,166.04 547.26,167.69 547.43,164.51 547.59,166.16 547.76,167.30 547.92,168.93 548.09,165.77 548.25,167.44 548.42,169.10 548.58,170.74 548.75,172.39 548.91,174.00 549.08,175.61 549.24,172.49 549.41,174.10 549.57,175.70 549.74,177.31 549.90,178.92 550.07,175.83 550.23,177.40 550.40,174.29 550.56,171.17 550.73,167.99 550.89,164.82 551.06,161.58 551.22,158.31 551.39,155.51 551.55,152.18 551.72,153.89 551.88,155.59 552.05,152.56 552.21,154.27 552.38,150.93 552.54,152.65 552.71,154.38 552.88,156.07 553.04,157.79 553.21,159.46 553.37,161.13 553.54,162.81 553.70,159.56 553.87,156.26 554.03,154.79 554.20,155.96 554.36,157.70 554.53,159.40 554.69,161.08 554.86,159.53 555.02,161.19 555.19,162.87 555.35,164.54 555.52,166.20 555.68,167.70 555.85,164.53 556.01,166.17 556.18,167.55 556.34,169.18 556.51,166.00 556.67,167.65 556.84,164.92 557.00,166.61 557.17,168.04 557.33,169.33 557.50,170.96 557.66,167.80 557.83,169.48 557.99,166.33 558.16,167.99 558.32,169.64 558.49,171.28 558.65,172.91 558.82,174.53 558.98,171.41 559.15,173.03 559.31,174.64 559.48,176.27 559.64,177.85 559.81,179.46 559.97,176.38 560.14,173.27 560.30,174.89 560.47,176.50 560.63,178.12 560.80,179.71 560.96,181.30 561.13,182.88 561.30,184.47 561.46,181.47 561.63,179.14 561.79,180.74 561.96,182.33 562.12,183.91 562.29,185.49 562.45,187.06 562.62,184.08 562.78,185.57 562.95,187.11 563.11,184.13 563.28,181.10 563.44,182.31 563.61,179.25 563.77,180.37 563.94,177.29 564.10,174.18 564.27,171.05 564.43,167.90 564.60,165.65 564.76,162.57 564.93,163.92 565.09,165.26 565.26,162.03 565.42,158.76 565.59,155.47 565.75,157.11 565.92,153.80 566.08,155.51 566.25,157.01 566.41,153.70 566.58,150.38 566.74,151.80 566.91,153.52 567.07,150.47 567.24,148.65 567.40,150.38 567.57,152.15 567.73,153.86 567.90,155.56 568.06,157.12 568.23,158.83 568.39,155.54 568.56,152.23 568.72,148.86 568.89,145.49 569.05,147.22 569.22,148.71 569.39,150.13 569.55,150.74 569.72,152.50 569.88,154.20 570.05,155.91 570.21,157.60 570.38,159.29 570.54,156.04 570.71,157.77 570.87,159.49 571.04,161.16 571.20,157.91 571.37,154.62 571.53,151.32 571.70,153.05 571.86,150.27 572.03,146.89 572.19,148.63 572.36,145.38 572.52,147.15 572.69,148.89 572.85,150.62 573.02,147.27 573.18,149.03 573.35,146.13 573.51,147.89 573.68,149.63 573.84,151.38 574.01,148.04 574.17,149.79 574.34,146.45 574.50,148.22 574.67,149.95 574.83,146.61 575.00,148.37 575.16,150.10 575.33,151.82 575.49,153.58 575.66,155.32 575.82,152.14 575.99,153.08 576.15,149.74 576.32,151.46 576.48,153.18 576.65,154.90 576.81,156.61 576.98,158.33 577.14,160.01 577.31,161.71 577.48,163.20 577.64,164.85 577.81,166.52 577.97,163.34 578.14,165.00 578.30,161.79 578.47,158.55 578.63,160.21 578.80,156.95 578.96,153.67 579.13,150.77 579.29,147.39 579.46,149.13 579.62,150.87 579.79,152.61 579.95,150.57 580.12,152.30 580.28,154.03 580.45,150.68 580.61,152.41 580.78,149.05 580.94,150.81 581.11,152.58 581.27,154.29 581.44,150.95 581.60,152.69 581.77,154.43 581.93,156.13 582.10,152.80 582.26,154.50 582.43,156.19 582.59,152.86 582.76,149.52 582.92,151.28 583.09,147.95 583.25,149.72 583.42,146.38 583.58,143.00 583.75,144.78 583.91,146.57 584.08,147.44 584.24,145.29 584.41,141.89 584.57,139.11 584.74,135.64 584.90,132.19 585.07,134.02 585.23,130.51 585.40,131.55 585.57,129.07 585.73,130.45 585.90,132.31 586.06,133.18 586.23,134.98 586.39,136.77 586.56,138.61 586.72,140.38 586.89,136.92 587.05,133.43 587.22,135.25 587.38,137.09 587.55,133.62 587.71,135.42 587.88,137.22 588.04,139.00 588.21,140.80 588.37,142.32 588.54,138.88 588.70,140.70 588.87,137.26 589.03,134.18 589.20,130.65 589.36,127.07 589.53,128.91 589.69,125.35 589.86,127.22 590.02,123.63 590.19,125.51 590.35,127.39 590.52,129.10 590.68,125.88 590.85,127.71 591.01,129.58 591.18,131.43 591.34,133.28 591.51,129.76 591.67,131.38 591.84,133.24 592.00,135.06 592.17,132.66 592.33,134.52 592.50,136.32 592.66,138.16 592.83,139.98 592.99,138.04 593.16,139.43 593.32,141.23 593.49,143.01 593.65,144.76 593.82,146.52 593.99,147.81 594.15,145.79 594.32,147.30 594.48,148.68 594.65,150.04 594.81,151.79 594.98,153.50 595.14,155.24 595.31,156.94 595.47,158.66 595.64,160.37 595.80,162.07 595.97,163.77 596.13,160.53 596.30,162.19 596.46,163.89 596.63,165.56 596.79,162.35 596.96,164.03 597.12,165.67 597.29,167.31 597.45,164.12 597.62,160.90 597.78,157.66 597.95,159.33 598.11,161.03 598.28,157.79 598.44,159.50 598.61,161.04 598.77,162.49 598.94,164.15 599.10,160.91 599.27,162.34 599.43,163.79 599.60,165.49 599.76,166.95 599.93,163.76 600.09,165.43 600.26,167.07 600.42,168.73 600.59,170.39 600.75,172.05 600.92,173.65 601.08,170.52 601.25,167.38 601.41,168.92 601.58,170.55 601.74,167.40 601.91,169.03 602.08,170.11 602.24,171.73 602.41,173.38 602.57,174.73 602.74,175.69 602.90,172.60 603.07,174.20 603.23,175.82 603.40,173.31 603.56,174.93 603.73,176.54 603.89,173.42 604.06,170.31 604.22,167.14 604.39,163.96 604.55,165.63 604.72,167.31 604.88,164.12 605.05,165.78 605.21,167.41 605.38,169.04 605.54,165.88 605.71,167.53 605.87,169.20 606.04,170.72 606.20,172.05 606.37,168.91 606.53,165.74 606.70,167.41 606.86,164.21 607.03,165.90 607.19,167.55 607.36,164.51 607.52,161.28 607.69,162.97 607.85,164.65 608.02,166.29 608.18,163.06 608.35,159.81 608.51,161.38 608.68,163.07 608.84,164.54 609.01,166.20 609.17,163.00 609.34,164.67 609.50,161.44 609.67,162.88 609.83,161.03 610.00,162.71" fill="none" stroke="#2563eb" stroke-width="1.5"/><text x="30" y="252" font-size="11" fill="#555">min 69200.69 / max 122383.10</text></svg>
