<svg xmlns="http://www.w3.org/2000/svg" width="640" height="260" viewBox="0 0 640 260"><rect width="640" height="260" fill="white"/><text x="30" y="22" font-size="14" fill="#111">M10-PA-013 1h baseline equity</text><line x1="30" y1="230" x2="610" y2="230" stroke="#ccc"/><line x1="30" y1="30" x2="30" y2="230" stroke="#ccc"/><polyline points="30.00,82.03 32.16,88.37 34.31,94.08 36.47,98.97 38.62,102.03 40.78,110.01 42.94,113.27 45.09,109.08 47.25,105.24 49.41,108.01 51.56,101.27 53.72,104.03 55.87,100.15 58.03,102.31 60.19,106.09 62.34,113.58 64.50,119.67 66.65,113.43 68.81,117.77 70.97,122.69 73.12,125.63 75.28,131.03 77.43,133.87 79.59,128.73 81.75,132.71 83.90,134.81 86.06,138.58 88.22,146.25 90.37,150.27 92.53,152.24 94.68,159.98 96.84,146.23 99.00,153.93 101.15,159.23 103.31,161.24 105.46,168.89 107.62,172.47 109.78,178.98 111.93,186.47 114.09,174.31 116.25,159.87 118.40,150.22 120.56,152.52 122.71,160.08 124.87,161.06 127.03,164.75 129.18,168.60 131.34,175.23 133.49,170.10 135.65,166.21 137.81,171.61 139.96,167.15 142.12,156.13 144.28,152.82 146.43,148.82 148.59,137.91 150.74,140.64 152.90,143.24 155.06,147.54 157.21,152.72 159.37,160.33 161.52,161.62 163.68,169.16 165.84,166.31 167.99,170.63 170.15,169.48 172.30,154.91 174.46,149.16 176.62,150.41 178.77,158.09 180.93,147.99 183.09,152.00 185.24,137.23 187.40,139.94 189.55,144.07 191.71,137.01 193.87,138.26 196.02,143.34 198.18,145.00 200.33,146.49 202.49,153.49 204.65,157.60 206.80,142.93 208.96,150.61 211.12,158.26 213.27,155.19 215.43,161.61 217.58,166.90 219.74,165.33 221.90,82.03 224.05,90.11 226.21,94.89 228.36,97.97 230.52,105.94 232.68,107.56 234.83,114.77 236.99,115.52 239.14,100.40 241.30,103.73 243.46,107.23 245.61,112.93 247.77,120.46 249.93,128.33 252.08,136.05 254.24,139.65 256.39,147.45 258.55,140.67 260.71,130.58 262.86,134.03 265.02,139.97 267.17,147.56 269.33,140.91 271.49,143.31 273.64,151.04 275.80,158.68 277.96,166.24 280.11,173.88 282.27,181.37 284.42,188.92 286.58,194.91 288.74,202.24 290.89,196.86 293.05,182.59 295.20,185.76 297.36,190.27 299.52,197.74 301.67,201.82 303.83,209.17 305.99,216.61 308.14,219.47 310.30,226.85 312.45,230.00 314.61,216.10 316.77,219.70 318.92,206.55 321.08,209.07 323.23,194.92 325.39,202.04 327.55,204.58 329.70,212.00 331.86,203.35 334.01,208.34 336.17,194.25 338.33,195.75 340.48,199.18 342.64,184.98 344.80,170.54 346.95,178.08 349.11,163.55 351.26,149.03 353.42,153.08 355.58,160.75 357.73,163.83 359.89,149.19 362.04,145.75 364.20,149.18 366.36,153.34 368.51,160.02 370.67,163.72 372.83,82.03 374.98,66.69 377.14,69.51 379.29,77.46 381.45,85.40 383.61,93.30 385.76,98.67 387.92,83.36 390.07,91.22 392.23,97.91 394.39,104.39 396.54,112.17 398.70,119.89 400.86,127.80 403.01,112.74 405.17,97.53 407.32,105.27 409.48,113.24 411.64,121.01 413.79,128.69 415.95,134.55 418.10,142.21 420.26,149.83 422.42,157.34 424.57,146.30 426.73,153.86 428.88,161.49 431.04,146.94 433.20,132.08 435.35,139.68 437.51,147.38 439.67,155.00 441.82,162.58 443.98,147.96 446.13,133.14 448.29,140.87 450.45,125.97 452.60,110.85 454.76,95.67 456.91,80.30 459.07,87.30 461.23,71.82 463.38,79.90 465.54,87.75 467.70,72.41 469.85,80.41 472.01,88.40 474.16,73.10 476.32,57.50 478.48,65.62 480.63,73.55 482.79,76.42 484.94,84.34 487.10,92.21 489.26,76.83 491.41,61.26 493.57,45.68 495.72,30.00 497.88,32.47 500.04,82.03 502.19,89.87 504.35,97.76 506.51,105.65 508.66,113.37 510.82,118.39 512.97,103.31 515.13,111.18 517.29,118.99 519.44,126.68 521.60,134.47 523.75,142.07 525.91,149.66 528.07,157.26 530.22,164.72 532.38,150.10 534.54,157.72 536.69,142.97 538.85,150.49 541.00,158.00 543.16,165.56 545.32,173.03 547.47,180.50 549.63,187.86 551.78,195.29 553.94,181.02 556.10,188.52 558.25,195.98 560.41,181.61 562.57,167.08 564.72,174.53 566.88,182.04 569.03,189.42 571.19,196.77 573.35,204.10 575.50,211.35 577.66,197.13 579.81,182.74 581.97,190.14 584.13,197.53 586.28,183.15 588.44,168.78 590.59,176.20 592.75,182.05 594.91,189.43 597.06,174.94 599.22,160.38 601.38,166.67 603.53,152.02 605.69,156.71 607.84,164.22 610.00,169.49" fill="none" stroke="#2563eb" stroke-width="1.5"/><text x="30" y="252" font-size="11" fill="#555">min 90513.04 / max 103336.07</text></svg>
