<svg xmlns="http://www.w3.org/2000/svg" width="640" height="260" viewBox="0 0 640 260"><rect width="640" height="260" fill="white"/><text x="30" y="22" font-size="14" fill="#111">M10-PA-008 15m baseline equity</text><line x1="30" y1="230" x2="610" y2="230" stroke="#ccc"/><line x1="30" y1="30" x2="30" y2="230" stroke="#ccc"/><polyline points="30.00,160.30 30.61,157.08 31.23,157.69 31.84,153.40 32.46,149.07 33.07,151.34 33.69,147.01 34.30,143.67 34.92,139.24 35.53,140.48 36.14,137.95 36.76,139.39 37.37,141.73 37.99,138.74 38.60,140.33 39.22,138.36 39.83,137.03 40.44,137.99 41.06,138.98 41.67,141.32 42.29,143.62 42.90,144.50 43.52,141.07 44.13,143.40 44.75,140.48 45.36,141.62 45.97,142.64 46.59,143.97 47.20,144.98 47.82,147.28 48.43,148.71 49.05,150.83 49.66,153.11 50.28,154.34 50.89,151.17 51.50,148.60 52.12,144.22 52.73,144.95 53.35,147.25 53.96,142.84 54.58,138.39 55.19,140.74 55.81,143.07 56.42,144.04 57.03,146.36 57.65,147.76 58.26,150.05 58.88,148.45 59.49,150.56 60.11,152.83 60.72,155.09 61.33,150.77 61.95,153.02 62.56,154.31 63.18,151.80 63.79,149.24 64.41,149.73 65.02,150.71 65.64,148.05 66.25,150.34 66.86,148.21 67.48,150.34 68.09,152.27 68.71,150.24 69.32,151.72 69.94,149.61 70.55,151.04 71.17,153.31 71.78,149.01 72.39,150.33 73.01,151.58 73.62,147.27 74.24,145.33 74.85,147.64 75.47,144.15 76.08,146.35 76.69,148.21 77.31,149.41 77.92,150.07 78.54,151.02 79.15,152.18 79.77,151.32 80.38,150.25 81.00,145.89 81.61,148.15 82.22,145.78 82.84,148.05 83.45,150.26 84.07,145.93 84.68,148.23 85.30,143.87 85.91,145.53 86.53,146.47 87.14,145.68 87.75,142.69 88.37,144.77 88.98,147.08 89.60,144.51 90.21,146.81 90.83,148.43 91.44,149.85 92.06,150.64 92.67,146.82 93.28,149.09 93.90,151.35 94.51,153.61 95.13,155.83 95.74,158.07 96.36,160.29 96.97,156.03 97.58,158.24 98.20,160.49 98.81,156.23 99.43,152.94 100.04,155.20 100.66,157.41 101.27,159.58 101.89,155.27 102.50,157.46 103.11,159.64 103.73,155.35 104.34,157.56 104.96,153.28 105.57,155.54 106.19,157.79 106.80,153.50 107.42,155.73 108.03,157.95 108.64,153.67 109.26,150.12 109.87,148.30 110.49,150.06 111.10,147.20 111.72,149.49 112.33,151.79 112.94,154.02 113.56,154.83 114.17,156.97 114.79,158.06 115.40,160.31 116.02,161.15 116.63,158.00 117.25,158.67 117.86,160.46 118.47,162.46 119.09,163.63 119.70,165.27 120.32,167.14 120.93,169.16 121.55,167.04 122.16,169.22 122.78,171.40 123.39,172.87 124.00,172.08 124.62,172.79 125.23,173.51 125.85,174.69 126.46,170.58 127.08,166.41 127.69,162.90 128.31,165.10 128.92,166.01 129.53,162.23 130.15,159.35 130.76,160.10 131.38,155.85 131.99,152.79 132.61,152.15 133.22,153.07 133.83,148.76 134.45,151.02 135.06,152.50 135.68,154.10 136.29,154.85 136.91,155.52 137.52,156.61 138.14,155.42 138.75,152.76 139.36,154.38 139.98,155.06 140.59,150.73 141.21,152.99 141.82,148.66 142.44,149.45 143.05,150.02 143.67,148.53 144.28,150.61 144.89,152.70 145.51,154.96 146.12,153.58 146.74,155.80 147.35,158.02 147.97,153.77 148.58,149.45 149.19,151.32 149.81,151.95 150.42,149.02 151.04,150.44 151.65,151.55 152.27,148.56 152.88,146.34 153.50,147.91 154.11,143.54 154.72,144.38 155.34,142.22 155.95,143.22 156.57,144.33 157.18,142.05 157.80,144.37 158.41,142.08 159.03,138.89 159.64,140.39 160.25,136.60 160.87,138.94 161.48,141.28 162.10,136.84 162.71,137.78 163.33,139.58 163.94,136.20 164.56,135.26 165.17,136.26 165.78,133.39 166.40,134.97 167.01,130.47 167.63,132.83 168.24,128.31 168.86,130.68 169.47,133.07 170.08,135.08 170.70,130.55 171.31,132.90 171.93,135.26 172.54,131.68 173.16,134.06 173.77,129.70 174.39,131.54 175.00,133.42 175.61,135.46 176.23,160.30 176.84,158.35 177.46,160.55 178.07,162.15 178.69,157.90 179.30,153.61 179.92,155.86 180.53,151.55 181.14,147.20 181.76,148.36 182.37,144.07 182.99,145.91 183.60,141.54 184.22,142.72 184.83,144.51 185.44,146.05 186.06,144.50 186.67,146.78 187.29,147.91 187.90,149.35 188.52,145.33 189.13,147.63 189.75,149.06 190.36,144.73 190.97,140.32 191.59,142.62 192.20,143.86 192.82,139.44 193.43,141.76 194.05,144.08 194.66,146.38 195.28,147.96 195.89,150.20 196.50,152.46 197.12,154.67 197.73,156.92 198.35,159.14 198.96,161.37 199.58,163.57 200.19,165.77 200.81,167.93 201.42,170.09 202.03,171.96 202.65,174.11 203.26,176.24 203.88,178.37 204.49,180.50 205.11,182.59 205.72,178.54 206.33,180.64 206.95,176.60 207.56,178.74 208.18,174.75 208.79,175.75 209.41,177.74 210.02,173.68 210.64,174.64 211.25,176.21 211.86,172.08 212.48,174.17 213.09,170.91 213.71,173.10 214.32,175.26 214.94,171.15 215.55,173.31 216.17,169.18 216.78,170.80 217.39,172.97 218.01,174.64 218.62,176.18 219.24,178.13 219.85,174.29 220.47,176.45 221.08,178.59 221.69,180.71 222.31,182.84 222.92,183.80 223.54,185.14 224.15,183.77 224.77,185.84 225.38,186.62 226.00,183.31 226.61,185.40 227.22,182.88 227.84,184.95 228.45,187.05 229.07,183.07 229.68,185.16 230.30,181.15 230.91,183.27 231.53,184.60 232.14,186.25 232.75,182.27 233.37,184.34 233.98,180.33 234.60,176.28 235.21,178.39 235.83,177.49 236.44,173.39 237.06,175.55 237.67,172.63 238.28,174.77 238.90,176.89 239.51,179.01 240.13,181.09 240.74,177.01 241.36,179.11 241.97,181.20 242.58,183.29 243.20,185.35 243.81,187.40 244.43,189.45 245.04,185.47 245.66,182.16 246.27,184.25 246.89,186.31 247.50,182.29 248.11,184.36 248.73,186.41 249.34,188.46 249.96,184.45 250.57,186.51 251.19,182.51 251.80,184.61 252.42,180.58 253.03,182.00 253.64,183.88 254.26,184.45 254.87,186.55 255.49,183.46 256.10,185.52 256.72,181.51 257.33,182.65 257.94,178.60 258.56,180.73 259.17,182.86 259.79,183.84 260.40,179.84 261.02,181.96 261.63,184.08 262.25,181.68 262.86,183.79 263.47,185.89 264.09,187.13 264.70,189.23 265.32,187.74 265.93,184.38 266.55,185.86 267.16,184.85 267.78,185.88 268.39,186.93 269.00,188.51 269.62,184.54 270.23,180.50 270.85,176.46 271.46,172.36 272.08,168.23 272.69,170.15 273.31,165.98 273.92,164.22 274.53,165.88 275.15,161.68 275.76,163.86 276.38,165.71 276.99,167.53 277.61,168.30 278.22,169.79 278.83,171.23 279.45,169.05 280.06,170.53 280.68,172.16 281.29,172.48 281.91,174.02 282.52,169.87 283.14,172.03 283.75,167.87 284.36,165.35 284.98,167.53 285.59,165.36 286.21,161.15 286.82,163.38 287.44,159.13 288.05,154.88 288.67,157.09 289.28,152.81 289.89,148.45 290.51,150.73 291.12,152.88 291.74,155.14 292.35,157.41 292.97,153.14 293.58,155.39 294.19,151.06 294.81,148.53 295.42,149.98 296.04,151.33 296.65,153.22 297.27,151.35 297.88,152.55 298.50,148.24 299.11,150.46 299.72,146.10 300.34,147.64 300.95,148.63 301.57,144.27 302.18,146.12 302.80,141.71 303.41,139.27 304.03,134.81 304.64,130.32 305.25,125.80 305.87,121.24 306.48,123.09 307.10,125.46 307.71,120.86 308.33,123.26 308.94,118.65 309.56,121.06 310.17,123.50 310.78,125.93 311.40,121.30 312.01,123.69 312.63,126.09 313.24,128.51 313.86,130.88 314.47,133.26 315.08,135.63 315.70,160.30 316.31,162.49 316.93,164.65 317.54,166.83 318.16,162.61 318.77,158.34 319.39,160.54 320.00,156.24 320.61,158.44 321.23,160.62 321.84,162.81 322.46,158.56 323.07,160.77 323.69,162.29 324.30,158.07 324.92,160.26 325.53,162.45 326.14,164.61 326.76,166.77 327.37,162.55 327.99,158.27 328.60,160.47 329.22,162.65 329.83,164.83 330.44,166.98 331.06,162.74 331.67,164.91 332.29,167.06 332.90,169.22 333.52,165.01 334.13,167.19 334.75,169.34 335.36,171.47 335.97,173.59 336.59,175.72 337.20,177.81 337.82,179.89 338.43,175.82 339.05,177.90 339.66,179.98 340.28,182.04 340.89,184.09 341.50,180.03 342.12,175.93 342.73,178.02 343.35,180.11 343.96,182.19 344.58,178.11 345.19,180.21 345.81,182.29 346.42,184.34 347.03,180.29 347.65,182.38 348.26,178.32 348.88,174.24 349.49,176.36 350.11,178.49 350.72,180.58 351.33,182.67 351.95,178.60 352.56,180.73 353.18,182.80 353.79,184.87 354.41,186.95 355.02,182.96 355.64,185.02 356.25,180.99 356.86,176.91 357.48,172.80 358.09,174.92 358.71,177.06 359.32,179.16 359.94,181.28 360.55,177.22 361.17,173.16 361.78,175.29 362.39,177.40 363.01,179.50 363.62,175.39 364.24,177.51 364.85,173.39 365.47,175.52 366.08,171.40 366.69,167.26 367.31,163.04 367.92,165.23 368.54,167.37 369.15,163.15 369.77,158.90 370.38,161.10 371.00,156.83 371.61,159.04 372.22,161.22 372.84,163.40 373.45,165.56 374.07,167.71 374.68,169.85 375.30,165.65 375.91,167.79 376.53,163.59 377.14,165.77 377.75,167.93 378.37,169.79 378.98,171.93 379.60,174.04 380.21,176.14 380.83,178.24 381.44,180.31 382.06,182.38 382.67,184.43 383.28,186.48 383.90,188.53 384.51,184.51 385.13,186.56 385.74,188.59 386.36,184.59 386.97,186.64 387.58,188.71 388.20,190.74 388.81,192.77 389.43,188.79 390.04,190.83 390.66,186.84 391.27,182.82 391.89,184.89 392.50,186.95 393.11,189.03 393.73,191.07 394.34,187.10 394.96,189.15 395.57,191.19 396.19,193.22 396.80,195.26 397.42,197.30 398.03,193.38 398.64,195.40 399.26,197.41 399.87,199.46 400.49,201.46 401.10,202.94 401.72,204.94 402.33,206.92 402.94,208.87 403.56,210.85 404.17,212.80 404.79,214.76 405.40,216.68 406.02,218.59 406.63,214.87 407.25,216.70 407.86,212.98 408.47,214.79 409.09,216.69 409.70,218.60 410.32,220.48 410.93,222.38 411.55,224.24 412.16,225.83 412.78,227.68 413.39,226.34 414.00,228.21 414.62,224.61 415.23,226.45 415.85,224.37 416.46,226.25 417.08,228.13 417.69,230.00 418.31,226.42 418.92,228.27 419.53,224.69 420.15,221.04 420.76,217.40 421.38,217.65 421.99,213.95 422.61,215.88 423.22,217.77 423.83,214.05 424.45,210.31 425.06,212.26 425.68,214.21 426.29,210.46 426.91,212.39 427.52,208.62 428.14,210.55 428.75,207.72 429.36,209.67 429.98,211.64 430.59,213.55 431.21,209.81 431.82,211.74 432.44,207.95 433.05,209.93 433.67,206.13 434.28,202.30 434.89,204.25 435.51,206.19 436.12,202.36 436.74,204.32 437.35,200.47 437.97,196.61 438.58,192.72 439.19,194.77 439.81,196.79 440.42,198.79 441.04,194.93 441.65,196.96 442.27,193.07 442.88,195.09 443.50,197.09 444.11,193.20 444.72,195.22 445.34,195.53 445.95,197.56 446.57,193.65 447.18,195.30 447.80,197.35 448.41,193.44 449.03,195.45 449.64,197.45 450.25,199.48 450.87,195.60 451.48,191.66 452.10,193.69 452.71,195.70 453.33,191.77 453.94,193.78 454.56,189.85 455.17,185.85 455.78,187.92 456.40,189.96 457.01,192.02 457.63,194.05 458.24,196.05 458.86,198.08 459.47,200.08 460.08,196.22 460.70,192.33 461.31,194.39 461.93,196.40 462.54,198.41 463.16,200.43 463.77,199.64 464.39,160.30 465.00,156.01 465.61,151.67 466.23,153.92 466.84,156.17 467.46,158.38 468.07,154.07 468.69,156.28 469.30,151.94 469.92,154.15 470.53,149.85 471.14,152.07 471.76,147.70 472.37,149.93 472.99,145.54 473.60,141.15 474.22,143.43 474.83,145.68 475.44,141.26 476.06,143.55 476.67,145.80 477.29,148.09 477.90,143.70 478.52,145.97 479.13,141.54 479.75,143.82 480.36,139.37 480.97,141.65 481.59,143.92 482.20,139.46 482.82,141.74 483.43,144.02 484.05,146.27 484.66,148.51 485.28,144.10 485.89,139.65 486.50,141.92 487.12,137.45 487.73,132.93 488.35,128.40 488.96,123.77 489.58,119.12 490.19,121.52 490.81,123.89 491.42,126.24 492.03,121.61 492.65,116.94 493.26,112.22 493.88,114.68 494.49,109.97 495.11,112.40 495.72,114.85 496.33,117.25 496.95,119.67 497.56,115.02 498.18,117.46 498.79,112.80 499.41,115.21 500.02,110.47 500.64,112.89 501.25,115.30 501.86,117.71 502.48,113.01 503.09,115.42 503.71,117.87 504.32,120.28 504.94,115.65 505.55,118.09 506.17,113.36 506.78,115.78 507.39,118.20 508.01,120.60 508.62,115.90 509.24,116.82 509.85,112.09 510.47,114.51 511.08,109.75 511.69,112.17 512.31,114.60 512.92,117.04 513.54,119.43 514.15,121.82 514.77,124.22 515.38,126.60 516.00,128.98 516.61,131.32 517.22,133.63 517.84,135.93 518.45,131.39 519.07,126.81 519.68,122.19 520.30,124.56 520.91,126.91 521.53,129.27 522.14,131.60 522.75,127.02 523.37,122.42 523.98,124.80 524.60,127.16 525.21,122.55 525.83,117.89 526.44,113.22 527.06,115.63 527.67,118.03 528.28,113.31 528.90,108.56 529.51,103.77 530.13,106.27 530.74,108.70 531.36,111.14 531.97,113.56 532.58,108.79 533.20,111.22 533.81,113.64 534.43,116.03 535.04,111.30 535.66,106.52 536.27,101.70 536.89,104.16 537.50,106.61 538.11,101.78 538.73,96.90 539.34,99.40 539.96,101.87 540.57,104.32 541.19,99.46 541.80,101.97 542.42,104.45 543.03,106.90 543.64,109.33 544.26,111.76 544.87,114.21 545.49,109.48 546.10,111.90 546.72,114.32 547.33,109.59 547.94,112.04 548.56,114.46 549.17,109.72 549.79,112.16 550.40,107.38 551.02,109.82 551.63,105.02 552.25,100.20 552.86,95.31 553.47,90.39 554.09,92.92 554.70,88.01 555.32,83.01 555.93,85.59 556.55,88.15 557.16,90.69 557.78,93.24 558.39,88.29 559.00,90.83 559.62,85.89 560.23,88.45 560.85,91.01 561.46,86.02 562.08,88.59 562.69,91.14 563.31,93.66 563.92,96.20 564.53,91.27 565.15,86.29 565.76,81.27 566.38,83.91 566.99,86.47 567.61,89.04 568.22,84.06 568.83,86.65 569.45,89.19 570.06,91.72 570.68,94.24 571.29,96.75 571.91,91.83 572.52,87.75 573.14,82.73 573.75,77.66 574.36,80.25 574.98,82.82 575.59,85.38 576.21,87.93 576.82,82.92 577.44,85.50 578.05,80.45 578.67,75.38 579.28,70.25 579.89,65.05 580.51,59.80 581.12,62.48 581.74,65.18 582.35,59.93 582.97,62.60 583.58,57.35 584.19,52.02 584.81,46.65 585.42,49.41 586.04,52.16 586.65,54.89 587.27,49.58 587.88,52.32 588.50,55.04 589.11,49.71 589.72,52.49 590.34,55.21 590.95,57.91 591.57,53.81 592.18,48.52 592.80,51.29 593.41,45.93 594.03,40.51 594.64,43.30 595.25,46.07 595.87,48.82 596.48,51.57 597.10,46.19 597.71,48.96 598.33,51.75 598.94,46.37 599.56,40.96 600.17,35.52 600.78,30.00 601.40,32.83 602.01,35.69 602.63,38.50 603.24,41.32 603.86,35.88 604.47,38.68 605.08,41.48 605.70,44.25 606.31,47.03 606.93,41.64 607.54,36.20 608.16,39.02 608.77,41.84 609.39,44.63 610.00,46.73" fill="none" stroke="#2563eb" stroke-width="1.5"/><text x="30" y="252" font-size="11" fill="#555">min 83830.28 / max 130231.39</text></svg>
