<svg xmlns="http://www.w3.org/2000/svg" width="640" height="260" viewBox="0 0 640 260"><rect width="640" height="260" fill="white"/><text x="30" y="22" font-size="14" fill="#111">M10-PA-009 1h baseline equity</text><line x1="30" y1="230" x2="610" y2="230" stroke="#ccc"/><line x1="30" y1="30" x2="30" y2="230" stroke="#ccc"/><polyline points="30.00,177.18 32.70,183.59 35.40,171.43 38.09,159.20 40.79,146.76 43.49,153.25 46.19,147.71 48.88,135.27 51.58,141.72 54.28,148.32 56.98,135.82 59.67,123.14 62.37,128.32 65.07,115.68 67.77,102.83 70.47,89.88 73.16,96.65 75.86,83.66 78.56,70.62 81.26,77.10 83.95,83.96 86.65,90.74 89.35,97.44 92.05,102.27 94.74,89.18 97.44,95.88 100.14,102.66 102.84,109.30 105.53,115.68 108.23,102.85 110.93,107.62 113.63,114.31 116.33,120.98 119.02,126.21 121.72,113.59 124.42,116.41 127.12,108.46 129.81,108.99 132.51,115.56 135.21,102.74 137.91,109.48 140.60,96.51 143.30,97.21 146.00,103.91 148.70,110.55 151.40,117.19 154.09,104.33 156.79,110.96 159.49,117.58 162.19,124.17 164.88,111.32 167.58,177.18 170.28,183.59 172.98,171.39 175.67,176.35 178.37,164.09 181.07,170.49 183.77,158.22 186.47,145.73 189.16,152.15 191.86,139.59 194.56,146.11 197.26,152.57 199.95,153.88 202.65,160.34 205.35,148.03 208.05,135.47 210.74,141.97 213.44,148.33 216.14,135.82 218.84,123.23 221.53,110.53 224.23,117.19 226.93,106.62 229.63,93.58 232.33,100.25 235.02,106.92 237.72,113.52 240.42,119.32 243.12,125.92 245.81,123.99 248.51,130.59 251.21,136.62 253.91,143.15 256.60,146.78 259.30,153.36 262.00,140.98 264.70,141.82 267.40,129.23 270.09,129.72 272.79,136.19 275.49,142.66 278.19,149.17 280.88,136.58 283.58,143.20 286.28,149.21 288.98,155.59 291.67,144.20 294.37,131.63 297.07,138.12 299.77,144.59 302.47,150.97 305.16,157.37 307.86,163.85 310.56,177.18 313.26,164.85 315.95,152.41 318.65,139.95 321.35,146.36 324.05,133.71 326.74,120.95 329.44,108.08 332.14,95.11 334.84,101.71 337.53,88.68 340.23,75.50 342.93,82.22 345.63,88.93 348.33,95.67 351.02,82.57 353.72,89.26 356.42,95.94 359.12,102.64 361.81,109.28 364.51,96.27 367.21,102.91 369.91,109.50 372.60,96.49 375.30,83.38 378.00,70.12 380.70,56.83 383.40,63.70 386.09,50.27 388.79,57.19 391.49,43.67 394.19,30.00 396.88,37.00 399.58,44.10 402.28,51.02 404.98,57.97 407.67,44.49 410.37,51.43 413.07,58.34 415.77,44.89 418.47,31.26 421.16,38.23 423.86,45.18 426.56,52.08 429.26,58.96 431.95,65.84 434.65,52.43 437.35,39.00 440.05,45.90 442.74,52.76 445.44,59.64 448.14,46.15 450.84,177.18 453.53,183.42 456.23,171.18 458.93,177.40 461.63,165.14 464.33,171.43 467.02,177.70 469.72,165.46 472.42,171.81 475.12,159.48 477.81,165.78 480.51,153.34 483.21,140.81 485.91,147.21 488.60,153.59 491.30,141.03 494.00,147.43 496.70,153.87 499.40,160.19 502.09,166.48 504.79,172.76 507.49,179.02 510.19,185.23 512.88,191.46 515.58,197.62 518.28,203.72 520.98,209.80 523.67,197.79 526.37,203.91 529.07,191.83 531.77,179.64 534.47,185.83 537.16,192.14 539.86,198.27 542.56,186.15 545.26,173.94 547.95,180.23 550.65,186.44 553.35,192.59 556.05,180.42 558.74,186.62 561.44,174.44 564.14,180.66 566.84,186.85 569.53,193.00 572.23,199.13 574.93,205.22 577.63,193.16 580.33,199.29 583.02,205.40 585.72,211.52 588.42,217.75 591.12,205.87 593.81,211.93 596.51,217.97 599.21,224.03 601.91,230.00 604.60,218.19 607.30,224.24 610.00,212.42" fill="none" stroke="#2563eb" stroke-width="1.5"/><text x="30" y="252" font-size="11" fill="#555">min 95726.86 / max 111907.79</text></svg>
