<svg xmlns="http://www.w3.org/2000/svg" width="640" height="260" viewBox="0 0 640 260"><rect width="640" height="260" fill="white"/><text x="30" y="22" font-size="14" fill="#111">M10-PA-005 1d baseline equity</text><line x1="30" y1="230" x2="610" y2="230" stroke="#ccc"/><line x1="30" y1="30" x2="30" y2="230" stroke="#ccc"/><polyline points="30.00,107.70 30.39,109.47 30.78,111.24 31.17,113.00 31.56,114.76 31.95,116.50 32.35,118.23 32.74,114.82 33.13,111.37 33.52,107.90 33.91,109.68 34.30,111.46 34.69,113.22 35.08,114.97 35.47,111.54 35.86,112.48 36.25,109.01 36.64,110.78 37.04,112.60 37.43,109.13 37.82,110.89 38.21,112.65 38.60,109.19 38.99,105.70 39.38,102.16 39.77,98.59 40.16,94.98 40.55,96.84 40.94,93.22 41.33,93.53 41.73,95.38 42.12,91.75 42.51,93.62 42.90,95.47 43.29,91.82 43.68,93.68 44.07,95.52 44.46,91.89 44.85,88.22 45.24,90.11 45.63,91.97 46.02,93.83 46.42,90.17 46.81,92.03 47.20,88.36 47.59,84.65 47.98,86.57 48.37,88.01 48.76,89.90 49.15,91.78 49.54,93.67 49.93,90.03 50.32,91.90 50.71,92.78 51.11,89.13 51.50,91.00 51.89,92.86 52.28,89.19 52.67,91.05 53.06,92.93 53.45,94.78 53.84,96.64 54.23,98.47 54.62,100.32 55.01,102.13 55.40,103.94 55.80,105.73 56.19,107.52 56.58,109.32 56.97,111.13 57.36,107.64 57.75,109.41 58.14,111.18 58.53,112.93 58.92,109.46 59.31,105.96 59.70,107.74 60.09,104.22 60.49,100.67 60.88,102.48 61.27,98.91 61.66,100.74 62.05,97.15 62.44,99.00 62.83,95.41 63.22,97.26 63.61,99.08 64.00,95.48 64.39,91.83 64.78,93.69 65.18,90.03 65.57,86.34 65.96,82.60 66.35,84.50 66.74,80.75 67.13,82.66 67.52,78.94 67.91,75.14 68.30,77.10 68.69,73.29 69.08,75.23 69.47,77.17 69.87,79.10 70.26,75.34 70.65,71.55 71.04,73.50 71.43,69.64 71.82,65.74 72.21,61.80 72.60,63.81 72.99,65.80 73.38,67.80 73.77,63.88 74.16,65.87 74.56,67.87 74.95,69.84 75.34,65.95 75.73,62.01 76.12,64.02 76.51,60.08 76.90,62.11 77.29,64.13 77.68,60.17 78.07,56.19 78.46,58.22 78.85,54.25 79.25,56.29 79.64,52.25 80.03,54.32 80.42,50.27 80.81,52.34 81.20,48.28 81.59,50.35 81.98,52.42 82.37,54.47 82.76,56.51 83.15,58.53 83.54,54.52 83.94,107.70 84.33,108.53 84.72,105.02 85.11,106.82 85.50,103.32 85.89,105.13 86.28,106.96 86.67,108.75 87.06,109.56 87.45,110.23 87.84,112.00 88.23,113.80 88.63,115.59 89.02,117.37 89.41,119.14 89.80,120.87 90.19,122.59 90.58,124.30 90.97,126.00 91.36,127.69 91.75,129.39 92.14,130.89 92.53,132.54 92.92,134.24 93.32,130.98 93.71,127.74 94.10,124.44 94.49,122.72 94.88,124.44 95.27,126.15 95.66,127.87 96.05,129.58 96.44,126.28 96.83,127.97 97.22,129.64 97.61,126.37 98.01,123.03 98.40,119.67 98.79,121.38 99.18,118.00 99.57,114.58 99.96,111.13 100.35,107.64 100.74,109.43 101.13,111.21 101.52,112.97 101.91,114.76 102.30,112.18 102.70,113.94 103.09,115.69 103.48,116.79 103.87,118.54 104.26,120.30 104.65,122.03 105.04,123.77 105.43,120.42 105.82,122.13 106.21,123.84 106.60,125.53 106.99,122.55 107.39,124.26 107.78,125.96 108.17,122.64 108.56,119.28 108.95,121.00 109.34,122.71 109.73,124.41 110.12,126.11 110.51,127.80 110.90,129.47 111.29,131.15 111.68,132.83 112.08,134.48 112.47,136.14 112.86,135.19 113.25,136.85 113.64,138.49 114.03,140.13 114.42,141.75 114.81,143.38 115.20,145.00 115.59,146.59 115.98,143.46 116.37,140.30 116.77,137.10 117.16,138.74 117.55,135.58 117.94,137.22 118.33,133.99 118.72,130.73 119.11,132.40 119.50,134.07 119.89,135.74 120.28,137.39 120.67,138.41 121.06,139.80 121.46,141.42 121.85,143.03 122.24,139.87 122.63,137.89 123.02,139.26 123.41,137.56 123.80,139.20 124.19,140.83 124.58,142.44 124.97,139.28 125.36,140.89 125.75,141.73 126.15,143.34 126.54,144.93 126.93,146.52 127.32,148.11 127.71,149.69 128.10,146.59 128.49,143.46 128.88,145.07 129.27,146.67 129.66,148.27 130.05,149.87 130.44,151.44 130.84,153.00 131.23,149.98 131.62,147.34 132.01,145.74 132.40,142.62 132.79,139.45 133.18,136.25 133.57,137.45 133.96,139.10 134.35,140.74 134.74,137.60 135.13,139.24 135.53,140.87 135.92,142.50 136.31,144.12 136.70,145.73 137.09,147.32 137.48,148.91 137.87,150.26 138.26,151.59 138.65,152.93 139.04,149.89 139.43,150.34 139.82,147.26 140.22,144.16 140.61,145.77 141.00,147.40 141.39,144.27 141.78,145.90 142.17,147.51 142.56,148.61 142.95,149.53 143.34,151.08 143.73,152.26 144.12,149.21 144.51,146.13 144.91,143.02 145.30,139.89 145.69,141.51 146.08,143.13 146.47,144.73 146.86,146.32 147.25,143.19 147.64,140.02 148.03,136.83 148.42,138.48 148.81,140.13 149.20,141.79 149.60,143.43 149.99,145.07 150.38,146.71 150.77,148.25 151.16,149.84 151.55,151.41 151.94,152.99 152.33,154.57 152.72,156.12 153.11,153.12 153.50,150.09 153.89,151.69 154.29,153.28 154.68,154.86 155.07,156.43 155.46,153.40 155.85,152.84 156.24,154.39 156.63,155.93 157.02,152.89 157.41,149.83 157.80,151.41 158.19,148.34 158.58,145.24 158.98,146.83 159.37,148.41 159.76,149.98 160.15,151.54 160.54,148.47 160.93,145.36 161.32,146.65 161.71,147.92 162.10,148.94 162.49,149.95 162.88,146.88 163.27,148.46 163.67,145.36 164.06,142.23 164.45,143.83 164.84,141.38 165.23,138.21 165.62,139.85 166.01,136.65 166.40,133.44 166.79,135.09 167.18,131.84 167.57,128.56 167.96,125.25 168.36,126.43 168.75,127.61 169.14,124.31 169.53,120.99 169.92,117.61 170.31,119.33 170.70,121.05 171.09,122.76 171.48,123.11 171.87,124.82 172.26,126.52 172.65,128.21 173.05,129.90 173.44,131.58 173.83,133.26 174.22,134.94 174.61,136.60 175.00,133.40 175.39,135.07 175.78,136.73 176.17,133.51 176.56,134.61 176.95,135.71 177.35,133.54 177.74,130.28 178.13,126.98 178.52,128.36 178.91,128.87 179.30,130.54 179.69,132.20 180.08,133.86 180.47,135.51 180.86,132.28 181.25,133.94 181.64,135.60 182.04,137.24 182.43,134.04 182.82,130.82 183.21,127.54 183.60,124.22 183.99,120.87 184.38,122.59 184.77,123.20 185.16,124.91 185.55,126.10 185.94,127.83 186.33,128.54 186.73,130.23 187.12,131.91 187.51,133.59 187.90,135.29 188.29,136.94 188.68,133.72 189.07,134.42 189.46,136.10 189.85,136.49 190.24,138.14 190.63,139.33 191.02,140.95 191.42,142.56 191.81,144.16 192.20,144.83 192.59,146.00 192.98,147.58 193.37,149.15 193.76,150.73 194.15,151.64 194.54,148.57 194.93,150.01 195.32,150.87 195.71,151.21 196.11,152.78 196.50,149.72 196.89,146.64 197.28,143.52 197.67,145.14 198.06,146.74 198.45,143.66 198.84,143.79 199.23,145.16 199.62,146.78 200.01,145.58 200.40,144.37 200.80,146.01 201.19,146.98 201.58,148.59 201.97,150.19 202.36,151.80 202.75,153.36 203.14,154.92 203.53,156.47 203.92,154.53 204.31,155.65 204.70,157.23 205.09,154.22 205.49,155.75 205.88,157.29 206.27,154.26 206.66,151.20 207.05,148.12 207.44,149.69 207.83,151.27 208.22,152.83 208.61,151.33 209.00,152.90 209.39,154.46 209.78,156.01 210.18,157.55 210.57,159.10 210.96,160.05 211.35,161.58 211.74,158.62 212.13,155.66 212.52,157.20 212.91,158.76 213.30,160.32 213.69,157.35 214.08,154.35 214.47,151.32 214.87,148.29 215.26,149.88 215.65,151.45 216.04,151.88 216.43,148.82 216.82,150.40 217.21,151.97 217.60,153.52 217.99,155.07 218.38,156.64 218.77,158.20 219.16,159.76 219.56,156.80 219.95,158.33 220.34,159.86 220.73,161.37 221.12,162.29 221.51,163.84 221.90,164.83 222.29,165.76 222.68,167.24 223.07,168.72 223.46,170.21 223.85,167.32 224.25,164.39 224.64,165.90 225.03,167.39 225.42,168.88 225.81,166.02 226.20,163.13 226.59,164.17 226.98,161.23 227.37,158.24 227.76,155.24 228.15,152.20 228.54,149.13 228.94,146.02 229.33,147.63 229.72,149.24 230.11,150.83 230.50,152.41 230.89,153.99 231.28,155.53 231.67,157.07 232.06,154.04 232.45,155.59 232.84,157.14 233.23,158.68 233.63,160.19 234.02,161.70 234.41,163.21 234.80,164.09 235.19,161.15 235.58,158.17 235.97,159.69 236.36,161.20 236.75,162.71 237.14,163.25 237.53,164.75 237.92,166.25 238.32,167.76 238.71,169.23 239.10,170.70 239.49,172.16 239.88,173.60 240.27,170.76 240.66,172.22 241.05,173.67 241.44,175.11 241.83,176.54 242.22,177.99 242.61,175.17 243.01,172.32 243.40,173.76 243.79,175.21 244.18,176.65 244.57,178.11 244.96,179.56 245.35,181.01 245.74,182.42 246.13,183.83 246.52,185.23 246.91,186.62 247.30,187.60 247.70,189.02 248.09,186.31 248.48,183.58 248.87,184.98 249.26,186.36 249.65,183.62 250.04,180.86 250.43,182.24 250.82,183.66 251.21,185.06 251.60,182.33 251.99,183.74 252.39,180.98 252.78,178.20 253.17,179.63 253.56,181.06 253.95,182.48 254.34,183.89 254.73,184.43 255.12,181.69 255.51,178.93 255.90,180.37 256.29,181.80 256.68,179.75 257.08,181.17 257.47,182.61 257.86,184.04 258.25,185.46 258.64,182.96 259.03,184.36 259.42,185.77 259.81,187.17 260.20,184.46 260.59,181.72 260.98,183.17 261.37,184.61 261.77,182.14 262.16,179.36 262.55,176.56 262.94,173.73 263.33,175.18 263.72,176.61 264.11,178.04 264.50,179.46 264.89,176.68 265.28,173.87 265.67,175.31 266.06,176.74 266.46,178.16 266.85,179.60 267.24,181.01 267.63,182.44 268.02,183.85 268.41,185.24 268.80,182.50 269.19,179.73 269.58,181.14 269.97,182.54 270.36,183.94 270.75,185.34 271.15,186.74 271.54,188.13 271.93,189.50 272.32,190.86 272.71,188.17 273.10,185.46 273.49,186.59 273.88,187.98 274.27,189.36 274.66,190.73 275.05,192.09 275.44,193.45 275.84,194.81 276.23,196.19 276.62,197.53 277.01,198.85 277.40,200.18 277.79,197.61 278.18,198.94 278.57,200.26 278.96,197.66 279.35,195.04 279.74,192.40 280.13,193.76 280.53,195.12 280.92,196.47 281.31,197.79 281.70,199.12 282.09,196.53 282.48,193.91 282.87,194.76 283.26,195.60 283.65,196.93 284.04,198.26 284.43,199.58 284.82,200.90 285.22,198.32 285.61,199.66 286.00,201.00 286.39,202.33 286.78,203.65 287.17,204.63 287.56,202.63 287.95,203.94 288.34,205.24 288.73,206.53 289.12,205.84 289.51,207.13 289.91,208.41 290.30,209.68 290.69,210.98 291.08,212.24 291.47,213.50 291.86,214.74 292.25,212.30 292.64,209.83 293.03,207.33 293.42,208.63 293.81,206.14 294.20,203.61 294.60,201.06 294.99,198.49 295.38,199.83 295.77,201.16 296.16,198.57 296.55,195.96 296.94,193.33 297.33,194.68 297.72,196.01 298.11,197.38 298.50,198.71 298.89,200.05 299.29,201.37 299.68,202.70 300.07,204.00 300.46,202.24 300.85,199.70 301.24,201.05 301.63,202.39 302.02,202.52 302.41,203.82 302.80,205.11 303.19,206.39 303.58,203.86 303.98,205.15 304.37,206.43 304.76,204.19 305.15,201.93 305.54,203.23 305.93,204.54 306.32,205.84 306.71,207.14 307.10,208.45 307.49,209.72 307.88,207.22 308.27,208.53 308.67,209.83 309.06,211.11 309.45,212.37 309.84,213.63 310.23,214.90 310.62,216.16 311.01,217.43 311.40,218.68 311.79,219.93 312.18,221.17 312.57,222.38 312.96,223.10 313.36,220.77 313.75,218.41 314.14,219.64 314.53,220.88 314.92,222.11 315.31,223.31 315.70,224.51 316.09,225.70 316.48,223.64 316.87,221.56 317.26,222.77 317.65,223.96 318.05,225.15 318.44,226.35 318.83,224.03 319.22,225.24 319.61,226.36 320.00,227.54 320.39,225.22 320.78,222.88 321.17,224.08 321.56,225.27 321.95,226.47 322.35,227.65 322.74,228.82 323.13,230.00 323.52,227.70 323.91,225.37 324.30,107.70 324.69,109.06 325.08,110.84 325.47,107.36 325.86,103.85 326.25,100.30 326.64,101.68 327.04,103.49 327.43,105.32 327.82,107.16 328.21,108.99 328.60,110.77 328.99,112.29 329.38,114.06 329.77,115.81 330.16,112.39 330.55,114.16 330.94,115.93 331.33,117.70 331.73,119.45 332.12,121.22 332.51,122.98 332.90,121.62 333.29,123.35 333.68,125.06 334.07,126.77 334.46,128.45 334.85,130.13 335.24,131.84 335.63,133.52 336.02,133.78 336.42,130.53 336.81,127.24 337.20,123.92 337.59,120.57 337.98,122.33 338.37,119.45 338.76,119.06 339.15,115.68 339.54,112.26 339.93,108.81 340.32,105.42 340.71,107.22 341.11,109.05 341.50,110.88 341.89,112.66 342.28,114.44 342.67,116.20 343.06,114.64 343.45,111.24 343.84,107.76 344.23,104.24 344.62,106.03 345.01,102.49 345.40,98.91 345.80,95.31 346.19,91.67 346.58,87.99 346.97,89.90 347.36,91.80 347.75,93.67 348.14,95.52 348.53,94.14 348.92,92.75 349.31,91.35 349.70,93.25 350.09,95.13 350.49,91.53 350.88,87.90 351.27,84.23 351.66,80.51 352.05,82.13 352.44,78.42 352.83,74.67 353.22,76.62 353.61,72.81 354.00,74.77 354.39,70.99 354.78,67.17 355.18,69.15 355.57,65.26 355.96,61.31 356.35,63.33 356.74,65.33 357.13,67.33 357.52,69.32 357.91,71.30 358.30,73.26 358.69,69.76 359.08,66.24 359.47,68.25 359.87,70.24 360.26,72.26 360.65,72.47 361.04,68.63 361.43,70.61 361.82,72.64 362.21,74.62 362.60,76.59 362.99,72.77 363.38,68.90 363.77,65.00 364.16,67.00 364.56,68.99 364.95,65.12 365.34,67.12 365.73,63.19 366.12,59.23 366.51,61.30 366.90,63.36 367.29,65.42 367.68,66.97 368.07,69.00 368.46,71.01 368.85,71.84 369.25,73.84 369.64,72.51 370.03,71.67 370.42,73.64 370.81,69.82 371.20,65.93 371.59,67.93 371.98,69.92 372.37,70.74 372.76,69.33 373.15,71.32 373.54,67.47 373.94,69.45 374.33,65.56 374.72,67.60 375.11,68.86 375.50,70.84 375.89,72.80 376.28,74.75 376.67,76.69 377.06,78.63 377.45,80.55 377.84,76.77 378.23,72.94 378.63,73.55 379.02,74.16 379.41,74.32 379.80,76.30 380.19,78.26 380.58,75.63 380.97,71.81 381.36,72.74 381.75,74.70 382.14,70.89 382.53,72.86 382.92,74.82 383.32,70.98 383.71,67.10 384.10,69.13 384.49,71.14 384.88,73.13 385.27,75.12 385.66,76.33 386.05,78.31 386.44,80.28 386.83,81.10 387.22,78.40 387.61,80.35 388.01,82.28 388.40,82.58 388.79,84.52 389.18,81.16 389.57,82.17 389.96,81.65 390.35,77.88 390.74,74.06 391.13,75.10 391.52,77.10 391.91,78.00 392.30,75.96 392.70,77.92 393.09,79.86 393.48,81.78 393.87,83.69 394.26,85.59 394.65,81.87 395.04,78.10 395.43,80.06 395.82,82.00 396.21,83.95 396.60,81.60 396.99,79.24 397.39,81.21 397.78,77.48 398.17,73.70 398.56,69.89 398.95,71.89 399.34,73.88 399.73,70.03 400.12,66.15 400.51,68.19 400.90,69.38 401.29,71.39 401.68,68.91 402.08,65.04 402.47,61.14 402.86,57.17 403.25,59.24 403.64,60.64 404.03,62.66 404.42,64.66 404.81,60.72 405.20,56.73 405.59,58.80 405.98,59.18 406.37,61.19 406.77,63.22 407.16,64.06 407.55,60.51 407.94,62.53 408.33,64.53 408.72,66.52 409.11,68.51 409.50,70.48 409.89,72.49 410.28,68.97 410.67,65.11 411.06,67.12 411.46,63.21 411.85,59.28 412.24,55.32 412.63,57.39 413.02,59.42 413.41,55.49 413.80,52.76 414.19,54.82 414.58,56.87 414.97,58.92 415.36,60.94 415.75,56.98 416.15,59.03 416.54,61.04 416.93,57.06 417.32,53.04 417.71,52.20 418.10,54.01 418.49,55.82 418.88,57.92 419.27,60.01 419.66,56.07 420.05,58.11 420.44,60.13 420.84,62.17 421.23,64.17 421.62,66.17 422.01,62.24 422.40,64.25 422.79,66.28 423.18,68.29 423.57,70.29 423.96,72.29 424.35,74.28 424.74,76.25 425.13,78.22 425.53,74.43 425.92,70.60 426.31,66.74 426.70,62.83 427.09,63.35 427.48,59.41 427.87,55.43 428.26,51.39 428.65,47.31 429.04,49.45 429.43,51.36 429.82,47.66 430.22,49.77 430.61,48.16 431.00,49.19 431.39,50.21 431.78,50.39 432.17,52.50 432.56,48.46 432.95,50.55 433.34,46.53 433.73,48.64 434.12,44.54 434.51,40.40 434.91,36.22 435.30,38.42 435.69,40.49 436.08,42.64 436.47,44.77 436.86,46.89 437.25,49.02 437.64,51.12 438.03,53.24 438.42,49.22 438.81,45.13 439.20,46.31 439.60,47.78 439.99,49.24 440.38,50.77 440.77,52.86 441.16,54.92 441.55,56.25 441.94,52.91 442.33,48.87 442.72,50.00 443.11,52.13 443.50,53.25 443.89,55.33 444.29,57.41 444.68,53.42 445.07,49.38 445.46,45.31 445.85,43.03 446.24,40.74 446.63,38.43 447.02,38.69 447.41,38.87 447.80,41.06 448.19,43.23 448.58,44.46 448.98,45.61 449.37,47.75 449.76,49.89 450.15,51.97 450.54,54.04 450.93,52.69 451.32,54.78 451.71,53.86 452.10,54.59 452.49,50.55 452.88,52.62 453.27,48.55 453.67,44.44 454.06,40.32 454.45,36.14 454.84,38.28 455.23,40.40 455.62,36.25 456.01,38.41 456.40,40.56 456.79,42.70 457.18,38.68 457.57,37.34 457.96,33.15 458.36,30.00 458.75,32.24 459.14,34.46 459.53,36.66 459.92,38.82 460.31,40.98 460.70,42.34 461.09,44.50 461.48,40.38 461.87,42.55 462.26,44.57 462.65,46.66 463.05,48.64 463.44,50.71 463.83,52.77 464.22,48.72 464.61,50.26 465.00,52.32 465.39,54.40 465.78,56.46 466.17,58.50 466.56,59.75 466.95,61.80 467.35,57.85 467.74,59.93 468.13,61.96 468.52,63.98 468.91,65.98 469.30,67.63 469.69,69.26 470.08,71.13 470.47,73.13 470.86,74.61 471.25,70.78 471.64,66.92 472.04,63.04 472.43,63.28 472.82,59.38 473.21,55.43 473.60,51.40 473.99,47.32 474.38,49.43 474.77,51.54 475.16,53.63 475.55,55.71 475.94,52.06 476.33,54.13 476.73,55.13 477.12,51.87 477.51,47.80 477.90,49.43 478.29,50.57 478.68,52.67 479.07,48.61 479.46,44.51 479.85,40.36 480.24,42.08 480.63,44.24 481.02,46.40 481.42,48.49 481.81,50.57 482.20,51.23 482.59,53.31 482.98,55.39 483.37,57.45 483.76,58.85 484.15,60.49 484.54,59.34 484.93,61.39 485.32,63.43 485.71,65.41 486.11,65.88 486.50,61.97 486.89,63.30 487.28,65.32 487.67,67.31 488.06,68.81 488.45,70.79 488.84,72.76 489.23,74.72 489.62,76.67 490.01,78.65 490.40,80.62 490.80,82.59 491.19,84.51 491.58,86.42 491.97,88.37 492.36,89.60 492.75,85.90 493.14,82.16 493.53,78.39 493.92,80.31 494.31,82.23 494.70,78.45 495.09,74.65 495.49,70.80 495.88,72.76 496.27,74.73 496.66,76.68 497.05,78.63 497.44,80.56 497.83,82.48 498.22,84.38 498.61,86.32 499.00,83.89 499.39,85.79 499.78,83.87 500.18,85.82 500.57,82.10 500.96,78.39 501.35,74.58 501.74,75.95 502.13,77.89 502.52,79.82 502.91,81.74 503.30,82.02 503.69,82.30 504.08,84.23 504.47,86.13 504.87,85.64 505.26,83.40 505.65,81.16 506.04,83.07 506.43,79.31 506.82,75.51 507.21,75.86 507.60,74.44 507.99,76.41 508.38,78.41 508.77,78.87 509.16,75.10 509.56,71.80 509.95,73.07 510.34,70.58 510.73,72.57 511.12,74.56 511.51,76.56 511.90,78.55 512.29,80.54 512.68,78.36 513.07,74.59 513.46,76.54 513.85,78.49 514.25,74.72 514.64,70.92 515.03,72.93 515.42,74.92 515.81,76.89 516.20,73.08 516.59,69.23 516.98,71.20 517.37,73.16 517.76,75.15 518.15,77.15 518.54,73.33 518.94,75.27 519.33,77.21 519.72,79.16 520.11,81.11 520.50,77.33 520.89,73.52 521.28,75.47 521.67,77.41 522.06,79.35 522.45,81.27 522.84,83.18 523.23,85.08 523.63,81.34 524.02,83.27 524.41,85.18 524.80,87.11 525.19,89.01 525.58,85.32 525.97,81.60 526.36,83.51 526.75,79.76 527.14,75.98 527.53,77.95 527.92,74.13 528.32,76.08 528.71,78.03 529.10,79.95 529.49,81.88 529.88,83.78 530.27,85.69 530.66,81.97 531.05,83.87 531.44,85.77 531.83,87.67 532.22,89.56 532.61,85.87 533.01,87.76 533.40,89.64 533.79,91.52 534.18,93.39 534.57,89.73 534.96,91.63 535.35,93.49 535.74,95.34 536.13,91.71 536.52,88.05 536.91,89.95 537.30,91.83 537.70,93.71 538.09,90.10 538.48,91.97 538.87,88.30 539.26,90.21 539.65,92.08 540.04,93.96 540.43,95.83 540.82,96.90 541.21,98.74 541.60,100.57 541.99,97.04 542.39,98.92 542.78,95.35 543.17,92.18 543.56,90.01 543.95,91.92 544.34,93.78 544.73,90.15 545.12,90.54 545.51,92.41 545.90,88.76 546.29,90.66 546.68,86.98 547.08,83.26 547.47,85.22 547.86,87.14 548.25,89.07 548.64,90.97 549.03,92.63 549.42,94.50 549.81,96.36 550.20,98.22 550.59,100.08 550.98,101.91 551.37,103.73 551.77,105.54 552.16,107.34 552.55,109.13 552.94,110.92 553.33,112.69 553.72,114.48 554.11,116.26 554.50,118.03 554.89,119.77 555.28,121.51 555.67,123.27 556.06,119.92 556.46,116.53 556.85,113.11 557.24,114.47 557.63,113.35 558.02,109.94 558.41,111.74 558.80,113.52 559.19,115.29 559.58,117.05 559.97,118.80 560.36,119.87 560.75,121.13 561.15,117.77 561.54,114.37 561.93,116.12 562.32,117.86 562.71,114.45 563.10,116.23 563.49,118.00 563.88,119.77 564.27,121.52 564.66,118.32 565.05,120.05 565.44,121.81 565.84,123.55 566.23,125.27 566.62,122.73 567.01,119.62 567.40,120.64 567.79,121.66 568.18,120.19 568.57,116.84 568.96,118.57 569.35,120.29 569.74,116.91 570.13,118.64 570.53,120.37 570.92,122.10 571.31,123.81 571.70,120.51 572.09,117.17 572.48,113.81 572.87,115.57 573.26,117.31 573.65,119.09 574.04,120.85 574.43,122.10 574.82,123.82 575.22,125.52 575.61,127.21 576.00,123.88 576.39,124.14 576.78,124.40 577.17,126.13 577.56,127.84 577.95,129.56 578.34,131.28 578.73,132.98 579.12,133.41 579.51,134.89 579.91,136.37 580.30,138.00 580.69,139.66 581.08,141.29 581.47,142.90 581.86,144.55 582.25,141.92 582.64,143.54 583.03,142.60 583.42,143.97 583.81,144.88 584.20,145.80 584.60,147.39 584.99,148.97 585.38,145.90 585.77,142.79 586.16,144.40 586.55,141.25 586.94,142.86 587.33,144.49 587.72,146.11 588.11,143.03 588.50,139.91 588.89,141.57 589.29,143.22 589.68,144.85 590.07,146.43 590.46,143.33 590.85,140.20 591.24,138.93 591.63,135.75 592.02,137.39 592.41,139.04 592.80,140.66 593.19,142.28 593.58,143.89 593.98,145.50 594.37,142.36 594.76,139.19 595.15,140.84 595.54,107.70 595.93,109.47 596.32,111.23 596.71,112.99 597.10,109.52 597.49,106.02 597.88,102.48 598.27,104.29 598.67,106.08 599.06,107.86 599.45,109.63 599.84,106.12 600.23,102.58 600.62,104.37 601.01,106.16 601.40,107.94 601.79,109.72 602.18,111.49 602.57,108.00 602.96,109.80 603.36,111.56 603.75,113.31 604.14,115.05 604.53,116.78 604.92,113.36 605.31,115.14 605.70,116.88 606.09,118.61 606.48,120.34 606.87,122.05 607.26,118.67 607.65,120.38 608.05,122.11 608.44,123.82 608.83,125.51 609.22,127.19 609.61,128.87 610.00,130.53" fill="none" stroke="#2563eb" stroke-width="1.5"/><text x="30" y="252" font-size="11" fill="#555">min 65349.43 / max 122014.56</text></svg>
