<svg xmlns="http://www.w3.org/2000/svg" width="640" height="260" viewBox="0 0 640 260"><rect width="640" height="260" fill="white"/><text x="30" y="22" font-size="14" fill="#111">M10-PA-001 15m baseline equity</text><line x1="30" y1="230" x2="610" y2="230" stroke="#ccc"/><line x1="30" y1="30" x2="30" y2="230" stroke="#ccc"/><polyline points="30.00,182.64 30.13,183.54 30.27,184.44 30.40,185.34 30.54,186.23 30.67,187.13 30.80,188.00 30.94,186.28 31.07,184.54 31.20,185.43 31.34,186.32 31.47,187.21 31.61,188.09 31.74,188.98 31.87,189.86 32.01,190.23 32.14,188.53 32.28,189.40 32.41,190.28 32.54,188.57 32.68,186.84 32.81,187.73 32.94,188.61 33.08,189.49 33.21,190.37 33.35,191.24 33.48,189.54 33.61,187.82 33.75,188.70 33.88,186.97 34.01,185.24 34.15,183.48 34.28,184.38 34.42,185.27 34.55,183.51 34.68,181.74 34.82,179.94 34.95,180.86 35.09,181.77 35.22,182.68 35.35,183.58 35.49,184.48 35.62,185.37 35.75,183.61 35.89,181.84 36.02,180.05 36.16,180.96 36.29,181.87 36.42,182.77 36.56,183.67 36.69,184.57 36.83,182.81 36.96,181.04 37.09,181.95 37.23,182.85 37.36,183.75 37.49,184.64 37.63,185.54 37.76,183.78 37.90,182.01 38.03,180.23 38.16,178.42 38.30,176.60 38.43,174.75 38.56,172.89 38.70,171.01 38.83,169.12 38.97,170.09 39.10,171.08 39.23,172.07 39.37,173.02 39.50,174.00 39.64,172.13 39.77,170.24 39.90,168.34 40.04,169.33 40.17,170.31 40.30,168.41 40.44,166.50 40.57,167.49 40.71,168.47 40.84,166.54 40.97,167.54 41.11,168.28 41.24,169.27 41.38,170.24 41.51,171.21 41.64,169.31 41.78,170.27 41.91,171.23 42.04,172.19 42.18,173.15 42.31,174.11 42.45,175.07 42.58,173.22 42.71,171.34 42.85,169.44 42.98,167.53 43.11,165.59 43.25,163.64 43.38,161.67 43.52,159.68 43.65,157.67 43.78,155.66 43.92,153.62 44.05,151.55 44.19,149.46 44.32,147.36 44.45,145.23 44.59,143.07 44.72,144.20 44.85,145.30 44.99,145.38 45.12,143.24 45.26,141.07 45.39,138.87 45.52,136.65 45.66,134.41 45.79,132.15 45.93,133.30 46.06,134.45 46.19,135.59 46.33,136.73 46.46,134.49 46.59,135.63 46.73,136.76 46.86,137.89 47.00,139.02 47.13,140.15 47.26,137.94 47.40,139.06 47.53,140.18 47.66,141.30 47.80,142.41 47.93,143.51 48.07,144.61 48.20,145.70 48.33,146.79 48.47,144.64 48.60,145.74 48.74,146.83 48.87,144.70 49.00,145.80 49.14,143.65 49.27,144.76 49.40,145.87 49.54,146.31 49.67,147.40 49.81,145.26 49.94,146.35 50.07,147.44 50.21,148.52 50.34,149.59 50.48,150.67 50.61,148.56 50.74,149.63 50.88,147.53 51.01,145.40 51.14,143.24 51.28,141.07 51.41,138.87 51.55,136.65 51.68,134.41 51.81,132.15 51.95,133.31 52.08,134.46 52.22,135.60 52.35,136.74 52.48,137.87 52.62,139.01 52.75,140.13 52.88,141.25 53.02,139.68 53.15,140.80 53.29,141.92 53.42,139.74 53.55,137.53 53.69,135.30 53.82,136.44 53.95,137.57 54.09,138.70 54.22,139.83 54.36,140.95 54.49,142.06 54.62,143.16 54.76,140.98 54.89,138.78 55.03,139.89 55.16,141.01 55.29,142.11 55.43,143.22 55.56,144.31 55.69,145.41 55.83,143.25 55.96,144.35 56.10,145.44 56.23,146.53 56.36,147.62 56.50,148.70 56.63,149.77 56.77,150.84 56.90,151.91 57.03,152.97 57.17,150.88 57.30,148.78 57.43,146.67 57.57,144.53 57.70,142.37 57.84,143.47 57.97,141.30 58.10,139.12 58.24,140.25 58.37,140.30 58.50,138.10 58.64,135.88 58.77,137.01 58.91,138.15 59.04,139.27 59.17,140.39 59.31,141.51 59.44,142.62 59.58,143.73 59.71,144.84 59.84,145.93 59.98,147.01 60.11,148.09 60.24,149.17 60.38,150.24 60.51,151.30 60.65,152.37 60.78,153.42 60.91,154.48 61.05,152.42 61.18,150.33 61.32,148.22 61.45,149.30 61.58,150.37 61.72,148.26 61.85,146.14 61.98,143.99 62.12,145.08 62.25,146.17 62.39,147.25 62.52,148.33 62.65,146.21 62.79,144.07 62.92,141.91 63.05,139.72 63.19,137.51 63.32,138.64 63.46,139.76 63.59,137.56 63.72,135.32 63.86,133.06 63.99,134.22 64.13,135.37 64.26,133.13 64.39,130.87 64.53,128.58 64.66,129.76 64.79,130.93 64.93,132.10 65.06,133.28 65.20,134.43 65.33,135.59 65.46,133.33 65.60,131.05 65.73,132.23 65.87,129.96 66.00,131.13 66.13,128.85 66.27,126.53 66.40,127.72 66.53,128.89 66.67,126.57 66.80,127.78 66.94,128.97 67.07,130.15 67.20,131.32 67.34,132.48 67.47,133.63 67.60,134.78 67.74,135.93 67.87,133.69 68.01,131.42 68.14,129.12 68.27,126.82 68.41,128.01 68.54,125.69 68.68,123.35 68.81,121.01 68.94,118.62 69.08,116.21 69.21,117.44 69.34,115.01 69.48,116.28 69.61,117.52 69.75,115.10 69.88,112.65 70.01,113.90 70.15,111.44 70.28,112.70 70.42,113.96 70.55,111.50 70.68,112.76 70.82,114.02 70.95,115.26 71.08,112.80 71.22,110.32 71.35,111.59 71.49,112.85 71.62,114.10 71.75,115.34 71.89,116.60 72.02,117.85 72.16,119.08 72.29,120.31 72.42,121.53 72.56,122.75 72.69,123.97 72.82,125.19 72.96,126.38 73.09,124.06 73.23,121.71 73.36,119.35 73.49,120.57 73.63,121.78 73.76,119.40 73.89,117.00 74.03,118.24 74.16,119.51 74.30,120.72 74.43,118.33 74.56,115.90 74.70,117.15 74.83,118.39 74.97,115.97 75.10,113.52 75.23,114.77 75.37,116.01 75.50,117.25 75.63,118.49 75.77,119.72 75.90,120.94 76.04,118.55 76.17,119.71 76.30,120.92 76.44,122.14 76.57,119.75 76.71,120.98 76.84,122.20 76.97,123.41 77.11,124.61 77.24,125.80 77.37,127.00 77.51,124.68 77.64,125.87 77.78,127.07 77.91,128.25 78.04,129.42 78.18,130.61 78.31,128.33 78.44,126.00 78.58,123.66 78.71,121.29 78.85,122.51 78.98,120.15 79.11,117.77 79.25,115.36 79.38,112.93 79.52,114.18 79.65,111.72 79.78,109.26 79.92,106.76 80.05,104.22 80.18,101.65 80.32,102.98 80.45,100.40 80.59,97.80 80.72,95.17 80.85,96.51 80.99,97.85 81.12,99.17 81.26,100.50 81.39,101.81 81.52,103.12 81.66,100.55 81.79,101.88 81.92,99.29 82.06,100.61 82.19,101.94 82.33,103.25 82.46,104.55 82.59,105.86 82.73,107.14 82.86,108.43 82.99,109.71 83.13,107.20 83.26,104.66 83.40,102.10 83.53,103.41 83.66,104.70 83.80,102.15 83.93,103.45 84.07,104.76 84.20,106.07 84.33,103.52 84.47,100.94 84.60,98.36 84.73,99.68 84.87,100.99 85.00,102.31 85.14,103.63 85.27,101.08 85.40,102.39 85.54,103.69 85.67,101.13 85.81,98.54 85.94,99.87 86.07,101.19 86.21,98.59 86.34,95.99 86.47,97.35 86.61,94.73 86.74,92.08 86.88,89.40 87.01,86.68 87.14,88.07 87.28,89.44 87.41,90.83 87.54,92.20 87.68,93.57 87.81,94.94 87.95,96.29 88.08,97.62 88.21,98.94 88.35,100.26 88.48,101.58 88.62,98.99 88.75,100.31 88.88,101.62 89.02,99.03 89.15,96.41 89.28,97.75 89.42,95.12 89.55,92.46 89.69,93.82 89.82,91.15 89.95,88.45 90.09,89.84 90.22,87.13 90.36,84.39 90.49,81.63 90.62,83.05 90.76,84.48 90.89,85.88 91.02,87.28 91.16,88.66 91.29,90.05 91.43,91.44 91.56,92.80 91.69,90.14 91.83,91.52 91.96,92.91 92.10,94.27 92.23,95.62 92.36,96.98 92.50,98.34 92.63,99.66 92.76,101.01 92.90,98.41 93.03,95.79 93.17,93.16 93.30,90.49 93.43,91.86 93.57,89.16 93.70,86.45 93.83,87.83 93.97,85.10 94.10,86.49 94.24,87.87 94.37,85.14 94.50,82.38 94.64,79.60 94.77,81.01 94.91,82.42 95.04,83.83 95.17,85.23 95.31,86.62 95.44,83.87 95.57,85.27 95.71,86.65 95.84,88.03 95.98,85.31 96.11,86.70 96.24,88.08 96.38,89.46 96.51,90.83 96.65,92.19 96.78,93.55 96.91,94.90 97.05,96.25 97.18,97.59 97.31,98.95 97.45,100.29 97.58,101.60 97.72,99.02 97.85,96.40 97.98,93.76 98.12,95.11 98.25,96.46 98.38,97.79 98.52,99.13 98.65,100.45 98.79,101.77 98.92,103.07 99.05,104.38 99.19,105.67 99.32,103.11 99.46,100.53 99.59,97.94 99.72,99.26 99.86,100.57 99.99,101.88 100.12,103.19 100.26,104.49 100.39,101.92 100.53,99.33 100.66,96.71 100.79,94.07 100.93,95.41 101.06,96.75 101.20,98.08 101.33,99.41 101.46,100.73 101.60,102.04 101.73,103.35 101.86,104.65 102.00,105.95 102.13,107.26 102.27,108.54 102.40,106.02 102.53,103.47 102.67,104.77 102.80,106.07 102.93,107.36 103.07,108.63 103.20,109.90 103.34,111.17 103.47,112.44 103.60,109.96 103.74,111.24 103.87,112.51 104.01,110.03 104.14,107.54 104.27,108.82 104.41,110.09 104.54,111.36 104.67,112.61 104.81,113.87 104.94,115.11 105.08,116.36 105.21,117.61 105.34,115.21 105.48,116.45 105.61,117.69 105.75,115.27 105.88,116.52 106.01,117.78 106.15,119.03 106.28,120.27 106.41,117.90 106.55,115.47 106.68,113.01 106.82,110.53 106.95,111.81 107.08,113.07 107.22,114.32 107.35,111.86 107.49,109.38 107.62,106.86 107.75,104.32 107.89,105.62 108.02,106.91 108.15,108.21 108.29,109.49 108.42,110.76 108.56,112.03 108.69,113.30 108.82,114.57 108.96,115.84 109.09,117.08 109.22,114.66 109.36,112.20 109.49,109.72 109.63,107.24 109.76,108.53 109.89,109.82 110.03,111.08 110.16,112.34 110.30,113.60 110.43,114.85 110.56,116.11 110.70,113.67 110.83,111.20 110.96,108.71 111.10,110.00 111.23,111.27 111.37,112.54 111.50,110.06 111.63,111.34 111.77,112.44 111.90,113.71 112.04,114.97 112.17,116.23 112.30,117.48 112.44,118.72 112.57,119.95 112.70,121.19 112.84,118.79 112.97,120.02 113.11,121.26 113.24,122.49 113.37,123.70 113.51,124.90 113.64,126.10 113.77,127.30 113.91,124.97 114.04,122.61 114.18,120.23 114.31,118.66 114.44,116.25 114.58,113.82 114.71,111.37 114.85,112.63 114.98,113.90 115.11,115.16 115.25,112.71 115.38,110.25 115.51,107.77 115.65,105.26 115.78,103.25 115.92,100.67 116.05,98.07 116.18,95.47 116.32,92.85 116.45,94.21 116.59,91.57 116.72,88.90 116.85,86.21 116.99,87.61 117.12,89.03 117.25,86.31 117.39,83.56 117.52,84.98 117.66,86.38 117.79,87.77 117.92,89.16 118.06,86.46 118.19,87.35 118.32,88.75 118.46,90.13 118.59,87.43 118.73,84.71 118.86,81.96 118.99,79.18 119.13,76.38 119.26,73.54 119.40,70.69 119.53,71.40 119.66,68.53 119.80,68.76 119.93,65.85 120.06,62.94 120.20,59.99 120.33,61.52 120.47,63.05 120.60,64.52 120.73,66.05 120.87,67.55 121.00,69.04 121.14,70.52 121.27,72.00 121.40,73.47 121.54,74.92 121.67,76.37 121.80,77.82 121.94,79.26 122.07,80.71 122.21,82.13 122.34,83.57 122.47,84.29 122.61,81.53 122.74,78.75 122.87,80.18 123.01,81.61 123.14,83.05 123.28,84.45 123.41,85.86 123.54,83.18 123.68,84.61 123.81,86.01 123.95,87.40 124.08,88.78 124.21,86.07 124.35,83.34 124.48,80.58 124.61,77.78 124.75,79.22 124.88,80.67 125.02,77.88 125.15,79.31 125.28,80.77 125.42,82.20 125.55,83.65 125.69,85.09 125.82,86.50 125.95,87.92 126.09,85.19 126.22,82.44 126.35,83.84 126.49,85.24 126.62,86.63 126.76,88.01 126.89,89.40 127.02,86.71 127.16,88.12 127.29,89.51 127.43,90.90 127.56,92.02 127.69,93.28 127.83,94.10 127.96,95.45 128.09,96.78 128.23,94.18 128.36,91.55 128.50,92.92 128.63,94.29 128.76,95.66 128.90,96.44 129.03,97.78 129.16,95.16 129.30,92.52 129.43,89.86 129.57,87.20 129.70,88.58 129.83,89.95 129.97,87.25 130.10,84.52 130.24,81.75 130.37,78.96 130.50,76.14 130.64,77.60 130.77,79.03 130.90,80.46 131.04,81.89 131.17,83.29 131.31,84.70 131.44,86.10 131.57,87.49 131.71,84.76 131.84,82.02 131.98,83.43 132.11,84.83 132.24,86.23 132.38,83.49 132.51,84.57 132.64,81.82 132.78,83.25 132.91,84.66 133.05,86.06 133.18,87.48 133.31,88.86 133.45,90.16 133.58,91.57 133.71,92.97 133.85,90.31 133.98,87.62 134.12,85.51 134.25,85.92 134.38,87.31 134.52,88.74 134.65,86.06 134.79,87.45 134.92,88.83 135.05,90.22 135.19,91.59 135.32,92.95 135.45,94.30 135.59,95.64 135.72,96.98 135.86,98.32 135.99,99.64 136.12,100.98 136.26,102.30 136.39,103.61 136.53,104.92 136.66,106.22 136.79,107.52 136.93,108.82 137.06,109.63 137.19,110.91 137.33,112.18 137.46,109.71 137.60,107.24 137.73,104.74 137.86,102.20 138.00,99.62 138.13,97.03 138.26,94.39 138.40,91.74 138.53,89.05 138.67,86.33 138.80,83.59 138.93,84.98 139.07,86.38 139.20,87.77 139.34,89.15 139.47,90.53 139.60,91.90 139.74,93.26 139.87,94.61 140.00,95.97 140.14,97.31 140.27,94.67 140.41,96.03 140.54,93.39 140.67,90.72 140.81,88.02 140.94,85.31 141.08,82.55 141.21,79.77 141.34,81.19 141.48,82.61 141.61,84.03 141.74,85.42 141.88,86.81 142.01,88.19 142.15,89.58 142.28,86.87 142.41,88.25 142.55,85.55 142.68,82.81 142.81,80.04 142.95,81.47 143.08,82.88 143.22,80.11 143.35,77.30 143.48,78.73 143.62,80.16 143.75,81.57 143.89,82.98 144.02,80.21 144.15,77.44 144.29,74.63 144.42,76.09 144.55,77.56 144.69,79.00 144.82,80.43 144.96,81.86 145.09,83.27 145.22,84.69 145.36,86.08 145.49,87.48 145.63,88.87 145.76,90.25 145.89,91.63 146.03,93.00 146.16,92.32 146.29,93.68 146.43,95.04 146.56,92.39 146.70,89.70 146.83,86.99 146.96,84.26 147.10,81.49 147.23,78.70 147.37,75.90 147.50,77.38 147.63,78.82 147.77,80.08 147.90,81.53 148.03,82.97 148.17,84.40 148.30,85.64 148.44,83.61 148.57,85.04 148.70,86.46 148.84,87.85 148.97,89.26 149.10,90.66 149.24,92.06 149.37,93.44 149.51,94.81 149.64,96.16 149.77,97.50 149.91,98.84 150.04,100.16 150.18,101.49 150.31,98.90 150.44,100.24 150.58,101.57 150.71,102.89 150.84,104.19 150.98,101.66 151.11,102.99 151.25,104.32 151.38,105.64 151.51,106.94 151.65,108.23 151.78,109.50 151.92,110.77 152.05,112.05 152.18,113.32 152.32,110.86 152.45,108.95 152.58,110.22 152.72,111.50 152.85,109.29 152.99,110.60 153.12,108.11 153.25,105.59 153.39,103.04 153.52,104.37 153.65,105.68 153.79,106.98 153.92,108.27 154.06,109.07 154.19,110.36 154.32,111.62 154.46,112.89 154.59,110.43 154.73,111.71 154.86,109.23 154.99,106.72 155.13,104.19 155.26,105.50 155.39,106.79 155.53,108.08 155.66,109.36 155.80,110.62 155.93,111.88 156.06,113.13 156.20,110.66 156.33,108.16 156.47,109.43 156.60,110.72 156.73,112.00 156.87,113.26 157.00,114.52 157.13,115.77 157.27,117.04 157.40,114.60 157.54,112.14 157.67,113.40 157.80,110.92 157.94,108.42 158.07,105.90 158.20,103.36 158.34,100.79 158.47,102.11 158.61,99.55 158.74,97.58 158.87,94.97 159.01,96.32 159.14,93.68 159.28,91.02 159.41,92.40 159.54,89.73 159.68,91.10 159.81,92.47 159.94,93.83 160.08,95.18 160.21,96.53 160.35,97.53 160.48,94.90 160.61,92.24 160.75,89.55 160.88,86.84 161.02,88.22 161.15,89.60 161.28,90.97 161.42,88.28 161.55,89.68 161.68,91.04 161.82,92.41 161.95,93.76 162.09,95.11 162.22,96.46 162.35,97.80 162.49,95.17 162.62,96.52 162.75,97.88 162.89,99.21 163.02,96.62 163.16,97.95 163.29,99.29 163.42,100.62 163.56,101.95 163.69,103.27 163.83,104.58 163.96,105.87 164.09,103.32 164.23,100.74 164.36,98.14 164.49,95.52 164.63,96.88 164.76,94.25 164.90,95.62 165.03,96.96 165.16,94.36 165.30,95.72 165.43,93.09 165.57,94.44 165.70,95.79 165.83,93.17 165.97,90.50 166.10,91.86 166.23,93.23 166.37,94.58 166.50,95.94 166.64,93.29 166.77,94.64 166.90,95.99 167.04,93.34 167.17,94.72 167.31,96.08 167.44,97.43 167.57,94.82 167.71,92.16 167.84,89.49 167.97,86.79 168.11,84.07 168.24,81.72 168.38,83.04 168.51,84.46 168.64,81.71 168.78,79.60 168.91,76.81 169.04,78.25 169.18,79.69 169.31,80.04 169.45,79.76 169.58,182.64 169.71,183.55 169.85,184.45 169.98,185.03 170.12,185.94 170.25,186.85 170.38,187.74 170.52,188.63 170.65,189.52 170.78,190.41 170.92,191.28 171.05,192.15 171.19,193.01 171.32,193.87 171.45,192.22 171.59,190.55 171.72,191.42 171.86,192.29 171.99,190.61 172.12,191.49 172.26,192.37 172.39,193.14 172.52,191.46 172.66,192.34 172.79,190.67 172.93,188.99 173.06,187.29 173.19,188.17 173.33,189.06 173.46,189.94 173.59,190.81 173.73,189.12 173.86,187.42 174.00,185.69 174.13,186.59 174.26,187.47 174.40,188.36 174.53,186.88 174.67,185.40 174.80,186.31 174.93,187.19 175.07,188.07 175.20,186.36 175.33,187.25 175.47,188.15 175.60,189.05 175.74,189.94 175.87,190.30 176.00,190.88 176.14,191.59 176.27,192.36 176.41,193.14 176.54,191.63 176.67,189.94 176.81,188.32 176.94,186.62 177.07,187.51 177.21,185.79 177.34,184.04 177.48,182.27 177.61,180.99 177.74,179.20 177.88,177.41 178.01,176.45 178.14,177.40 178.28,178.35 178.41,178.94 178.55,177.48 178.68,176.59 178.81,175.57 178.95,174.59 179.08,175.03 179.22,175.58 179.35,174.67 179.48,172.84 179.62,171.18 179.75,169.64 179.88,167.74 180.02,165.82 180.15,163.88 180.29,164.59 180.42,165.03 180.55,165.37 180.69,166.32 180.82,167.32 180.96,165.41 181.09,166.05 181.22,165.39 181.36,165.89 181.49,166.40 181.62,167.39 181.76,168.38 181.89,169.36 182.03,170.09 182.16,170.88 182.29,171.69 182.43,172.63 182.56,173.12 182.69,174.10 182.83,172.26 182.96,170.40 183.10,168.51 183.23,167.11 183.36,165.68 183.50,163.86 183.63,161.91 183.77,159.93 183.90,158.23 184.03,159.00 184.17,160.04 184.30,158.41 184.43,156.41 184.57,156.84 184.70,157.90 184.84,155.89 184.97,154.29 185.10,155.25 185.24,153.22 185.37,154.29 185.51,154.96 185.64,156.02 185.77,157.08 185.91,158.14 186.04,159.19 186.17,157.18 186.31,158.21 186.44,156.21 186.58,156.98 186.71,155.67 186.84,156.73 186.98,154.72 187.11,155.79 187.25,154.18 187.38,152.12 187.51,151.99 187.65,150.14 187.78,148.10 187.91,146.00 188.05,143.89 188.18,141.75 188.32,142.87 188.45,143.98 188.58,145.09 188.72,144.12 188.85,142.62 188.98,143.74 189.12,144.55 189.25,145.67 189.39,146.79 189.52,147.24 189.65,145.11 189.79,146.21 189.92,147.31 190.06,148.40 190.19,149.51 190.32,150.61 190.46,148.52 190.59,146.42 190.72,144.29 190.86,142.15 190.99,143.28 191.13,141.11 191.26,138.91 191.39,136.70 191.53,134.48 191.66,135.18 191.80,136.33 191.93,134.09 192.06,131.83 192.20,133.00 192.33,133.96 192.46,135.13 192.60,132.98 192.73,130.71 192.87,128.41 193.00,126.18 193.13,123.87 193.27,121.53 193.40,122.74 193.53,123.95 193.67,125.16 193.80,126.36 193.94,127.58 194.07,128.77 194.20,129.95 194.34,131.12 194.47,128.83 194.61,130.04 194.74,131.21 194.87,128.92 195.01,126.61 195.14,124.27 195.27,121.90 195.41,123.11 195.54,124.33 195.68,125.54 195.81,125.90 195.94,127.09 196.08,128.28 196.21,129.46 196.35,127.15 196.48,124.81 196.61,122.47 196.75,120.10 196.88,117.72 197.01,116.26 197.15,117.52 197.28,118.67 197.42,116.25 197.55,113.81 197.68,111.35 197.82,112.62 197.95,110.16 198.08,107.67 198.22,108.98 198.35,106.66 198.49,104.33 198.62,105.57 198.75,103.05 198.89,104.36 199.02,105.50 199.16,106.83 199.29,108.12 199.42,109.42 199.56,110.69 199.69,111.97 199.82,109.50 199.96,107.02 200.09,108.31 200.23,109.59 200.36,110.88 200.49,108.39 200.63,105.88 200.76,107.18 200.90,107.85 201.03,105.33 201.16,102.80 201.30,100.24 201.43,101.56 201.56,102.90 201.70,104.22 201.83,105.52 201.97,106.82 202.10,104.29 202.23,105.60 202.37,106.91 202.50,108.21 202.63,109.50 202.77,110.79 202.90,108.29 203.04,105.78 203.17,103.26 203.30,100.71 203.44,102.05 203.57,103.38 203.71,104.71 203.84,106.04 203.97,107.18 204.11,108.48 204.24,109.77 204.37,111.05 204.51,108.59 204.64,109.79 204.78,111.07 204.91,112.35 205.04,113.64 205.18,114.92 205.31,116.19 205.45,117.45 205.58,115.02 205.71,112.56 205.85,110.08 205.98,111.36 206.11,112.65 206.25,113.94 206.38,111.51 206.52,109.04 206.65,106.54 206.78,107.68 206.92,108.97 207.05,106.48 207.19,104.09 207.32,105.41 207.45,106.71 207.59,108.00 207.72,109.28 207.85,110.58 207.99,111.86 208.12,113.14 208.26,114.15 208.39,115.44 208.52,113.00 208.66,110.53 208.79,111.82 208.92,112.94 209.06,114.23 209.19,115.50 209.33,114.17 209.46,115.45 209.59,116.71 209.73,114.28 209.86,111.82 210.00,110.09 210.13,108.17 210.26,109.46 210.40,110.76 210.53,112.05 210.66,110.60 210.80,108.70 210.93,109.99 211.07,111.28 211.20,112.41 211.33,113.10 211.47,113.82 211.60,112.28 211.74,113.57 211.87,114.85 212.00,116.12 212.14,117.38 212.27,118.64 212.40,119.88 212.54,121.13 212.67,122.36 212.81,123.58 212.94,124.79 213.07,126.00 213.21,127.19 213.34,125.07 213.47,122.75 213.61,121.47 213.74,122.69 213.88,123.90 214.01,125.10 214.14,126.32 214.28,126.92 214.41,128.14 214.55,129.35 214.68,130.55 214.81,131.74 214.95,130.21 215.08,131.16 215.21,128.89 215.35,126.58 215.48,127.79 215.62,129.00 215.75,130.19 215.88,127.90 216.02,125.57 216.15,123.22 216.29,120.85 216.42,118.45 216.55,116.03 216.69,113.62 216.82,111.17 216.95,108.71 217.09,109.99 217.22,111.27 217.36,110.29 217.49,110.99 217.62,111.77 217.76,113.06 217.89,114.34 218.02,115.61 218.16,116.88 218.29,115.08 218.43,116.35 218.56,117.61 218.69,118.87 218.83,116.48 218.96,114.05 219.10,111.71 219.23,109.23 219.36,106.73 219.50,104.20 219.63,105.53 219.76,106.83 219.90,108.14 220.03,109.44 220.17,110.73 220.30,112.01 220.43,113.31 220.57,114.04 220.70,114.74 220.84,112.31 220.97,109.85 221.10,107.36 221.24,104.84 221.37,102.30 221.50,99.74 221.64,97.14 221.77,95.93 221.91,94.38 222.04,92.65 222.17,94.03 222.31,95.41 222.44,96.75 222.57,98.13 222.71,98.93 222.84,99.99 222.98,101.33 223.11,102.29 223.24,103.64 223.38,104.97 223.51,105.60 223.65,106.73 223.78,108.04 223.91,106.17 224.05,103.89 224.18,105.21 224.31,103.95 224.45,102.63 224.58,100.06 224.72,101.40 224.85,98.95 224.98,96.37 225.12,97.71 225.25,99.07 225.39,100.42 225.52,97.84 225.65,99.20 225.79,100.54 225.92,101.88 226.05,102.72 226.19,103.61 226.32,104.92 226.46,106.22 226.59,107.51 226.72,105.16 226.86,102.63 226.99,103.95 227.13,105.27 227.26,106.57 227.39,107.87 227.53,109.15 227.66,110.43 227.79,111.70 227.93,109.23 228.06,110.50 228.20,111.77 228.33,113.03 228.46,114.29 228.60,115.54 228.73,116.79 228.86,118.03 229.00,115.62 229.13,116.87 229.27,118.11 229.40,119.35 229.53,120.59 229.67,121.81 229.80,123.03 229.94,120.68 230.07,118.30 230.20,115.90 230.34,117.15 230.47,115.83 230.60,117.10 230.74,118.36 230.87,119.28 231.01,117.22 231.14,118.45 231.27,119.68 231.41,120.90 231.54,122.14 231.68,123.35 231.81,124.56 231.94,125.76 232.08,126.97 232.21,128.18 232.34,129.33 232.48,130.47 232.61,131.67 232.75,132.86 232.88,134.02 233.01,135.17 233.15,136.32 233.28,137.49 233.41,135.27 233.55,133.03 233.68,130.79 233.82,129.32 233.95,130.52 234.08,131.72 234.22,132.56 234.35,133.72 234.49,134.87 234.62,135.43 234.75,136.59 234.89,134.79 235.02,133.88 235.15,135.04 235.29,136.20 235.42,133.97 235.56,132.81 235.69,133.58 235.82,134.77 235.96,135.58 236.09,136.27 236.23,136.85 236.36,137.61 236.49,138.43 236.63,136.21 236.76,137.37 236.89,135.14 237.03,136.31 237.16,136.57 237.30,137.73 237.43,135.50 237.56,133.27 237.70,134.44 237.83,135.58 237.96,136.74 238.10,134.51 238.23,132.25 238.37,129.97 238.50,127.66 238.63,128.84 238.77,126.52 238.90,127.71 239.04,128.89 239.17,130.07 239.30,131.24 239.44,128.95 239.57,130.13 239.70,131.30 239.84,132.46 239.97,133.63 240.11,134.78 240.24,135.94 240.37,137.08 240.51,138.22 240.64,139.34 240.78,140.46 240.91,141.58 241.04,139.55 241.18,140.68 241.31,141.81 241.44,142.93 241.58,144.04 241.71,145.14 241.85,146.24 241.98,147.34 242.11,148.43 242.25,149.51 242.38,147.42 242.51,148.50 242.65,149.57 242.78,147.47 242.92,145.35 243.05,143.21 243.18,144.34 243.32,142.19 243.45,140.02 243.59,137.84 243.72,136.22 243.85,137.36 243.99,135.14 244.12,132.90 244.25,130.63 244.39,128.34 244.52,129.52 244.66,130.70 244.79,131.87 244.92,133.03 245.06,134.19 245.19,135.34 245.33,136.49 245.46,134.24 245.59,131.98 245.73,129.69 245.86,130.86 245.99,132.02 246.13,129.73 246.26,127.42 246.40,128.59 246.53,129.76 246.66,130.93 246.80,132.09 246.93,133.24 247.07,134.40 247.20,132.14 247.33,133.29 247.47,131.02 247.60,128.72 247.73,126.41 247.87,127.60 248.00,125.29 248.14,126.48 248.27,124.14 248.40,125.34 248.54,126.55 248.67,124.21 248.80,125.43 248.94,123.10 249.07,120.76 249.21,121.99 249.34,123.21 249.47,124.42 249.61,125.63 249.74,126.83 249.88,128.02 250.01,129.22 250.14,130.40 250.28,131.58 250.41,132.74 250.54,130.48 250.68,128.19 250.81,125.88 250.95,123.53 251.08,124.74 251.21,125.94 251.35,127.13 251.48,128.32 251.62,129.51 251.75,130.69 251.88,131.88 252.02,133.07 252.15,134.24 252.28,135.40 252.42,133.15 252.55,130.88 252.69,128.58 252.82,129.74 252.95,130.93 253.09,132.10 253.22,133.28 253.35,134.45 253.49,135.07 253.62,132.84 253.76,130.59 253.89,128.31 254.02,125.99 254.16,126.67 254.29,127.89 254.43,129.09 254.56,129.93 254.69,131.11 254.83,132.29 254.96,133.46 255.09,134.64 255.23,135.67 255.36,136.84 255.50,137.97 255.63,139.10 255.76,140.23 255.90,138.05 256.03,135.83 256.17,133.58 256.30,134.28 256.43,135.32 256.57,136.47 256.70,137.62 256.83,135.40 256.97,133.16 257.10,130.91 257.24,128.65 257.37,129.85 257.50,131.05 257.64,132.22 257.77,133.39 257.90,134.56 258.04,135.18 258.17,135.75 258.31,136.91 258.44,138.06 258.57,139.21 258.71,137.02 258.84,138.17 258.98,139.33 259.11,140.48 259.24,141.60 259.38,142.72 259.51,141.77 259.64,139.88 259.78,140.93 259.91,142.05 260.05,139.87 260.18,137.67 260.31,135.45 260.45,133.21 260.58,131.55 260.72,129.72 260.85,130.86 260.98,132.05 261.12,133.22 261.25,133.95 261.38,134.97 261.52,136.12 261.65,137.27 261.79,138.41 261.92,139.21 262.05,137.02 262.19,138.17 262.32,139.32 262.46,138.05 262.59,136.57 262.72,137.72 262.86,138.51 262.99,139.32 263.12,140.46 263.26,141.61 263.39,142.60 263.53,143.13 263.66,142.19 263.79,142.91 263.93,144.04 264.06,145.15 264.19,143.03 264.33,140.88 264.46,138.84 264.60,136.65 264.73,137.82 264.86,138.77 265.00,139.33 265.13,140.47 265.27,141.29 265.40,142.21 265.53,143.16 265.67,144.25 265.80,142.11 265.93,139.95 266.07,138.72 266.20,137.21 266.34,137.84 266.47,135.79 266.60,133.92 266.74,134.84 266.87,135.51 267.01,136.27 267.14,137.26 267.27,138.41 267.41,136.20 267.54,137.34 267.67,136.77 267.81,137.67 267.94,135.60 268.08,133.99 268.21,135.15 268.34,132.92 268.48,133.65 268.61,134.71 268.74,135.87 268.88,136.92 269.01,138.09 269.15,135.89 269.28,136.37 269.41,134.61 269.55,133.11 269.68,130.86 269.82,128.57 269.95,129.76 270.08,130.95 270.22,132.13 270.35,129.88 270.48,127.59 270.62,128.77 270.75,127.67 270.89,126.21 271.02,127.33 271.15,128.55 271.29,127.14 271.42,128.33 271.56,129.51 271.69,130.69 271.82,131.86 271.96,132.55 272.09,133.52 272.22,132.67 272.36,131.75 272.49,132.93 272.63,134.04 272.76,135.22 272.89,136.39 273.03,134.16 273.16,132.84 273.29,131.31 273.43,130.37 273.56,129.14 273.70,130.34 273.83,131.52 273.96,130.98 274.10,132.00 274.23,132.42 274.37,133.60 274.50,134.45 274.63,132.19 274.77,129.91 274.90,127.60 275.03,126.01 275.17,126.77 275.30,127.82 275.44,128.94 275.57,129.38 275.70,130.27 275.84,131.29 275.97,130.14 276.11,128.27 276.24,125.97 276.37,123.65 276.51,121.79 276.64,120.04 276.77,117.65 276.91,115.25 277.04,112.81 277.18,114.07 277.31,115.07 277.44,116.24 277.58,113.82 277.71,114.70 277.84,115.69 277.98,116.31 278.11,117.07 278.25,118.32 278.38,119.57 278.51,120.31 278.65,121.40 278.78,122.64 278.92,123.87 279.05,125.08 279.18,126.30 279.32,127.00 279.45,128.19 279.58,125.87 279.72,127.08 279.85,128.28 279.99,129.23 280.12,126.92 280.25,124.59 280.39,125.79 280.52,126.99 280.66,128.18 280.79,125.87 280.92,127.06 281.06,127.71 281.19,126.86 281.32,125.17 281.46,126.36 281.59,127.04 281.73,128.24 281.86,129.43 281.99,127.13 282.13,124.83 282.26,122.50 282.40,120.15 282.53,117.75 282.66,115.33 282.80,113.14 282.93,113.55 283.06,114.81 283.20,114.00 283.33,115.28 283.47,116.55 283.60,114.19 283.73,115.47 283.87,113.04 284.00,113.91 284.13,115.20 284.27,116.45 284.40,114.02 284.54,115.29 284.67,116.56 284.80,117.82 284.94,119.07 285.07,120.30 285.21,121.55 285.34,119.15 285.47,120.39 285.61,121.61 285.74,122.82 285.87,124.04 286.01,125.26 286.14,122.92 286.28,120.55 286.41,121.78 286.54,123.01 286.68,124.21 286.81,125.44 286.95,126.65 287.08,127.85 287.21,129.04 287.35,130.22 287.48,131.39 287.61,132.59 287.75,130.32 287.88,131.49 288.02,132.65 288.15,133.81 288.28,131.54 288.42,129.25 288.55,126.94 288.68,128.14 288.82,129.34 288.95,127.05 289.09,128.14 289.22,129.33 289.35,130.53 289.49,131.51 289.62,132.69 289.76,133.65 289.89,134.45 290.02,135.20 290.16,136.37 290.29,137.54 290.42,138.68 290.56,139.82 290.69,140.52 290.83,141.66 290.96,142.49 291.09,143.61 291.23,141.45 291.36,142.56 291.50,143.70 291.63,144.82 291.76,145.93 291.90,143.80 292.03,144.90 292.16,142.77 292.30,141.79 292.43,140.60 292.57,141.72 292.70,142.83 292.83,143.96 292.97,141.79 293.10,139.61 293.23,137.42 293.37,138.56 293.50,139.71 293.64,140.86 293.77,141.22 293.90,139.51 294.04,138.88 294.17,139.48 294.31,138.60 294.44,139.21 294.57,137.46 294.71,138.63 294.84,139.79 294.97,140.66 295.11,139.87 295.24,138.92 295.38,139.98 295.51,141.12 295.64,142.26 295.78,143.38 295.91,144.48 296.05,145.55 296.18,146.52 296.31,147.62 296.45,145.91 296.58,147.02 296.71,148.14 296.85,146.81 296.98,147.76 297.12,148.86 297.25,149.95 297.38,151.03 297.52,152.10 297.65,153.15 297.78,154.12 297.92,154.99 298.05,155.98 298.19,156.56 298.32,154.71 298.45,155.77 298.59,156.83 298.72,154.81 298.86,155.86 298.99,156.90 299.12,157.93 299.26,155.92 299.39,153.89 299.52,151.85 299.66,150.78 299.79,151.86 299.93,152.94 300.06,154.00 300.19,152.91 300.33,150.84 300.46,148.74 300.60,148.31 300.73,149.40 300.86,150.48 301.00,151.38 301.13,152.46 301.26,153.53 301.40,154.58 301.53,155.63 301.67,156.67 301.80,157.71 301.93,158.75 302.07,159.77 302.20,160.79 302.34,161.81 302.47,160.99 302.60,161.79 302.74,162.81 302.87,163.82 303.00,164.77 303.14,165.79 303.27,166.80 303.41,167.80 303.54,168.80 303.67,169.79 303.81,167.89 303.94,168.87 304.07,169.87 304.21,170.85 304.34,171.62 304.48,172.59 304.61,173.56 304.74,174.51 304.88,175.46 305.01,176.41 305.15,177.35 305.28,178.28 305.41,178.90 305.55,179.82 305.68,180.75 305.81,181.68 305.95,182.34 306.08,182.85 306.22,183.40 306.35,183.73 306.48,181.97 306.62,180.19 306.75,178.38 306.89,179.32 307.02,180.11 307.15,181.03 307.29,181.95 307.42,182.85 307.55,183.75 307.69,184.65 307.82,185.56 307.96,186.46 308.09,187.34 308.22,188.22 308.36,186.52 308.49,184.79 308.62,185.68 308.76,186.57 308.89,187.47 309.03,188.35 309.16,189.25 309.29,187.54 309.43,185.82 309.56,184.07 309.70,182.31 309.83,180.52 309.96,181.44 310.10,182.35 310.23,183.19 310.36,181.78 310.50,180.01 310.63,178.21 310.77,176.41 310.90,174.57 311.03,172.72 311.17,173.69 311.30,171.82 311.44,172.79 311.57,173.76 311.70,171.91 311.84,170.03 311.97,168.13 312.10,166.23 312.24,167.22 312.37,165.29 312.51,166.29 312.64,167.29 312.77,167.53 312.91,168.52 313.04,169.50 313.17,167.58 313.31,165.65 313.44,166.60 313.58,167.61 313.71,168.61 313.84,169.60 313.98,167.71 314.11,165.80 314.25,163.87 314.38,162.58 314.51,161.54 314.65,159.55 314.78,158.04 314.91,156.04 315.05,154.02 315.18,151.97 315.32,149.89 315.45,148.56 315.58,149.40 315.72,150.49 315.85,151.58 315.99,152.13 316.12,152.97 316.25,154.01 316.39,154.73 316.52,155.80 316.65,155.48 316.79,155.30 316.92,155.18 317.06,182.64 317.19,183.55 317.32,184.46 317.46,185.36 317.59,186.26 317.72,187.16 317.86,187.60 317.99,185.87 318.13,186.49 318.26,187.38 318.39,188.28 318.53,189.17 318.66,190.06 318.80,190.94 318.93,191.81 319.06,190.13 319.20,191.01 319.33,191.89 319.46,192.78 319.60,191.12 319.73,191.49 319.87,192.34 320.00,193.21 320.13,194.08 320.27,194.94 320.40,195.79 320.54,194.15 320.67,192.56 320.80,190.90 320.94,189.21 321.07,190.09 321.20,190.96 321.34,191.85 321.47,192.47 321.61,192.86 321.74,193.73 321.87,194.58 322.01,192.94 322.14,193.79 322.28,194.48 322.41,195.19 322.54,195.52 322.68,195.92 322.81,195.28 322.94,194.08 323.08,194.94 323.21,193.76 323.35,192.30 323.48,193.17 323.61,194.03 323.75,194.46 323.88,195.02 324.01,195.88 324.15,194.23 324.28,192.57 324.42,191.32 324.55,189.65 324.68,187.95 324.82,186.24 324.95,184.52 325.09,182.77 325.22,182.01 325.35,180.40 325.49,179.46 325.62,178.69 325.75,177.81 325.89,176.87 326.02,175.05 326.16,175.46 326.29,175.90 326.42,176.48 326.56,176.95 326.69,175.75 326.83,174.86 326.96,174.19 327.09,174.77 327.23,174.13 327.36,174.81 327.49,175.57 327.63,176.24 327.76,176.76 327.90,177.26 328.03,177.71 328.16,178.11 328.30,178.83 328.43,179.77 328.56,180.71 328.70,178.93 328.83,179.41 328.97,178.40 329.10,177.03 329.23,175.22 329.37,173.38 329.50,174.35 329.64,175.32 329.77,176.28 329.90,177.23 330.04,175.41 330.17,176.20 330.30,174.82 330.44,173.13 330.57,171.27 330.71,169.40 330.84,167.50 330.97,165.58 331.11,164.32 331.24,165.14 331.38,166.15 331.51,164.98 331.64,163.61 331.78,164.64 331.91,165.66 332.04,166.67 332.18,167.68 332.31,168.27 332.45,167.55 332.58,168.30 332.71,169.30 332.85,170.29 332.98,170.89 333.11,171.88 333.25,172.73 333.38,173.54 333.52,174.11 333.65,174.73 333.78,175.25 333.92,174.19 334.05,173.29 334.19,174.20 334.32,174.81 334.45,175.76 334.59,176.68 334.72,177.61 334.85,178.33 334.99,179.18 335.12,179.83 335.26,180.76 335.39,179.18 335.52,178.31 335.66,177.45 335.79,176.42 335.93,174.65 336.06,172.82 336.19,170.97 336.33,169.78 336.46,168.26 336.59,167.42 336.73,166.39 336.86,165.03 337.00,163.46 337.13,162.19 337.26,162.74 337.40,163.48 337.53,163.91 337.66,164.93 337.80,165.95 337.93,164.03 338.07,165.05 338.20,165.66 338.33,166.68 338.47,167.68 338.60,168.68 338.74,166.77 338.87,164.83 339.00,162.94 339.14,163.78 339.27,164.64 339.40,162.69 339.54,160.72 339.67,161.76 339.81,162.79 339.94,163.81 340.07,164.84 340.21,165.84 340.34,166.84 340.48,167.50 340.61,168.34 340.74,167.30 340.88,165.38 341.01,163.43 341.14,162.25 341.28,163.26 341.41,164.27 341.55,165.28 341.68,166.28 341.81,167.28 341.95,168.28 342.08,169.28 342.22,170.27 342.35,171.24 342.48,172.21 342.62,170.33 342.75,168.43 342.88,169.41 343.02,170.40 343.15,170.90 343.29,171.86 343.42,172.82 343.55,173.78 343.69,171.91 343.82,170.02 343.95,168.14 344.09,166.85 344.22,164.93 344.36,165.69 344.49,166.52 344.62,164.58 344.76,162.82 344.89,160.95 345.03,158.98 345.16,158.00 345.29,156.90 345.43,157.46 345.56,158.04 345.69,156.05 345.83,155.07 345.96,155.94 346.10,157.01 346.23,157.86 346.36,158.84 346.50,159.89 346.63,160.92 346.77,161.94 346.90,162.95 347.03,163.98 347.17,162.87 347.30,161.32 347.43,162.36 347.57,163.15 347.70,164.17 347.84,165.19 347.97,166.19 348.10,167.19 348.24,168.20 348.37,169.19 348.50,170.17 348.64,170.86 348.77,168.97 348.91,169.95 349.04,168.07 349.17,166.16 349.31,167.17 349.44,168.17 349.58,169.15 349.71,170.13 349.84,171.09 349.98,172.06 350.11,173.04 350.24,173.95 350.38,174.93 350.51,175.88 350.65,176.83 350.78,174.99 350.91,173.15 351.05,171.39 351.18,169.73 351.32,167.84 351.45,165.93 351.58,163.99 351.72,162.04 351.85,160.07 351.98,159.01 352.12,157.53 352.25,156.00 352.39,154.33 352.52,153.30 352.65,154.37 352.79,155.34 352.92,153.55 353.05,154.63 353.19,152.57 353.32,150.49 353.46,148.39 353.59,149.49 353.72,150.57 353.86,151.66 353.99,152.74 354.13,153.55 354.26,152.02 354.39,152.97 354.53,153.74 354.66,154.38 354.79,155.07 354.93,155.78 355.06,156.49 355.20,157.24 355.33,158.08 355.46,158.77 355.60,159.81 355.73,160.84 355.87,161.86 356.00,162.90 356.13,163.92 356.27,164.94 356.40,165.54 356.53,166.50 356.67,167.33 356.80,165.40 356.94,166.15 357.07,167.03 357.20,165.54 357.34,164.60 357.47,163.58 357.60,161.62 357.74,160.04 357.87,160.68 358.01,161.37 358.14,162.18 358.27,163.20 358.41,164.00 358.54,162.93 358.68,161.53 358.81,162.55 358.94,163.58 359.08,164.56 359.21,165.06 359.34,165.50 359.48,166.17 359.61,166.79 359.75,165.78 359.88,166.31 360.01,166.99 360.15,167.71 360.28,168.62 360.42,168.25 360.55,168.98 360.68,169.54 360.82,170.47 360.95,171.34 361.08,171.94 361.22,172.91 361.35,173.89 361.49,174.85 361.62,175.81 361.75,176.76 361.89,176.05 362.02,177.00 362.16,177.94 362.29,178.89 362.42,179.72 362.56,180.66 362.69,181.18 362.82,181.77 362.96,182.26 363.09,183.19 363.23,182.22 363.36,182.76 363.49,183.67 363.63,184.58 363.76,185.28 363.89,186.00 364.03,186.86 364.16,185.13 364.30,186.02 364.43,186.91 364.56,187.79 364.70,188.66 364.83,189.54 364.97,190.40 365.10,188.72 365.23,189.61 365.37,190.49 365.50,191.20 365.63,192.08 365.77,191.37 365.90,190.41 366.04,189.45 366.17,190.34 366.30,188.82 366.44,187.61 366.57,186.54 366.71,184.82 366.84,183.29 366.97,184.19 367.11,184.99 367.24,185.90 367.37,186.72 367.51,187.58 367.64,186.24 367.78,184.50 367.91,182.75 368.04,183.49 368.18,181.95 368.31,180.49 368.44,179.14 368.58,177.50 368.71,178.15 368.85,178.52 368.98,176.86 369.11,175.04 369.25,174.36 369.38,173.60 369.52,173.91 369.65,174.73 369.78,175.30 369.92,175.75 370.05,176.60 370.18,177.30 370.32,177.79 370.45,178.28 370.59,178.83 370.72,179.17 370.85,180.10 370.99,179.05 371.12,177.88 371.26,176.93 371.39,175.68 371.52,176.65 371.66,175.75 371.79,176.43 371.92,177.39 372.06,178.29 372.19,176.49 372.33,174.67 372.46,175.37 372.59,173.53 372.73,171.68 372.86,170.41 372.99,168.76 373.13,169.73 373.26,170.73 373.40,168.84 373.53,169.78 373.66,170.78 373.80,171.76 373.93,172.38 374.07,170.50 374.20,171.47 374.33,172.43 374.47,172.94 374.60,171.81 374.73,169.94 374.87,170.92 375.00,171.89 375.14,172.87 375.27,173.83 375.40,174.78 375.54,175.73 375.67,176.68 375.81,174.86 375.94,175.81 376.07,176.75 376.21,177.68 376.34,178.61 376.47,179.55 376.61,180.48 376.74,181.40 376.88,182.32 377.01,183.24 377.14,184.01 377.28,184.81 377.41,183.06 377.54,181.31 377.68,179.53 377.81,177.81 377.95,176.01 378.08,174.18 378.21,174.45 378.35,175.05 378.48,175.70 378.62,176.36 378.75,177.12 378.88,176.61 379.02,177.38 379.15,175.95 379.28,176.88 379.42,177.82 379.55,178.76 379.69,179.53 379.82,180.14 379.95,181.06 380.09,179.29 380.22,180.23 380.36,181.17 380.49,181.72 380.62,182.50 380.76,183.42 380.89,182.09 381.02,181.23 381.16,182.06 381.29,182.54 381.43,183.35 381.56,183.82 381.69,184.60 381.83,185.50 381.96,186.41 382.10,187.30 382.23,188.20 382.36,188.83 382.50,189.19 382.63,189.70 382.76,190.14 382.90,190.63 383.03,191.26 383.17,191.87 383.30,192.38 383.43,193.01 383.57,193.22 383.70,191.55 383.83,192.29 383.97,190.77 384.10,189.09 384.24,188.26 384.37,186.55 384.50,184.81 384.64,185.72 384.77,184.20 384.91,185.12 385.04,186.02 385.17,186.92 385.31,187.80 385.44,186.08 385.57,184.34 385.71,182.58 385.84,180.79 385.98,181.71 386.11,179.92 386.24,180.85 386.38,181.76 386.51,182.67 386.65,180.90 386.78,179.10 386.91,180.02 387.05,178.22 387.18,176.40 387.31,177.34 387.45,178.28 387.58,179.22 387.72,180.15 387.85,181.05 387.98,179.40 388.12,177.77 388.25,178.71 388.38,179.66 388.52,180.60 388.65,179.23 388.79,180.16 388.92,181.09 389.05,182.01 389.19,182.92 389.32,183.83 389.46,184.73 389.59,185.63 389.72,186.53 389.86,187.41 389.99,188.29 390.12,189.17 390.26,190.05 390.39,190.57 390.53,191.05 390.66,191.71 390.79,190.03 390.93,190.92 391.06,189.23 391.20,190.11 391.33,188.42 391.46,187.34 391.60,186.37 391.73,187.26 391.86,188.15 392.00,186.43 392.13,184.70 392.27,185.60 392.40,186.49 392.53,187.39 392.67,188.28 392.80,189.16 392.93,190.03 393.07,190.90 393.20,191.77 393.34,192.63 393.47,193.49 393.60,191.81 393.74,190.13 393.87,188.42 394.01,186.70 394.14,184.95 394.27,185.84 394.41,186.72 394.54,187.60 394.67,188.48 394.81,189.35 394.94,190.21 395.08,191.07 395.21,191.94 395.34,190.25 395.48,191.11 395.61,189.42 395.75,190.29 395.88,188.58 396.01,189.46 396.15,187.76 396.28,186.04 396.41,186.93 396.55,187.83 396.68,188.71 396.82,189.59 396.95,187.88 397.08,188.77 397.22,187.06 397.35,187.93 397.49,186.22 397.62,187.12 397.75,188.01 397.89,188.90 398.02,189.79 398.15,190.67 398.29,191.54 398.42,192.41 398.56,193.28 398.69,194.15 398.82,194.99 398.96,193.35 399.09,191.69 399.22,192.55 399.36,193.41 399.49,194.26 399.63,195.12 399.76,195.63 399.89,196.37 400.03,196.91 400.16,197.76 400.30,198.59 400.43,199.44 400.56,200.28 400.70,198.67 400.83,197.06 400.96,195.42 401.10,193.77 401.23,194.64 401.37,195.50 401.50,196.36 401.63,197.21 401.77,195.74 401.90,194.50 402.04,192.85 402.17,191.19 402.30,189.51 402.44,190.39 402.57,191.26 402.70,191.79 402.84,192.23 402.97,192.71 403.11,193.39 403.24,194.27 403.37,195.03 403.51,195.72 403.64,196.52 403.77,197.36 403.91,198.20 404.04,196.59 404.18,197.45 404.31,198.28 404.44,199.11 404.58,199.93 404.71,200.75 404.85,201.57 404.98,202.38 405.11,202.96 405.25,203.78 405.38,204.60 405.51,205.40 405.65,203.86 405.78,202.73 405.92,201.35 406.05,202.18 406.18,203.01 406.32,203.46 406.45,204.19 406.59,205.00 406.72,205.80 406.85,205.20 406.99,204.52 407.12,203.75 407.25,202.92 407.39,203.60 407.52,204.36 407.66,205.17 407.79,205.88 407.92,206.67 408.06,207.47 408.19,208.26 408.32,209.04 408.46,207.95 408.59,208.75 408.73,209.54 408.86,210.32 408.99,210.94 409.13,209.44 409.26,208.52 409.40,208.90 409.53,207.40 409.66,205.88 409.80,206.42 409.93,207.09 410.06,207.89 410.20,206.38 410.33,207.09 410.47,207.89 410.60,206.67 410.73,207.47 410.87,208.27 411.00,209.06 411.14,209.84 411.27,210.63 411.40,209.15 411.54,208.02 411.67,208.81 411.80,209.59 411.94,210.37 412.07,210.81 412.21,211.40 412.34,210.79 412.47,211.16 412.61,209.85 412.74,208.49 412.87,207.02 413.01,205.96 413.14,206.57 413.28,207.29 413.41,208.09 413.54,206.58 413.68,205.06 413.81,203.53 413.95,202.17 414.08,201.29 414.21,202.10 414.35,202.83 414.48,203.66 414.61,203.95 414.75,204.41 414.88,204.77 415.02,205.08 415.15,205.49 415.28,205.90 415.42,206.34 415.55,206.73 415.69,207.20 415.82,207.72 415.95,208.50 416.09,206.99 416.22,207.77 416.35,206.24 416.49,204.70 416.62,205.15 416.76,205.77 416.89,206.57 417.02,206.92 417.16,205.44 417.29,204.67 417.43,204.12 417.56,202.56 417.69,201.09 417.83,201.68 417.96,202.28 418.09,202.69 418.23,203.24 418.36,204.06 418.50,204.87 418.63,205.38 418.76,204.98 418.90,205.79 419.03,206.42 419.16,206.93 419.30,207.39 419.43,206.22 419.57,205.57 419.70,204.72 419.83,203.34 419.97,204.16 420.10,204.96 420.24,205.77 420.37,206.56 420.50,205.03 420.64,205.82 420.77,206.61 420.90,207.08 421.04,206.36 421.17,206.74 421.31,206.22 421.44,205.63 421.57,204.96 421.71,205.29 421.84,203.75 421.98,204.56 422.11,205.36 422.24,206.15 422.38,206.94 422.51,205.42 422.64,204.66 422.78,205.46 422.91,206.03 423.05,206.36 423.18,206.88 423.31,206.18 423.45,205.62 423.58,204.09 423.71,202.54 423.85,203.04 423.98,203.70 424.12,202.15 424.25,201.73 424.38,201.34 424.52,201.67 424.65,202.49 424.79,202.77 424.92,201.69 425.05,201.95 425.19,202.25 425.32,202.70 425.45,203.06 425.59,203.86 425.72,204.66 425.86,205.47 425.99,205.86 426.12,206.45 426.26,206.03 426.39,205.47 426.53,204.34 426.66,205.15 426.79,205.91 426.93,204.89 427.06,203.77 427.19,203.02 427.33,203.83 427.46,202.46 427.60,200.89 427.73,201.18 427.86,201.56 428.00,200.30 428.13,201.06 428.26,201.85 428.40,201.06 428.53,201.70 428.67,202.53 428.80,202.90 428.93,202.02 429.07,202.69 429.20,203.52 429.34,203.98 429.47,204.78 429.60,205.58 429.74,204.03 429.87,204.85 430.00,205.66 430.14,206.09 430.27,206.88 430.41,207.67 430.54,208.47 430.67,209.25 430.81,207.75 430.94,206.22 431.08,207.02 431.21,207.51 431.34,207.94 431.48,208.35 431.61,208.90 431.74,208.12 431.88,206.76 432.01,207.55 432.15,208.35 432.28,206.91 432.41,205.39 432.55,206.19 432.68,206.46 432.81,207.26 432.95,208.04 433.08,207.40 433.22,206.86 433.35,206.27 433.48,205.88 433.62,205.47 433.75,204.89 433.89,205.35 434.02,206.00 434.15,205.49 434.29,203.95 434.42,202.39 434.55,200.82 434.69,201.41 434.82,202.07 434.96,202.89 435.09,203.70 435.22,204.52 435.36,205.31 435.49,206.11 435.63,206.90 435.76,207.70 435.89,208.48 436.03,209.25 436.16,209.73 436.29,208.22 436.43,206.71 436.56,205.19 436.70,205.98 436.83,204.59 436.96,205.39 437.10,206.18 437.23,206.98 437.37,207.78 437.50,208.57 437.63,209.35 437.77,210.14 437.90,208.65 438.03,209.42 438.17,210.19 438.30,210.96 438.44,211.73 438.57,210.25 438.70,208.74 438.84,207.22 438.97,205.69 439.10,204.15 439.24,203.27 439.37,204.09 439.51,204.91 439.64,205.57 439.77,206.38 439.91,207.18 440.04,207.98 440.18,208.56 440.31,209.00 440.44,209.54 440.58,210.14 440.71,210.92 440.84,210.20 440.98,210.97 441.11,211.76 441.25,212.53 441.38,213.21 441.51,213.98 441.65,214.74 441.78,213.44 441.92,214.20 442.05,214.96 442.18,215.72 442.32,216.47 442.45,217.21 442.58,217.88 442.72,216.45 442.85,217.19 442.99,215.77 443.12,214.84 443.25,213.39 443.39,211.93 443.52,210.85 443.65,210.19 443.79,209.24 443.92,208.18 444.06,207.46 444.19,206.74 444.32,205.79 444.46,206.09 444.59,204.58 444.73,203.66 444.86,204.47 444.99,205.27 445.13,206.08 445.26,206.63 445.39,205.25 445.53,206.05 445.66,206.86 445.80,207.66 445.93,208.15 446.06,208.87 446.20,209.66 446.33,210.19 446.47,210.88 446.60,211.66 446.73,212.24 446.87,212.70 447.00,213.17 447.13,212.08 447.27,211.21 447.40,211.99 447.54,210.90 447.67,211.67 447.80,210.80 447.94,210.09 448.07,210.86 448.20,209.36 448.34,210.14 448.47,210.91 448.61,211.68 448.74,212.45 448.87,213.22 449.01,213.89 449.14,214.55 449.28,213.17 449.41,213.85 449.54,214.61 449.68,215.37 449.81,214.75 449.94,215.32 450.08,216.02 450.21,216.77 450.35,215.50 450.48,215.81 450.61,214.37 450.75,215.13 450.88,215.89 451.02,216.26 451.15,216.96 451.28,217.71 451.42,218.45 451.55,217.03 451.68,217.76 451.82,218.51 451.95,219.23 452.09,219.95 452.22,220.68 452.35,221.27 452.49,221.79 452.62,222.29 452.75,220.92 452.89,221.62 453.02,222.35 453.16,223.06 453.29,223.33 453.42,224.05 453.56,224.75 453.69,225.46 453.83,226.16 453.96,226.86 454.09,227.55 454.23,228.23 454.36,228.92 454.49,229.59 454.63,228.62 454.76,229.31 454.90,229.70 455.03,230.00 455.16,228.87 455.30,227.56 455.43,226.24 455.57,224.90 455.70,225.51 455.83,226.05 455.97,224.70 456.10,225.39 456.23,226.09 456.37,226.78 456.50,227.48 456.64,228.16 456.77,228.84 456.90,227.53 457.04,226.21 457.17,224.86 457.31,223.51 457.44,222.14 457.57,222.84 457.71,223.55 457.84,222.18 457.97,220.81 458.11,219.42 458.24,218.02 458.38,216.60 458.51,215.16 458.64,213.71 458.78,212.24 458.91,212.97 459.04,213.72 459.18,214.34 459.31,215.05 459.45,214.45 459.58,213.00 459.71,211.53 459.85,212.30 459.98,212.91 460.12,213.67 460.25,214.42 460.38,215.18 460.52,215.93 460.65,214.68 460.78,213.23 460.92,211.76 461.05,210.28 461.19,208.79 461.32,207.27 461.45,205.79 461.59,206.59 461.72,207.38 461.86,208.17 461.99,206.65 462.12,205.11 462.26,205.91 462.39,204.93 462.52,205.74 462.66,206.54 462.79,207.33 462.93,205.80 463.06,204.24 463.19,205.05 463.33,205.86 463.46,204.55 463.59,203.40 463.73,201.85 463.86,202.52 464.00,203.17 464.13,201.62 464.26,200.10 464.40,198.51 464.53,197.19 464.67,196.22 464.80,194.60 464.93,192.95 465.07,192.16 465.20,190.49 465.33,189.12 465.47,189.89 465.60,188.60 465.74,187.99 465.87,188.56 466.00,189.39 466.14,190.29 466.27,189.92 466.41,189.66 466.54,189.45 466.67,182.64 466.81,183.54 466.94,184.43 467.07,185.33 467.21,183.57 467.34,184.49 467.48,185.38 467.61,186.27 467.74,187.15 467.88,188.03 468.01,188.90 468.14,189.77 468.28,190.64 468.41,188.93 468.55,187.21 468.68,188.09 468.81,188.97 468.95,189.86 469.08,190.73 469.22,191.59 469.35,192.45 469.48,193.30 469.62,191.62 469.75,189.94 469.88,188.25 470.02,186.52 470.15,184.77 470.29,183.01 470.42,181.23 470.55,179.43 470.69,180.35 470.82,181.26 470.96,179.47 471.09,177.66 471.22,175.84 471.36,174.00 471.49,172.13 471.62,170.25 471.76,168.35 471.89,166.42 472.03,164.48 472.16,162.51 472.29,160.52 472.43,161.54 472.56,159.54 472.69,157.52 472.83,155.48 472.96,153.42 473.10,151.35 473.23,152.40 473.36,150.33 473.50,151.40 473.63,152.46 473.77,150.38 473.90,151.44 474.03,152.50 474.17,153.56 474.30,154.60 474.43,152.54 474.57,150.47 474.70,148.38 474.84,146.26 474.97,147.35 475.10,148.43 475.24,146.31 475.37,147.40 475.51,148.48 475.64,149.56 475.77,150.62 475.91,151.68 476.04,152.74 476.17,153.79 476.31,154.84 476.44,155.88 476.58,156.92 476.71,157.95 476.84,158.98 476.98,160.00 477.11,157.99 477.25,159.02 477.38,160.04 477.51,161.06 477.65,162.07 477.78,163.08 477.91,164.10 478.05,165.10 478.18,166.09 478.32,167.08 478.45,165.15 478.58,163.20 478.72,161.23 478.85,162.26 478.98,163.27 479.12,164.27 479.25,165.26 479.39,163.33 479.52,161.37 479.65,162.39 479.79,163.40 479.92,164.40 480.06,165.39 480.19,163.44 480.32,164.45 480.46,165.45 480.59,166.44 480.72,167.42 480.86,168.41 480.99,169.39 481.13,170.36 481.26,171.33 481.39,172.29 481.53,173.26 481.66,171.38 481.80,169.49 481.93,167.58 482.06,165.64 482.20,163.69 482.33,161.72 482.46,159.73 482.60,157.74 482.73,155.72 482.87,153.66 483.00,151.59 483.13,149.51 483.27,147.39 483.40,145.25 483.53,143.10 483.67,140.93 483.80,142.04 483.94,139.85 484.07,137.64 484.20,135.41 484.34,133.15 484.47,134.31 484.61,135.46 484.74,136.60 484.87,137.73 485.01,138.86 485.14,139.98 485.27,141.09 485.41,142.20 485.54,140.01 485.68,141.15 485.81,142.26 485.94,143.36 486.08,141.19 486.21,138.99 486.35,140.11 486.48,141.22 486.61,142.33 486.75,143.43 486.88,141.26 487.01,142.36 487.15,143.46 487.28,144.56 487.42,145.65 487.55,146.74 487.68,147.82 487.82,148.90 487.95,149.97 488.08,151.03 488.22,152.09 488.35,153.15 488.49,154.22 488.62,152.15 488.75,150.07 488.89,147.96 489.02,145.83 489.16,143.68 489.29,144.77 489.42,145.86 489.56,146.95 489.69,148.03 489.82,149.11 489.96,146.99 490.09,148.08 490.23,149.16 490.36,150.23 490.49,151.30 490.63,152.36 490.76,150.27 490.90,151.34 491.03,152.41 491.16,153.47 491.30,154.53 491.43,155.58 491.56,156.64 491.70,157.67 491.83,158.70 491.97,159.72 492.10,160.74 492.23,161.75 492.37,162.76 492.50,160.79 492.63,158.80 492.77,159.83 492.90,160.84 493.04,161.86 493.17,162.86 493.30,163.88 493.44,164.87 493.57,165.86 493.71,166.85 493.84,167.83 493.97,168.81 494.11,169.78 494.24,167.87 494.37,168.85 494.51,166.93 494.64,165.01 494.78,163.04 494.91,161.07 495.04,159.07 495.18,160.09 495.31,161.11 495.45,162.12 495.58,163.12 495.71,164.12 495.85,165.12 495.98,166.12 496.11,164.17 496.25,162.20 496.38,163.20 496.52,164.20 496.65,165.20 496.78,166.19 496.92,167.19 497.05,165.25 497.19,166.24 497.32,167.23 497.45,165.30 497.59,163.34 497.72,161.36 497.85,159.38 497.99,160.39 498.12,161.40 498.26,162.41 498.39,160.43 498.52,158.45 498.66,156.44 498.79,157.47 498.92,158.50 499.06,156.48 499.19,154.45 499.33,152.39 499.46,153.45 499.59,154.51 499.73,152.44 499.86,150.35 500.00,151.42 500.13,152.48 500.26,153.53 500.40,154.57 500.53,155.61 500.66,156.67 500.80,157.72 500.93,155.69 501.07,156.74 501.20,157.77 501.33,158.80 501.47,156.79 501.60,154.77 501.74,155.81 501.87,156.85 502.00,157.89 502.14,158.93 502.27,159.96 502.40,160.99 502.54,162.01 502.67,163.03 502.81,164.05 502.94,165.06 503.07,166.06 503.21,167.07 503.34,165.14 503.47,163.20 503.61,161.23 503.74,162.25 503.88,163.26 504.01,164.28 504.14,165.29 504.28,166.28 504.41,167.27 504.55,168.26 504.68,169.24 504.81,167.32 504.95,168.30 505.08,169.27 505.21,170.24 505.35,168.34 505.48,166.42 505.62,164.48 505.75,162.52 505.88,160.53 506.02,158.53 506.15,159.55 506.29,160.57 506.42,161.60 506.55,159.62 506.69,160.63 506.82,161.64 506.95,162.66 507.09,163.67 507.22,164.67 507.36,162.71 507.49,163.72 507.62,161.75 507.76,162.76 507.89,160.77 508.02,158.76 508.16,156.74 508.29,154.70 508.43,152.64 508.56,150.55 508.69,148.44 508.83,146.32 508.96,147.40 509.10,145.27 509.23,146.36 509.36,147.44 509.50,145.31 509.63,143.15 509.76,140.97 509.90,142.08 510.03,143.19 510.17,144.29 510.30,145.38 510.43,146.47 510.57,144.33 510.70,145.43 510.84,146.53 510.97,144.39 511.10,145.48 511.24,146.57 511.37,147.65 511.50,148.72 511.64,146.61 511.77,144.47 511.91,145.56 512.04,143.41 512.17,141.24 512.31,139.04 512.44,136.82 512.57,137.96 512.71,139.11 512.84,140.24 512.98,141.36 513.11,142.50 513.24,143.63 513.38,141.46 513.51,139.29 513.65,137.08 513.78,134.86 513.91,132.60 514.05,130.31 514.18,128.00 514.31,125.68 514.45,126.87 514.58,128.06 514.72,125.73 514.85,123.38 514.98,121.00 515.12,118.61 515.25,119.84 515.39,121.06 515.52,122.28 515.65,123.49 515.79,121.12 515.92,118.72 516.05,116.31 516.19,113.87 516.32,111.40 516.46,108.91 516.59,106.39 516.72,107.67 516.86,105.13 516.99,102.57 517.13,99.99 517.26,101.30 517.39,98.71 517.53,100.04 517.66,101.36 517.79,102.67 517.93,103.99 518.06,105.30 518.20,102.74 518.33,100.15 518.46,97.56 518.60,94.93 518.73,92.28 518.86,89.61 519.00,90.99 519.13,88.30 519.27,85.57 519.40,82.82 519.53,80.04 519.67,77.24 519.80,74.41 519.94,71.55 520.07,68.65 520.20,65.73 520.34,62.78 520.47,64.28 520.60,65.78 520.74,62.83 520.87,64.34 521.01,65.83 521.14,67.33 521.27,68.83 521.41,70.30 521.54,71.76 521.68,73.22 521.81,74.68 521.94,76.13 522.08,77.57 522.21,74.74 522.34,71.88 522.48,73.34 522.61,74.79 522.75,76.23 522.88,77.66 523.01,79.10 523.15,80.53 523.28,81.94 523.41,83.36 523.55,84.76 523.68,86.17 523.82,87.55 523.95,88.93 524.08,90.29 524.22,87.59 524.35,88.98 524.49,90.36 524.62,91.73 524.75,89.05 524.89,86.35 525.02,83.61 525.15,80.85 525.29,78.05 525.42,75.23 525.56,76.70 525.69,78.15 525.82,75.33 525.96,72.49 526.09,73.95 526.23,75.40 526.36,76.84 526.49,78.28 526.63,79.71 526.76,81.13 526.89,78.34 527.03,79.76 527.16,81.18 527.30,82.59 527.43,84.00 527.56,81.24 527.70,82.65 527.83,84.07 527.96,85.47 528.10,86.88 528.23,88.28 528.37,89.66 528.50,86.95 528.63,84.21 528.77,81.46 528.90,78.68 529.04,75.87 529.17,73.04 529.30,70.18 529.44,71.64 529.57,68.76 529.70,65.85 529.84,67.34 529.97,64.41 530.11,65.67 530.24,67.16 530.37,68.63 530.51,65.73 530.64,62.79 530.78,64.31 530.91,65.80 531.04,67.29 531.18,68.78 531.31,70.29 531.44,71.76 531.58,73.24 531.71,70.37 531.85,67.47 531.98,64.54 532.11,61.57 532.25,58.60 532.38,60.14 532.51,61.69 532.65,58.71 532.78,55.69 532.92,52.64 533.05,49.57 533.18,46.45 533.32,43.31 533.45,40.13 533.59,36.92 533.72,33.69 533.85,35.34 533.99,36.97 534.12,38.61 534.25,40.23 534.39,37.02 534.52,33.78 534.66,30.51 534.79,32.17 534.92,33.28 535.06,30.00 535.19,31.67 535.33,33.32 535.46,34.97 535.59,36.61 535.73,38.24 535.86,39.88 535.99,41.50 536.13,43.11 536.26,44.71 536.40,46.31 536.53,47.89 536.66,49.47 536.80,51.03 536.93,52.60 537.07,54.16 537.20,51.09 537.33,47.99 537.47,44.86 537.60,46.46 537.73,48.05 537.87,49.63 538.00,46.52 538.14,43.41 538.27,40.23 538.40,41.84 538.54,43.45 538.67,40.29 538.80,41.90 538.94,43.52 539.07,40.37 539.21,41.99 539.34,43.60 539.47,45.19 539.61,46.79 539.74,48.37 539.88,49.96 540.01,51.53 540.14,53.09 540.28,54.65 540.41,51.59 540.54,53.14 540.68,50.08 540.81,51.64 540.95,53.20 541.08,54.75 541.21,56.29 541.35,57.82 541.48,59.34 541.62,56.32 541.75,57.85 541.88,59.38 542.02,56.36 542.15,53.32 542.28,54.87 542.42,56.41 542.55,57.93 542.69,59.46 542.82,60.97 542.95,62.48 543.09,63.98 543.22,65.48 543.35,66.96 543.49,64.02 543.62,65.51 543.76,67.00 543.89,68.48 544.02,69.95 544.16,71.42 544.29,72.88 544.43,74.33 544.56,75.78 544.69,77.21 544.83,74.38 544.96,71.52 545.09,68.64 545.23,65.73 545.36,67.21 545.50,68.69 545.63,70.16 545.76,71.64 545.90,68.76 546.03,65.84 546.17,67.33 546.30,68.81 546.43,70.29 546.57,71.76 546.70,68.88 546.83,70.35 546.97,71.82 547.10,73.28 547.24,74.74 547.37,76.20 547.50,77.64 547.64,79.08 547.77,80.50 547.90,81.41 548.04,82.82 548.17,84.22 548.31,85.62 548.44,87.01 548.57,88.39 548.71,89.76 548.84,91.12 548.98,92.49 549.11,93.84 549.24,95.20 549.38,96.56 549.51,97.91 549.64,95.27 549.78,92.62 549.91,89.94 550.05,87.24 550.18,84.50 550.31,81.73 550.45,78.94 550.58,76.12 550.72,73.28 550.85,74.73 550.98,76.17 551.12,77.61 551.25,79.04 551.38,80.46 551.52,81.88 551.65,83.32 551.79,84.72 551.92,86.11 552.05,87.50 552.19,88.88 552.32,90.25 552.46,91.62 552.59,92.99 552.72,94.34 552.86,95.68 552.99,97.02 553.12,98.36 553.26,99.72 553.39,101.04 553.53,102.36 553.66,103.68 553.79,101.11 553.93,102.43 554.06,103.73 554.19,105.03 554.33,106.32 554.46,103.78 554.60,105.08 554.73,106.38 554.86,107.66 555.00,105.13 555.13,102.57 555.27,99.98 555.40,101.29 555.53,98.70 555.67,96.07 555.80,93.43 555.93,94.77 556.07,92.12 556.20,89.43 556.34,90.80 556.47,88.10 556.60,85.38 556.74,86.77 556.87,88.16 557.01,89.54 557.14,90.91 557.27,92.27 557.41,89.59 557.54,90.96 557.67,92.33 557.81,93.69 557.94,95.04 558.08,96.38 558.21,97.72 558.34,95.09 558.48,92.43 558.61,89.75 558.74,87.04 558.88,84.30 559.01,81.54 559.15,78.76 559.28,75.95 559.41,73.10 559.55,74.56 559.68,76.02 559.82,77.46 559.95,78.90 560.08,76.09 560.22,73.25 560.35,74.70 560.48,76.14 560.62,77.57 560.75,79.00 560.89,80.42 561.02,81.84 561.15,83.26 561.29,84.68 561.42,86.08 561.56,87.48 561.69,84.78 561.82,82.04 561.96,79.27 562.09,76.47 562.22,73.63 562.36,70.77 562.49,72.24 562.63,73.73 562.76,75.20 562.89,76.65 563.03,73.82 563.16,70.95 563.29,68.06 563.43,69.55 563.56,71.04 563.70,72.52 563.83,73.97 563.96,71.13 564.10,72.60 564.23,74.07 564.37,71.24 564.50,72.71 564.63,74.17 564.77,75.63 564.90,77.08 565.03,78.52 565.17,75.71 565.30,72.88 565.44,74.33 565.57,75.77 565.70,77.25 565.84,74.42 565.97,75.88 566.11,73.04 566.24,70.17 566.37,67.28 566.51,64.35 566.64,65.85 566.77,67.34 566.91,68.82 567.04,70.31 567.18,71.79 567.31,73.25 567.44,74.72 567.58,71.88 567.71,73.37 567.84,74.83 567.98,76.29 568.11,73.47 568.25,70.62 568.38,67.72 568.51,65.35 568.65,62.40 568.78,59.42 568.92,60.95 569.05,62.47 569.18,63.99 569.32,65.52 569.45,62.60 569.58,64.14 569.72,65.65 569.85,67.14 569.99,64.22 570.12,65.71 570.25,67.21 570.39,64.29 570.52,61.33 570.66,62.84 570.79,64.38 570.92,61.45 571.06,58.48 571.19,60.02 571.32,57.03 571.46,53.99 571.59,55.56 571.73,57.10 571.86,54.07 571.99,55.63 572.13,57.18 572.26,58.73 572.40,60.26 572.53,61.79 572.66,63.32 572.80,64.84 572.93,61.88 573.06,58.90 573.20,60.43 573.33,61.96 573.47,58.98 573.60,55.96 573.73,52.92 573.87,49.83 574.00,46.72 574.13,48.30 574.27,49.88 574.40,51.45 574.54,48.36 574.67,49.94 574.80,51.51 574.94,53.08 575.07,50.01 575.21,51.58 575.34,53.17 575.47,54.72 575.61,56.27 575.74,57.82 575.87,59.36 576.01,60.89 576.14,57.89 576.28,59.42 576.41,60.94 576.54,62.45 576.68,63.98 576.81,61.01 576.95,62.52 577.08,64.03 577.21,61.07 577.35,58.10 577.48,59.63 577.61,61.14 577.75,62.65 577.88,64.15 578.02,65.66 578.15,67.16 578.28,68.66 578.42,65.75 578.55,62.80 578.68,59.83 578.82,61.35 578.95,58.35 579.09,59.88 579.22,61.39 579.35,62.93 579.49,64.44 579.62,65.95 579.76,67.43 579.89,64.50 580.02,66.00 580.16,67.49 580.29,69.00 580.42,70.47 580.56,71.94 580.69,73.41 580.83,74.85 580.96,72.01 581.09,73.48 581.23,74.95 581.36,72.12 581.50,69.25 581.63,66.34 581.76,67.83 581.90,69.32 582.03,70.81 582.16,72.27 582.30,73.72 582.43,70.86 582.57,67.98 582.70,69.45 582.83,70.92 582.97,72.40 583.10,73.86 583.23,71.01 583.37,68.11 583.50,69.59 583.64,66.68 583.77,63.76 583.90,65.28 584.04,66.80 584.17,68.32 584.31,69.83 584.44,71.30 584.57,72.75 584.71,74.21 584.84,71.35 584.97,72.81 585.11,74.27 585.24,75.72 585.38,77.15 585.51,78.58 585.64,80.01 585.78,81.43 585.91,82.85 586.05,84.24 586.18,85.64 586.31,82.89 586.45,80.11 586.58,81.54 586.71,82.95 586.85,80.20 586.98,77.41 587.12,74.59 587.25,71.74 587.38,73.21 587.52,74.67 587.65,76.14 587.78,77.58 587.92,79.03 588.05,80.45 588.19,81.87 588.32,83.28 588.45,80.50 588.59,81.95 588.72,83.36 588.86,84.78 588.99,86.19 589.12,87.58 589.26,88.96 589.39,90.33 589.52,91.71 589.66,93.07 589.79,94.42 589.93,95.77 590.06,97.11 590.19,98.44 590.33,99.77 590.46,101.11 590.60,102.44 590.73,103.76 590.86,105.07 591.00,102.52 591.13,99.97 591.26,97.36 591.40,94.73 591.53,92.09 591.67,89.43 591.80,90.80 591.93,88.12 592.07,85.41 592.20,82.67 592.34,84.10 592.47,85.54 592.60,86.96 592.74,88.34 592.87,85.62 593.00,82.86 593.14,80.08 593.27,81.51 593.41,82.93 593.54,80.20 593.67,77.40 593.81,78.83 593.94,80.26 594.07,81.69 594.21,83.10 594.34,84.54 594.48,82.22 594.61,79.46 594.74,76.65 594.88,78.09 595.01,79.52 595.15,80.98 595.28,78.22 595.41,79.64 595.55,81.06 595.68,82.48 595.81,79.74 595.95,76.93 596.08,74.09 596.22,71.26 596.35,68.59 596.48,70.10 596.62,71.59 596.75,73.09 596.89,74.55 597.02,71.68 597.15,73.14 597.29,74.60 597.42,76.04 597.55,77.48 597.69,74.66 597.82,71.82 597.96,73.28 598.09,70.41 598.22,67.53 598.36,69.01 598.49,66.11 598.62,67.60 598.76,69.08 598.89,66.18 599.03,63.25 599.16,64.75 599.29,66.25 599.43,67.77 599.56,64.84 599.70,61.89 599.83,58.91 599.96,60.43 600.10,61.96 600.23,63.47 600.36,60.51 600.50,57.52 600.63,59.05 600.77,60.57 600.90,62.10 601.03,63.64 601.17,65.15 601.30,62.22 601.44,59.25 601.57,60.77 601.70,62.28 601.84,59.31 601.97,56.30 602.10,57.85 602.24,59.39 602.37,60.92 602.51,62.46 602.64,63.98 602.77,65.48 602.91,66.60 603.04,64.02 603.17,62.03 603.31,59.39 603.44,56.39 603.58,57.93 603.71,59.46 603.84,60.99 603.98,62.52 604.11,59.55 604.25,61.07 604.38,62.59 604.51,64.10 604.65,61.14 604.78,58.15 604.91,55.13 605.05,52.09 605.18,49.01 605.32,45.90 605.45,42.77 605.58,39.60 605.72,41.24 605.85,42.86 605.99,44.46 606.12,46.06 606.25,47.65 606.39,49.24 606.52,50.81 606.65,47.72 606.79,49.31 606.92,50.90 607.06,52.47 607.19,54.03 607.32,55.58 607.46,57.15 607.59,58.69 607.72,55.69 607.86,52.64 607.99,49.59 608.13,46.47 608.26,43.33 608.39,40.16 608.53,36.96 608.66,33.72 608.80,35.38 608.93,37.02 609.06,38.66 609.20,40.33 609.33,41.75 609.46,43.35 609.60,42.54 609.73,40.69 609.87,38.92 610.00,38.39" fill="none" stroke="#2563eb" stroke-width="1.5"/><text x="30" y="252" font-size="11" fill="#555">min 73542.44 / max 185270.26</text></svg>
