<svg xmlns="http://www.w3.org/2000/svg" width="640" height="260" viewBox="0 0 640 260"><rect width="640" height="260" fill="white"/><text x="30" y="22" font-size="14" fill="#111">M10-PA-012 5m baseline equity</text><line x1="30" y1="230" x2="610" y2="230" stroke="#ccc"/><line x1="30" y1="30" x2="30" y2="230" stroke="#ccc"/><polyline points="30.00,221.01 30.30,217.04 30.61,219.07 30.91,221.11 31.22,217.15 31.52,219.18 31.83,221.20 32.13,223.22 32.44,225.22 32.74,221.29 33.05,223.30 33.35,219.35 33.66,221.37 33.96,217.40 34.27,219.42 34.57,221.45 34.88,223.45 35.18,219.50 35.49,221.51 35.79,223.52 36.10,219.57 36.40,221.59 36.71,223.60 37.01,219.66 37.31,221.67 37.62,223.68 37.92,219.74 38.23,215.76 38.53,217.81 38.84,219.84 39.14,215.87 39.45,217.90 39.75,213.90 40.06,209.86 40.36,211.93 40.67,213.98 40.97,216.03 41.28,218.06 41.58,220.09 41.89,216.12 42.19,212.10 42.50,214.16 42.80,210.11 43.11,212.18 43.41,208.12 43.72,210.21 44.02,206.13 44.32,208.22 44.63,204.12 44.93,199.97 45.24,202.08 45.54,204.19 45.85,206.28 46.15,208.37 46.46,210.45 46.76,212.51 47.07,208.44 47.37,204.35 47.68,206.45 47.98,208.54 48.29,204.44 48.59,206.53 48.90,202.41 49.20,198.25 49.51,200.37 49.81,202.48 50.12,204.59 50.42,206.68 50.73,202.57 51.03,198.41 51.33,200.53 51.64,202.64 51.94,198.48 52.25,200.59 52.55,202.70 52.86,198.54 53.16,194.33 53.47,196.47 53.77,198.60 54.08,194.39 54.38,190.14 54.69,185.87 54.99,181.54 55.30,177.18 55.60,179.41 55.91,181.64 56.21,183.86 56.52,179.53 56.82,181.75 57.13,177.38 57.43,179.60 57.74,175.22 58.04,170.78 58.34,166.31 58.65,168.58 58.95,170.85 59.26,173.11 59.56,175.35 59.87,177.60 60.17,179.82 60.48,182.04 60.78,184.24 61.09,186.44 61.39,188.63 61.70,190.81 62.00,192.98 62.31,195.13 62.61,197.29 62.92,199.44 63.22,201.56 63.53,197.39 63.83,193.19 64.14,195.34 64.44,191.11 64.75,186.83 65.05,182.52 65.35,178.18 65.66,173.78 65.96,176.04 66.27,178.27 66.57,173.88 66.88,176.13 67.18,178.36 67.49,180.60 67.79,182.81 68.10,185.03 68.40,187.22 68.71,182.92 69.01,185.14 69.32,187.33 69.62,189.51 69.93,185.23 70.23,180.90 70.54,176.55 70.84,178.79 71.15,181.02 71.45,176.65 71.76,178.89 72.06,174.51 72.36,176.76 72.67,172.36 72.97,167.90 73.28,163.40 73.58,165.70 73.89,167.98 74.19,163.47 74.50,165.77 74.80,168.06 75.11,170.35 75.41,165.87 75.72,168.17 76.02,170.45 76.33,172.73 76.63,168.29 76.94,170.57 77.24,166.10 77.55,168.39 77.85,170.68 78.16,166.20 78.46,168.49 78.77,170.77 79.07,173.04 79.37,168.59 79.68,170.88 79.98,173.14 80.29,175.40 80.59,177.63 80.90,179.88 81.20,175.49 81.51,177.73 81.81,179.96 82.12,175.57 82.42,171.14 82.73,166.67 83.03,168.95 83.34,164.46 83.64,166.76 83.95,162.26 84.25,157.70 84.56,160.03 84.86,162.36 85.17,157.81 85.47,160.13 85.78,162.43 86.08,157.88 86.38,160.21 86.69,162.53 86.99,157.98 87.30,153.37 87.60,148.73 87.91,144.04 88.21,146.46 88.52,148.84 88.82,151.21 89.13,146.54 89.43,141.84 89.74,137.08 90.04,139.52 90.35,134.74 90.65,129.90 90.96,132.36 91.26,134.82 91.57,129.98 91.87,132.44 92.18,127.58 92.48,130.05 92.79,132.52 93.09,134.97 93.39,137.41 93.70,139.84 94.00,142.25 94.31,144.66 94.61,147.06 94.92,142.35 95.22,144.75 95.53,147.15 95.83,149.53 96.14,151.91 96.44,154.28 96.75,149.64 97.05,152.01 97.36,147.35 97.66,142.65 97.97,145.05 98.27,147.44 98.58,142.74 98.88,137.97 99.19,133.16 99.49,135.61 99.80,130.78 100.10,133.25 100.40,135.70 100.71,130.87 101.01,133.34 101.32,128.49 101.62,130.96 101.93,133.42 102.23,135.88 102.54,138.32 102.84,133.52 103.15,135.98 103.45,138.42 103.76,140.85 104.06,136.09 104.37,138.53 104.67,140.97 104.98,136.21 105.28,138.66 105.59,141.11 105.89,143.53 106.20,138.78 106.50,141.20 106.81,143.63 107.11,146.03 107.41,148.42 107.72,150.81 108.02,153.18 108.33,148.54 108.63,143.87 108.94,146.30 109.24,148.69 109.55,151.06 109.85,146.40 110.16,141.69 110.46,144.11 110.77,146.51 111.07,148.91 111.38,151.32 111.68,153.69 111.99,156.05 112.29,158.42 112.60,160.75 112.90,163.08 113.21,165.41 113.51,167.72 113.82,163.22 114.12,165.53 114.42,167.83 114.73,170.12 115.03,165.65 115.34,167.96 115.64,170.26 115.95,165.81 116.25,168.11 116.56,170.39 116.86,172.68 117.17,174.94 117.47,170.54 117.78,166.08 118.08,161.58 118.39,157.05 118.69,159.41 119.00,161.74 119.30,157.19 119.61,152.58 119.91,154.94 120.22,157.31 120.52,159.65 120.83,161.98 121.13,164.30 121.43,166.60 121.74,168.89 122.04,164.43 122.35,166.73 122.65,162.22 122.96,164.52 123.26,166.83 123.57,169.11 123.87,164.63 124.18,166.94 124.48,169.23 124.79,164.74 125.09,167.03 125.40,169.32 125.70,171.60 126.01,173.87 126.31,176.12 126.62,171.71 126.92,173.98 127.23,169.55 127.53,171.83 127.83,167.38 128.14,169.67 128.44,171.94 128.75,174.21 129.05,176.47 129.36,172.05 129.66,174.32 129.97,169.90 130.27,172.18 130.58,167.75 130.88,170.04 131.19,165.57 131.49,161.06 131.80,163.38 132.10,165.71 132.41,168.01 132.71,170.30 133.02,172.58 133.32,174.83 133.63,170.42 133.93,165.95 134.24,168.26 134.54,163.77 134.84,159.23 135.15,161.56 135.45,163.89 135.76,159.35 136.06,161.68 136.37,157.11 136.67,159.44 136.98,161.78 137.28,164.10 137.59,159.56 137.89,161.88 138.20,164.18 138.50,166.48 138.81,161.96 139.11,164.26 139.42,166.56 139.72,162.04 140.03,164.37 140.33,166.66 140.64,168.94 140.94,164.47 141.25,166.77 141.55,169.06 141.85,164.59 142.16,166.89 142.46,162.38 142.77,164.70 143.07,167.01 143.38,169.29 143.68,164.81 143.99,160.28 144.29,155.72 144.60,158.10 144.90,160.44 145.21,162.76 145.51,165.07 145.82,160.54 146.12,155.97 146.43,158.31 146.73,160.64 147.04,162.97 147.34,165.28 147.65,167.60 147.95,169.88 148.26,172.16 148.56,167.72 148.86,170.01 149.17,165.54 149.47,167.85 149.78,163.36 150.08,165.66 150.39,167.96 150.69,170.25 151.00,172.52 151.30,168.07 151.61,170.36 151.91,172.61 152.22,174.88 152.52,170.45 152.83,172.71 153.13,168.26 153.44,170.56 153.74,166.11 154.05,161.60 154.35,163.92 154.66,166.22 154.96,168.52 155.27,164.02 155.57,166.33 155.87,168.61 156.18,170.90 156.48,173.17 156.79,175.43 157.09,177.68 157.40,173.29 157.70,175.55 158.01,177.80 158.31,180.05 158.62,182.29 158.92,177.93 159.23,180.18 159.53,182.41 159.84,184.63 160.14,186.84 160.45,189.03 160.75,184.76 161.06,186.97 161.36,189.15 161.67,184.87 161.97,187.08 162.28,182.77 162.58,185.00 162.88,187.19 163.19,182.91 163.49,178.56 163.80,174.17 164.10,169.75 164.41,172.03 164.71,170.94 165.02,171.81 165.32,171.36 165.63,221.01 165.93,217.07 166.24,218.96 166.54,215.03 166.85,212.31 167.15,208.29 167.46,210.41 167.76,212.51 168.07,214.60 168.37,211.05 168.68,207.03 168.98,209.18 169.29,205.14 169.59,207.26 169.89,203.19 170.20,205.33 170.50,207.44 170.81,203.40 171.11,199.29 171.42,201.45 171.72,197.32 172.03,193.18 172.33,195.06 172.64,197.23 172.94,193.08 173.25,189.70 173.55,191.09 173.86,186.87 174.16,182.62 174.47,184.88 174.77,180.61 175.08,176.30 175.38,177.78 175.69,179.06 175.99,181.32 176.30,178.90 176.60,180.73 176.90,176.38 177.21,178.46 177.51,180.75 177.82,183.02 178.12,178.73 178.43,180.99 178.73,183.23 179.04,178.94 179.34,175.43 179.65,177.74 179.95,175.66 180.26,171.29 180.56,166.87 180.87,169.17 181.17,164.90 181.48,161.81 181.78,163.18 182.09,158.70 182.39,161.06 182.70,163.43 183.00,159.23 183.31,154.84 183.61,157.24 183.91,159.61 184.22,155.06 184.52,150.48 184.83,146.17 185.13,142.01 185.44,139.24 185.74,140.76 186.05,142.80 186.35,138.10 186.66,140.55 186.96,142.94 187.27,138.23 187.57,133.47 187.88,128.65 188.18,131.16 188.49,133.66 188.79,136.16 189.10,131.38 189.40,133.86 189.71,136.37 190.01,138.83 190.32,134.07 190.62,129.30 190.92,124.44 191.23,119.51 191.53,114.52 191.84,117.08 192.14,112.13 192.45,107.10 192.75,102.04 193.06,96.92 193.36,91.77 193.67,94.47 193.97,89.28 194.28,84.95 194.58,79.70 194.89,82.46 195.19,84.74 195.50,79.48 195.80,82.26 196.11,76.95 196.41,79.72 196.72,82.48 197.02,85.22 197.33,87.99 197.63,82.73 197.93,85.47 198.24,88.20 198.54,90.89 198.85,93.60 199.15,96.32 199.46,98.99 199.76,93.85 200.07,96.56 200.37,99.25 200.68,101.32 200.98,104.00 201.29,106.65 201.59,109.29 201.90,111.93 202.20,106.91 202.51,103.49 202.81,106.14 203.12,108.74 203.42,103.69 203.73,106.32 204.03,108.95 204.34,110.94 204.64,105.94 204.94,101.37 205.25,96.55 205.55,91.41 205.86,87.28 206.16,90.01 206.47,92.72 206.77,95.44 207.08,98.14 207.38,93.71 207.69,96.37 207.99,99.05 208.30,101.75 208.60,104.44 208.91,107.10 209.21,109.70 209.52,112.31 209.82,107.29 210.13,102.23 210.43,97.12 210.74,99.80 211.04,101.99 211.35,96.89 211.65,99.07 211.95,101.49 212.26,96.39 212.56,99.10 212.87,95.09 213.17,97.81 213.48,100.47 213.78,103.10 214.09,105.77 214.39,108.40 214.70,104.44 215.00,107.10 215.31,102.04 215.61,96.93 215.92,92.43 216.22,88.20 216.53,89.91 216.83,92.64 217.14,87.95 217.44,90.71 217.75,85.49 218.05,86.82 218.36,89.57 218.66,85.75 218.96,88.02 219.27,90.39 219.57,93.09 219.88,87.89 220.18,90.64 220.49,93.39 220.79,96.10 221.10,90.91 221.40,93.64 221.71,88.46 222.01,91.15 222.32,85.93 222.62,88.69 222.93,83.42 223.23,86.20 223.54,88.90 223.84,83.67 224.15,86.42 224.45,81.15 224.76,83.92 225.06,78.63 225.37,73.29 225.67,76.11 225.97,73.08 226.28,68.95 226.58,71.75 226.89,66.32 227.19,69.19 227.50,72.00 227.80,74.83 228.11,77.62 228.41,72.25 228.72,68.38 229.02,70.90 229.33,73.71 229.63,76.23 229.94,79.04 230.24,73.70 230.55,68.31 230.85,65.51 231.16,68.38 231.46,70.72 231.77,65.30 232.07,59.79 232.38,62.65 232.68,65.51 232.98,59.99 233.29,62.84 233.59,57.30 233.90,60.15 234.20,63.01 234.51,65.86 234.81,68.66 235.12,63.20 235.42,66.03 235.73,68.84 236.03,71.64 236.34,74.43 236.64,77.21 236.95,79.97 237.25,82.72 237.56,85.45 237.86,80.17 238.17,82.96 238.47,84.94 238.78,79.64 239.08,82.39 239.39,77.06 239.69,71.68 239.99,74.49 240.30,77.25 240.60,71.86 240.91,66.42 241.21,60.89 241.52,55.35 241.82,49.73 242.13,44.07 242.43,46.97 242.74,41.28 243.04,35.56 243.35,38.54 243.65,41.50 243.96,44.44 244.26,38.75 244.57,41.70 244.87,35.97 245.18,38.96 245.48,41.93 245.79,44.88 246.09,39.18 246.40,42.17 246.70,45.15 247.00,48.13 247.31,51.07 247.61,54.02 247.92,56.93 248.22,59.82 248.53,62.68 248.83,57.17 249.14,60.10 249.44,62.98 249.75,65.81 250.05,68.25 250.36,71.07 250.66,73.88 250.97,68.49 251.27,63.06 251.58,65.93 251.88,68.75 252.19,71.55 252.49,66.13 252.80,61.03 253.10,63.91 253.41,66.77 253.71,69.61 254.01,72.20 254.32,74.27 254.62,77.10 254.93,79.64 255.23,82.43 255.54,85.19 255.84,87.29 256.15,90.05 256.45,84.83 256.76,87.56 257.06,83.78 257.37,85.62 257.67,81.33 257.98,83.99 258.28,86.41 258.59,89.12 258.89,85.11 259.20,87.89 259.50,89.79 259.81,91.33 260.11,94.05 260.42,96.76 260.72,99.48 261.02,102.15 261.33,97.07 261.63,99.76 261.94,95.42 262.24,98.15 262.55,100.83 262.85,96.11 263.16,92.51 263.46,88.93 263.77,90.47 264.07,93.22 264.38,95.32 264.68,90.14 264.99,92.84 265.29,87.63 265.60,90.21 265.90,85.01 266.21,81.05 266.51,75.76 266.82,77.53 267.12,80.32 267.43,77.21 267.73,80.02 268.03,74.70 268.34,77.46 268.64,80.26 268.95,83.00 269.25,85.42 269.56,80.31 269.86,82.84 270.17,85.60 270.47,80.32 270.78,82.26 271.08,84.79 271.39,87.55 271.69,90.04 272.00,92.68 272.30,95.33 272.61,91.02 272.91,88.13 273.22,90.55 273.52,86.48 273.83,82.45 274.13,85.22 274.44,81.68 274.74,83.75 275.04,80.36 275.35,75.07 275.65,69.69 275.96,72.53 276.26,74.99 276.57,69.65 276.87,64.24 277.18,66.40 277.48,68.81 277.79,66.02 278.09,68.90 278.40,71.30 278.70,74.08 279.01,76.88 279.31,71.50 279.62,74.31 279.92,76.89 280.23,71.52 280.53,74.34 280.84,76.74 281.14,79.54 281.45,74.20 281.75,69.80 282.05,66.94 282.36,63.17 282.66,59.93 282.97,62.79 283.27,65.45 283.58,59.98 283.88,54.44 284.19,57.32 284.49,51.76 284.80,54.65 285.10,57.58 285.41,59.90 285.71,54.36 286.02,48.76 286.32,51.65 286.63,54.53 286.93,57.39 287.24,60.30 287.54,63.15 287.85,57.65 288.15,52.07 288.46,46.49 288.76,48.77 289.06,43.14 289.37,46.11 289.67,40.48 289.98,43.46 290.28,46.42 290.59,49.38 290.89,52.01 291.20,54.93 291.50,57.81 291.81,52.26 292.11,46.65 292.42,49.58 292.72,52.48 293.03,46.87 293.33,49.80 293.64,52.49 293.94,53.79 294.25,50.53 294.55,53.49 294.86,56.38 295.16,50.85 295.47,53.79 295.77,56.73 296.07,59.61 296.38,62.48 296.68,56.98 296.99,59.84 297.29,62.54 297.60,57.03 297.90,59.94 298.21,54.39 298.51,48.84 298.82,43.22 299.12,46.19 299.43,41.28 299.73,35.54 300.04,38.57 300.34,41.52 300.65,35.77 300.95,30.00 301.26,32.99 301.56,35.98 301.87,38.96 302.17,41.95 302.48,36.22 302.78,30.45 303.08,33.45 303.39,36.42 303.69,39.39 304.00,42.37 304.30,45.31 304.61,48.23 304.91,51.13 305.22,54.05 305.52,48.44 305.83,51.38 306.13,54.27 306.44,57.15 306.74,60.06 307.05,54.52 307.35,57.43 307.66,51.86 307.96,54.79 308.27,50.11 308.57,53.02 308.88,55.92 309.18,51.73 309.49,54.64 309.79,57.53 310.09,60.40 310.40,63.26 310.70,57.77 311.01,52.21 311.31,46.60 311.62,49.52 311.92,43.85 312.23,46.80 312.53,41.12 312.84,44.06 313.14,47.02 313.45,49.73 313.75,51.70 314.06,46.11 314.36,41.21 314.67,37.45 314.97,31.70 315.28,34.71 315.58,37.28 315.89,40.20 316.19,221.01 316.50,219.32 316.80,220.67 317.10,217.86 317.41,215.12 317.71,217.20 318.02,218.69 318.32,214.73 318.63,216.40 318.93,218.49 319.24,215.09 319.54,211.11 319.85,213.23 320.15,210.93 320.46,213.04 320.76,215.16 321.07,216.46 321.37,218.53 321.68,215.52 321.98,212.85 322.29,214.96 322.59,212.27 322.90,208.87 323.20,210.50 323.50,212.59 323.81,214.70 324.11,213.03 324.42,213.87 324.72,211.18 325.03,209.25 325.33,210.40 325.64,211.86 325.94,213.00 326.25,209.98 326.55,210.61 326.86,211.37 327.16,212.96 327.47,211.86 327.77,212.45 328.08,208.43 328.38,209.69 328.69,207.02 328.99,208.34 329.30,209.41 329.60,211.53 329.91,213.64 330.21,214.54 330.51,215.77 330.82,216.80 331.12,218.44 331.43,217.34 331.73,214.09 332.04,215.77 332.34,217.25 332.65,218.26 332.95,217.02 333.26,217.96 333.56,215.60 333.87,217.45 334.17,219.53 334.48,220.57 334.78,221.57 335.09,222.94 335.39,224.99 335.70,226.91 336.00,223.95 336.31,222.51 336.61,220.92 336.92,221.77 337.22,222.38 337.52,223.08 337.83,224.66 338.13,221.13 338.44,222.36 338.74,223.37 339.05,220.57 339.35,221.68 339.66,223.75 339.96,225.80 340.27,227.14 340.57,223.29 340.88,225.33 341.18,226.96 341.49,228.65 341.79,226.28 342.10,223.13 342.40,219.24 342.71,215.27 343.01,211.24 343.32,207.20 343.62,209.31 343.93,205.25 344.23,201.18 344.53,197.05 344.84,193.65 345.14,195.56 345.45,192.96 345.75,190.64 346.06,187.67 346.36,189.17 346.67,191.16 346.97,188.00 347.28,190.23 347.58,187.58 347.89,189.76 348.19,187.01 348.50,189.00 348.80,190.32 349.11,186.10 349.41,188.35 349.72,190.18 350.02,192.37 350.33,193.99 350.63,195.97 350.94,198.12 351.24,193.98 351.54,189.80 351.85,191.54 352.15,192.92 352.46,194.18 352.76,196.38 353.07,198.03 353.37,199.36 353.68,200.81 353.98,201.68 354.29,199.54 354.59,200.47 354.90,201.42 355.20,203.56 355.51,199.47 355.81,201.58 356.12,203.76 356.42,201.75 356.73,199.64 357.03,197.46 357.34,199.27 357.64,195.14 357.95,197.27 358.25,196.04 358.55,194.19 358.86,190.01 359.16,191.45 359.47,192.20 359.77,190.39 360.08,189.05 360.38,190.59 360.69,192.53 360.99,193.67 361.30,195.87 361.60,198.07 361.91,200.25 362.21,202.41 362.52,204.57 362.82,200.49 363.13,196.35 363.43,193.73 363.74,192.00 364.04,190.09 364.35,188.48 364.65,189.80 364.96,186.51 365.26,188.66 365.56,186.82 365.87,182.79 366.17,185.02 366.48,187.25 366.78,189.25 367.09,190.20 367.39,188.92 367.70,186.34 368.00,187.48 368.31,188.36 368.61,189.03 368.92,189.51 369.22,188.05 369.53,188.95 369.83,190.23 370.14,191.14 370.44,192.31 370.75,193.34 371.05,194.44 371.36,195.43 371.66,191.26 371.97,187.04 372.27,189.29 372.57,186.41 372.88,188.29 373.18,184.39 373.49,186.64 373.79,188.71 374.10,190.92 374.40,186.70 374.71,188.64 375.01,184.39 375.32,186.64 375.62,188.85 375.93,184.60 376.23,186.83 376.54,182.58 376.84,184.38 377.15,181.82 377.45,178.43 377.76,176.65 378.06,175.00 378.37,173.35 378.67,168.94 378.98,164.51 379.28,166.00 379.58,168.36 379.89,169.63 380.19,171.96 380.50,167.56 380.80,168.91 381.11,170.09 381.41,166.40 381.72,167.85 382.02,169.14 382.33,164.71 382.63,160.29 382.94,161.05 383.24,162.00 383.55,160.88 383.85,156.36 384.16,152.86 384.46,148.24 384.77,150.67 385.07,153.08 385.38,148.45 385.68,150.87 385.99,146.23 386.29,148.65 386.59,151.07 386.90,153.48 387.20,155.85 387.51,151.29 387.81,153.70 388.12,156.08 388.42,158.45 388.73,153.89 389.03,156.28 389.34,158.66 389.64,161.04 389.95,163.37 390.25,158.90 390.56,161.29 390.86,163.13 391.17,158.64 391.47,161.00 391.78,156.46 392.08,151.89 392.39,154.29 392.69,156.67 393.00,152.08 393.30,147.44 393.60,142.72 393.91,137.98 394.21,133.19 394.52,128.37 394.82,130.85 395.13,126.00 395.43,121.12 395.74,123.67 396.04,126.22 396.35,128.73 396.65,123.89 396.96,126.41 397.26,121.53 397.57,124.10 397.87,126.65 398.18,129.20 398.48,124.34 398.79,126.90 399.09,129.44 399.40,126.74 399.70,129.28 400.01,131.26 400.31,133.74 400.61,135.80 400.92,138.29 401.22,133.56 401.53,135.86 401.83,132.42 402.14,133.79 402.44,136.28 402.75,137.93 403.05,139.92 403.36,142.40 403.66,137.72 403.97,140.02 404.27,142.21 404.58,144.68 404.88,147.15 405.19,142.51 405.49,140.57 405.80,141.95 406.10,144.40 406.41,146.47 406.71,143.93 407.02,145.13 407.32,147.06 407.62,148.99 407.93,151.40 408.23,153.82 408.54,155.28 408.84,157.69 409.15,154.04 409.45,156.43 409.76,153.52 410.06,154.81 410.37,152.52 410.67,154.40 410.98,155.66 411.28,157.28 411.59,155.57 411.89,157.42 412.20,155.54 412.50,156.63 412.81,158.35 413.11,159.69 413.42,161.40 413.72,158.85 414.03,155.30 414.33,157.69 414.63,154.61 414.94,155.83 415.24,157.81 415.55,153.29 415.85,150.09 416.16,147.92 416.46,146.35 416.77,147.11 417.07,144.93 417.38,145.81 417.68,141.16 417.99,143.61 418.29,138.92 418.60,136.27 418.90,138.13 419.21,134.70 419.51,130.23 419.82,131.08 420.12,133.61 420.43,129.38 420.73,131.45 421.04,127.60 421.34,129.25 421.64,131.76 421.95,133.95 422.25,136.42 422.56,137.27 422.86,135.12 423.17,133.09 423.47,135.40 423.78,130.63 424.08,133.17 424.39,134.33 424.69,135.49 425.00,138.00 425.30,138.88 425.61,140.33 425.91,141.58 426.22,138.62 426.52,139.50 426.83,140.53 427.13,137.92 427.44,138.94 427.74,141.40 428.05,142.61 428.35,144.07 428.65,142.71 428.96,139.46 429.26,141.94 429.57,144.29 429.87,145.13 430.18,146.26 430.48,142.57 430.79,144.14 431.09,145.68 431.40,147.11 431.70,145.75 432.01,147.30 432.31,149.65 432.62,152.04 432.92,154.47 433.23,149.87 433.53,152.30 433.84,147.71 434.14,150.15 434.45,151.86 434.75,153.61 435.06,150.15 435.36,145.98 435.66,142.52 435.97,140.76 436.27,142.32 436.58,139.55 436.88,142.03 437.19,143.74 437.49,139.04 437.80,141.52 438.10,143.99 438.41,139.31 438.71,141.79 439.02,143.97 439.32,145.37 439.63,142.34 439.93,137.63 440.24,140.10 440.54,135.35 440.85,137.82 441.15,140.28 441.46,142.34 441.76,144.81 442.07,140.12 442.37,135.38 442.67,131.42 442.98,132.62 443.28,127.85 443.59,129.08 443.89,125.33 444.20,127.90 444.50,129.76 444.81,131.20 445.11,133.05 445.42,129.90 445.72,132.44 446.03,128.30 446.33,123.47 446.64,126.04 446.94,128.58 447.25,131.12 447.55,126.32 447.86,123.67 448.16,125.73 448.47,124.06 448.77,121.64 449.08,118.71 449.38,120.06 449.68,116.88 449.99,119.47 450.29,117.14 450.60,119.23 450.90,120.67 451.21,117.60 451.51,119.63 451.82,122.22 452.12,117.48 452.43,120.08 452.73,121.53 453.04,117.88 453.34,119.48 453.65,122.04 453.95,124.53 454.26,121.84 454.56,124.40 454.87,126.09 455.17,123.75 455.48,118.84 455.78,121.27 456.09,123.82 456.39,118.94 456.69,114.00 457.00,116.59 457.30,119.16 457.61,121.75 457.91,123.94 458.22,119.05 458.52,114.12 458.83,116.70 459.13,119.27 459.44,121.85 459.74,124.43 460.05,126.98 460.35,129.51 460.66,132.02 460.96,133.52 461.27,128.71 461.57,130.86 461.88,133.36 462.18,135.84 462.49,138.32 462.79,133.58 463.10,136.06 463.40,131.29 463.70,133.81 464.01,129.46 464.31,132.00 464.62,134.52 464.92,137.04 465.23,132.56 465.53,129.48 465.84,131.98 466.14,134.49 466.45,136.97 466.75,139.47 467.06,134.73 467.36,129.94 467.67,125.11 467.97,127.64 468.28,122.75 468.58,125.33 468.89,120.44 469.19,123.00 469.50,125.57 469.80,126.79 470.11,128.69 470.41,123.87 470.71,119.40 471.02,115.71 471.32,111.73 471.63,114.25 471.93,115.89 472.24,117.60 472.54,221.01 472.85,217.04 473.15,219.07 473.46,215.08 473.76,211.05 474.07,213.11 474.37,215.15 474.68,217.19 474.98,219.22 475.29,221.24 475.59,217.28 475.90,213.26 476.20,215.31 476.51,217.35 476.81,213.35 477.12,209.30 477.42,211.36 477.72,207.28 478.03,209.36 478.33,211.43 478.64,207.35 478.94,209.44 479.25,211.50 479.55,213.56 479.86,209.52 480.16,211.58 480.47,213.64 480.77,215.70 481.08,217.74 481.38,219.76 481.69,215.78 481.99,211.77 482.30,213.83 482.60,215.87 482.91,211.85 483.21,213.91 483.52,215.95 483.82,217.99 484.13,220.02 484.43,222.03 484.73,224.03 485.04,226.04 485.34,228.03 485.65,230.00 485.95,226.12 486.26,222.20 486.56,218.24 486.87,220.26 487.17,222.27 487.48,218.31 487.78,220.33 488.09,222.35 488.39,224.35 488.70,220.41 489.00,216.43 489.31,212.42 489.61,214.47 489.92,210.43 490.22,206.34 490.53,202.22 490.83,198.06 491.14,200.18 491.44,202.30 491.74,198.13 492.05,200.25 492.35,202.36 492.66,198.19 492.96,193.99 493.27,196.13 493.57,198.27 493.88,200.39 494.18,196.21 494.49,198.34 494.79,200.46 495.10,202.57 495.40,204.68 495.71,200.54 496.01,196.37 496.32,192.14 496.62,194.29 496.93,196.43 497.23,192.21 497.54,194.37 497.84,190.13 498.15,192.29 498.45,194.44 498.75,196.57 499.06,198.71 499.36,194.51 499.67,196.66 499.97,192.46 500.28,194.61 500.58,190.38 500.89,192.54 501.19,194.69 501.50,196.83 501.80,192.62 502.11,194.77 502.41,196.90 502.72,199.03 503.02,201.14 503.33,203.25 503.63,205.35 503.94,207.44 504.24,209.52 504.55,205.43 504.85,207.52 505.16,203.41 505.46,205.51 505.76,207.61 506.07,209.69 506.37,211.76 506.68,207.69 506.98,203.58 507.29,205.68 507.59,207.78 507.90,203.67 508.20,205.77 508.51,207.85 508.81,209.93 509.12,211.99 509.42,214.06 509.73,216.11 510.03,218.16 510.34,220.20 510.64,222.21 510.95,224.22 511.25,220.28 511.56,222.29 511.86,224.29 512.17,220.35 512.47,216.37 512.77,212.35 513.08,208.29 513.38,204.19 513.69,206.28 513.99,208.35 514.30,210.42 514.60,212.48 514.91,208.42 515.21,210.49 515.52,206.41 515.82,208.49 516.13,210.56 516.43,212.62 516.74,214.67 517.04,216.71 517.35,218.74 517.65,214.75 517.96,216.79 518.26,218.83 518.57,214.85 518.87,210.82 519.17,212.88 519.48,208.82 519.78,204.72 520.09,206.81 520.39,202.70 520.70,198.54 521.00,200.66 521.31,202.77 521.61,204.86 521.92,206.95 522.22,209.03 522.53,211.10 522.83,207.02 523.14,202.90 523.44,198.74 523.75,194.55 524.05,196.68 524.36,198.82 524.66,200.93 524.97,196.76 525.27,198.89 525.58,194.70 525.88,196.84 526.18,198.98 526.49,194.77 526.79,190.54 527.10,186.28 527.40,188.46 527.71,190.63 528.01,192.80 528.32,194.95 528.62,197.09 528.93,199.21 529.23,195.03 529.54,197.17 529.84,192.96 530.15,195.11 530.45,190.88 530.76,186.61 531.06,188.79 531.37,190.96 531.67,193.12 531.98,188.87 532.28,184.57 532.59,180.23 532.89,175.84 533.19,171.41 533.50,173.66 533.80,175.90 534.11,171.47 534.41,173.73 534.72,175.97 535.02,171.55 535.33,167.08 535.63,169.35 535.94,171.61 536.24,173.86 536.55,176.10 536.85,178.33 537.16,173.93 537.46,169.49 537.77,171.76 538.07,167.29 538.38,169.57 538.68,171.83 538.99,174.08 539.29,176.32 539.60,178.55 539.90,174.15 540.20,176.39 540.51,178.62 540.81,174.21 541.12,169.76 541.42,165.27 541.73,160.73 542.03,156.15 542.34,151.53 542.64,153.88 542.95,149.24 543.25,151.60 543.56,146.94 543.86,142.23 544.17,144.63 544.47,139.90 544.78,135.11 545.08,130.28 545.39,125.39 545.69,127.88 546.00,130.35 546.30,125.47 546.61,127.96 546.91,130.44 547.21,132.90 547.52,135.37 547.82,130.54 548.13,125.66 548.43,120.74 548.74,123.25 549.04,125.76 549.35,128.25 549.65,123.36 549.96,125.89 550.26,120.96 550.57,116.00 550.87,118.54 551.18,121.08 551.48,116.11 551.79,118.66 552.09,121.18 552.40,123.71 552.70,118.76 553.01,113.75 553.31,116.30 553.62,111.27 553.92,106.21 554.22,108.80 554.53,111.38 554.83,106.31 555.14,108.90 555.44,103.81 555.75,106.40 556.05,108.98 556.36,103.88 556.66,98.73 556.97,93.54 557.27,88.30 557.58,90.98 557.88,93.64 558.19,88.40 558.49,91.08 558.80,93.76 559.10,88.52 559.41,83.23 559.71,85.93 560.02,88.63 560.32,83.34 560.63,86.05 560.93,88.74 561.23,83.45 561.54,86.15 561.84,88.85 562.15,83.58 562.45,86.28 562.76,80.97 563.06,75.62 563.37,78.37 563.67,72.97 563.98,75.75 564.28,78.48 564.59,81.21 564.89,83.92 565.20,78.58 565.50,81.32 565.81,84.04 566.11,86.76 566.42,89.45 566.72,92.11 567.03,94.79 567.33,89.55 567.64,92.22 567.94,94.90 568.24,89.69 568.55,92.36 568.85,87.11 569.16,89.80 569.46,92.47 569.77,95.13 570.07,97.80 570.38,92.60 570.68,87.36 570.99,82.04 571.29,84.75 571.60,87.45 571.90,82.15 572.21,84.86 572.51,87.55 572.82,90.24 573.12,92.91 573.43,95.57 573.73,98.21 574.04,100.84 574.34,103.46 574.65,106.06 574.95,100.93 575.25,103.54 575.56,106.15 575.86,101.03 576.17,103.64 576.47,106.25 576.78,108.83 577.08,111.42 577.39,106.36 577.69,108.95 578.00,111.54 578.30,114.09 578.61,109.07 578.91,103.98 579.22,106.57 579.52,101.46 579.83,104.08 580.13,106.68 580.44,109.28 580.74,111.87 581.05,114.43 581.35,116.98 581.66,111.97 581.96,114.53 582.26,109.51 582.57,104.42 582.87,99.29 583.18,94.09 583.48,96.73 583.79,99.37 584.09,101.99 584.40,104.60 584.70,99.47 585.01,94.28 585.31,96.94 585.62,91.74 585.92,94.41 586.23,89.18 586.53,91.86 586.84,94.51 587.14,97.15 587.45,99.79 587.75,102.41 588.06,105.02 588.36,99.91 588.67,94.73 588.97,89.50 589.27,84.23 589.58,86.93 589.88,89.65 590.19,84.37 590.49,87.07 590.80,89.75 591.10,84.47 591.41,87.17 591.71,89.86 592.02,84.60 592.32,87.31 592.63,90.03 592.93,84.75 593.24,87.46 593.54,82.17 593.85,76.85 594.15,71.45 594.46,74.23 594.76,68.78 595.07,71.56 595.37,74.33 595.68,77.09 595.98,71.69 596.28,74.45 596.59,69.01 596.89,63.54 597.20,66.35 597.50,60.83 597.81,55.27 598.11,58.12 598.42,60.95 598.72,63.79 599.03,66.60 599.33,69.40 599.64,72.19 599.94,74.95 600.25,69.52 600.55,72.31 600.86,75.07 601.16,77.81 601.47,80.54 601.77,83.29 602.08,85.99 602.38,88.68 602.69,83.40 602.99,86.12 603.29,88.82 603.60,91.51 603.90,86.27 604.21,88.96 604.51,91.64 604.82,94.30 605.12,89.07 605.43,83.79 605.73,86.49 606.04,89.20 606.34,83.93 606.65,86.65 606.95,81.35 607.26,75.98 607.56,78.73 607.87,81.45 608.17,76.08 608.48,78.83 608.78,73.44 609.09,68.00 609.39,70.78 609.70,69.47 610.00,68.46" fill="none" stroke="#2563eb" stroke-width="1.5"/><text x="30" y="252" font-size="11" fill="#555">min 97746.01 / max 147886.77</text></svg>
