<svg xmlns="http://www.w3.org/2000/svg" width="640" height="260" viewBox="0 0 640 260"><rect width="640" height="260" fill="white"/><text x="30" y="22" font-size="14" fill="#111">M10-PA-001 1h baseline equity</text><line x1="30" y1="230" x2="610" y2="230" stroke="#ccc"/><line x1="30" y1="30" x2="30" y2="230" stroke="#ccc"/><polyline points="30.00,117.04 30.57,113.30 31.14,115.21 31.72,117.10 32.29,118.98 32.86,115.26 33.43,111.50 34.00,113.41 34.58,115.31 35.15,117.20 35.72,119.08 36.29,120.95 36.86,122.82 37.44,124.67 38.01,126.55 38.58,122.91 39.15,119.23 39.72,115.52 40.30,117.41 40.87,119.28 41.44,121.16 42.01,123.02 42.58,124.87 43.16,126.71 43.73,128.55 44.30,130.38 44.87,132.19 45.44,128.60 46.02,124.97 46.59,126.81 47.16,128.64 47.73,130.46 48.30,132.29 48.88,134.09 49.45,135.89 50.02,137.68 50.59,134.14 51.16,130.56 51.74,132.38 52.31,128.79 52.88,130.61 53.45,132.42 54.02,128.83 54.60,130.65 55.17,132.46 55.74,134.26 56.31,136.06 56.88,137.85 57.46,139.64 58.03,141.41 58.60,137.90 59.17,134.36 59.74,130.78 60.32,127.17 60.89,129.00 61.46,130.83 62.03,132.64 62.60,134.44 63.18,136.24 63.75,132.69 64.32,129.10 64.89,125.47 65.46,127.32 66.04,123.68 66.61,125.53 67.18,127.39 67.75,129.22 68.32,131.04 68.90,132.86 69.47,134.67 70.04,136.47 70.61,132.92 71.18,134.73 71.76,136.53 72.33,138.32 72.90,140.09 73.47,141.87 74.04,143.63 74.62,145.38 75.19,141.92 75.76,138.42 76.33,140.20 76.90,141.97 77.48,143.74 78.05,145.49 78.62,147.23 79.19,148.96 79.76,150.69 80.34,152.41 80.91,154.12 81.48,155.82 82.05,152.46 82.62,149.07 83.20,150.80 83.77,152.51 84.34,154.22 84.91,150.84 85.48,152.56 86.06,154.27 86.63,150.89 87.20,152.61 87.77,154.31 88.34,156.01 88.92,157.70 89.49,154.36 90.06,156.06 90.63,157.74 91.20,159.42 91.78,161.10 92.35,162.76 92.92,164.41 93.49,166.06 94.06,167.70 94.64,169.33 95.21,166.11 95.78,162.85 96.35,159.56 96.92,156.24 97.50,157.92 98.07,154.58 98.64,156.27 99.21,157.96 99.78,159.63 100.36,161.30 100.93,162.96 101.50,164.62 102.07,166.26 102.64,167.90 103.21,168.83 103.79,170.46 104.36,172.07 104.93,173.68 105.50,175.28 106.07,176.87 106.65,178.45 107.22,180.03 107.79,181.60 108.36,178.49 108.93,175.36 109.51,176.97 110.08,178.57 110.65,180.14 111.22,177.03 111.79,178.62 112.37,180.21 112.94,181.78 113.51,183.36 114.08,180.28 114.65,181.86 115.23,183.43 115.80,180.34 116.37,177.22 116.94,174.08 117.51,170.90 118.09,172.53 118.66,174.14 119.23,170.97 119.80,167.77 120.37,169.42 120.95,171.07 121.52,172.69 122.09,169.51 122.66,171.14 123.23,172.76 123.81,174.36 124.38,175.96 124.95,177.55 125.52,179.14 126.09,180.72 126.67,177.62 127.24,179.20 127.81,180.78 128.38,182.35 128.95,183.91 129.53,185.47 130.10,187.02 130.67,188.55 131.24,185.52 131.81,182.46 132.39,184.01 132.96,185.57 133.53,182.51 134.10,184.07 134.67,185.62 135.25,187.16 135.82,188.70 136.39,190.23 136.96,191.75 137.53,188.75 138.11,190.27 138.68,191.79 139.25,193.30 139.82,194.80 140.39,196.30 140.97,197.79 141.54,199.27 142.11,200.75 142.68,197.84 143.25,199.32 143.83,200.79 144.40,202.26 144.97,203.72 145.54,205.17 146.11,206.32 146.69,207.77 147.26,209.21 147.83,206.39 148.40,207.83 148.97,209.26 149.55,210.69 150.12,212.11 150.69,213.52 151.26,214.93 151.83,216.32 152.41,217.74 152.98,219.12 153.55,220.49 154.12,221.85 154.69,223.21 155.27,224.57 155.84,225.91 156.41,227.25 156.98,228.59 157.55,229.92 158.13,227.30 158.70,224.66 159.27,226.00 159.84,227.34 160.41,228.67 160.99,230.00 161.56,227.38 162.13,224.74 162.70,222.07 163.27,220.32 163.85,217.61 164.42,214.88 164.99,213.31 165.56,211.96 166.13,211.01 166.71,210.06 167.28,117.04 167.85,118.98 168.42,120.88 168.99,117.19 169.57,119.07 170.14,120.96 170.71,122.83 171.28,119.19 171.85,115.50 172.43,111.77 173.00,107.99 173.57,104.17 174.14,106.15 174.71,108.13 175.29,104.32 175.86,106.28 176.43,102.46 177.00,104.43 177.57,100.57 178.15,96.71 178.72,92.79 179.29,88.80 179.86,84.80 180.43,80.76 181.01,76.69 181.58,72.56 182.15,74.70 182.72,76.81 183.29,72.71 183.87,74.84 184.44,76.98 185.01,79.09 185.58,81.21 186.15,83.32 186.73,85.41 187.30,81.36 187.87,77.27 188.44,73.13 189.01,68.95 189.59,64.74 190.16,60.49 190.73,62.67 191.30,58.39 191.87,54.07 192.45,49.70 193.02,51.93 193.59,54.15 194.16,56.35 194.73,58.58 195.31,60.78 195.88,62.97 196.45,65.16 197.02,60.92 197.59,63.10 198.17,65.26 198.74,67.42 199.31,69.57 199.88,71.69 200.45,67.51 201.03,63.28 201.60,59.01 202.17,54.69 202.74,56.92 203.31,59.13 203.89,61.32 204.46,63.50 205.03,65.67 205.60,67.84 206.17,70.02 206.75,65.82 207.32,67.99 207.89,70.16 208.46,72.31 209.03,74.44 209.61,76.59 210.18,78.73 210.75,80.83 211.32,82.92 211.89,85.01 212.47,87.08 213.04,83.05 213.61,79.02 214.18,81.11 214.75,83.18 215.33,79.11 215.90,75.00 216.47,70.86 217.04,66.67 217.61,62.45 218.19,64.64 218.76,66.81 219.33,62.59 219.90,64.78 220.47,66.97 221.05,67.36 221.62,69.51 222.19,71.65 222.76,73.77 223.33,75.91 223.91,78.01 224.48,80.11 225.05,82.21 225.62,84.28 226.19,86.34 226.77,88.38 227.34,90.43 227.91,92.45 228.48,94.47 229.05,96.47 229.63,98.48 230.20,100.47 230.77,102.46 231.34,104.44 231.91,106.41 232.49,108.35 233.06,104.54 233.63,106.51 234.20,102.66 234.77,98.77 235.35,94.85 235.92,90.88 236.49,86.87 237.06,88.92 237.63,90.94 238.21,92.96 238.78,94.98 239.35,96.99 239.92,98.98 240.49,100.95 241.07,97.06 241.64,93.13 242.21,89.15 242.78,85.13 243.35,81.07 243.93,76.96 244.50,72.82 245.07,74.93 245.64,77.04 246.21,72.92 246.79,75.03 247.36,77.13 247.93,79.22 248.50,81.29 249.07,83.36 249.64,79.27 250.22,75.15 250.79,70.99 251.36,66.78 251.93,62.53 252.50,64.72 253.08,60.46 253.65,62.64 254.22,64.84 254.79,67.02 255.36,69.19 255.94,71.33 256.51,73.45 257.08,69.28 257.65,65.06 258.22,60.81 258.80,56.52 259.37,52.18 259.94,54.44 260.51,56.66 261.08,52.33 261.66,54.59 262.23,56.81 262.80,59.02 263.37,61.24 263.94,63.43 264.52,65.63 265.09,67.81 265.66,69.97 266.23,72.11 266.80,67.93 267.38,63.71 267.95,59.44 268.52,55.14 269.09,50.79 269.66,46.43 270.24,42.01 270.81,44.30 271.38,46.58 271.95,48.87 272.52,51.16 273.10,53.39 273.67,49.04 274.24,51.29 274.81,53.52 275.38,55.73 275.96,57.96 276.53,53.66 277.10,55.88 277.67,58.10 278.24,60.32 278.82,62.50 279.39,64.66 279.96,60.41 280.53,56.14 281.10,51.82 281.68,47.45 282.25,43.03 282.82,38.58 283.39,39.61 283.96,41.94 284.54,37.45 285.11,32.92 285.68,30.00 286.25,32.38 286.82,34.71 287.40,30.20 287.97,32.56 288.54,34.90 289.11,37.25 289.68,39.55 290.26,41.83 290.83,44.12 291.40,46.39 291.97,41.95 292.54,44.21 293.12,39.75 293.69,42.06 294.26,44.35 294.83,46.64 295.40,48.88 295.98,51.13 296.55,46.75 297.12,48.99 297.69,51.27 298.26,53.55 298.84,55.76 299.41,57.98 299.98,60.18 300.55,62.35 301.12,64.52 301.70,66.70 302.27,68.86 302.84,71.01 303.41,73.15 303.98,75.27 304.56,77.38 305.13,79.49 305.70,75.38 306.27,71.23 306.84,67.04 307.42,69.20 307.99,71.33 308.56,67.14 309.13,69.28 309.70,71.42 310.28,73.55 310.85,75.68 311.42,77.78 311.99,79.87 312.56,81.94 313.14,77.86 313.71,79.95 314.28,75.84 314.85,77.94 315.42,80.03 316.00,75.92 316.57,71.77 317.14,68.65 317.71,65.70 318.28,61.47 318.86,117.04 319.43,113.35 320.00,109.60 320.57,105.81 321.14,107.76 321.72,109.73 322.29,111.68 322.86,113.61 323.43,109.89 324.00,106.14 324.58,108.10 325.15,110.05 325.72,112.01 326.29,113.55 326.86,115.50 327.44,117.41 328.01,119.33 328.58,115.65 329.15,117.56 329.72,119.27 330.30,121.16 330.87,117.82 331.44,119.73 332.01,121.65 332.58,123.56 333.16,125.47 333.73,127.34 334.30,123.74 334.87,125.46 335.44,121.82 336.02,118.14 336.59,120.04 337.16,116.33 337.73,118.23 338.30,120.11 338.88,116.40 339.45,112.67 340.02,108.89 340.59,105.08 341.16,101.23 341.74,97.33 342.31,99.33 342.88,101.31 343.45,103.31 344.02,105.31 344.60,107.27 345.17,109.26 345.74,111.20 346.31,107.41 346.88,103.58 347.46,99.73 348.03,101.74 348.60,103.72 349.17,105.71 349.74,107.69 350.32,109.66 350.89,105.87 351.46,102.05 352.03,104.03 352.60,106.01 353.18,107.97 353.75,109.95 354.32,111.68 354.89,107.93 355.46,109.89 356.04,111.84 356.61,108.06 357.18,104.28 357.75,106.24 358.32,108.20 358.90,110.15 359.47,112.09 360.04,108.33 360.61,110.30 361.18,108.49 361.76,110.48 362.33,112.45 362.90,108.72 363.47,110.71 364.04,112.66 364.62,114.61 365.19,116.55 365.76,112.84 366.33,109.10 366.90,105.32 367.48,107.27 368.05,109.22 368.62,111.15 369.19,113.08 369.76,115.00 370.34,116.91 370.91,118.80 371.48,120.71 372.05,122.59 372.62,124.45 373.20,120.80 373.77,122.69 374.34,124.59 374.91,126.46 375.48,128.33 376.06,130.19 376.63,132.02 377.20,133.84 377.77,135.67 378.34,137.50 378.92,139.32 379.49,141.11 380.06,142.89 380.63,144.66 381.20,145.69 381.78,147.33 382.35,143.89 382.92,140.42 383.49,136.92 384.06,133.39 384.64,129.81 385.21,126.20 385.78,122.55 386.35,118.86 386.92,115.14 387.50,111.38 388.07,107.58 388.64,109.54 389.21,111.46 389.78,113.38 390.36,109.61 390.93,105.79 391.50,101.94 392.07,103.92 392.64,105.88 393.21,106.93 393.79,108.86 394.36,110.79 394.93,112.72 395.50,114.62 396.07,116.52 396.65,112.77 397.22,108.98 397.79,105.16 398.36,101.30 398.93,97.40 399.51,99.39 400.08,95.49 400.65,91.53 401.22,93.57 401.79,95.60 402.37,91.65 402.94,87.66 403.51,89.74 404.08,91.79 404.65,93.82 405.23,95.84 405.80,97.85 406.37,93.92 406.94,89.95 407.51,85.95 408.09,81.91 408.66,84.01 409.23,79.95 409.80,75.86 410.37,78.01 410.95,80.13 411.52,82.23 412.09,84.32 412.66,86.44 413.23,88.53 413.81,90.61 414.38,92.69 414.95,88.71 415.52,84.72 416.09,86.83 416.67,88.92 417.24,91.00 417.81,93.06 418.38,95.11 418.95,97.16 419.53,99.21 420.10,95.31 420.67,91.38 421.24,87.41 421.81,89.48 422.39,91.54 422.96,93.59 423.53,95.65 424.10,97.59 424.67,99.62 425.25,101.62 425.82,97.73 426.39,99.75 426.96,101.77 427.53,103.14 428.11,105.11 428.68,101.26 429.25,97.39 429.82,93.48 430.39,89.56 430.97,85.60 431.54,87.70 432.11,89.13 432.68,90.94 433.25,92.98 433.83,91.18 434.40,87.24 434.97,89.32 435.54,91.36 436.11,93.39 436.69,95.40 437.26,91.46 437.83,87.51 438.40,89.56 438.97,87.59 439.55,89.68 440.12,91.74 440.69,93.48 441.26,95.52 441.83,97.54 442.41,99.55 442.98,95.66 443.55,97.67 444.12,99.67 444.69,101.69 445.27,103.67 445.84,105.64 446.41,107.62 446.98,109.59 447.55,111.54 448.13,107.78 448.70,109.74 449.27,111.67 449.84,113.62 450.41,115.53 450.99,117.44 451.56,119.34 452.13,121.23 452.70,117.54 453.27,113.81 453.85,115.73 454.42,117.65 454.99,119.55 455.56,121.43 456.13,117.75 456.71,119.64 457.28,121.52 457.85,123.40 458.42,125.27 458.99,127.12 459.57,128.97 460.14,130.80 460.71,132.63 461.28,129.05 461.85,126.58 462.43,124.00 463.00,122.08 463.57,118.43 464.14,114.73 464.71,110.98 465.29,108.78 465.86,117.04 466.43,118.92 467.00,120.79 467.57,122.66 468.15,118.97 468.72,120.84 469.29,122.71 469.86,119.01 470.43,120.89 471.01,122.76 471.58,124.61 472.15,126.47 472.72,128.32 473.29,130.15 473.87,131.97 474.44,133.78 475.01,135.59 475.58,137.38 476.15,139.16 476.73,140.94 477.30,142.71 477.87,139.22 478.44,135.70 479.01,137.49 479.59,139.27 480.16,135.76 480.73,132.21 481.30,128.62 481.87,125.00 482.45,121.33 483.02,117.63 483.59,113.89 484.16,110.11 484.73,106.29 485.31,108.22 485.88,110.14 486.45,112.06 487.02,113.96 487.59,115.86 488.17,117.75 488.74,119.63 489.31,121.50 489.88,117.79 490.45,119.67 491.03,115.95 491.60,117.83 492.17,119.71 492.74,121.59 493.31,123.46 493.89,119.78 494.46,116.05 495.03,112.29 495.60,114.22 496.17,116.13 496.75,118.02 497.32,119.90 497.89,121.77 498.46,123.64 499.03,125.49 499.61,127.33 500.18,123.69 500.75,125.54 501.32,121.88 501.89,123.74 502.47,125.59 503.04,127.43 503.61,129.27 504.18,131.10 504.75,127.49 505.33,123.85 505.90,125.69 506.47,122.04 507.04,123.92 507.61,125.78 508.19,127.62 508.76,129.45 509.33,131.27 509.90,133.09 510.47,134.89 511.05,131.32 511.62,127.72 512.19,124.07 512.76,125.92 513.33,127.76 513.91,129.59 514.48,131.40 515.05,133.22 515.62,129.65 516.19,126.03 516.77,122.37 517.34,118.67 517.91,114.94 518.48,111.17 519.05,107.37 519.63,103.53 520.20,105.49 520.77,107.43 521.34,103.58 521.91,99.71 522.49,101.68 523.06,103.64 523.63,105.59 524.20,107.53 524.77,109.46 525.35,111.38 525.92,113.29 526.49,109.51 527.06,111.44 527.63,113.36 528.21,109.58 528.78,105.76 529.35,101.90 529.92,98.00 530.49,99.97 531.07,96.05 531.64,92.10 532.21,88.10 532.78,84.05 533.35,79.97 533.93,75.85 534.50,77.94 535.07,80.02 535.64,82.08 536.21,84.14 536.79,86.18 537.36,88.22 537.93,90.24 538.50,92.26 539.07,94.27 539.64,96.26 540.22,98.24 540.79,94.32 541.36,96.31 541.93,92.35 542.50,88.36 543.08,84.32 543.65,80.25 544.22,82.32 544.79,84.38 545.36,86.43 545.94,88.47 546.51,84.44 547.08,86.44 547.65,88.48 548.22,90.52 548.80,92.53 549.37,94.54 549.94,96.53 550.51,98.51 551.08,100.49 551.66,102.45 552.23,98.56 552.80,100.54 553.37,102.50 553.94,98.61 554.52,94.68 555.09,90.72 555.66,92.74 556.23,94.75 556.80,96.75 557.38,98.73 557.95,94.80 558.52,96.80 559.09,98.78 559.66,100.76 560.24,102.73 560.81,104.69 561.38,106.64 561.95,108.58 562.52,110.51 563.10,112.43 563.67,114.34 564.24,116.24 564.81,118.13 565.38,114.40 565.96,110.63 566.53,106.82 567.10,102.97 567.67,99.08 568.24,95.16 568.82,91.20 569.39,93.21 569.96,95.22 570.53,97.22 571.10,99.20 571.68,101.18 572.25,103.14 572.82,105.10 573.39,107.05 573.96,108.99 574.54,110.91 575.11,112.83 575.68,114.74 576.25,116.64 576.82,118.53 577.40,120.40 577.97,122.28 578.54,124.13 579.11,125.98 579.68,127.82 580.26,124.17 580.83,120.50 581.40,116.78 581.97,118.67 582.54,120.55 583.12,116.85 583.69,118.74 584.26,120.61 584.83,122.48 585.40,118.79 585.98,115.05 586.55,116.95 587.12,118.84 587.69,120.72 588.26,122.58 588.84,124.44 589.41,126.29 589.98,122.64 590.55,118.95 591.12,120.83 591.70,122.69 592.27,124.55 592.84,126.39 593.41,128.23 593.98,130.06 594.56,131.89 595.13,133.70 595.70,130.12 596.27,126.51 596.84,128.35 597.42,130.18 597.99,126.57 598.56,128.41 599.13,130.24 599.70,132.06 600.28,133.87 600.85,135.66 601.42,137.48 601.99,139.26 602.56,141.03 603.14,142.80 603.71,144.56 604.28,146.30 604.85,148.04 605.42,149.77 606.00,151.49 606.57,153.20 607.14,154.90 607.71,154.06 608.28,154.00 608.86,154.12 609.43,154.10 610.00,155.27" fill="none" stroke="#2563eb" stroke-width="1.5"/><text x="30" y="252" font-size="11" fill="#555">min 69911.32 / max 123184.87</text></svg>
