<svg xmlns="http://www.w3.org/2000/svg" width="640" height="260" viewBox="0 0 640 260"><rect width="640" height="260" fill="white"/><text x="30" y="22" font-size="14" fill="#111">M10-PA-012 15m baseline equity</text><line x1="30" y1="230" x2="610" y2="230" stroke="#ccc"/><line x1="30" y1="30" x2="30" y2="230" stroke="#ccc"/><polyline points="30.00,223.22 30.33,217.90 30.66,220.63 30.99,223.34 31.31,218.02 31.64,220.74 31.97,223.44 32.30,226.13 32.63,228.81 32.96,223.54 33.29,226.24 33.61,220.95 33.94,223.65 34.27,218.33 34.60,212.96 34.93,215.70 35.26,218.43 35.59,213.06 35.92,215.79 36.24,210.41 36.57,213.17 36.90,207.76 37.23,210.52 37.56,213.29 37.89,207.88 38.22,202.41 38.54,205.22 38.87,199.74 39.20,202.55 39.53,197.02 39.86,191.46 40.19,194.31 40.52,197.14 40.84,191.57 41.17,194.41 41.50,197.26 41.83,200.08 42.16,202.88 42.49,197.36 42.82,200.19 43.14,194.64 43.47,197.49 43.80,191.92 44.13,194.77 44.46,197.60 44.79,192.03 45.12,194.87 45.44,197.70 45.77,200.51 46.10,203.31 46.43,206.10 46.76,208.88 47.09,203.41 47.42,197.89 47.75,200.71 48.07,203.53 48.40,198.02 48.73,200.83 49.06,195.29 49.39,189.69 49.72,192.55 50.05,195.38 50.37,198.22 50.70,201.03 51.03,195.50 51.36,189.90 51.69,192.75 52.02,195.59 52.35,189.99 52.67,192.84 53.00,195.67 53.33,190.07 53.66,192.92 53.99,187.28 54.32,190.14 54.65,184.49 54.97,178.78 55.30,173.01 55.63,167.19 55.96,161.31 56.29,164.31 56.62,167.30 56.95,170.28 57.27,164.46 57.60,167.44 57.93,161.56 58.26,164.56 58.59,158.65 58.92,152.68 59.25,146.66 59.58,149.72 59.90,152.77 60.23,155.80 60.56,158.83 60.89,161.84 61.22,164.84 61.55,167.82 61.88,170.79 62.20,173.75 62.53,176.70 62.86,179.62 63.19,182.55 63.52,185.45 63.85,179.77 64.18,174.02 64.50,176.95 64.83,171.17 65.16,165.33 65.49,159.45 65.82,162.47 66.15,156.58 66.48,159.59 66.80,153.65 67.13,156.69 67.46,159.72 67.79,162.75 68.12,165.75 68.45,159.87 68.78,162.89 69.10,165.89 69.43,168.86 69.76,163.02 70.09,157.11 70.42,151.16 70.75,154.22 71.08,157.27 71.41,151.31 71.73,154.36 72.06,148.38 72.39,151.46 72.72,154.51 73.05,148.51 73.38,142.46 73.71,145.55 74.03,148.62 74.36,142.55 74.69,145.65 75.02,148.74 75.35,142.69 75.68,145.79 76.01,148.89 76.33,142.84 76.66,136.72 76.99,139.84 77.32,142.96 77.65,136.84 77.98,130.68 78.31,133.83 78.63,136.97 78.96,130.79 79.29,124.58 79.62,127.76 79.95,130.92 80.28,134.08 80.61,127.88 80.93,131.04 81.26,134.20 81.59,127.98 81.92,131.14 82.25,134.29 82.58,128.08 82.91,131.25 83.24,125.03 83.56,118.74 83.89,121.97 84.22,115.65 84.55,118.87 84.88,122.07 85.21,125.26 85.54,128.43 85.86,131.60 86.19,125.36 86.52,119.07 86.85,112.73 87.18,106.32 87.51,109.63 87.84,112.88 88.16,116.12 88.49,109.75 88.82,103.31 89.15,106.60 89.48,100.13 89.81,93.58 90.14,96.91 90.46,100.24 90.79,93.68 91.12,97.01 91.45,90.42 91.78,93.77 92.11,97.11 92.44,100.43 92.76,103.73 93.09,107.02 93.42,110.29 93.75,113.55 94.08,107.13 94.41,110.41 94.74,113.66 95.07,116.92 95.39,110.53 95.72,113.78 96.05,107.37 96.38,100.91 96.71,104.21 97.04,107.50 97.37,101.03 97.69,104.32 98.02,97.80 98.35,91.23 98.68,94.56 99.01,97.89 99.34,91.32 99.67,94.68 99.99,88.08 100.32,91.44 100.65,94.79 100.98,98.13 101.31,91.57 101.64,94.92 101.97,98.26 102.29,101.58 102.62,95.07 102.95,98.42 103.28,91.86 103.61,95.24 103.94,98.58 104.27,101.91 104.59,95.38 104.92,98.71 105.25,102.04 105.58,105.36 105.91,108.64 106.24,111.92 106.57,115.18 106.90,108.81 107.22,102.37 107.55,105.71 107.88,99.23 108.21,102.54 108.54,96.03 108.87,89.45 109.20,92.84 109.52,96.19 109.85,99.55 110.18,102.88 110.51,106.19 110.84,109.47 111.17,112.75 111.50,116.01 111.82,119.26 112.15,122.49 112.48,125.72 112.81,119.43 113.14,122.67 113.47,125.88 113.80,129.07 114.12,122.82 114.45,126.02 114.78,129.25 115.11,132.44 115.44,135.59 115.77,138.73 116.10,132.60 116.42,126.40 116.75,120.16 117.08,113.86 117.41,117.13 117.74,120.37 118.07,123.58 118.40,117.27 118.73,120.51 119.05,123.72 119.38,126.93 119.71,130.11 120.04,133.29 120.37,136.44 120.70,139.58 121.03,133.45 121.35,136.61 121.68,139.73 122.01,142.84 122.34,145.95 122.67,149.02 123.00,142.99 123.33,146.10 123.65,149.19 123.98,143.13 124.31,146.22 124.64,149.32 124.97,152.39 125.30,155.46 125.63,149.47 125.95,152.55 126.28,146.55 126.61,149.63 126.94,143.59 127.27,146.70 127.60,149.77 127.93,152.83 128.25,155.88 128.58,149.90 128.91,152.97 129.24,146.96 129.57,150.04 129.90,144.04 130.23,147.13 130.56,141.06 130.88,144.16 131.21,147.31 131.54,150.39 131.87,153.47 132.20,156.52 132.53,150.57 132.86,144.54 133.18,138.48 133.51,132.32 133.84,126.10 134.17,129.29 134.50,132.46 134.83,126.26 135.16,129.44 135.48,123.19 135.81,126.38 136.14,129.59 136.47,132.77 136.80,135.91 137.13,139.03 137.46,132.87 137.78,136.01 138.11,139.13 138.44,132.97 138.77,136.11 139.10,139.24 139.43,142.35 139.76,145.45 140.08,139.38 140.41,142.49 140.74,136.38 141.07,139.53 141.40,142.64 141.73,136.52 142.06,130.35 142.39,124.12 142.71,127.37 143.04,130.56 143.37,133.73 143.70,136.88 144.03,140.00 144.36,133.86 144.69,137.00 145.01,140.13 145.34,143.25 145.67,146.35 146.00,140.28 146.33,143.40 146.66,137.29 146.99,140.44 147.31,143.56 147.64,146.65 147.97,149.75 148.30,152.83 148.63,155.87 148.96,149.90 149.29,152.96 149.61,146.93 149.94,150.01 150.27,143.97 150.60,137.86 150.93,141.01 151.26,134.91 151.59,138.04 151.92,141.17 152.24,144.27 152.57,147.39 152.90,141.30 153.23,144.43 153.56,147.51 153.89,150.59 154.22,153.65 154.54,156.71 154.87,159.73 155.20,153.79 155.53,156.85 155.86,159.90 156.19,153.97 156.52,157.02 156.84,160.06 157.17,163.10 157.50,166.09 157.83,160.22 158.16,163.24 158.49,166.24 158.82,160.36 159.14,163.39 159.47,157.48 159.80,160.52 160.13,163.53 160.46,157.64 160.79,151.67 161.12,145.65 161.44,139.58 161.77,142.71 162.10,141.46 162.43,142.76 162.76,142.16 163.09,223.22 163.42,217.96 163.75,220.71 164.07,217.18 164.40,219.93 164.73,222.70 165.06,225.42 165.39,227.39 165.72,222.16 166.05,216.90 166.37,219.70 166.70,214.41 167.03,217.19 167.36,219.95 167.69,222.72 168.02,225.45 168.35,220.20 168.67,214.91 169.00,217.68 169.33,212.37 169.66,214.52 169.99,209.16 170.32,205.02 170.65,206.95 170.97,201.52 171.30,196.05 171.63,198.96 171.96,194.67 172.29,189.13 172.62,191.60 172.95,194.53 173.27,197.41 173.60,193.78 173.93,195.25 174.26,198.10 174.59,201.00 174.92,203.89 175.25,198.45 175.58,201.29 175.90,204.13 176.23,198.67 176.56,193.19 176.89,195.74 177.22,192.55 177.55,186.98 177.88,181.36 178.20,184.11 178.53,178.50 178.86,172.82 179.19,174.80 179.52,169.41 179.85,172.44 180.18,175.44 180.50,170.34 180.83,165.62 181.16,168.65 181.49,162.83 181.82,156.98 182.15,151.33 182.48,145.37 182.80,141.76 183.13,143.61 183.46,146.79 183.79,140.75 184.12,143.89 184.45,146.95 184.78,140.92 185.10,134.84 185.43,128.70 185.76,131.90 186.09,135.09 186.42,138.30 186.75,132.19 187.08,135.35 187.41,138.54 187.73,132.42 188.06,135.61 188.39,138.79 188.72,132.65 189.05,126.44 189.38,120.16 189.71,123.38 190.03,117.12 190.36,110.75 190.69,104.35 191.02,97.89 191.35,91.39 191.68,94.79 192.01,88.26 192.33,81.70 192.66,75.07 192.99,78.57 193.32,81.10 193.65,74.47 193.98,77.96 194.31,71.24 194.63,74.73 194.96,78.21 195.29,81.67 195.62,85.17 195.95,78.53 196.28,81.99 196.61,85.43 196.93,88.82 197.26,92.23 197.59,95.61 197.92,98.97 198.25,92.47 198.58,95.91 198.91,99.29 199.24,102.67 199.56,106.03 199.89,109.35 200.22,112.67 200.55,106.31 200.88,99.91 201.21,103.28 201.54,106.58 201.86,100.16 202.19,102.67 202.52,96.24 202.85,89.77 203.18,83.26 203.51,86.72 203.84,80.11 204.16,83.59 204.49,87.03 204.82,89.90 205.15,93.35 205.48,86.82 205.81,90.25 206.14,93.72 206.46,97.12 206.79,100.52 207.12,103.86 207.45,107.18 207.78,100.76 208.11,94.26 208.44,87.71 208.76,91.16 209.09,93.62 209.42,87.07 209.75,90.38 210.08,93.20 210.41,86.68 210.74,90.10 211.07,93.53 211.39,96.96 211.72,100.32 212.05,103.65 212.38,107.02 212.71,110.35 213.04,104.67 213.37,108.02 213.69,101.62 214.02,95.16 214.35,88.78 214.68,83.02 215.01,85.02 215.34,88.49 215.67,91.84 215.99,94.77 216.32,88.25 216.65,83.81 216.98,87.25 217.31,90.70 217.64,94.16 217.97,97.36 218.29,90.85 218.62,84.24 218.95,87.71 219.28,91.18 219.61,94.61 219.94,97.97 220.27,101.34 220.59,104.70 220.92,108.00 221.25,101.58 221.58,104.97 221.91,98.51 222.24,101.73 222.57,105.06 222.90,98.62 223.22,101.97 223.55,95.49 223.88,98.88 224.21,102.25 224.54,105.61 224.87,101.46 225.20,96.55 225.52,99.91 225.85,103.24 226.18,106.60 226.51,109.93 226.84,113.27 227.17,106.88 227.50,100.44 227.82,93.95 228.15,97.33 228.48,100.75 228.81,104.13 229.14,97.66 229.47,101.02 229.80,97.49 230.12,100.91 230.45,103.11 230.78,96.63 231.11,90.07 231.44,93.45 231.77,96.85 232.10,90.28 232.42,93.66 232.75,87.06 233.08,90.47 233.41,93.86 233.74,97.23 234.07,100.59 234.40,94.08 234.73,97.44 235.05,100.79 235.38,104.11 235.71,107.43 236.04,110.75 236.37,104.38 236.70,107.69 237.03,101.25 237.35,104.63 237.68,108.01 238.01,101.57 238.34,104.90 238.67,98.42 239.00,91.89 239.33,95.31 239.65,98.67 239.98,92.14 240.31,85.53 240.64,78.83 240.97,72.10 241.30,65.27 241.63,58.39 241.95,61.92 242.28,55.01 242.61,48.06 242.94,51.64 243.27,55.24 243.60,58.80 243.93,51.87 244.25,55.46 244.58,48.49 244.91,52.11 245.24,55.68 245.57,59.28 245.90,52.36 246.23,55.98 246.56,59.57 246.88,63.19 247.21,66.74 247.54,70.18 247.87,63.38 248.20,66.93 248.53,70.45 248.86,73.97 249.18,76.59 249.51,80.06 249.84,83.45 250.17,86.88 250.50,90.30 250.83,83.73 251.16,87.18 251.48,90.59 251.81,93.98 252.14,87.42 252.47,90.86 252.80,94.25 253.13,97.66 253.46,100.83 253.78,103.57 254.11,106.95 254.44,110.07 254.77,113.40 255.10,116.70 255.43,119.39 255.76,122.68 256.08,125.90 256.41,129.12 256.74,124.07 257.07,125.96 257.40,120.87 257.73,123.65 258.06,126.92 258.39,120.73 258.71,124.03 259.04,127.14 259.37,128.96 259.70,132.20 260.03,135.34 260.36,138.53 260.69,132.47 261.01,126.34 261.34,128.85 261.67,132.08 262.00,125.94 262.33,121.14 262.66,116.51 262.99,118.27 263.31,121.54 263.64,123.81 263.97,117.54 264.30,111.22 264.63,114.52 264.96,108.21 265.29,111.57 265.61,105.21 265.94,108.24 266.27,111.57 266.60,105.71 266.93,109.09 267.26,102.69 267.59,106.01 267.92,109.39 268.24,112.67 268.57,115.37 268.90,109.12 269.23,112.21 269.56,115.53 269.89,109.20 270.22,112.55 270.54,106.36 270.87,109.68 271.20,112.65 271.53,114.70 271.86,117.53 272.19,112.75 272.52,108.64 272.84,111.80 273.17,115.05 273.50,118.34 273.83,120.76 274.16,123.57 274.49,117.35 274.82,111.07 275.14,104.69 275.47,108.05 275.80,111.06 276.13,105.30 276.46,98.88 276.79,94.91 277.12,97.95 277.44,94.63 277.77,98.06 278.10,101.48 278.43,94.98 278.76,98.38 279.09,91.85 279.42,95.26 279.75,98.62 280.07,92.10 280.40,95.52 280.73,98.63 281.06,102.00 281.39,95.53 281.72,90.24 282.05,87.15 282.37,82.27 282.70,78.20 283.03,81.69 283.36,75.04 283.69,68.29 284.02,71.80 284.35,65.05 284.67,68.57 285.00,72.11 285.33,75.15 285.66,68.39 285.99,61.56 286.32,65.08 286.65,68.58 286.97,72.07 287.30,65.26 287.63,58.41 287.96,51.50 288.29,44.49 288.62,37.47 288.95,40.38 289.27,33.32 289.60,37.06 289.93,30.00 290.26,33.75 290.59,37.46 290.92,40.98 291.25,44.62 291.58,48.25 291.90,41.23 292.23,44.86 292.56,48.47 292.89,41.47 293.22,45.18 293.55,47.20 293.88,50.85 294.20,54.44 294.53,47.54 294.86,51.21 295.19,54.86 295.52,58.48 295.85,62.06 296.18,65.62 296.50,69.14 296.83,62.38 297.16,65.92 297.49,69.48 297.82,62.66 298.15,55.80 298.48,48.89 298.80,52.55 299.13,45.64 299.46,38.56 299.79,42.23 300.12,45.87 300.45,38.79 300.78,31.68 301.10,35.35 301.43,39.02 301.76,42.67 302.09,46.35 302.42,39.29 302.75,42.93 303.08,46.55 303.41,50.15 303.73,53.74 304.06,57.30 304.39,60.85 304.72,64.39 305.05,67.94 305.38,61.09 305.71,64.66 306.03,68.18 306.36,71.69 306.69,75.19 307.02,78.65 307.35,82.12 307.68,75.44 308.01,78.94 308.33,72.25 308.66,75.76 308.99,79.21 309.32,72.53 309.65,76.02 309.98,79.50 310.31,82.98 310.63,76.34 310.96,69.60 311.29,73.09 311.62,76.57 311.95,69.81 312.28,73.32 312.61,66.52 312.93,70.06 313.26,73.57 313.59,77.13 313.92,79.78 314.25,73.10 314.58,66.38 314.91,59.59 315.24,52.71 315.56,56.33 315.89,59.93 316.22,59.15 316.55,223.22 316.88,219.63 317.21,222.42 317.54,217.14 317.86,219.93 318.19,221.87 318.52,216.56 318.85,219.35 319.18,214.05 319.51,208.73 319.84,211.57 320.16,207.66 320.49,210.48 320.82,213.32 321.15,215.47 321.48,218.25 321.81,213.80 322.14,208.65 322.46,211.50 322.79,207.04 323.12,201.65 323.45,204.47 323.78,199.02 324.11,201.90 324.44,199.04 324.76,200.18 325.09,196.00 325.42,190.81 325.75,192.57 326.08,194.71 326.41,195.80 326.74,191.69 327.07,192.90 327.39,194.41 327.72,196.41 328.05,197.52 328.38,198.91 328.71,193.41 329.04,195.80 329.37,191.17 329.69,192.79 330.02,194.61 330.35,197.50 330.68,200.39 331.01,202.04 331.34,197.49 331.67,198.95 331.99,201.83 332.32,199.92 332.65,194.53 332.98,197.45 333.31,199.75 333.64,201.00 333.97,198.38 334.29,195.32 334.62,197.70 334.95,198.95 335.28,195.11 335.61,197.35 335.94,200.25 336.27,202.83 336.59,198.50 336.92,195.56 337.25,192.39 337.58,193.56 337.91,194.74 338.24,192.56 338.57,195.27 338.90,190.10 339.22,192.48 339.55,193.56 339.88,189.09 340.21,184.89 340.54,187.85 340.87,190.80 341.20,193.25 341.52,187.71 341.85,190.63 342.18,186.72 342.51,189.68 342.84,184.11 343.17,187.09 343.50,181.45 343.82,175.74 344.15,169.97 344.48,164.14 344.81,167.15 345.14,161.31 345.47,155.45 345.80,149.51 346.12,143.50 346.45,137.48 346.78,133.35 347.11,128.81 347.44,124.71 347.77,127.61 348.10,129.59 348.42,125.14 348.75,128.39 349.08,124.03 349.41,127.31 349.74,122.88 350.07,126.05 350.40,128.14 350.73,121.95 351.05,125.21 351.38,119.01 351.71,122.24 352.04,124.94 352.37,121.43 352.70,124.66 353.03,118.45 353.35,113.12 353.68,115.39 354.01,118.14 354.34,121.43 354.67,124.64 355.00,126.58 355.33,129.22 355.65,131.35 355.98,127.15 356.31,123.72 356.64,125.18 356.97,128.40 357.30,122.23 357.63,124.22 357.95,127.51 358.28,124.55 358.61,119.63 358.94,113.40 359.27,115.62 359.60,118.92 359.93,122.09 360.25,125.38 360.58,121.47 360.91,115.22 361.24,117.66 361.57,119.85 361.90,121.79 362.23,124.60 362.56,126.91 362.88,129.98 363.21,132.01 363.54,135.25 363.87,138.47 364.20,141.66 364.53,144.81 364.86,147.78 365.18,141.77 365.51,135.69 365.84,131.99 366.17,133.55 366.50,130.48 366.83,127.83 367.16,129.75 367.48,124.18 367.81,127.45 368.14,129.72 368.47,123.56 368.80,126.80 369.13,120.57 369.46,123.64 369.78,125.42 370.11,127.12 370.44,122.85 370.77,124.29 371.10,125.52 371.43,126.47 371.76,127.27 372.08,123.46 372.41,119.61 372.74,121.44 373.07,122.97 373.40,124.28 373.73,126.62 374.06,127.91 374.39,129.78 374.71,131.88 375.04,125.74 375.37,119.49 375.70,122.40 376.03,125.44 376.36,128.52 376.69,122.31 377.01,125.57 377.34,128.83 377.67,132.02 378.00,125.86 378.33,129.14 378.66,122.96 378.99,126.23 379.31,129.47 379.64,123.29 379.97,126.54 380.30,120.36 380.63,123.56 380.96,118.19 381.29,112.20 381.61,114.56 381.94,111.77 382.27,108.87 382.60,102.48 382.93,105.82 383.26,108.52 383.59,111.57 383.92,113.70 384.24,116.96 384.57,110.68 384.90,114.04 385.23,117.08 385.56,120.38 385.89,122.63 386.22,124.90 386.54,118.68 386.87,121.97 387.20,123.41 387.53,124.94 387.86,126.62 388.19,120.42 388.52,114.14 388.84,107.79 389.17,111.09 389.50,114.32 389.83,107.94 390.16,111.26 390.49,104.88 390.82,108.20 391.14,111.53 391.47,114.84 391.80,118.11 392.13,111.79 392.46,115.07 392.79,118.33 393.12,121.60 393.44,115.32 393.77,118.61 394.10,121.88 394.43,115.65 394.76,118.91 395.09,113.84 395.42,117.16 395.75,119.73 396.07,113.44 396.40,116.72 396.73,119.98 397.06,113.69 397.39,117.02 397.72,120.27 398.05,113.98 398.37,107.58 398.70,101.11 399.03,104.45 399.36,97.93 399.69,91.39 400.02,94.75 400.35,88.19 400.67,81.57 401.00,84.99 401.33,88.45 401.66,91.85 401.99,85.25 402.32,88.66 402.65,82.03 402.97,85.49 403.30,88.91 403.63,92.35 403.96,85.75 404.29,89.22 404.62,92.66 404.95,96.11 405.27,99.52 405.60,102.92 405.93,106.25 406.26,109.62 406.59,103.24 406.92,97.78 407.25,100.02 407.58,103.39 407.90,97.68 408.23,101.09 408.56,104.47 408.89,98.19 409.22,101.60 409.55,104.98 409.88,98.58 410.20,102.00 410.53,95.56 410.86,92.04 411.19,94.46 411.52,97.86 411.85,101.27 412.18,103.79 412.50,105.43 412.83,108.23 413.16,111.56 413.49,114.92 413.82,118.23 414.15,119.80 414.48,123.10 414.80,126.36 415.13,129.60 415.46,125.18 415.79,126.82 416.12,123.56 416.45,125.96 416.78,127.59 417.10,124.01 417.43,120.08 417.76,122.81 418.09,120.16 418.42,123.47 418.75,125.35 419.08,127.98 419.41,124.37 419.73,118.52 420.06,121.82 420.39,116.90 420.72,119.14 421.05,121.62 421.38,117.53 421.71,119.47 422.03,117.65 422.36,118.62 422.69,114.82 423.02,116.16 423.35,109.85 423.68,103.47 424.01,106.45 424.33,101.17 424.66,104.59 424.99,100.06 425.32,101.96 425.65,105.35 425.98,101.54 426.31,104.11 426.63,98.96 426.96,94.97 427.29,98.40 427.62,101.75 427.95,103.25 428.28,100.67 428.61,102.53 428.93,105.70 429.26,99.45 429.59,102.84 429.92,105.13 430.25,102.31 430.58,105.66 430.91,107.11 431.24,108.42 431.56,109.76 431.89,103.42 432.22,104.47 432.55,105.88 432.88,101.48 433.21,103.08 433.54,106.45 433.86,108.50 434.19,110.94 434.52,109.09 434.85,112.43 435.18,115.78 435.51,119.10 435.84,120.83 436.16,117.31 436.49,112.82 436.82,114.71 437.15,116.92 437.48,118.89 437.81,120.88 438.14,123.31 438.46,126.60 438.79,120.36 439.12,123.66 439.45,117.39 439.78,120.71 440.11,115.18 440.44,108.85 440.76,111.87 441.09,114.15 441.42,117.49 441.75,111.22 442.08,107.02 442.41,104.39 442.74,106.84 443.07,103.97 443.39,107.36 443.72,100.98 444.05,104.35 444.38,107.71 444.71,111.02 445.04,114.35 445.37,117.13 445.69,119.74 446.02,115.09 446.35,108.77 446.68,112.06 447.01,115.35 447.34,118.62 447.67,112.30 447.99,105.91 448.32,99.49 448.65,92.98 448.98,87.12 449.31,89.16 449.64,83.09 449.97,85.74 450.29,80.70 450.62,83.35 450.95,85.55 451.28,87.63 451.61,83.34 451.94,86.81 452.27,80.20 452.59,83.66 452.92,87.15 453.25,90.58 453.58,94.00 453.91,87.48 454.24,84.23 454.57,87.37 454.90,88.82 455.22,86.27 455.55,81.89 455.88,85.02 456.21,88.47 456.54,85.35 456.87,88.28 457.20,89.77 457.52,85.72 457.85,88.17 458.18,91.64 458.51,85.30 458.84,88.76 459.17,90.63 459.50,84.10 459.82,87.24 460.15,90.67 460.48,94.13 460.81,87.92 461.14,90.85 461.47,93.31 461.80,90.92 462.12,94.30 462.45,97.34 462.78,100.73 463.11,94.26 463.44,87.73 463.77,91.14 464.10,94.54 464.42,97.98 464.75,100.83 465.08,94.33 465.41,87.77 465.74,91.19 466.07,94.58 466.40,97.98 466.73,101.40 467.05,104.78 467.38,108.13 467.71,111.44 468.04,113.85 468.37,107.48 468.70,110.32 469.03,113.64 469.35,116.93 469.68,120.22 470.01,113.96 470.34,117.27 470.67,120.52 471.00,123.78 471.33,117.56 471.65,120.88 471.98,114.64 472.31,109.30 472.64,102.93 472.97,106.29 473.30,109.63 473.63,112.96 473.95,116.28 474.28,109.95 474.61,113.25 474.94,116.53 475.27,110.18 475.60,113.50 475.93,107.11 476.25,110.43 476.58,113.77 476.91,115.34 477.24,117.36 477.57,111.08 477.90,105.01 478.23,100.53 478.56,95.28 478.88,98.65 479.21,101.34 479.54,97.94 479.87,223.22 480.20,225.91 480.53,228.59 480.86,223.32 481.18,218.02 481.51,220.72 481.84,223.42 482.17,226.11 482.50,228.78 482.83,223.54 483.16,218.22 483.48,212.85 483.81,207.43 484.14,201.95 484.47,204.75 484.80,207.52 485.13,202.05 485.46,204.84 485.78,207.64 486.11,202.17 486.44,196.64 486.77,199.46 487.10,202.28 487.43,205.08 487.76,207.86 488.08,202.40 488.41,205.19 488.74,207.96 489.07,202.50 489.40,205.29 489.73,208.07 490.06,210.84 490.39,213.60 490.71,216.34 491.04,219.05 491.37,221.77 491.70,224.47 492.03,227.15 492.36,221.87 492.69,224.56 493.01,227.24 493.34,221.95 493.67,224.65 494.00,227.33 494.33,230.00 494.66,224.75 494.99,219.44 495.31,222.15 495.64,216.82 495.97,211.43 496.30,205.99 496.63,200.50 496.96,194.96 497.29,197.80 497.61,192.21 497.94,195.05 498.27,197.87 498.60,192.29 498.93,195.14 499.26,197.96 499.59,200.78 499.92,195.23 500.24,198.05 500.57,200.86 500.90,203.66 501.23,198.15 501.56,192.59 501.89,186.95 502.22,189.81 502.54,192.67 502.87,187.04 503.20,189.92 503.53,184.26 503.86,187.14 504.19,190.00 504.52,192.85 504.84,187.23 505.17,190.11 505.50,184.47 505.83,187.35 506.16,190.22 506.49,193.07 506.82,195.91 507.14,190.33 507.47,193.17 507.80,196.01 508.13,198.82 508.46,201.62 508.79,204.42 509.12,207.20 509.44,209.97 509.77,204.53 510.10,199.03 510.43,201.84 510.76,204.63 511.09,207.42 511.42,210.18 511.75,212.95 512.07,207.53 512.40,202.04 512.73,204.84 513.06,207.64 513.39,202.16 513.72,204.96 514.05,207.74 514.37,210.51 514.70,213.26 515.03,216.03 515.36,218.75 515.69,221.46 516.02,216.12 516.35,218.86 516.67,221.56 517.00,224.26 517.33,218.95 517.66,213.59 517.99,208.17 518.32,202.69 518.65,205.48 518.97,208.25 519.30,211.00 519.63,213.75 519.96,208.33 520.29,211.09 520.62,213.84 520.95,216.57 521.27,219.29 521.60,221.99 521.93,224.68 522.26,227.35 522.59,222.09 522.92,216.78 523.25,211.40 523.58,214.13 523.90,208.72 524.23,203.26 524.56,197.75 524.89,192.17 525.22,195.01 525.55,197.84 525.88,200.65 526.20,203.44 526.53,197.92 526.86,200.73 527.19,195.18 527.52,189.58 527.85,192.43 528.18,195.28 528.50,189.68 528.83,192.53 529.16,195.37 529.49,198.21 529.82,201.03 530.15,195.50 530.48,189.91 530.80,192.76 531.13,195.60 531.46,198.43 531.79,201.24 532.12,195.72 532.45,198.54 532.78,192.98 533.10,195.82 533.43,198.64 533.76,193.07 534.09,195.91 534.42,198.73 534.75,201.55 535.08,196.01 535.41,190.42 535.73,184.76 536.06,179.05 536.39,181.95 536.72,184.84 537.05,179.12 537.38,182.02 537.71,184.91 538.03,179.21 538.36,173.45 538.69,176.38 539.02,179.30 539.35,182.20 539.68,185.09 540.01,179.39 540.33,182.31 540.66,176.58 540.99,179.49 541.32,182.39 541.65,185.28 541.98,188.15 542.31,191.00 542.63,185.36 542.96,188.23 543.29,191.08 543.62,185.43 543.95,188.30 544.28,182.62 544.61,185.50 544.93,188.37 545.26,182.70 545.59,185.58 545.92,179.88 546.25,182.78 546.58,177.06 546.91,179.98 547.24,174.23 547.56,168.41 547.89,162.55 548.22,156.62 548.55,159.63 548.88,153.67 549.21,156.71 549.54,159.73 549.86,162.74 550.19,165.74 550.52,159.85 550.85,153.92 551.18,156.96 551.51,159.98 551.84,162.99 552.16,157.08 552.49,160.11 552.82,154.16 553.15,148.16 553.48,151.23 553.81,145.21 554.14,148.29 554.46,151.35 554.79,154.41 555.12,148.40 555.45,151.45 555.78,154.50 556.11,148.49 556.44,142.43 556.76,145.52 557.09,148.59 557.42,142.54 557.75,145.63 558.08,139.54 558.41,142.64 558.74,145.72 559.07,139.63 559.39,142.72 559.72,136.61 560.05,139.73 560.38,142.83 560.71,145.93 561.04,149.03 561.37,142.97 561.69,136.86 562.02,139.99 562.35,143.10 562.68,136.99 563.01,140.13 563.34,143.24 563.67,137.12 563.99,140.24 564.32,134.12 564.65,137.25 564.98,131.08 565.31,124.85 565.64,118.57 565.97,112.20 566.29,115.47 566.62,118.70 566.95,112.34 567.28,115.59 567.61,118.82 567.94,122.05 568.27,115.73 568.59,118.95 568.92,122.18 569.25,115.85 569.58,119.08 569.91,112.72 570.24,115.97 570.57,109.58 570.90,112.84 571.22,116.09 571.55,119.34 571.88,112.99 572.21,106.57 572.54,100.08 572.87,103.38 573.20,106.69 573.52,100.21 573.85,103.52 574.18,106.82 574.51,110.10 574.84,113.36 575.17,106.94 575.50,110.23 575.82,113.48 576.15,107.06 576.48,110.33 576.81,113.59 577.14,107.18 577.47,110.45 577.80,113.72 578.12,107.32 578.45,110.59 578.78,113.87 579.11,117.11 579.44,120.33 579.77,113.98 580.10,117.22 580.42,110.85 580.75,114.10 581.08,117.35 581.41,120.58 581.74,123.78 582.07,126.97 582.40,120.69 582.73,123.89 583.05,117.60 583.38,111.22 583.71,114.47 584.04,108.06 584.37,111.31 584.70,114.56 585.03,117.79 585.35,111.42 585.68,104.99 586.01,108.28 586.34,101.81 586.67,105.12 587.00,98.63 587.33,101.95 587.65,105.24 587.98,108.52 588.31,111.78 588.64,115.03 588.97,118.27 589.30,111.92 589.63,105.49 589.95,99.00 590.28,102.34 590.61,95.81 590.94,99.15 591.27,102.45 591.60,105.75 591.93,109.04 592.25,112.30 592.58,105.89 592.91,109.20 593.24,112.50 593.57,115.75 593.90,118.99 594.23,112.65 594.56,106.25 594.88,99.77 595.21,93.21 595.54,96.55 595.87,99.88 596.20,103.22 596.53,96.72 596.86,100.04 597.18,103.34 597.51,106.64 597.84,100.15 598.17,93.61 598.50,96.95 598.83,100.30 599.16,103.62 599.48,106.92 599.81,110.20 600.14,113.46 600.47,107.05 600.80,100.60 601.13,103.90 601.46,107.20 601.78,110.47 602.11,113.74 602.44,117.00 602.77,110.63 603.10,113.92 603.43,117.17 603.76,110.83 604.08,114.08 604.41,117.32 604.74,110.95 605.07,104.52 605.40,107.81 605.73,111.09 606.06,114.34 606.39,117.59 606.71,111.22 607.04,104.79 607.37,108.08 607.70,111.34 608.03,104.91 608.36,108.21 608.69,101.75 609.01,95.22 609.34,98.54 609.67,96.99 610.00,96.20" fill="none" stroke="#2563eb" stroke-width="1.5"/><text x="30" y="252" font-size="11" fill="#555">min 98729.70 / max 136200.04</text></svg>
