<svg xmlns="http://www.w3.org/2000/svg" width="640" height="260" viewBox="0 0 640 260"><rect width="640" height="260" fill="white"/><text x="30" y="22" font-size="14" fill="#111">M10-PA-002 1d baseline equity</text><line x1="30" y1="230" x2="610" y2="230" stroke="#ccc"/><line x1="30" y1="30" x2="30" y2="230" stroke="#ccc"/><polyline points="30.00,149.92 30.48,152.59 30.97,147.35 31.45,150.02 31.93,152.69 32.42,147.45 32.90,142.15 33.39,144.85 33.87,139.52 34.35,134.14 34.84,128.70 35.32,123.20 35.80,117.65 36.29,112.05 36.77,114.89 37.26,117.71 37.74,120.53 38.22,114.96 38.71,109.32 39.19,112.18 39.67,106.52 40.16,109.39 40.64,112.25 41.13,115.08 41.61,117.91 42.09,120.74 42.58,123.54 43.06,126.33 43.54,129.11 44.03,131.88 44.51,126.42 45.00,129.20 45.48,131.97 45.96,134.75 46.45,129.33 46.93,132.10 47.41,134.85 47.90,137.59 48.38,140.33 48.87,143.03 49.35,145.72 49.83,148.40 50.32,151.07 50.80,153.76 51.28,148.52 51.77,143.23 52.25,137.93 52.74,132.56 53.22,135.32 53.70,129.89 54.19,132.67 54.67,135.41 55.15,138.15 55.64,140.88 56.12,143.59 56.61,146.28 57.09,148.96 57.57,143.67 58.06,138.33 58.54,141.06 59.02,143.76 59.51,146.46 59.99,149.14 60.48,151.82 60.96,154.49 61.44,149.26 61.93,151.92 62.41,146.68 62.89,149.35 63.38,152.03 63.86,154.67 64.35,157.30 64.83,159.92 65.31,162.54 65.80,165.15 66.28,167.74 66.76,170.34 67.25,165.27 67.73,160.14 68.22,154.97 68.70,157.61 69.18,160.23 69.67,162.84 70.15,165.44 70.63,160.31 71.12,155.15 71.60,157.78 72.09,160.41 72.57,163.01 73.05,157.86 73.54,152.69 74.02,147.44 74.50,150.11 74.99,152.78 75.47,147.53 75.95,142.23 76.44,136.87 76.92,131.49 77.41,126.04 77.89,128.83 78.37,123.34 78.86,117.79 79.34,112.20 79.82,106.54 80.31,100.83 80.79,95.08 81.28,98.00 81.76,100.92 82.24,103.83 82.73,106.72 83.21,101.00 83.69,103.90 84.18,98.16 84.66,101.07 85.15,101.86 85.63,104.76 86.11,99.05 86.60,101.97 87.08,104.86 87.56,107.76 88.05,102.05 88.53,104.95 89.02,107.85 89.50,102.16 89.98,105.07 90.47,107.95 90.95,109.53 91.43,112.38 91.92,115.23 92.40,118.06 92.89,120.87 93.37,115.30 93.85,118.13 94.34,112.57 94.82,106.94 95.30,109.82 95.79,104.18 96.27,98.48 96.76,92.72 97.24,95.66 97.72,98.60 98.21,101.52 98.69,95.76 99.17,98.69 99.66,92.89 100.14,95.83 100.63,98.76 101.11,101.67 101.59,95.92 102.08,90.12 102.56,93.10 103.04,87.25 103.53,81.36 104.01,84.36 104.50,87.37 104.98,90.35 105.46,93.31 105.95,96.25 106.43,99.18 106.91,102.11 107.40,105.04 107.88,99.31 108.37,102.22 108.85,96.47 109.33,99.39 109.82,102.29 110.30,105.24 110.78,108.12 111.27,110.99 111.75,105.31 112.24,108.19 112.72,102.49 113.20,105.39 113.69,99.67 114.17,93.90 114.65,96.83 115.14,99.76 115.62,102.68 116.11,105.58 116.59,108.46 117.07,111.32 117.56,105.71 118.04,108.58 118.52,102.89 119.01,105.78 119.49,108.66 119.97,102.96 120.46,97.22 120.94,91.42 121.43,85.57 121.91,79.65 122.39,82.67 122.88,85.66 123.36,88.64 123.84,91.62 124.33,85.76 124.81,79.84 125.30,73.87 125.78,76.90 126.26,79.91 126.75,82.91 127.23,85.90 127.71,79.97 128.20,74.00 128.68,77.04 129.17,80.06 129.65,83.07 130.13,86.05 130.62,80.15 131.10,74.17 131.58,77.20 132.07,80.22 132.55,83.22 133.04,86.21 133.52,89.18 134.00,92.20 134.49,86.35 134.97,80.43 135.45,83.43 135.94,77.49 136.42,80.51 136.91,81.92 137.39,75.96 137.87,79.01 138.36,82.02 138.84,85.02 139.32,88.00 139.81,91.00 140.29,93.97 140.78,96.92 141.26,99.84 141.74,94.05 142.23,88.23 142.71,82.34 143.19,76.39 143.68,70.37 144.16,73.43 144.65,75.16 145.13,69.13 145.61,72.20 146.10,66.15 146.58,69.22 147.06,72.29 147.55,75.35 148.03,78.42 148.52,72.43 149.00,75.48 149.48,69.48 149.97,72.54 150.45,75.59 150.93,78.62 151.42,81.66 151.90,75.73 152.39,69.71 152.87,63.63 153.35,66.72 153.84,60.61 154.32,54.44 154.80,48.24 155.29,51.41 155.77,54.55 156.26,57.69 156.74,60.84 157.22,63.94 157.71,67.04 158.19,65.93 158.67,65.98 159.16,149.92 159.64,144.69 160.13,139.38 160.61,134.02 161.09,128.63 161.58,131.46 162.06,133.51 162.54,128.08 163.03,130.87 163.51,133.65 163.99,136.42 164.48,131.10 164.96,133.89 165.45,136.41 165.93,137.01 166.41,139.80 166.90,134.45 167.38,137.20 167.86,131.84 168.35,134.68 168.83,137.45 169.32,140.18 169.80,142.90 170.28,145.65 170.77,140.33 171.25,143.03 171.73,145.73 172.22,148.43 172.70,150.38 173.19,153.04 173.67,153.24 174.15,148.01 174.64,142.73 175.12,145.18 175.60,139.90 176.09,134.54 176.57,137.32 177.06,140.06 177.54,134.72 178.02,137.48 178.51,140.21 178.99,142.92 179.47,145.62 179.96,148.38 180.44,143.11 180.93,145.84 181.41,148.53 181.89,143.26 182.38,145.99 182.86,148.72 183.34,143.44 183.83,146.17 184.31,148.85 184.80,143.60 185.28,146.30 185.76,149.05 186.25,151.42 186.73,154.13 187.21,156.79 187.70,159.43 188.18,162.04 188.67,156.95 189.15,159.64 189.63,162.25 190.12,164.87 190.60,167.50 191.08,170.11 191.57,172.73 192.05,167.75 192.54,170.34 193.02,172.93 193.50,167.90 193.99,162.81 194.47,157.67 194.95,152.49 195.44,147.25 195.92,149.96 196.41,144.70 196.89,147.42 197.37,148.61 197.86,151.29 198.34,153.96 198.82,156.60 199.31,159.23 199.79,161.88 200.28,156.75 200.76,151.56 201.24,146.34 201.73,149.09 202.21,143.82 202.69,138.50 203.18,133.14 203.66,135.91 204.15,136.54 204.63,131.18 205.11,126.40 205.60,129.23 206.08,132.00 206.56,134.75 207.05,131.68 207.53,126.27 208.02,120.80 208.50,123.62 208.98,126.47 209.47,129.24 209.95,132.03 210.43,126.63 210.92,121.18 211.40,124.02 211.88,126.84 212.37,129.67 212.85,131.32 213.34,126.06 213.82,128.85 214.30,131.65 214.79,134.39 215.27,137.12 215.75,139.87 216.24,142.57 216.72,145.29 217.21,140.01 217.69,142.72 218.17,137.38 218.66,132.03 219.14,128.95 219.62,123.51 220.11,126.31 220.59,129.17 221.08,131.94 221.56,133.99 222.04,128.58 222.53,123.17 223.01,126.01 223.49,120.52 223.98,114.97 224.46,117.86 224.95,112.35 225.43,106.79 225.91,101.12 226.40,104.12 226.88,104.45 227.36,98.81 227.85,93.07 228.33,87.31 228.82,87.52 229.30,90.55 229.78,93.52 230.27,94.13 230.75,97.09 231.23,99.49 231.72,102.45 232.20,98.11 232.69,92.33 233.17,95.31 233.65,98.12 234.14,101.09 234.62,104.01 235.10,106.93 235.59,101.25 236.07,95.52 236.56,98.46 237.04,92.71 237.52,95.67 238.01,98.68 238.49,92.90 238.97,95.86 239.46,98.79 239.94,93.02 240.43,96.01 240.91,98.95 241.39,101.90 241.88,104.83 242.36,107.76 242.84,110.69 243.33,105.03 243.81,99.32 244.30,102.23 244.78,105.12 245.26,99.47 245.75,102.40 246.23,105.33 246.71,99.68 247.20,102.61 247.68,105.55 248.17,108.45 248.65,111.38 249.13,114.27 249.62,117.15 250.10,120.00 250.58,114.44 251.07,108.84 251.55,111.74 252.04,112.46 252.52,106.82 253.00,101.21 253.49,95.48 253.97,98.50 254.45,92.77 254.94,86.94 255.42,81.13 255.90,84.18 256.39,78.27 256.87,81.30 257.36,77.99 257.84,71.99 258.32,75.05 258.81,78.09 259.29,72.12 259.77,75.18 260.26,78.22 260.74,81.31 261.23,75.39 261.71,78.47 262.19,81.49 262.68,75.56 263.16,78.61 263.64,81.68 264.13,84.68 264.61,87.68 265.10,90.68 265.58,93.69 266.06,96.64 266.55,99.57 267.03,93.81 267.51,96.78 268.00,99.73 268.48,102.65 268.97,96.92 269.45,99.88 269.93,102.86 270.42,97.13 270.90,91.37 271.38,86.84 271.87,89.83 272.35,92.83 272.84,95.80 273.32,98.74 273.80,101.69 274.29,104.60 274.77,107.50 275.25,103.14 275.74,97.42 276.22,91.65 276.71,85.81 277.19,88.81 277.67,91.78 278.16,94.76 278.64,97.75 279.12,91.95 279.61,86.09 280.09,89.07 280.58,92.04 281.06,95.00 281.54,97.94 282.03,92.13 282.51,86.29 282.99,89.29 283.48,92.26 283.96,95.25 284.45,89.42 284.93,92.39 285.41,86.59 285.90,80.72 286.38,83.74 286.86,77.80 287.35,80.83 287.83,83.83 288.32,86.82 288.80,89.80 289.28,92.76 289.77,95.74 290.25,98.00 290.73,92.25 291.22,95.20 291.70,98.18 292.19,101.12 292.67,104.07 293.15,98.34 293.64,101.28 294.12,95.53 294.60,89.73 295.09,92.78 295.57,95.76 296.06,98.77 296.54,101.70 297.02,104.60 297.51,107.52 297.99,110.42 298.47,113.32 298.96,116.17 299.44,119.07 299.92,113.49 300.41,108.73 300.89,111.63 301.38,105.98 301.86,100.27 302.34,103.21 302.83,106.15 303.31,109.08 303.79,103.40 304.28,97.68 304.76,99.24 305.25,93.47 305.73,96.42 306.21,99.36 306.70,102.20 307.18,96.46 307.66,99.42 308.15,102.38 308.63,105.30 309.12,99.59 309.60,102.51 310.08,105.42 310.57,108.32 311.05,111.20 311.53,114.08 312.02,116.93 312.50,119.76 312.99,122.60 313.47,125.41 313.95,128.28 314.44,131.06 314.92,133.37 315.40,136.13 315.89,138.94 316.37,133.58 316.86,128.18 317.34,130.94 317.82,133.79 318.31,136.55 318.79,139.32 319.27,142.05 319.76,136.73 320.24,131.33 320.73,125.92 321.21,128.74 321.69,131.46 322.18,134.23 322.66,137.01 323.14,139.75 323.63,142.46 324.11,144.42 324.60,147.11 325.08,149.81 325.56,149.12 326.05,149.33 326.53,149.92 327.01,152.65 327.50,155.33 327.98,150.13 328.47,152.87 328.95,147.70 329.43,150.41 329.92,145.20 330.40,147.93 330.88,143.42 331.37,146.14 331.85,148.85 332.34,151.54 332.82,151.89 333.30,154.57 333.79,149.34 334.27,152.00 334.75,154.64 335.24,157.29 335.72,159.92 336.21,154.76 336.69,156.43 337.17,151.23 337.66,153.91 338.14,155.10 338.62,157.78 339.11,160.41 339.59,163.02 340.08,165.63 340.56,168.23 341.04,170.84 341.53,173.41 342.01,169.94 342.49,172.51 342.98,175.06 343.46,170.06 343.94,172.64 344.43,167.63 344.91,162.58 345.40,161.80 345.88,158.08 346.36,160.29 346.85,162.94 347.33,157.81 347.81,153.69 348.30,156.36 348.78,159.02 349.27,161.68 349.75,164.28 350.23,166.41 350.72,169.02 351.20,171.63 351.68,174.22 352.17,175.32 352.65,170.34 353.14,172.95 353.62,175.50 354.10,178.06 354.59,180.66 355.07,183.21 355.55,184.79 356.04,187.29 356.52,189.77 357.01,192.28 357.49,194.74 357.97,197.21 358.46,192.94 358.94,188.13 359.42,186.34 359.91,188.84 360.39,191.33 360.88,192.80 361.36,195.29 361.84,197.74 362.33,200.23 362.81,202.64 363.29,205.04 363.78,200.32 364.26,195.56 364.75,194.61 365.23,195.68 365.71,198.13 366.20,200.55 366.68,202.96 367.16,205.38 367.65,207.51 368.13,206.21 368.62,208.62 369.10,210.40 369.58,212.67 370.07,213.76 370.55,216.14 371.03,218.46 371.52,220.77 372.00,223.12 372.49,225.41 372.97,227.71 373.45,230.00 373.94,225.55 374.42,227.84 374.90,223.37 375.39,218.83 375.87,214.26 376.36,216.66 376.84,212.08 377.32,214.48 377.81,209.92 378.29,212.30 378.77,214.68 379.26,217.02 379.74,219.36 380.23,221.68 380.71,217.14 381.19,212.60 381.68,208.54 382.16,209.95 382.64,205.29 383.13,207.72 383.61,209.68 384.10,205.03 384.58,200.37 385.06,202.81 385.55,200.62 386.03,203.10 386.51,205.51 387.00,206.35 387.48,208.76 387.96,207.85 388.45,205.06 388.93,203.50 389.42,205.91 389.90,201.25 390.38,202.07 390.87,197.35 391.35,192.62 391.83,187.86 392.32,183.02 392.80,178.15 393.29,180.73 393.77,181.32 394.25,176.38 394.74,171.39 395.22,166.36 395.70,161.29 396.19,162.72 396.67,165.33 397.16,160.26 397.64,162.90 398.12,157.75 398.61,160.38 399.09,163.00 399.57,165.63 400.06,168.28 400.54,163.25 401.03,165.88 401.51,168.52 401.99,171.11 402.48,173.74 402.96,168.71 403.44,171.30 403.93,173.87 404.41,168.84 404.90,171.40 405.38,166.35 405.86,161.25 406.35,156.12 406.83,158.78 407.31,153.67 407.80,148.51 408.28,151.25 408.77,146.02 409.25,146.35 409.73,149.10 410.22,151.82 410.70,153.93 411.18,156.61 411.67,159.26 412.15,161.90 412.64,162.66 413.12,157.54 413.60,152.38 414.09,155.08 414.57,157.79 415.05,158.26 415.54,153.08 416.02,147.91 416.51,150.17 416.99,152.86 417.47,155.27 417.96,157.92 418.44,152.72 418.92,155.36 419.41,150.15 419.89,152.82 420.38,155.49 420.86,150.31 421.34,145.11 421.83,139.81 422.31,142.55 422.79,145.27 423.28,147.96 423.76,150.64 424.25,153.29 424.73,151.97 425.21,154.71 425.70,156.95 426.18,159.59 426.66,162.24 427.15,163.20 427.63,158.07 428.12,152.95 428.60,147.75 429.08,150.45 429.57,153.17 430.05,155.85 430.53,158.54 431.02,161.18 431.50,163.84 431.98,166.11 432.47,168.72 432.95,163.67 433.44,158.54 433.92,153.41 434.40,148.59 434.89,143.37 435.37,138.07 435.85,140.82 436.34,143.54 436.82,146.27 437.31,148.95 437.79,151.63 438.27,154.32 438.76,156.96 439.24,151.78 439.72,154.44 440.21,149.21 440.69,151.92 441.18,154.58 441.66,157.23 442.14,159.88 442.63,162.49 443.11,157.42 443.59,160.06 444.08,161.62 444.56,156.46 445.05,159.09 445.53,161.72 446.01,164.31 446.50,166.93 446.98,169.51 447.46,172.08 447.95,174.64 448.43,177.18 448.92,178.03 449.40,173.04 449.88,175.58 450.37,178.18 450.85,180.71 451.33,183.25 451.82,185.78 452.30,180.92 452.79,175.97 453.27,177.48 453.75,173.83 454.24,176.41 454.72,178.96 455.20,181.48 455.69,184.03 456.17,186.53 456.66,189.04 457.14,191.52 457.62,194.01 458.11,189.18 458.59,184.33 459.07,179.44 459.56,174.49 460.04,169.46 460.53,164.41 461.01,159.30 461.49,160.95 461.98,155.83 462.46,158.52 462.94,153.37 463.43,155.20 463.91,157.86 464.40,160.49 464.88,163.12 465.36,158.01 465.85,160.65 466.33,163.31 466.81,158.21 467.30,160.84 467.78,155.70 468.27,158.36 468.75,161.02 469.23,163.66 469.72,166.28 470.20,168.89 470.68,163.87 471.17,166.48 471.65,169.10 472.14,171.70 472.62,174.31 473.10,176.48 473.59,171.47 474.07,174.01 474.55,169.03 475.04,164.03 475.52,166.68 476.01,169.30 476.49,167.84 476.97,162.78 477.46,157.65 477.94,152.49 478.42,147.29 478.91,150.01 479.39,152.76 479.87,155.44 480.36,158.01 480.84,152.86 481.33,153.50 481.81,156.18 482.29,158.85 482.78,161.50 483.26,164.18 483.74,162.98 484.23,162.43 484.71,162.91 485.20,149.92 485.68,144.64 486.16,147.31 486.65,149.98 487.13,152.63 487.61,155.27 488.10,157.90 488.58,160.52 489.07,163.12 489.55,165.70 490.03,168.27 490.52,170.83 491.00,173.38 491.48,175.94 491.97,178.47 492.45,173.47 492.94,168.43 493.42,170.99 493.90,165.94 494.39,160.82 494.87,163.42 495.35,166.01 495.84,160.89 496.32,163.49 496.81,166.08 497.29,168.65 497.77,171.21 498.26,173.76 498.74,168.72 499.22,171.29 499.71,173.85 500.19,176.39 500.68,178.91 501.16,181.42 501.64,176.45 502.13,171.43 502.61,173.99 503.09,168.96 503.58,171.52 504.06,174.09 504.55,169.05 505.03,171.61 505.51,174.18 506.00,169.14 506.48,171.70 506.96,174.25 507.45,175.93 507.93,170.91 508.42,173.46 508.90,175.99 509.38,170.97 509.87,173.52 510.35,168.47 510.83,163.38 511.32,165.96 511.80,168.54 512.29,163.44 512.77,158.30 513.25,160.92 513.74,155.76 514.22,150.54 514.70,153.20 515.19,155.83 515.67,158.46 516.16,161.13 516.64,163.72 517.12,158.58 517.61,161.19 518.09,163.79 518.57,158.65 519.06,153.47 519.54,156.12 520.03,158.81 520.51,153.63 520.99,148.39 521.48,143.11 521.96,145.80 522.44,148.48 522.93,143.19 523.41,137.84 523.89,140.55 524.38,143.25 524.86,137.91 525.35,140.62 525.83,143.32 526.31,146.02 526.80,148.69 527.28,151.36 527.76,146.09 528.25,148.76 528.73,151.42 529.22,154.07 529.70,148.85 530.18,143.56 530.67,138.22 531.15,132.83 531.63,135.57 532.12,138.31 532.60,141.03 533.09,135.67 533.57,130.24 534.05,124.77 534.54,119.24 535.02,122.07 535.50,124.87 535.99,127.65 536.47,122.15 536.96,116.59 537.44,110.98 537.92,113.83 538.41,116.67 538.89,119.48 539.37,122.30 539.86,125.10 540.34,127.92 540.83,130.68 541.31,133.45 541.79,136.19 542.28,138.91 542.76,141.63 543.24,144.33 543.73,147.01 544.21,141.71 544.70,144.40 545.18,139.07 545.66,141.77 546.15,136.42 546.63,139.14 547.11,141.85 547.60,144.55 548.08,139.21 548.57,141.92 549.05,136.56 549.53,139.29 550.02,133.90 550.50,128.47 550.98,131.23 551.47,133.98 551.95,128.54 552.44,131.31 552.92,134.06 553.40,136.79 553.89,139.51 554.37,134.13 554.85,128.69 555.34,123.20 555.82,117.65 556.31,112.05 556.79,114.90 557.27,117.73 557.76,112.14 558.24,106.48 558.72,109.35 559.21,103.65 559.69,106.53 560.18,100.83 560.66,103.72 561.14,97.97 561.63,92.17 562.11,86.31 562.59,89.28 563.08,83.38 563.56,86.37 564.05,89.34 564.53,92.29 565.01,86.43 565.50,80.51 565.98,83.51 566.46,86.50 566.95,89.47 567.43,92.42 567.91,95.39 568.40,98.31 568.88,101.23 569.37,104.13 569.85,107.01 570.33,109.87 570.82,112.74 571.30,107.09 571.78,109.99 572.27,104.31 572.75,98.60 573.24,92.80 573.72,95.74 574.20,89.91 574.69,92.86 575.17,95.81 575.65,98.73 576.14,101.64 576.62,104.59 577.11,98.85 577.59,101.76 578.07,104.65 578.56,107.54 579.04,101.83 579.52,96.07 580.01,90.25 580.49,84.37 580.98,87.36 581.46,90.33 581.94,93.28 582.43,87.44 582.91,90.40 583.39,84.53 583.88,87.53 584.36,81.62 584.85,75.65 585.33,69.62 585.81,72.67 586.30,66.62 586.78,60.53 587.26,54.35 587.75,57.49 588.23,60.61 588.72,54.44 589.20,57.61 589.68,51.41 590.17,45.14 590.65,48.32 591.13,51.48 591.62,54.65 592.10,57.79 592.59,60.95 593.07,64.06 593.55,57.92 594.04,61.04 594.52,64.14 595.00,58.00 595.49,61.11 595.97,64.20 596.46,67.29 596.94,70.36 597.42,73.41 597.91,67.37 598.39,70.44 598.87,64.36 599.36,58.22 599.84,52.02 600.33,45.77 600.81,48.94 601.29,52.10 601.78,55.28 602.26,49.05 602.74,42.76 603.23,36.40 603.71,30.00 604.20,33.25 604.68,36.50 605.16,39.74 605.65,42.94 606.13,46.12 606.61,39.81 607.10,43.01 607.58,46.20 608.07,49.38 608.55,52.54 609.03,55.69 609.52,58.82 610.00,61.95" fill="none" stroke="#2563eb" stroke-width="1.5"/><text x="30" y="252" font-size="11" fill="#555">min 84863.67 / max 122668.28</text></svg>
