<svg xmlns="http://www.w3.org/2000/svg" width="640" height="260" viewBox="0 0 640 260"><rect width="640" height="260" fill="white"/><text x="30" y="22" font-size="14" fill="#111">M10-PA-001 1d baseline equity</text><line x1="30" y1="230" x2="610" y2="230" stroke="#ccc"/><line x1="30" y1="30" x2="30" y2="230" stroke="#ccc"/><polyline points="30.00,181.94 30.38,183.87 30.76,180.05 31.14,176.19 31.53,172.29 31.91,168.35 32.29,164.37 32.67,160.36 33.05,156.30 33.43,152.20 33.81,154.28 34.19,150.16 34.58,145.99 34.96,148.10 35.34,150.19 35.72,152.28 36.10,154.36 36.48,150.24 36.86,152.32 37.25,154.39 37.63,156.46 38.01,158.51 38.39,160.55 38.77,162.58 39.15,164.60 39.53,166.61 39.91,168.61 40.30,170.61 40.68,172.59 41.06,174.57 41.44,176.53 41.82,178.49 42.20,180.43 42.58,182.36 42.97,184.29 43.35,180.47 43.73,176.61 44.11,178.57 44.49,180.51 44.87,182.44 45.25,184.37 45.63,186.28 46.02,188.19 46.40,190.09 46.78,191.97 47.16,193.85 47.54,190.13 47.92,186.37 48.30,188.28 48.69,190.17 49.07,186.41 49.45,188.32 49.83,184.54 50.21,186.46 50.59,188.37 50.97,190.27 51.35,186.51 51.74,188.42 52.12,190.31 52.50,192.20 52.88,194.08 53.26,195.95 53.64,197.81 54.02,194.13 54.40,196.00 54.79,197.86 55.17,199.71 55.55,201.55 55.93,203.38 56.31,205.21 56.69,207.02 57.07,208.85 57.46,210.65 57.84,212.43 58.22,214.21 58.60,215.97 58.98,217.73 59.36,219.47 59.74,221.22 60.12,222.95 60.51,219.52 60.89,216.05 61.27,212.55 61.65,209.02 62.03,210.81 62.41,212.60 62.79,214.37 63.18,210.86 63.56,212.64 63.94,214.42 64.32,216.19 64.70,217.95 65.08,219.69 65.46,221.43 65.84,223.16 66.23,224.88 66.61,226.59 66.99,228.30 67.37,230.00 67.75,226.64 68.13,223.25 68.51,219.82 68.90,216.36 69.28,212.86 69.66,209.33 70.04,211.12 70.42,212.90 70.80,214.67 71.18,216.44 71.56,218.19 71.95,219.93 72.33,221.67 72.71,223.40 73.09,225.11 73.47,221.70 73.85,218.26 74.23,214.78 74.62,211.27 75.00,213.05 75.38,214.83 75.76,216.59 76.14,218.35 76.52,220.10 76.90,216.63 77.28,218.40 77.67,220.14 78.05,216.68 78.43,213.19 78.81,209.66 79.19,211.45 79.57,207.90 79.95,204.32 80.34,200.70 80.72,197.05 81.10,193.36 81.48,189.63 81.86,191.52 82.24,193.39 82.62,195.26 83.00,197.12 83.39,193.43 83.77,189.71 84.15,185.94 84.53,182.14 84.91,184.07 85.29,185.98 85.67,182.18 86.06,178.35 86.44,174.48 86.82,176.45 87.20,178.40 87.58,180.35 87.96,182.28 88.34,184.21 88.72,186.12 89.11,182.33 89.49,178.49 89.87,174.61 90.25,176.58 90.63,178.53 91.01,180.47 91.39,182.41 91.78,184.34 92.16,186.25 92.54,188.16 92.92,190.05 93.30,191.93 93.68,193.81 94.06,195.68 94.44,197.54 94.83,199.39 95.21,201.23 95.59,203.06 95.97,204.88 96.35,206.70 96.73,208.51 97.11,204.93 97.50,206.74 97.88,208.54 98.26,210.33 98.64,212.11 99.02,213.88 99.40,215.65 99.78,217.41 100.16,219.15 100.55,220.89 100.93,222.63 101.31,219.19 101.69,215.72 102.07,217.48 102.45,219.22 102.83,215.75 103.21,212.25 103.60,214.03 103.98,215.79 104.36,217.55 104.74,214.06 105.12,210.54 105.50,206.99 105.88,203.40 106.27,199.77 106.65,196.11 107.03,192.41 107.41,188.68 107.79,190.57 108.17,192.46 108.55,194.33 108.93,190.61 109.32,186.85 109.70,183.06 110.08,179.22 110.46,175.36 110.84,171.45 111.22,167.50 111.60,163.52 111.99,159.49 112.37,155.43 112.75,151.32 113.13,153.40 113.51,155.47 113.89,157.53 114.27,159.58 114.65,161.62 115.04,163.65 115.42,165.67 115.80,167.67 116.18,169.67 116.56,171.66 116.94,173.63 117.32,175.60 117.71,177.56 118.09,179.51 118.47,181.45 118.85,177.60 119.23,179.55 119.61,181.49 119.99,183.42 120.37,185.33 120.76,187.24 121.14,183.45 121.52,179.62 121.90,181.56 122.28,183.49 122.66,185.41 123.04,187.32 123.43,189.23 123.81,191.12 124.19,193.00 124.57,194.87 124.95,191.15 125.33,193.03 125.71,194.90 126.09,196.76 126.48,198.61 126.86,200.45 127.24,202.28 127.62,204.11 128.00,205.92 128.38,207.73 128.76,204.14 129.15,205.95 129.53,207.76 129.91,209.55 130.29,211.34 130.67,213.12 131.05,214.89 131.43,216.65 131.81,218.40 132.20,220.14 132.58,221.87 132.96,218.43 133.34,214.95 133.72,216.71 134.10,218.46 134.48,220.21 134.87,216.74 135.25,213.25 135.63,209.72 136.01,206.15 136.39,202.56 136.77,198.92 137.15,195.25 137.53,191.54 137.92,187.79 138.30,184.01 138.68,180.19 139.06,182.13 139.44,178.29 139.82,174.42 140.20,170.50 140.59,166.55 140.97,168.55 141.35,170.54 141.73,172.53 142.11,174.50 142.49,176.46 142.87,178.42 143.25,180.36 143.64,176.50 144.02,172.60 144.40,168.67 144.78,164.69 145.16,160.68 145.54,156.62 145.92,152.53 146.31,148.39 146.69,150.48 147.07,152.57 147.45,154.65 147.83,156.71 148.21,158.76 148.59,154.68 148.97,150.57 149.36,146.41 149.74,142.22 150.12,137.98 150.50,133.70 150.88,135.87 151.26,138.02 151.64,140.17 152.02,142.30 152.41,144.43 152.79,146.54 153.17,148.64 153.55,150.73 153.93,152.81 154.31,154.89 154.69,156.95 155.08,159.00 155.46,161.04 155.84,156.99 156.22,159.04 156.60,161.08 156.98,163.11 157.36,165.13 157.74,167.13 158.13,163.14 158.51,159.11 158.89,155.04 159.27,150.93 159.65,146.78 160.03,142.59 160.41,138.36 160.80,134.09 161.18,129.77 161.56,125.40 161.94,121.00 162.32,116.55 162.70,118.81 163.08,114.34 163.46,116.60 163.85,118.86 164.23,121.10 164.61,122.86 164.99,125.08 165.37,127.29 165.75,129.49 166.13,131.68 166.52,133.86 166.90,136.03 167.28,138.19 167.66,140.33 168.04,142.47 168.42,144.59 168.80,181.94 169.18,183.88 169.57,180.06 169.95,176.20 170.33,172.30 170.71,168.37 171.09,164.40 171.47,160.39 171.85,162.44 172.24,164.47 172.62,166.48 173.00,168.49 173.38,170.49 173.76,172.48 174.14,174.46 174.52,176.42 174.90,178.38 175.29,180.32 175.67,182.26 176.05,184.19 176.43,186.10 176.81,188.01 177.19,189.91 177.57,191.80 177.96,193.68 178.34,195.55 178.72,191.85 179.10,188.12 179.48,190.02 179.86,186.27 180.24,182.48 180.62,178.65 181.01,174.78 181.39,176.78 181.77,172.89 182.15,174.87 182.53,176.84 182.91,178.79 183.29,174.93 183.68,171.02 184.06,167.08 184.44,169.08 184.82,171.08 185.20,173.07 185.58,175.04 185.96,171.13 186.34,173.14 186.73,175.13 187.11,177.10 187.49,179.06 187.87,181.01 188.25,182.96 188.63,179.14 189.01,175.27 189.40,177.24 189.78,173.37 190.16,175.35 190.54,171.44 190.92,167.50 191.30,169.52 191.68,171.52 192.06,167.58 192.45,163.61 192.83,159.59 193.21,155.54 193.59,157.60 193.97,159.66 194.35,161.70 194.73,163.73 195.12,159.72 195.50,155.67 195.88,157.73 196.26,159.79 196.64,155.73 197.02,151.64 197.40,147.50 197.78,143.33 198.17,145.46 198.55,147.58 198.93,149.69 199.31,151.79 199.69,153.87 200.07,155.95 200.45,151.86 200.83,153.94 201.22,156.01 201.60,151.91 201.98,147.78 202.36,149.88 202.74,151.97 203.12,154.06 203.50,149.94 203.89,152.03 204.27,154.11 204.65,156.18 205.03,158.25 205.41,160.30 205.79,162.34 206.17,158.32 206.55,154.25 206.94,150.14 207.32,152.24 207.70,154.33 208.08,156.40 208.46,158.46 208.84,160.51 209.22,162.56 209.61,158.53 209.99,154.46 210.37,156.52 210.75,158.58 211.13,160.62 211.51,162.66 211.89,164.68 212.27,166.70 212.66,168.71 213.04,170.70 213.42,172.69 213.80,174.66 214.18,170.75 214.56,166.80 214.94,168.81 215.33,164.84 215.71,160.83 216.09,162.87 216.47,164.90 216.85,166.92 217.23,168.93 217.61,170.93 217.99,172.92 218.38,174.90 218.76,176.88 219.14,178.84 219.52,180.78 219.90,182.72 220.28,178.89 220.66,175.02 221.05,177.02 221.43,178.99 221.81,180.94 222.19,182.89 222.57,184.84 222.95,181.04 223.33,177.19 223.71,179.16 224.10,175.30 224.48,171.41 224.86,173.42 225.24,175.40 225.62,171.51 226.00,167.57 226.38,169.57 226.77,165.62 227.15,161.62 227.53,157.58 227.91,153.51 228.29,149.39 228.67,145.23 229.05,141.04 229.43,136.80 229.82,132.52 230.20,128.20 230.58,123.82 230.96,126.04 231.34,128.26 231.72,130.45 232.10,132.64 232.49,134.82 232.87,130.51 233.25,132.69 233.63,134.87 234.01,130.57 234.39,126.24 234.77,121.85 235.15,124.08 235.54,126.30 235.92,128.52 236.30,130.73 236.68,132.92 237.06,128.59 237.44,124.22 237.82,126.44 238.21,128.64 238.59,130.83 238.97,133.02 239.35,128.69 239.73,124.32 240.11,119.91 240.49,115.45 240.87,110.95 241.26,113.24 241.64,108.72 242.02,111.02 242.40,113.31 242.78,115.59 243.16,117.85 243.54,120.11 243.93,116.33 244.31,118.59 244.69,120.85 245.07,116.40 245.45,118.65 245.83,120.90 246.21,123.15 246.59,125.38 246.98,120.97 247.36,116.53 247.74,112.04 248.12,107.51 248.50,109.82 248.88,112.13 249.26,114.42 249.64,116.70 250.03,118.97 250.41,121.22 250.79,123.45 251.17,119.04 251.55,114.59 251.93,110.08 252.31,105.53 252.70,100.92 253.08,103.25 253.46,98.63 253.84,93.96 254.22,89.24 254.60,84.47 254.98,79.66 255.36,74.80 255.75,77.27 256.13,79.73 256.51,82.17 256.89,84.60 257.27,87.01 257.65,82.22 258.03,77.38 258.42,79.84 258.80,74.98 259.18,70.08 259.56,65.13 259.94,67.65 260.32,70.15 260.70,72.64 261.08,75.12 261.47,77.59 261.85,80.04 262.23,82.48 262.61,84.91 262.99,87.32 263.37,82.54 263.75,84.97 264.14,80.16 264.52,75.30 264.90,70.40 265.28,65.44 265.66,67.97 266.04,70.47 266.42,65.53 266.80,60.53 267.19,55.49 267.57,58.08 267.95,60.64 268.33,63.18 268.71,65.71 269.09,68.23 269.47,70.73 269.86,65.78 270.24,68.29 270.62,70.80 271.00,65.85 271.38,68.36 271.76,70.87 272.14,73.36 272.52,75.83 272.91,78.29 273.29,80.74 273.67,83.17 274.05,78.34 274.43,80.79 274.81,83.22 275.19,85.64 275.58,88.05 275.96,90.45 276.34,92.83 276.72,95.21 277.10,97.57 277.48,99.92 277.86,102.26 278.24,104.59 278.63,106.90 279.01,109.20 279.39,111.50 279.77,113.78 280.15,116.05 280.53,111.55 280.91,113.84 281.30,109.32 281.68,111.62 282.06,113.90 282.44,116.16 282.82,118.43 283.20,113.95 283.58,109.43 283.96,104.87 284.35,100.26 284.73,102.60 285.11,104.93 285.49,107.24 285.87,102.66 286.25,98.03 286.63,93.35 287.02,88.63 287.40,83.86 287.78,79.05 288.16,81.49 288.54,83.93 288.92,86.35 289.30,88.76 289.68,91.16 290.07,93.55 290.45,95.92 290.83,98.28 291.21,100.63 291.59,96.00 291.97,91.31 292.35,86.57 292.74,81.77 293.12,76.93 293.50,79.40 293.88,81.85 294.26,84.28 294.64,86.71 295.02,89.12 295.40,91.51 295.79,93.90 296.17,96.28 296.55,91.59 296.93,86.86 297.31,89.26 297.69,84.50 298.07,79.69 298.45,82.13 298.84,84.56 299.22,86.97 299.60,89.37 299.98,91.77 300.36,87.04 300.74,89.44 301.12,84.69 301.51,87.11 301.89,89.51 302.27,91.91 302.65,94.29 303.03,96.66 303.41,99.01 303.79,101.36 304.17,103.69 304.56,106.01 304.94,108.32 305.32,103.74 305.70,99.12 306.08,94.46 306.46,89.75 306.84,84.99 307.23,80.19 307.61,75.34 307.99,70.44 308.37,65.50 308.75,60.51 309.13,55.46 309.51,50.37 309.89,45.23 310.28,47.87 310.66,42.70 311.04,45.33 311.42,40.14 311.80,42.79 312.18,45.42 312.56,48.03 312.95,50.63 313.33,45.49 313.71,48.10 314.09,50.71 314.47,53.31 314.85,48.20 315.23,50.81 315.61,53.40 316.00,55.97 316.38,58.53 316.76,61.08 317.14,181.94 317.52,183.87 317.90,180.05 318.28,176.20 318.67,172.31 319.05,168.38 319.43,164.41 319.81,160.40 320.19,156.35 320.57,152.26 320.95,148.14 321.33,143.98 321.72,139.77 322.10,141.92 322.48,144.06 322.86,146.18 323.24,148.29 323.62,150.39 324.00,152.48 324.39,148.35 324.77,150.46 325.15,152.54 325.53,154.62 325.91,156.69 326.29,158.74 326.67,160.79 327.05,156.74 327.44,158.79 327.82,160.84 328.20,162.88 328.58,164.91 328.96,160.90 329.34,156.86 329.72,152.78 330.11,154.86 330.49,156.93 330.87,159.00 331.25,161.05 331.63,163.11 332.01,165.15 332.39,167.16 332.77,169.17 333.16,165.21 333.54,161.20 333.92,157.17 334.30,153.08 334.68,155.16 335.06,157.23 335.44,153.16 335.83,155.24 336.21,157.31 336.59,159.37 336.97,161.41 337.35,163.45 337.73,165.47 338.11,161.48 338.49,157.44 338.88,153.37 339.26,155.46 339.64,157.54 340.02,159.60 340.40,161.65 340.78,163.69 341.16,159.67 341.55,161.71 341.93,157.68 342.31,159.74 342.69,155.68 343.07,157.75 343.45,159.81 343.83,161.86 344.21,163.90 344.60,159.88 344.98,155.85 345.36,157.92 345.74,159.98 346.12,162.03 346.50,164.07 346.88,166.10 347.26,168.11 347.65,170.11 348.03,172.11 348.41,174.09 348.79,170.18 349.17,172.19 349.55,174.17 349.93,176.15 350.32,178.12 350.70,174.25 351.08,170.35 351.46,166.41 351.84,168.44 352.22,170.45 352.60,172.45 352.98,174.44 353.37,176.41 353.75,178.37 354.13,180.32 354.51,182.26 354.89,184.20 355.27,180.40 355.65,182.34 356.04,184.27 356.42,186.19 356.80,188.11 357.18,190.02 357.56,191.92 357.94,193.79 358.32,195.67 358.70,197.53 359.09,199.39 359.47,201.24 359.85,203.09 360.23,204.93 360.61,206.75 360.99,208.56 361.37,210.36 361.76,206.82 362.14,208.64 362.52,205.08 362.90,201.47 363.28,203.30 363.66,205.13 364.04,206.94 364.42,208.75 364.81,210.55 365.19,206.99 365.57,208.80 365.95,210.59 366.33,212.38 366.71,208.85 367.09,205.28 367.48,201.67 367.86,198.03 368.24,194.36 368.62,190.65 369.00,192.55 369.38,194.43 369.76,196.30 370.14,198.16 370.53,194.50 370.91,196.37 371.29,198.23 371.67,200.12 372.05,201.97 372.43,203.81 372.81,205.67 373.20,207.49 373.58,203.91 373.96,200.31 374.34,196.68 374.72,193.00 375.10,189.28 375.48,191.20 375.86,187.47 376.25,183.72 376.63,185.67 377.01,187.59 377.39,183.82 377.77,185.77 378.15,181.98 378.53,183.92 378.92,185.86 379.30,182.08 379.68,178.25 380.06,180.24 380.44,182.23 380.82,184.16 381.20,180.35 381.58,176.51 381.97,172.62 382.35,168.72 382.73,170.68 383.11,166.74 383.49,162.77 383.87,158.75 384.25,154.70 384.64,150.62 385.02,146.48 385.40,148.59 385.78,150.69 386.16,152.78 386.54,148.65 386.92,144.49 387.30,146.62 387.69,142.44 388.07,144.58 388.45,140.40 388.83,142.54 389.21,144.69 389.59,146.82 389.97,148.93 390.36,151.06 390.74,146.91 391.12,149.02 391.50,151.11 391.88,153.19 392.26,149.07 392.64,144.91 393.02,140.70 393.41,142.85 393.79,138.62 394.17,140.78 394.55,142.93 394.93,145.06 395.31,147.19 395.69,149.30 396.07,151.39 396.46,153.48 396.84,149.36 397.22,145.19 397.60,147.31 397.98,149.42 398.36,145.26 398.74,141.05 399.13,143.19 399.51,145.32 399.89,147.44 400.27,149.55 400.65,145.39 401.03,141.18 401.41,136.95 401.79,132.67 402.18,128.35 402.56,123.99 402.94,126.22 403.32,121.90 403.70,117.48 404.08,119.74 404.46,122.00 404.85,124.23 405.23,126.46 405.61,128.66 405.99,124.28 406.37,119.87 406.75,115.41 407.13,110.91 407.51,106.36 407.90,101.76 408.28,97.13 408.66,92.44 409.04,87.72 409.42,82.95 409.80,85.38 410.18,87.80 410.57,90.20 410.95,92.59 411.33,87.86 411.71,83.08 412.09,78.25 412.47,80.70 412.85,75.85 413.23,70.95 413.62,66.00 414.00,61.01 414.38,55.97 414.76,50.88 415.14,45.74 415.52,40.54 415.90,35.30 416.29,30.00 416.67,32.70 417.05,35.39 417.43,38.07 417.81,40.73 418.19,43.38 418.57,46.03 418.95,48.65 419.34,51.25 419.72,53.84 420.10,56.42 420.48,59.00 420.86,61.56 421.24,64.11 421.62,59.10 422.01,61.66 422.39,64.22 422.77,66.76 423.15,69.27 423.53,71.77 423.91,74.27 424.29,69.36 424.67,71.85 425.06,74.34 425.44,76.81 425.82,79.28 426.20,81.73 426.58,84.16 426.96,86.58 427.34,88.99 427.73,91.39 428.11,93.77 428.49,96.15 428.87,98.51 429.25,93.83 429.63,89.12 430.01,84.36 430.39,79.54 430.78,81.98 431.16,84.41 431.54,86.83 431.92,89.23 432.30,91.62 432.68,94.01 433.06,96.38 433.45,98.74 433.83,101.08 434.21,103.42 434.59,98.79 434.97,94.12 435.35,89.41 435.73,84.64 436.11,87.07 436.50,82.29 436.88,77.46 437.26,72.58 437.64,75.06 438.02,77.53 438.40,79.98 438.78,82.42 439.17,84.87 439.55,87.31 439.93,89.72 440.31,84.97 440.69,87.39 441.07,89.79 441.45,92.19 441.83,94.57 442.22,89.88 442.60,85.13 442.98,80.33 443.36,82.78 443.74,85.21 444.12,87.63 444.50,90.04 444.88,85.31 445.27,80.52 445.65,75.68 446.03,70.79 446.41,65.85 446.79,60.86 447.17,55.82 447.55,50.72 447.94,53.32 448.32,55.91 448.70,58.48 449.08,61.04 449.46,63.59 449.84,58.58 450.22,61.14 450.60,63.68 450.99,58.66 451.37,53.60 451.75,56.18 452.13,58.74 452.51,61.29 452.89,63.83 453.27,58.83 453.66,53.78 454.04,56.35 454.42,58.93 454.80,61.47 455.18,64.01 455.56,66.54 455.94,69.06 456.32,71.57 456.71,66.64 457.09,61.64 457.47,64.17 457.85,66.70 458.23,69.20 458.61,71.69 458.99,66.75 459.38,61.77 459.76,56.73 460.14,51.66 460.52,46.54 460.90,41.36 461.28,36.12 461.66,38.82 462.04,41.47 462.43,44.10 462.81,46.72 463.19,49.34 463.57,51.96 463.95,54.55 464.33,57.13 464.71,59.69 465.10,62.24 465.48,64.77 465.86,67.29 466.24,69.80 466.62,72.30 467.00,74.78 467.38,77.24 467.76,181.94 468.15,178.10 468.53,174.22 468.91,170.30 469.29,166.35 469.67,162.35 470.05,164.37 470.43,166.39 470.82,168.40 471.20,164.43 471.58,160.42 471.96,156.36 472.34,158.42 472.72,154.34 473.10,156.40 473.48,158.46 473.87,160.50 474.25,162.53 474.63,164.56 475.01,166.57 475.39,168.57 475.77,164.60 476.15,166.61 476.54,168.61 476.92,164.64 477.30,166.65 477.68,162.66 478.06,158.63 478.44,154.56 478.82,156.62 479.20,158.67 479.59,160.71 479.97,162.75 480.35,164.77 480.73,166.78 481.11,168.78 481.49,170.77 481.87,172.75 482.26,174.74 482.64,176.70 483.02,178.65 483.40,180.59 483.78,182.53 484.16,184.45 484.54,186.36 484.92,188.27 485.31,190.17 485.69,192.06 486.07,188.31 486.45,184.54 486.83,180.72 487.21,182.66 487.59,184.58 487.98,186.49 488.36,188.39 488.74,184.62 489.12,186.53 489.50,182.73 489.88,178.90 490.26,175.03 490.64,171.12 491.03,167.16 491.41,163.17 491.79,159.14 492.17,155.07 492.55,150.96 492.93,146.81 493.31,142.61 493.69,138.38 494.08,134.10 494.46,136.27 494.84,138.42 495.22,134.14 495.60,136.30 495.98,132.01 496.36,134.18 496.75,136.35 497.13,138.50 497.51,134.23 497.89,129.91 498.27,125.55 498.65,121.14 499.03,123.37 499.41,125.59 499.80,121.18 500.18,116.73 500.56,118.98 500.94,121.23 501.32,123.45 501.70,125.67 502.08,121.27 502.47,116.82 502.85,119.07 503.23,121.31 503.61,123.54 503.99,125.76 504.37,127.97 504.75,123.59 505.13,125.80 505.52,121.40 505.90,123.63 506.28,125.85 506.66,121.45 507.04,123.67 507.42,125.89 507.80,128.10 508.19,123.72 508.57,119.31 508.95,114.84 509.33,110.33 509.71,112.61 510.09,108.08 510.47,103.51 510.85,98.90 511.24,101.25 511.62,103.58 512.00,105.90 512.38,108.20 512.76,110.50 513.14,112.79 513.52,115.06 513.91,110.55 514.29,105.99 514.67,108.30 515.05,110.59 515.43,112.88 515.81,115.15 516.19,110.64 516.57,106.09 516.96,108.39 517.34,103.81 517.72,99.19 518.10,101.53 518.48,103.85 518.86,106.17 519.24,108.48 519.63,110.77 520.01,113.05 520.39,115.33 520.77,110.83 521.15,106.29 521.53,101.70 521.91,97.06 522.29,99.42 522.68,101.76 523.06,104.09 523.44,99.47 523.82,94.81 524.20,90.10 524.58,92.49 524.96,94.86 525.35,97.22 525.73,99.57 526.11,101.91 526.49,104.25 526.87,106.57 527.25,108.87 527.63,111.17 528.01,113.45 528.40,115.72 528.78,117.97 529.16,120.22 529.54,122.46 529.92,124.68 530.30,126.89 530.68,129.10 531.07,131.29 531.45,133.47 531.83,135.65 532.21,131.35 532.59,127.00 532.97,129.20 533.35,131.40 533.73,133.57 534.12,135.74 534.50,137.90 534.88,140.04 535.26,142.18 535.64,144.31 536.02,146.42 536.40,148.53 536.79,150.62 537.17,146.47 537.55,148.57 537.93,150.66 538.31,152.75 538.69,148.61 539.07,144.43 539.45,140.22 539.84,142.35 540.22,138.12 540.60,133.83 540.98,136.00 541.36,131.70 541.74,127.36 542.12,129.55 542.50,131.74 542.89,133.92 543.27,136.09 543.65,136.84 544.03,138.99 544.41,141.13 544.79,143.26 545.17,145.38 545.56,147.49 545.94,143.30 546.32,139.07 546.70,141.22 547.08,136.97 547.46,132.68 547.84,134.85 548.22,130.53 548.61,126.18 548.99,121.78 549.37,117.33 549.75,112.85 550.13,108.32 550.51,103.74 550.89,99.12 551.28,94.45 551.66,89.73 552.04,84.96 552.42,87.37 552.80,89.78 553.18,92.16 553.56,92.14 553.94,87.40 554.33,89.80 554.71,85.03 555.09,80.22 555.47,75.36 555.85,70.45 556.23,65.50 556.61,60.49 557.00,55.43 557.38,57.99 557.76,52.91 558.14,55.48 558.52,58.04 558.90,60.58 559.28,63.12 559.66,65.64 560.05,68.15 560.43,70.65 560.81,73.13 561.19,75.61 561.57,78.07 561.95,73.19 562.33,68.26 562.72,63.28 563.10,58.26 563.48,53.19 563.86,55.76 564.24,58.31 564.62,60.86 565.00,63.39 565.38,65.91 565.77,68.41 566.15,70.91 566.53,73.39 566.91,75.86 567.29,78.32 567.67,73.44 568.05,75.91 568.44,71.00 568.82,66.05 569.20,68.55 569.58,71.05 569.96,66.10 570.34,68.60 570.72,71.09 571.10,73.57 571.49,76.04 571.87,76.43 572.25,71.53 572.63,66.58 573.01,61.58 573.39,56.54 573.77,59.09 574.16,61.63 574.54,56.58 574.92,59.13 575.30,54.06 575.68,48.94 576.06,51.53 576.44,54.11 576.82,56.67 577.21,59.23 577.59,61.77 577.97,56.72 578.35,51.63 578.73,46.49 579.11,49.09 579.49,51.68 579.88,54.26 580.26,56.82 580.64,59.37 581.02,61.91 581.40,56.87 581.78,51.78 582.16,54.36 582.54,56.92 582.93,59.47 583.31,62.01 583.69,64.54 584.07,67.05 584.45,69.55 584.83,72.03 585.21,74.51 585.60,76.97 585.98,79.42 586.36,81.86 586.74,84.29 587.12,86.71 587.50,81.92 587.88,77.07 588.26,79.53 588.65,81.96 589.03,84.39 589.41,86.80 589.79,89.20 590.17,84.43 590.55,79.62 590.93,82.05 591.31,84.48 591.70,86.89 592.08,89.29 592.46,84.52 592.84,79.70 593.22,74.84 593.60,77.30 593.98,72.41 594.37,67.47 594.75,62.49 595.13,57.45 595.51,52.36 595.89,54.93 596.27,57.50 596.65,60.04 597.03,62.58 597.42,57.54 597.80,52.46 598.18,55.03 598.56,57.59 598.94,60.14 599.32,62.68 599.70,57.65 600.09,60.20 600.47,55.14 600.85,50.04 601.23,52.62 601.61,55.20 601.99,57.76 602.37,60.31 602.75,62.84 603.14,65.36 603.52,67.87 603.90,70.37 604.28,72.85 604.66,67.93 605.04,62.95 605.42,57.92 605.81,52.84 606.19,52.36 606.57,51.64 606.95,51.41 607.33,46.27 607.71,46.20 608.09,46.67 608.47,47.48 608.86,50.08 609.24,52.67 609.62,55.24 610.00,57.80" fill="none" stroke="#2563eb" stroke-width="1.5"/><text x="30" y="252" font-size="11" fill="#555">min 87502.84 / max 139511.82</text></svg>
