<svg xmlns="http://www.w3.org/2000/svg" width="640" height="260" viewBox="0 0 640 260"><rect width="640" height="260" fill="white"/><text x="30" y="22" font-size="14" fill="#111">M10-PA-005 1h baseline equity</text><line x1="30" y1="230" x2="610" y2="230" stroke="#ccc"/><line x1="30" y1="30" x2="30" y2="230" stroke="#ccc"/><polyline points="30.00,116.26 30.39,119.36 30.79,122.44 31.18,116.40 31.58,119.52 31.97,122.62 32.36,125.70 32.76,119.69 33.15,122.79 33.55,125.89 33.94,128.93 34.33,131.94 34.73,134.99 35.12,129.08 35.52,123.10 35.91,117.06 36.30,120.18 36.70,114.13 37.09,115.87 37.49,118.98 37.88,122.09 38.27,125.25 38.67,119.25 39.06,113.18 39.46,116.31 39.85,119.41 40.24,122.49 40.64,116.43 41.03,110.32 41.43,113.46 41.82,116.58 42.21,119.68 42.61,122.75 43.00,124.86 43.40,127.99 43.79,121.99 44.18,115.98 44.58,109.89 44.97,103.74 45.37,106.93 45.76,100.82 46.15,103.97 46.55,107.10 46.94,100.91 47.34,94.64 47.73,97.85 48.12,101.04 48.52,104.21 48.91,107.36 49.31,110.49 49.70,113.59 50.10,107.45 50.49,110.59 50.88,113.71 51.28,116.82 51.67,119.91 52.07,123.00 52.46,116.95 52.85,119.59 53.25,122.22 53.64,120.72 54.04,114.65 54.43,117.76 54.82,120.85 55.22,123.92 55.61,126.99 56.01,120.98 56.40,124.08 56.79,125.96 57.19,127.85 57.58,129.72 57.98,132.78 58.37,135.80 58.76,138.70 59.16,141.76 59.55,144.79 59.95,139.02 60.34,133.14 60.73,136.18 61.13,139.20 61.52,142.18 61.92,145.19 62.31,139.37 62.70,142.42 63.10,136.58 63.49,130.68 63.89,124.70 64.28,118.76 64.67,121.81 65.07,115.85 65.46,109.76 65.86,112.92 66.25,116.07 66.64,119.19 67.04,122.31 67.43,117.85 67.83,111.79 68.22,105.67 68.61,99.50 69.01,102.68 69.40,105.85 69.80,109.00 70.19,112.15 70.58,105.99 70.98,109.14 71.37,112.26 71.77,106.13 72.16,109.28 72.55,112.41 72.95,115.52 73.34,118.62 73.74,121.71 74.13,115.66 74.52,118.83 74.92,121.92 75.31,115.93 75.71,119.03 76.10,122.14 76.49,125.20 76.89,128.24 77.28,131.26 77.68,134.27 78.07,137.27 78.46,140.26 78.86,143.28 79.25,137.44 79.65,140.44 80.04,143.45 80.43,146.41 80.83,149.34 81.22,144.17 81.62,138.34 82.01,141.33 82.40,144.31 82.80,147.31 83.19,150.26 83.59,153.17 83.98,147.43 84.38,150.40 84.77,144.69 85.16,147.65 85.56,148.73 85.95,151.72 86.35,154.66 86.74,157.56 87.13,160.45 87.53,163.32 87.92,157.70 88.32,160.67 88.71,155.03 89.10,157.97 89.50,152.34 89.89,155.26 90.29,158.16 90.68,161.07 91.07,163.94 91.47,166.81 91.86,161.21 92.26,164.08 92.65,166.97 93.04,161.39 93.44,164.33 93.83,167.23 94.23,161.68 94.62,156.04 95.01,150.36 95.41,153.29 95.80,156.13 96.20,150.46 96.59,144.77 96.98,147.81 97.38,142.04 97.77,144.74 98.17,145.59 98.56,148.54 98.95,151.47 99.35,154.38 99.74,157.28 100.14,151.59 100.53,145.88 100.92,140.16 101.32,138.11 101.71,141.15 102.11,144.20 102.50,147.19 102.89,141.38 103.29,144.13 103.68,145.70 104.08,148.66 104.47,151.62 104.86,145.88 105.26,148.88 105.65,143.12 106.05,145.24 106.44,148.26 106.83,151.23 107.23,145.47 107.62,139.64 108.02,142.64 108.41,145.60 108.80,139.79 109.20,142.82 109.59,144.99 109.99,139.19 110.38,142.16 110.77,145.11 111.17,139.31 111.56,133.48 111.96,127.60 112.35,121.61 112.74,115.57 113.14,109.46 113.53,111.34 113.93,114.52 114.32,117.54 114.71,118.25 115.11,121.34 115.50,124.40 115.90,127.45 116.29,130.51 116.68,133.56 117.08,136.55 117.47,130.66 117.87,124.69 118.26,127.72 118.65,130.75 119.05,133.76 119.44,136.79 119.84,130.89 120.23,133.93 120.62,136.96 121.02,139.95 121.41,142.99 121.81,137.18 122.20,140.24 122.60,141.99 122.99,145.03 123.38,147.12 123.78,150.10 124.17,153.06 124.57,155.96 124.96,158.86 125.35,153.19 125.75,156.10 126.14,158.99 126.54,161.86 126.93,164.77 127.32,167.66 127.72,165.06 128.11,167.96 128.51,170.83 128.90,173.67 129.29,176.46 129.69,179.29 130.08,182.12 130.48,184.04 130.87,178.63 131.26,173.16 131.66,167.64 132.05,162.06 132.45,164.96 132.84,166.59 133.23,169.42 133.63,163.89 134.02,166.83 134.42,169.67 134.81,172.50 135.20,175.32 135.60,169.81 135.99,172.11 136.39,166.56 136.78,160.95 137.17,163.83 137.57,166.69 137.96,169.52 138.36,172.34 138.75,175.15 139.14,169.65 139.54,164.08 139.93,166.95 140.33,169.78 140.72,164.20 141.11,167.13 141.51,170.04 141.90,172.86 142.30,175.66 142.69,170.17 143.08,164.62 143.48,167.52 143.87,161.92 144.27,156.26 144.66,150.54 145.05,146.04 145.45,149.00 145.84,143.29 146.24,137.51 146.63,138.89 147.02,133.08 147.42,136.09 147.81,139.13 148.21,139.02 148.60,116.26 148.99,110.24 149.39,113.40 149.78,107.29 150.18,101.12 150.57,94.88 150.96,98.17 151.36,101.44 151.75,104.65 152.15,107.89 152.54,111.07 152.93,112.64 153.33,112.99 153.72,106.95 154.12,110.12 154.51,112.02 154.90,107.29 155.30,102.87 155.69,99.37 156.09,93.16 156.48,93.75 156.88,94.19 157.27,97.08 157.66,100.31 158.06,103.56 158.45,105.68 158.85,108.17 159.24,110.65 159.63,111.31 160.03,112.24 160.42,113.81 160.82,112.75 161.21,115.89 161.60,109.85 162.00,113.05 162.39,116.24 162.79,119.41 163.18,120.92 163.57,123.69 163.97,126.79 164.36,120.87 164.76,123.43 165.15,119.58 165.54,115.71 165.94,109.68 166.33,112.88 166.73,116.02 167.12,109.98 167.51,111.13 167.91,112.68 168.30,114.24 168.70,113.17 169.09,116.34 169.48,117.69 169.88,111.63 170.27,105.52 170.67,99.34 171.06,93.07 171.45,88.59 171.85,91.86 172.24,93.59 172.64,95.40 173.03,98.66 173.42,100.47 173.82,103.65 174.21,106.82 174.61,109.96 175.00,113.08 175.39,106.99 175.79,109.30 176.18,111.82 176.58,105.69 176.97,99.48 177.36,101.97 177.76,105.23 178.15,106.28 178.55,109.48 178.94,112.03 179.33,115.19 179.73,118.35 180.12,121.50 180.52,123.50 180.91,125.49 181.30,126.99 181.70,130.09 182.09,124.15 182.49,127.22 182.88,130.27 183.27,133.37 183.67,136.41 184.06,139.43 184.46,140.84 184.85,143.84 185.24,146.82 185.64,143.05 186.03,141.52 186.43,143.75 186.82,145.90 187.21,147.83 187.61,144.15 188.00,140.45 188.40,143.48 188.79,138.52 189.18,141.54 189.58,138.87 189.97,136.19 190.37,139.23 190.76,140.57 191.15,142.72 191.55,145.70 191.94,148.68 192.34,142.96 192.73,145.21 193.12,148.15 193.52,151.12 193.91,145.43 194.31,139.70 194.70,133.88 195.10,136.90 195.49,139.91 195.88,142.95 196.28,140.13 196.67,141.55 197.07,137.60 197.46,131.73 197.85,133.29 198.25,134.04 198.64,129.48 199.04,132.57 199.43,134.68 199.82,136.06 200.22,130.20 200.61,124.30 201.01,127.42 201.40,130.48 201.79,127.81 202.19,122.54 202.58,124.67 202.98,126.79 203.37,127.90 203.76,129.89 204.16,131.87 204.55,134.00 204.95,131.42 205.34,134.45 205.73,137.47 206.13,140.52 206.52,143.56 206.92,146.59 207.31,149.56 207.70,143.83 208.10,138.03 208.49,132.18 208.89,135.05 209.28,137.90 209.67,139.99 210.07,142.97 210.46,139.63 210.86,142.63 211.25,145.64 211.64,148.63 212.04,151.63 212.43,154.62 212.83,157.54 213.22,154.04 213.61,156.98 214.01,159.89 214.40,154.26 214.80,157.23 215.19,160.20 215.58,162.63 215.98,163.82 216.37,166.23 216.77,162.46 217.16,158.66 217.55,152.99 217.95,147.31 218.34,141.53 218.74,142.90 219.13,145.88 219.52,140.14 219.92,142.66 220.31,144.58 220.71,147.61 221.10,150.62 221.49,153.20 221.89,148.89 222.28,143.14 222.68,146.14 223.07,149.13 223.46,152.08 223.86,155.00 224.25,152.85 224.65,154.73 225.04,157.64 225.43,160.54 225.83,163.45 226.22,166.37 226.62,169.22 227.01,172.04 227.40,166.54 227.80,160.95 228.19,163.86 228.59,166.71 228.98,169.55 229.38,170.76 229.77,172.01 230.16,168.73 230.56,163.17 230.95,166.04 231.35,168.90 231.74,170.39 232.13,164.84 232.53,167.71 232.92,162.11 233.32,156.46 233.71,150.75 234.10,153.68 234.50,154.23 234.89,154.79 235.29,157.75 235.68,160.65 236.07,163.52 236.47,166.38 236.86,160.78 237.26,163.70 237.65,164.36 238.04,167.24 238.44,161.64 238.83,157.87 239.23,159.12 239.62,159.92 240.01,162.80 240.41,164.82 240.80,167.74 241.20,170.65 241.59,173.55 241.98,176.38 242.38,172.24 242.77,175.06 243.17,177.87 243.56,180.70 243.95,183.52 244.35,178.10 244.74,180.97 245.14,175.55 245.53,170.07 245.92,164.53 246.32,166.18 246.71,168.22 247.11,171.11 247.50,173.98 247.89,176.83 248.29,178.37 248.68,174.05 249.08,169.70 249.47,172.56 249.86,175.38 250.26,177.71 250.65,179.83 251.05,182.64 251.44,177.21 251.83,180.08 252.23,181.59 252.62,184.43 253.02,187.23 253.41,190.02 253.80,192.82 254.20,195.57 254.59,190.30 254.99,192.59 255.38,190.61 255.77,191.96 256.17,192.31 256.56,192.66 256.96,193.30 257.35,194.83 257.74,197.57 258.14,200.27 258.53,195.04 258.93,189.74 259.32,192.48 259.71,193.58 260.11,194.67 260.50,195.76 260.90,197.55 261.29,192.32 261.68,193.56 262.08,188.25 262.47,188.64 262.87,191.39 263.26,194.12 263.65,195.18 264.05,197.90 264.44,200.57 264.84,201.47 265.23,202.36 265.62,198.99 266.02,193.71 266.41,188.38 266.81,189.45 267.20,191.50 267.60,192.24 267.99,192.64 268.38,189.78 268.78,186.91 269.17,184.02 269.57,178.63 269.96,181.10 270.35,179.67 270.75,181.05 271.14,181.47 271.54,179.40 271.93,177.32 272.32,180.16 272.72,182.06 273.11,183.96 273.51,186.36 273.90,189.10 274.29,191.84 274.69,194.57 275.08,189.27 275.48,183.97 275.87,186.74 276.26,186.14 276.66,184.19 277.05,182.23 277.45,182.79 277.84,183.36 278.23,186.15 278.63,187.44 279.02,190.22 279.42,192.97 279.81,195.72 280.20,198.45 280.60,193.20 280.99,187.91 281.39,182.56 281.78,185.33 282.17,188.07 282.57,182.71 282.96,177.33 283.36,171.84 283.75,174.65 284.14,177.49 284.54,172.00 284.93,166.46 285.33,169.35 285.72,171.92 286.11,174.46 286.51,176.74 286.90,179.01 287.30,181.83 287.69,179.20 288.08,181.88 288.48,184.73 288.87,187.53 289.27,182.17 289.66,184.97 290.05,187.75 290.45,190.52 290.84,193.28 291.24,195.69 291.63,196.41 292.02,191.12 292.42,185.77 292.81,183.22 293.21,184.24 293.60,187.00 293.99,183.18 294.39,179.32 294.78,180.81 295.18,175.40 295.57,169.93 295.96,164.44 296.36,165.92 296.75,162.02 297.15,164.88 297.54,159.32 297.93,153.67 298.33,147.97 298.72,150.12 299.12,150.82 299.51,153.76 299.90,156.73 300.30,159.67 300.69,154.02 301.09,148.32 301.48,150.13 301.88,151.33 302.27,149.36 302.66,151.71 303.06,145.99 303.45,144.17 303.85,145.90 304.24,148.87 304.63,151.82 305.03,146.10 305.42,140.32 305.82,143.33 306.21,139.96 306.60,134.09 307.00,128.17 307.39,131.24 307.79,125.31 308.18,126.40 308.57,120.43 308.97,114.41 309.36,108.33 309.76,111.48 310.15,105.40 310.54,102.56 310.94,105.73 311.33,107.75 311.73,110.88 312.12,114.00 312.51,117.11 312.91,118.52 313.30,119.73 313.70,120.68 314.09,122.55 314.48,116.50 314.88,110.40 315.27,104.24 315.67,98.06 316.06,91.83 316.45,85.53 316.85,79.18 317.24,80.37 317.64,83.50 318.03,86.83 318.42,88.44 318.82,90.15 319.21,92.31 319.61,95.59 320.00,98.32 320.39,101.04 320.79,96.62 321.18,97.81 321.58,116.26 321.97,119.40 322.36,121.73 322.76,123.14 323.15,119.76 323.55,122.86 323.94,125.98 324.33,129.08 324.73,131.29 325.12,133.85 325.52,136.91 325.91,139.98 326.30,141.20 326.70,142.36 327.09,142.92 327.49,137.33 327.88,131.52 328.27,132.42 328.67,133.61 329.06,130.99 329.46,128.30 329.85,126.34 330.24,120.43 330.64,123.58 331.03,124.23 331.43,126.39 331.82,128.53 332.21,130.67 332.61,133.76 333.00,134.04 333.40,136.17 333.79,134.00 334.18,131.40 334.58,125.82 334.97,128.92 335.37,132.01 335.76,133.45 336.15,135.92 336.55,130.45 336.94,132.44 337.34,135.01 337.73,137.56 338.12,132.40 338.52,134.11 338.91,137.19 339.31,140.25 339.70,135.18 340.10,137.14 340.49,140.18 340.88,136.64 341.28,130.86 341.67,132.79 342.07,133.84 342.46,134.20 342.85,135.85 343.25,138.70 343.64,141.72 344.04,144.73 344.43,140.78 344.82,142.38 345.22,144.62 345.61,147.61 346.01,150.58 346.40,151.39 346.79,145.67 347.19,139.88 347.58,134.08 347.98,135.54 348.37,137.19 348.76,131.34 349.16,125.39 349.55,128.49 349.95,130.58 350.34,133.40 350.73,136.31 351.13,136.76 351.52,139.83 351.92,141.78 352.31,143.85 352.70,144.96 353.10,146.07 353.49,147.18 353.89,147.59 354.28,150.61 354.67,152.92 355.07,155.80 355.46,158.75 355.86,161.64 356.25,156.06 356.64,157.28 357.04,160.20 357.43,154.61 357.83,157.57 358.22,160.54 358.61,163.49 359.01,162.47 359.40,156.86 359.80,151.20 360.19,152.59 360.58,154.12 360.98,155.88 361.37,157.31 361.77,160.28 362.16,163.21 362.55,166.11 362.95,168.99 363.34,171.88 363.74,174.73 364.13,177.52 364.52,180.30 364.92,174.88 365.31,176.16 365.71,173.16 366.10,170.14 366.49,167.11 366.89,169.69 367.28,165.80 367.68,167.54 368.07,170.40 368.46,173.27 368.86,174.45 369.25,171.43 369.65,174.28 370.04,176.17 370.43,171.20 370.83,172.30 371.22,173.36 371.62,174.13 372.01,175.03 372.40,172.75 372.80,170.87 373.19,172.25 373.59,167.88 373.98,163.47 374.38,165.83 374.77,168.19 375.16,169.83 375.56,171.03 375.95,173.90 376.35,174.51 376.74,176.32 377.13,177.05 377.53,178.23 377.92,179.60 378.32,177.77 378.71,178.65 379.10,179.11 379.50,179.48 379.89,182.32 380.29,185.14 380.68,187.94 381.07,190.15 381.47,192.02 381.86,194.74 382.26,192.16 382.65,194.89 383.04,197.61 383.44,200.31 383.83,203.00 384.23,201.05 384.62,197.04 385.01,199.79 385.41,202.50 385.80,205.20 386.20,200.02 386.59,201.91 386.98,203.79 387.38,202.10 387.77,201.20 388.17,202.08 388.56,200.95 388.95,201.85 389.35,202.50 389.74,203.15 390.14,197.99 390.53,200.70 390.92,197.04 391.32,198.27 391.71,199.78 392.11,198.86 392.50,193.63 392.89,188.35 393.29,191.14 393.68,193.92 394.08,196.68 394.47,199.42 394.86,202.15 395.26,196.97 395.65,198.46 396.05,197.12 396.44,195.77 396.83,198.48 397.23,201.18 397.62,202.99 398.02,205.67 398.41,208.32 398.80,203.19 399.20,197.98 399.59,200.67 399.99,203.35 400.38,200.74 400.77,197.45 401.17,198.60 401.56,199.95 401.96,196.59 402.35,192.55 402.74,187.23 403.14,189.99 403.53,184.61 403.93,187.35 404.32,190.08 404.71,184.74 405.11,187.52 405.50,182.13 405.90,176.68 406.29,177.04 406.68,177.40 407.08,180.25 407.47,181.99 407.87,184.77 408.26,187.53 408.65,182.15 409.05,184.97 409.44,185.46 409.84,188.25 410.23,182.87 410.62,178.59 411.02,179.47 411.41,177.43 411.81,179.02 412.20,180.50 412.60,181.30 412.99,183.34 413.38,185.38 413.78,187.41 414.17,184.28 414.57,182.27 414.96,185.11 415.35,187.92 415.75,183.47 416.14,184.41 416.54,182.78 416.93,180.87 417.32,176.29 417.72,178.57 418.11,179.63 418.51,180.68 418.90,181.28 419.29,183.00 419.69,184.72 420.08,186.44 420.48,183.23 420.87,180.01 421.26,182.84 421.66,185.61 422.05,188.40 422.45,183.04 422.84,184.45 423.23,185.86 423.63,187.27 424.02,185.63 424.42,183.98 424.81,186.79 425.20,187.97 425.60,189.09 425.99,189.91 426.39,192.65 426.78,195.38 427.17,198.13 427.57,200.68 427.96,196.15 428.36,190.91 428.75,185.59 429.14,187.50 429.54,189.39 429.93,191.09 430.33,189.89 430.72,189.42 431.11,190.33 431.51,191.57 431.90,191.06 432.30,192.07 432.69,192.99 433.08,193.92 433.48,194.84 433.87,197.61 434.27,200.32 434.66,195.12 435.05,189.83 435.45,190.51 435.84,193.27 436.24,196.02 436.63,198.76 437.02,199.26 437.42,200.18 437.81,200.43 438.21,201.28 438.60,202.85 438.99,203.42 439.39,198.24 439.78,199.76 440.18,199.30 440.57,200.00 440.96,200.30 441.36,200.50 441.75,202.09 442.15,196.89 442.54,191.64 442.93,187.17 443.33,189.95 443.72,192.70 444.12,195.45 444.51,198.18 444.90,198.84 445.30,199.62 445.69,200.40 446.09,200.84 446.48,200.24 446.88,196.88 447.27,199.59 447.66,202.28 448.06,200.15 448.45,199.13 448.85,197.36 449.24,195.58 449.63,197.07 450.03,191.81 450.42,193.27 450.82,194.84 451.21,197.28 451.60,199.71 452.00,201.67 452.39,203.62 452.79,205.56 453.18,208.28 453.57,208.54 453.97,211.13 454.36,213.75 454.76,216.39 455.15,219.02 455.54,213.97 455.94,214.66 456.33,216.01 456.73,214.02 457.12,213.04 457.51,213.57 457.91,213.99 458.30,214.42 458.70,212.44 459.09,210.46 459.48,212.76 459.88,215.19 460.27,217.78 460.67,220.42 461.06,222.20 461.45,224.81 461.85,219.85 462.24,214.84 462.64,216.96 463.03,219.08 463.42,216.55 463.82,212.81 464.21,215.42 464.61,218.02 465.00,220.61 465.39,216.48 465.79,219.09 466.18,214.03 466.58,216.63 466.97,219.15 467.36,220.18 467.76,215.15 468.15,210.04 468.55,210.48 468.94,213.16 469.33,215.67 469.73,218.17 470.12,220.82 470.52,221.95 470.91,223.34 471.30,224.73 471.70,226.12 472.09,227.71 472.49,230.00 472.88,226.59 473.27,228.57 473.67,223.62 474.06,225.41 474.46,228.01 474.85,229.63 475.24,224.68 475.64,219.69 476.03,220.13 476.43,220.71 476.82,221.27 477.21,219.33 477.61,220.03 478.00,221.75 478.40,222.38 478.79,224.96 479.18,225.85 479.58,226.73 479.97,228.15 480.37,229.27 480.76,226.73 481.15,224.17 481.55,224.73 481.94,226.10 482.34,227.47 482.73,228.83 483.12,224.06 483.52,219.24 483.91,221.31 484.31,219.25 484.70,216.39 485.10,211.32 485.49,206.19 485.88,201.02 486.28,201.68 486.67,199.18 487.07,201.89 487.46,204.58 487.85,207.04 488.25,209.75 488.64,204.62 489.04,205.80 489.43,206.60 489.82,208.05 490.22,209.12 490.61,203.98 491.01,205.55 491.40,207.12 491.79,209.79 492.19,204.66 492.58,207.33 492.98,209.93 493.37,211.67 493.76,212.79 494.16,215.43 494.55,210.33 494.95,205.19 495.34,199.99 495.73,202.71 496.13,205.38 496.52,208.05 496.92,202.92 497.31,204.60 497.70,207.26 498.10,208.90 498.49,211.53 498.89,214.14 499.28,214.68 499.67,212.63 500.07,207.49 500.46,202.30 500.86,197.05 501.25,191.81 501.64,186.51 502.04,181.17 502.43,176.65 502.83,178.63 503.22,180.77 503.61,182.91 504.01,184.22 504.40,184.62 504.80,186.33 505.19,188.04 505.58,184.33 505.98,180.50 506.37,116.26 506.77,110.16 507.16,113.27 507.55,116.36 507.95,110.26 508.34,111.77 508.74,114.91 509.13,118.06 509.52,111.98 509.92,106.02 510.31,109.18 510.71,112.31 511.10,115.19 511.49,109.07 511.89,102.88 512.28,96.64 512.68,90.38 513.07,93.60 513.46,87.28 513.86,90.51 514.25,93.74 514.65,87.47 515.04,90.77 515.43,93.99 515.83,97.20 516.22,100.40 516.62,103.56 517.01,106.72 517.40,109.87 517.80,113.01 518.19,106.86 518.59,110.00 518.98,113.11 519.38,116.20 519.77,110.13 520.16,113.25 520.56,107.13 520.95,110.35 521.35,113.46 521.74,116.61 522.13,119.70 522.53,122.78 522.92,125.90 523.32,119.89 523.71,113.81 524.10,116.91 524.50,119.99 524.89,123.10 525.29,126.18 525.68,129.26 526.07,132.33 526.47,126.37 526.86,129.41 527.26,124.05 527.65,118.06 528.04,112.00 528.44,105.88 528.83,99.70 529.23,102.93 529.62,106.13 530.01,109.26 530.41,103.09 530.80,106.27 531.20,109.41 531.59,112.53 531.98,115.63 532.38,118.71 532.77,121.78 533.17,124.84 533.56,127.91 533.95,131.00 534.35,134.09 534.74,128.14 535.14,122.13 535.53,125.24 535.92,128.31 536.32,131.37 536.71,134.38 537.11,128.48 537.50,122.50 537.89,125.57 538.29,119.58 538.68,122.66 539.08,116.65 539.47,119.77 539.86,122.89 540.26,125.94 540.65,126.09 541.05,126.25 541.44,129.30 541.83,132.34 542.23,135.37 542.62,138.39 543.02,132.51 543.41,126.59 543.80,120.59 544.20,123.65 544.59,126.70 544.99,120.71 545.38,114.66 545.77,108.55 546.17,111.69 546.56,114.81 546.96,117.90 547.35,111.81 547.74,114.92 548.14,108.83 548.53,102.69 548.93,105.84 549.32,99.64 549.71,102.80 550.11,105.95 550.50,109.09 550.90,112.21 551.29,115.31 551.68,118.42 552.08,121.50 552.47,124.58 552.87,127.64 553.26,130.68 553.65,133.69 554.05,136.68 554.44,139.69 554.84,133.81 555.23,136.85 555.62,130.98 556.02,133.99 556.41,136.99 556.81,131.09 557.20,125.12 557.60,119.19 557.99,113.15 558.38,107.02 558.78,100.83 559.17,104.01 559.57,107.20 559.96,110.36 560.35,113.50 560.75,116.66 561.14,110.62 561.54,104.46 561.93,98.23 562.32,91.97 562.72,95.20 563.11,98.46 563.51,98.80 563.90,92.52 564.29,95.79 564.69,97.93 565.08,99.40 565.48,102.61 565.87,105.79 566.26,108.95 566.66,102.80 567.05,96.58 567.45,90.30 567.84,83.94 568.23,87.22 568.63,80.86 569.02,74.40 569.42,77.74 569.81,81.06 570.20,74.61 570.60,68.09 570.99,71.43 571.39,74.75 571.78,78.07 572.17,81.35 572.57,74.91 572.96,68.40 573.36,71.74 573.75,75.14 574.14,68.61 574.54,62.02 574.93,55.37 575.33,58.75 575.72,62.19 576.11,65.54 576.51,68.87 576.90,72.26 577.30,65.71 577.69,69.07 578.08,72.43 578.48,65.88 578.87,62.46 579.27,65.82 579.66,59.28 580.05,62.69 580.45,66.08 580.84,59.55 581.24,52.96 581.63,46.27 582.02,49.71 582.42,53.14 582.81,56.55 583.21,49.85 583.60,53.30 583.99,46.56 584.39,49.99 584.78,43.21 585.18,36.36 585.57,39.88 585.96,43.37 586.36,46.82 586.75,50.33 587.15,43.59 587.54,36.79 587.93,30.00 588.33,33.52 588.72,37.02 589.12,40.55 589.51,44.05 589.90,47.50 590.30,50.92 590.69,44.19 591.09,47.68 591.48,51.12 591.88,54.65 592.27,58.04 592.66,61.42 593.06,64.82 593.45,68.21 593.85,61.63 594.24,64.11 594.63,57.49 595.03,50.80 595.42,53.51 595.82,56.95 596.21,50.31 596.60,43.60 597.00,39.86 597.39,43.39 597.79,46.85 598.18,50.32 598.57,53.75 598.97,57.18 599.36,50.48 599.76,53.95 600.15,47.22 600.54,50.67 600.94,54.11 601.33,47.41 601.73,50.84 602.12,54.25 602.51,47.54 602.91,50.43 603.30,53.85 603.70,47.13 604.09,40.35 604.48,33.49 604.88,36.99 605.27,40.48 605.67,43.94 606.06,47.38 606.45,50.86 606.85,54.32 607.24,57.72 607.64,61.09 608.03,64.45 608.42,57.93 608.82,51.26 609.21,44.53 609.61,48.01 610.00,51.48" fill="none" stroke="#2563eb" stroke-width="1.5"/><text x="30" y="252" font-size="11" fill="#555">min 81450.53 / max 114068.18</text></svg>
