<svg xmlns="http://www.w3.org/2000/svg" width="640" height="260" viewBox="0 0 640 260"><rect width="640" height="260" fill="white"/><text x="30" y="22" font-size="14" fill="#111">M10-PA-002 1h baseline equity</text><line x1="30" y1="230" x2="610" y2="230" stroke="#ccc"/><line x1="30" y1="30" x2="30" y2="230" stroke="#ccc"/><polyline points="30.00,159.29 30.71,162.81 31.42,166.28 32.13,169.77 32.84,173.25 33.55,174.74 34.26,168.00 34.97,161.17 35.68,164.65 36.39,168.11 37.10,171.61 37.81,175.11 38.52,178.52 39.23,181.92 39.94,185.37 40.65,178.81 41.36,172.08 42.07,175.54 42.78,178.99 43.49,182.45 44.20,185.88 44.91,179.23 45.62,182.65 46.33,186.03 47.04,179.39 47.75,172.69 48.46,165.93 49.17,169.39 49.88,162.58 50.59,166.08 51.30,159.26 52.01,162.75 52.72,166.28 53.43,159.42 54.14,152.52 54.85,145.54 55.56,138.49 56.27,142.11 56.98,145.70 57.69,148.49 58.40,152.07 59.11,155.59 59.82,159.10 60.53,162.59 61.24,166.08 61.95,159.22 62.66,152.29 63.37,155.83 64.08,159.35 64.79,162.85 65.50,166.34 66.21,169.79 66.92,162.97 67.63,156.10 68.34,159.69 69.05,152.78 69.76,156.35 70.47,159.89 71.18,163.39 71.88,166.87 72.59,170.35 73.30,163.59 74.01,167.10 74.72,160.27 75.43,163.81 76.14,167.29 76.85,170.74 77.56,174.19 78.27,177.62 78.98,170.97 79.69,174.45 80.40,177.88 81.11,181.31 81.82,184.74 82.53,178.07 83.24,171.45 83.95,174.89 84.66,168.15 85.37,171.59 86.08,164.83 86.79,168.30 87.50,161.53 88.21,165.02 88.92,168.53 89.63,161.70 90.34,165.18 91.05,158.30 91.76,151.39 92.47,144.39 93.18,147.96 93.89,151.51 94.60,155.08 95.31,148.12 96.02,141.10 96.73,144.69 97.44,137.62 98.15,141.30 98.86,134.20 99.57,137.81 100.28,141.40 100.99,145.00 101.70,148.57 102.41,141.55 103.12,145.22 103.83,148.80 104.54,152.35 105.25,155.91 105.96,148.95 106.67,141.98 107.38,134.90 108.09,127.77 108.80,131.44 109.51,135.11 110.22,138.75 110.93,142.10 111.64,145.69 112.35,149.28 113.06,152.85 113.77,156.40 114.48,159.93 115.19,153.03 115.90,156.57 116.61,160.10 117.32,163.59 118.03,156.75 118.74,160.26 119.45,163.80 120.16,167.32 120.87,160.49 121.58,163.96 122.29,167.42 123.00,170.94 123.71,174.37 124.42,177.79 125.13,171.11 125.84,174.55 126.55,177.98 127.26,181.40 127.97,184.79 128.68,188.17 129.39,191.59 130.10,194.93 130.81,198.27 131.52,200.89 132.23,195.51 132.94,198.82 133.65,192.33 134.36,195.67 135.07,199.06 135.78,202.35 136.49,205.63 137.20,208.92 137.91,210.34 138.62,213.63 139.33,216.92 140.04,220.15 140.75,223.36 141.46,226.54 142.17,220.34 142.88,223.58 143.59,226.78 144.30,230.00 145.01,223.78 145.72,226.32 146.43,220.09 147.14,213.81 147.85,207.50 148.56,206.36 149.27,209.63 149.98,159.29 150.69,162.83 151.40,155.97 152.11,159.20 152.82,152.32 153.53,154.76 154.24,158.32 154.94,161.93 155.65,165.47 156.36,169.05 157.07,172.59 157.78,175.36 158.49,168.71 159.20,161.92 159.91,155.08 160.62,148.90 161.33,151.92 162.04,149.13 162.75,152.06 163.46,152.75 164.17,156.30 164.88,159.87 165.59,160.88 166.30,155.21 167.01,158.83 167.72,151.93 168.43,144.99 169.14,141.16 169.85,144.83 170.56,148.47 171.27,152.08 171.98,153.50 172.69,157.10 173.40,154.25 174.11,156.48 174.82,149.58 175.53,153.18 176.24,146.28 176.95,139.33 177.66,135.70 178.37,139.43 179.08,141.62 179.79,145.25 180.50,138.26 181.21,141.60 181.92,145.23 182.63,138.20 183.34,131.12 184.05,126.22 184.76,119.03 185.47,122.77 186.18,115.59 186.89,108.30 187.60,100.94 188.31,104.83 189.02,107.85 189.73,100.48 190.44,102.52 191.15,95.14 191.86,90.15 192.57,82.88 193.28,86.85 193.99,80.36 194.70,84.30 195.41,76.71 196.12,80.64 196.83,84.54 197.54,88.45 198.25,92.43 198.96,84.88 199.67,77.24 200.38,69.53 201.09,61.77 201.80,60.09 202.51,64.11 203.22,68.10 203.93,60.38 204.64,52.55 205.35,56.48 206.06,57.00 206.77,59.60 207.48,63.65 208.19,67.70 208.90,71.75 209.61,75.72 210.32,68.06 211.03,60.86 211.74,64.92 212.45,68.98 213.16,72.47 213.87,69.19 214.58,73.20 215.29,77.24 216.00,69.58 216.71,70.99 217.42,65.29 218.13,69.11 218.84,70.13 219.55,74.18 220.26,66.48 220.97,70.40 221.68,71.88 222.39,75.92 223.10,78.77 223.81,81.27 224.52,85.16 225.23,78.35 225.94,79.11 226.65,83.04 227.36,87.00 228.07,90.96 228.78,87.86 229.49,91.80 230.20,94.63 230.91,98.53 231.62,102.41 232.33,106.30 233.04,98.88 233.75,92.37 234.46,84.83 235.17,88.72 235.88,81.19 236.59,73.49 237.29,77.44 238.00,81.40 238.71,85.32 239.42,88.95 240.13,92.90 240.84,96.85 241.55,89.32 242.26,81.75 242.97,77.50 243.68,81.43 244.39,73.71 245.10,77.65 245.81,70.58 246.52,74.55 247.23,78.55 247.94,70.91 248.65,74.89 249.36,78.08 250.07,82.09 250.78,85.37 251.49,89.31 252.20,93.19 252.91,85.73 253.62,89.65 254.33,92.89 255.04,93.84 255.75,95.71 256.46,99.61 257.17,103.48 257.88,97.67 258.59,92.18 259.30,87.28 260.01,90.18 260.72,93.84 261.43,97.77 262.14,101.50 262.85,102.99 263.56,106.88 264.27,104.35 264.98,108.17 265.69,100.85 266.40,102.90 267.11,106.78 267.82,102.80 268.53,106.66 269.24,99.28 269.95,103.14 270.66,106.09 271.37,101.12 272.08,104.94 272.79,107.19 273.50,103.43 274.21,97.96 274.92,100.65 275.63,104.52 276.34,107.96 277.05,111.32 277.76,114.14 278.47,115.43 279.18,116.42 279.89,111.72 280.60,115.46 281.31,119.24 282.02,120.67 282.73,115.04 283.44,112.24 284.15,116.07 284.86,119.10 285.57,122.91 286.28,126.48 286.99,130.22 287.70,133.90 288.41,137.62 289.12,130.60 289.83,134.35 290.54,127.29 291.25,129.81 291.96,133.48 292.67,137.15 293.38,134.92 294.09,137.75 294.80,139.09 295.51,141.81 296.22,144.28 296.93,141.87 297.64,145.41 298.35,146.65 299.06,148.41 299.77,141.44 300.48,134.41 301.19,130.24 301.90,131.59 302.61,124.45 303.32,117.30 304.03,110.03 304.74,113.79 305.45,117.62 306.16,118.12 306.87,121.86 307.58,125.59 308.29,129.31 309.00,122.16 309.71,114.95 310.42,107.62 311.13,101.04 311.84,104.91 312.55,108.77 313.26,112.58 313.97,115.87 314.68,108.54 315.39,101.19 316.10,95.03 316.81,87.52 317.52,79.96 318.23,83.28 318.94,77.10 319.65,69.46 320.35,72.93 321.06,159.29 321.77,162.82 322.48,166.35 323.19,168.29 323.90,171.78 324.61,166.76 325.32,170.28 326.03,170.94 326.74,173.52 327.45,177.02 328.16,178.62 328.87,182.08 329.58,184.14 330.29,177.56 331.00,178.92 331.71,177.10 332.42,180.57 333.13,176.34 333.84,173.81 334.55,175.96 335.26,178.17 335.97,181.62 336.68,184.80 337.39,180.33 338.10,176.91 338.81,180.02 339.52,182.65 340.23,186.13 340.94,189.60 341.65,187.66 342.36,189.10 343.07,183.86 343.78,179.63 344.49,177.29 345.20,179.46 345.91,182.65 346.62,176.00 347.33,178.48 348.04,180.45 348.75,183.90 349.46,179.11 350.17,182.58 350.88,186.06 351.59,179.42 352.30,172.77 353.01,167.27 353.72,163.21 354.43,157.07 355.14,151.61 355.85,152.73 356.56,147.53 357.27,143.87 357.98,146.87 358.69,150.47 359.40,154.07 360.11,157.60 360.82,161.15 361.53,163.62 362.24,156.80 362.95,149.90 363.66,142.94 364.37,135.93 365.08,130.86 365.79,134.55 366.50,128.81 367.21,121.69 367.92,115.99 368.63,108.75 369.34,111.40 370.05,115.24 370.76,119.02 371.47,114.22 372.18,110.41 372.89,114.26 373.60,116.65 374.31,115.76 375.02,116.82 375.73,120.65 376.44,123.31 377.15,119.65 377.86,112.61 378.57,108.43 379.28,109.56 379.99,112.72 380.70,111.81 381.41,115.55 382.12,119.28 382.83,113.88 383.54,115.80 384.25,115.96 384.96,119.74 385.67,123.53 386.38,119.22 387.09,122.08 387.80,122.62 388.51,117.43 389.22,111.86 389.93,109.94 390.64,111.68 391.35,115.37 392.06,119.17 392.77,121.75 393.48,125.54 394.19,129.27 394.90,131.90 395.61,133.50 396.32,133.79 397.03,126.72 397.74,119.53 398.45,112.26 399.16,109.44 399.87,113.23 400.58,107.26 401.29,99.82 402.00,103.65 402.71,107.48 403.41,111.06 404.12,114.89 404.83,118.64 405.54,122.41 406.25,118.31 406.96,111.00 407.67,114.75 408.38,118.49 409.09,122.24 409.80,125.98 410.51,121.44 411.22,124.58 411.93,128.34 412.64,132.05 413.35,134.90 414.06,136.84 414.77,140.48 415.48,144.17 416.19,147.85 416.90,151.44 417.61,153.84 418.32,155.08 419.03,150.68 419.74,149.23 420.45,150.34 421.16,146.56 421.87,143.56 422.58,146.75 423.29,150.24 424.00,151.91 424.71,154.93 425.42,158.17 426.13,159.87 426.84,160.81 427.55,163.67 428.26,161.17 428.97,164.76 429.68,160.16 430.39,163.76 431.10,167.26 431.81,169.55 432.52,171.67 433.23,168.83 433.94,162.09 434.65,159.07 435.36,162.11 436.07,163.16 436.78,166.46 437.49,168.61 438.20,170.83 438.91,171.76 439.62,167.92 440.33,161.38 441.04,158.12 441.75,154.79 442.46,150.03 443.17,153.16 443.88,155.21 444.59,158.74 445.30,162.34 446.01,158.19 446.72,160.63 447.43,162.63 448.14,163.97 448.85,167.51 449.56,170.52 450.27,172.84 450.98,166.93 451.69,170.45 452.40,164.81 453.11,166.47 453.82,167.23 454.53,170.76 455.24,167.24 455.95,165.00 456.66,162.97 457.37,162.20 458.08,164.51 458.79,166.27 459.50,167.25 460.21,162.94 460.92,165.80 461.63,169.33 462.34,172.06 463.05,173.71 463.76,176.06 464.47,179.55 465.18,180.45 465.89,183.68 466.60,185.04 467.31,188.49 468.02,191.89 468.73,195.08 469.44,197.02 470.15,190.50 470.86,191.65 471.57,192.87 472.28,196.25 472.99,199.63 473.70,193.20 474.41,186.66 475.12,183.30 475.83,186.75 476.54,190.20 477.25,183.66 477.96,180.56 478.67,173.88 479.38,167.18 480.09,161.42 480.80,163.05 481.51,156.25 482.22,150.21 482.93,143.30 483.64,142.08 484.35,145.74 485.06,159.29 485.76,152.37 486.47,145.41 487.18,148.96 487.89,141.96 488.60,145.53 489.31,149.10 490.02,152.64 490.73,156.18 491.44,159.70 492.15,163.27 492.86,166.74 493.57,159.89 494.28,163.27 494.99,156.38 495.70,149.41 496.41,142.38 497.12,135.29 497.83,138.91 498.54,131.83 499.25,135.46 499.96,139.08 500.67,131.96 501.38,124.77 502.09,117.51 502.80,110.16 503.51,113.95 504.22,117.67 504.93,110.34 505.64,114.08 506.35,117.90 507.06,121.62 507.77,125.32 508.48,128.99 509.19,132.66 509.90,125.46 510.61,129.15 511.32,121.93 512.03,125.63 512.74,129.35 513.45,133.10 514.16,136.72 514.87,129.58 515.58,122.39 516.29,126.07 517.00,129.72 517.71,122.55 518.42,124.93 519.13,117.68 519.84,110.34 520.55,102.92 521.26,95.43 521.97,99.23 522.68,103.04 523.39,106.82 524.10,110.58 524.81,114.36 525.52,106.99 526.23,99.55 526.94,103.39 527.65,95.95 528.36,88.42 529.07,92.28 529.78,84.68 530.49,77.02 531.20,69.29 531.91,61.47 532.62,65.45 533.33,69.45 534.04,73.40 534.75,77.33 535.46,69.66 536.17,73.61 536.88,65.84 537.59,58.00 538.30,50.10 539.01,42.09 539.72,33.98 540.43,38.13 541.14,30.00 541.85,34.14 542.56,38.30 543.27,42.43 543.98,46.53 544.69,50.58 545.40,54.61 546.11,58.63 546.82,62.64 547.53,54.76 548.24,58.77 548.95,50.84 549.66,54.88 550.37,58.88 551.08,62.87 551.79,55.01 552.50,59.10 553.21,63.10 553.92,55.20 554.63,47.23 555.34,51.29 556.05,43.30 556.76,35.21 557.47,39.32 558.18,43.43 558.89,47.53 559.60,51.64 560.31,43.63 561.02,47.70 561.73,51.77 562.44,55.80 563.15,59.81 563.86,51.92 564.57,55.96 565.28,59.99 565.99,52.08 566.70,44.12 567.41,48.19 568.12,52.25 568.82,56.30 569.53,60.36 570.24,64.35 570.95,68.34 571.66,72.32 572.37,76.36 573.08,80.29 573.79,84.19 574.50,88.08 575.21,91.98 575.92,84.38 576.63,76.74 577.34,68.99 578.05,61.16 578.76,65.15 579.47,69.12 580.18,73.06 580.89,77.05 581.60,80.95 582.31,84.85 583.02,88.78 583.73,92.63 584.44,96.46 585.15,100.26 585.86,104.06 586.57,96.62 587.28,89.09 587.99,92.96 588.70,96.80 589.41,100.62 590.12,93.11 590.83,97.00 591.54,100.83 592.25,104.61 592.96,108.50 593.67,112.32 594.38,104.92 595.09,108.68 595.80,112.52 596.51,116.30 597.22,108.99 597.93,112.77 598.64,116.50 599.35,120.23 600.06,123.96 600.77,127.66 601.48,120.46 602.19,124.18 602.90,124.36 603.61,117.10 604.32,109.83 605.03,113.61 605.74,117.34 606.45,110.00 607.16,113.84 607.87,113.63 608.58,114.29 609.29,118.10 610.00,121.81" fill="none" stroke="#2563eb" stroke-width="1.5"/><text x="30" y="252" font-size="11" fill="#555">min 89820.47 / max 118614.37</text></svg>
