<svg xmlns="http://www.w3.org/2000/svg" width="640" height="260" viewBox="0 0 640 260"><rect width="640" height="260" fill="white"/><text x="30" y="22" font-size="14" fill="#111">M10-PA-002 15m baseline equity</text><line x1="30" y1="230" x2="610" y2="230" stroke="#ccc"/><line x1="30" y1="30" x2="30" y2="230" stroke="#ccc"/><polyline points="30.00,181.75 30.16,182.97 30.33,180.63 30.49,181.84 30.66,179.50 30.82,180.72 30.98,178.36 31.15,179.57 31.31,180.77 31.48,181.99 31.64,179.64 31.80,180.84 31.97,178.51 32.13,179.74 32.30,178.11 32.46,175.76 32.62,177.01 32.79,178.23 32.95,179.46 33.12,180.34 33.28,181.54 33.44,181.91 33.61,179.58 33.77,177.22 33.94,178.45 34.10,176.06 34.26,173.66 34.43,171.24 34.59,172.48 34.76,173.72 34.92,174.95 35.08,176.18 35.25,177.41 35.41,178.64 35.58,179.85 35.74,181.08 35.90,182.28 36.07,179.94 36.23,181.16 36.40,181.80 36.56,183.01 36.72,180.68 36.89,181.88 37.05,183.08 37.22,184.26 37.38,185.46 37.54,186.66 37.71,187.07 37.87,188.25 38.04,189.41 38.20,190.57 38.36,188.34 38.53,186.07 38.69,185.05 38.85,186.24 39.02,187.41 39.18,185.12 39.35,186.32 39.51,186.48 39.67,187.39 39.84,185.25 40.00,182.92 40.17,184.12 40.33,181.82 40.49,183.03 40.66,184.08 40.82,185.26 40.99,186.44 41.15,184.13 41.31,185.33 41.48,183.02 41.64,180.70 41.81,178.95 41.97,176.60 42.13,174.23 42.30,171.83 42.46,170.82 42.63,172.07 42.79,173.31 42.95,174.55 43.12,172.13 43.28,173.38 43.45,174.00 43.61,171.57 43.77,172.84 43.94,170.40 44.10,167.95 44.27,165.50 44.43,163.03 44.59,160.49 44.76,161.78 44.92,163.09 45.09,164.37 45.25,161.88 45.41,163.17 45.58,164.50 45.74,165.77 45.91,163.26 46.07,160.74 46.23,161.43 46.40,162.72 46.56,163.44 46.73,164.73 46.89,166.03 47.05,166.56 47.22,164.05 47.38,161.54 47.55,162.84 47.71,164.13 47.87,165.41 48.04,166.70 48.20,164.20 48.37,165.48 48.53,166.77 48.69,168.04 48.86,169.02 49.02,170.29 49.19,171.32 49.35,168.88 49.51,166.41 49.68,163.91 49.84,165.19 50.01,166.47 50.17,167.73 50.33,165.26 50.50,162.74 50.66,164.04 50.83,165.32 50.99,162.83 51.15,160.29 51.32,157.72 51.48,155.13 51.65,156.46 51.81,154.40 51.97,151.78 52.14,149.15 52.30,150.50 52.47,151.87 52.63,153.22 52.79,150.60 52.96,151.96 53.12,149.31 53.29,146.64 53.45,143.97 53.61,145.37 53.78,146.33 53.94,143.63 54.11,140.91 54.27,138.17 54.43,139.62 54.60,141.03 54.76,138.30 54.93,135.55 55.09,132.78 55.25,134.25 55.42,135.72 55.58,137.14 55.74,138.58 55.91,139.99 56.07,141.39 56.24,142.80 56.40,140.06 56.56,141.47 56.73,142.88 56.89,144.26 57.06,145.65 57.22,142.94 57.38,140.20 57.55,137.43 57.71,134.65 57.88,136.10 58.04,137.52 58.20,138.93 58.37,140.35 58.53,141.76 58.70,139.00 58.86,140.43 59.02,137.67 59.19,138.25 59.35,135.50 59.52,132.70 59.68,129.89 59.84,127.05 60.01,128.52 60.17,129.99 60.34,131.48 60.50,132.78 60.66,134.25 60.83,135.70 60.99,137.15 61.16,138.60 61.32,135.81 61.48,137.24 61.65,138.67 61.81,135.89 61.98,137.32 62.14,134.55 62.30,136.00 62.47,137.44 62.63,134.65 62.80,136.12 62.96,133.32 63.12,134.78 63.29,136.17 63.45,137.61 63.62,134.84 63.78,136.29 63.94,136.93 64.11,138.39 64.27,139.69 64.44,136.93 64.60,134.16 64.76,134.81 64.93,136.28 65.09,137.71 65.26,139.12 65.42,140.52 65.58,141.92 65.75,139.20 65.91,136.46 66.08,137.93 66.24,139.14 66.40,140.49 66.57,141.92 66.73,143.31 66.90,140.76 67.06,142.18 67.22,143.59 67.39,144.98 67.55,146.37 67.72,147.77 67.88,148.70 68.04,150.09 68.21,151.44 68.37,152.79 68.54,150.16 68.70,147.50 68.86,147.93 69.03,149.32 69.19,149.57 69.36,150.61 69.52,151.08 69.68,148.99 69.85,146.33 70.01,147.74 70.18,148.20 70.34,149.57 70.50,150.94 70.67,152.30 70.83,153.64 71.00,154.99 71.16,156.35 71.32,157.71 71.49,155.19 71.65,152.59 71.82,149.95 71.98,147.31 72.14,148.71 72.31,146.04 72.47,147.46 72.64,144.79 72.80,146.20 72.96,144.43 73.13,145.80 73.29,146.88 73.45,144.19 73.62,141.47 73.78,139.94 73.95,141.11 74.11,142.50 74.27,143.90 74.44,144.86 74.60,142.15 74.77,139.40 74.93,136.67 75.09,133.87 75.26,131.08 75.42,132.55 75.59,134.02 75.75,134.81 75.91,136.26 76.08,137.73 76.24,138.31 76.41,135.53 76.57,132.74 76.73,134.19 76.90,131.39 77.06,130.23 77.23,131.72 77.39,133.18 77.55,130.86 77.72,132.22 77.88,129.37 78.05,130.85 78.21,128.00 78.37,129.46 78.54,130.92 78.70,132.37 78.87,129.54 79.03,126.69 79.19,127.92 79.36,128.97 79.52,127.31 79.69,128.49 79.85,129.28 80.01,130.74 80.18,132.19 80.34,133.66 80.51,135.11 80.67,136.57 80.83,138.02 81.00,139.46 81.16,136.69 81.33,133.91 81.49,135.00 81.65,136.44 81.82,133.64 81.98,130.80 82.15,127.96 82.31,129.46 82.47,130.92 82.64,132.39 82.80,133.38 82.97,130.57 83.13,127.72 83.29,128.97 83.46,126.10 83.62,127.58 83.79,129.05 83.95,126.21 84.11,123.32 84.28,120.41 84.44,117.48 84.61,118.99 84.77,120.50 84.93,122.00 85.10,123.49 85.26,124.97 85.43,122.10 85.59,123.63 85.75,120.71 85.92,122.21 86.08,123.71 86.25,120.79 86.41,117.84 86.57,114.87 86.74,111.86 86.90,108.82 87.07,110.37 87.23,111.93 87.39,113.50 87.56,110.47 87.72,112.05 87.89,113.61 88.05,115.14 88.21,112.13 88.38,113.69 88.54,115.25 88.71,116.80 88.87,118.34 89.03,119.86 89.20,121.37 89.36,122.88 89.53,124.37 89.69,125.85 89.85,127.33 90.02,128.28 90.18,125.40 90.34,122.50 90.51,123.99 90.67,125.48 90.84,126.95 91.00,128.44 91.16,129.91 91.33,131.38 91.49,132.84 91.66,134.28 91.82,135.26 91.98,136.69 92.15,133.90 92.31,131.07 92.48,132.54 92.64,134.00 92.80,135.43 92.97,132.64 93.13,134.09 93.30,135.54 93.46,136.99 93.62,138.26 93.79,135.48 93.95,132.67 94.12,129.84 94.28,131.14 94.44,128.28 94.61,129.77 94.77,131.25 94.94,132.72 95.10,134.18 95.26,135.60 95.43,132.79 95.59,129.94 95.76,131.40 95.92,132.85 96.08,134.32 96.25,131.53 96.41,132.98 96.58,130.16 96.74,131.63 96.90,133.07 97.07,134.52 97.23,131.70 97.40,133.16 97.56,134.62 97.72,131.82 97.89,128.98 98.05,126.12 98.22,127.59 98.38,129.07 98.54,130.54 98.71,132.00 98.87,133.49 99.04,134.97 99.20,136.43 99.36,133.62 99.53,134.91 99.69,132.09 99.86,133.53 100.02,130.70 100.18,127.84 100.35,124.96 100.51,126.18 100.68,127.70 100.84,129.18 101.00,130.66 101.17,132.13 101.33,133.59 101.50,130.79 101.66,128.08 101.82,126.19 101.99,127.69 102.15,128.37 102.32,129.83 102.48,127.00 102.64,128.48 102.81,129.46 102.97,130.92 103.14,132.40 103.30,133.40 103.46,134.87 103.63,135.68 103.79,137.13 103.96,138.59 104.12,140.02 104.28,141.47 104.45,142.87 104.61,143.40 104.78,140.70 104.94,142.14 105.10,143.24 105.27,144.54 105.43,141.83 105.60,139.08 105.76,136.31 105.92,137.75 106.09,138.98 106.25,137.12 106.42,138.57 106.58,140.00 106.74,140.83 106.91,142.23 107.07,143.64 107.23,145.05 107.40,142.34 107.56,139.64 107.73,136.91 107.89,138.34 108.05,138.96 108.22,136.18 108.38,137.53 108.55,138.95 108.71,140.38 108.87,141.79 109.04,143.20 109.20,140.49 109.37,140.00 109.53,141.44 109.69,142.83 109.86,144.24 110.02,141.55 110.19,142.86 110.35,141.48 110.51,142.88 110.68,144.28 110.84,145.67 111.01,147.00 111.17,147.78 111.33,145.09 111.50,146.48 111.66,143.79 111.83,145.19 111.99,146.58 112.15,145.88 112.32,146.83 112.48,147.73 112.65,149.12 112.81,147.51 112.97,148.89 113.14,150.24 113.30,151.20 113.47,152.58 113.63,153.94 113.79,154.44 113.96,155.79 114.12,157.14 114.29,158.46 114.45,159.61 114.61,160.92 114.78,162.22 114.94,163.53 115.11,161.01 115.27,158.46 115.43,155.90 115.60,153.31 115.76,150.70 115.93,152.05 116.09,153.39 116.25,154.72 116.42,156.07 116.58,153.47 116.75,154.79 116.91,152.69 117.07,154.05 117.24,155.41 117.40,156.49 117.57,157.82 117.73,159.15 117.89,156.57 118.06,157.91 118.22,158.87 118.39,159.81 118.55,161.11 118.71,162.41 118.88,163.72 119.04,164.89 119.21,162.39 119.37,160.24 119.53,161.53 119.70,162.84 119.86,160.33 120.03,161.63 120.19,162.93 120.35,164.22 120.52,165.00 120.68,166.30 120.85,167.57 121.01,168.83 121.17,170.10 121.34,171.37 121.50,171.49 121.67,169.08 121.83,170.35 121.99,170.86 122.16,168.41 122.32,169.63 122.49,170.91 122.65,168.62 122.81,166.76 122.98,168.06 123.14,169.35 123.31,166.88 123.47,168.15 123.63,169.42 123.80,166.95 123.96,168.22 124.12,169.49 124.29,170.76 124.45,172.02 124.62,170.02 124.78,171.29 124.94,168.88 125.11,166.79 125.27,164.30 125.44,161.80 125.60,163.12 125.76,164.06 125.93,161.54 126.09,158.99 126.26,156.44 126.42,153.85 126.58,151.88 126.75,149.24 126.91,150.60 127.08,151.99 127.24,149.61 127.40,151.00 127.57,152.24 127.73,149.60 127.90,146.93 128.06,144.24 128.22,141.53 128.39,142.60 128.55,144.00 128.72,145.39 128.88,146.78 129.04,144.09 129.21,145.51 129.37,146.71 129.54,144.02 129.70,145.42 129.86,146.81 130.03,148.20 130.19,149.57 130.36,150.93 130.52,152.30 130.68,149.68 130.85,151.03 131.01,152.38 131.18,153.73 131.34,151.12 131.50,152.46 131.67,153.81 131.83,155.17 132.00,156.54 132.16,157.74 132.32,159.05 132.49,160.38 132.65,161.68 132.82,162.94 132.98,164.23 133.14,161.72 133.31,163.02 133.47,160.49 133.64,157.92 133.80,155.36 133.96,152.77 134.13,150.15 134.29,147.51 134.46,144.84 134.62,142.57 134.78,143.76 134.95,145.16 135.11,146.42 135.28,147.08 135.44,148.46 135.60,149.71 135.77,151.09 135.93,151.80 136.10,153.15 136.26,154.49 136.42,151.89 136.59,153.24 136.75,154.57 136.92,155.91 137.08,157.23 137.24,158.57 137.41,157.94 137.57,159.27 137.74,160.59 137.90,158.03 138.06,158.78 138.23,160.09 138.39,157.55 138.56,158.53 138.72,159.85 138.88,161.16 139.05,159.69 139.21,161.02 139.38,162.34 139.54,159.81 139.70,159.67 139.87,157.09 140.03,154.50 140.20,151.89 140.36,152.76 140.52,154.13 140.69,155.46 140.85,152.85 141.01,150.21 141.18,147.57 141.34,144.90 141.51,146.28 141.67,147.64 141.83,149.04 142.00,150.40 142.16,147.74 142.33,148.63 142.49,149.99 142.65,147.34 142.82,144.68 142.98,146.10 143.15,147.33 143.31,148.73 143.47,150.12 143.64,151.25 143.80,152.63 143.97,153.68 144.13,154.38 144.29,151.75 144.46,149.10 144.62,150.47 144.79,151.83 144.95,149.22 145.11,150.59 145.28,151.54 145.44,152.89 145.61,154.23 145.77,155.58 145.93,152.98 146.10,150.37 146.26,151.74 146.43,153.10 146.59,154.47 146.75,152.57 146.92,153.94 147.08,155.30 147.25,156.67 147.41,154.14 147.57,152.11 147.74,149.46 147.90,150.81 148.07,151.42 148.23,152.78 148.39,152.34 148.56,153.73 148.72,154.70 148.89,156.05 149.05,153.47 149.21,154.83 149.38,155.87 149.54,153.28 149.71,150.66 149.87,148.01 150.03,146.03 150.20,143.33 150.36,140.61 150.53,142.04 150.69,143.01 150.85,144.43 151.02,145.84 151.18,147.25 151.35,144.56 151.51,141.85 151.67,142.78 151.84,140.05 152.00,141.49 152.17,142.45 152.33,139.70 152.49,136.95 152.66,135.56 152.82,132.76 152.99,134.23 153.15,132.27 153.31,129.96 153.48,127.13 153.64,124.26 153.81,125.77 153.97,124.64 154.13,123.56 154.30,125.09 154.46,126.19 154.63,181.75 154.79,182.27 154.95,183.48 155.12,184.11 155.28,184.36 155.45,185.56 155.61,186.76 155.77,187.95 155.94,189.05 156.10,189.93 156.27,188.76 156.43,189.94 156.59,190.78 156.76,191.26 156.92,192.40 157.09,193.06 157.25,192.42 157.41,190.18 157.58,190.64 157.74,191.26 157.91,189.03 158.07,188.13 158.23,189.31 158.40,190.49 158.56,191.51 158.72,190.14 158.89,190.91 159.05,191.82 159.22,192.45 159.38,190.79 159.54,189.60 159.71,189.95 159.87,190.29 160.04,190.64 160.20,191.82 160.36,190.38 160.53,188.69 160.69,187.18 160.86,188.35 161.02,189.51 161.18,189.92 161.35,189.43 161.51,190.43 161.68,191.05 161.84,191.95 162.00,190.53 162.17,189.39 162.33,188.45 162.50,187.40 162.66,186.53 162.82,185.94 162.99,185.48 163.15,184.53 163.32,183.93 163.48,183.17 163.64,183.80 163.81,183.97 163.97,184.35 164.14,184.88 164.30,185.12 164.46,184.29 164.63,184.92 164.79,182.63 164.96,183.20 165.12,183.83 165.28,184.07 165.45,184.61 165.61,184.89 165.78,185.77 165.94,186.57 166.10,186.94 166.27,187.79 166.43,187.05 166.60,188.24 166.76,189.42 166.92,188.68 167.09,189.37 167.25,189.94 167.42,190.51 167.58,191.22 167.74,188.96 167.91,190.13 168.07,191.15 168.24,189.47 168.40,187.42 168.56,186.38 168.73,186.80 168.89,186.50 169.06,186.74 169.22,187.82 169.38,186.53 169.55,185.45 169.71,184.63 169.88,183.85 170.04,181.52 170.20,179.20 170.37,179.60 170.53,178.87 170.70,179.39 170.86,178.60 171.02,176.98 171.19,177.92 171.35,178.26 171.52,175.91 171.68,176.55 171.84,177.02 172.01,177.86 172.17,178.72 172.34,179.96 172.50,181.19 172.66,181.99 172.83,180.80 172.99,179.54 173.16,178.66 173.32,177.29 173.48,175.89 173.65,176.33 173.81,174.91 173.98,173.70 174.14,172.46 174.30,173.07 174.47,171.72 174.63,170.62 174.80,169.80 174.96,169.96 175.12,170.46 175.29,171.32 175.45,171.84 175.61,172.18 175.78,173.45 175.94,172.28 176.11,173.56 176.27,174.01 176.43,175.11 176.60,176.01 176.76,176.64 176.93,174.95 177.09,173.02 177.25,171.90 177.42,172.63 177.58,173.88 177.75,175.13 177.91,175.81 178.07,177.07 178.24,178.26 178.40,175.89 178.57,175.06 178.73,173.57 178.89,172.41 179.06,171.20 179.22,169.50 179.39,170.23 179.55,169.52 179.71,170.79 179.88,172.05 180.04,173.30 180.21,170.93 180.37,172.21 180.53,172.95 180.70,174.22 180.86,175.47 181.03,173.27 181.19,170.86 181.35,168.53 181.52,169.38 181.68,170.66 181.85,171.93 182.01,172.85 182.17,173.71 182.34,174.83 182.50,176.07 182.67,176.84 182.83,178.09 182.99,175.72 183.16,176.42 183.32,176.83 183.49,175.42 183.65,176.45 183.81,177.25 183.98,175.22 184.14,174.20 184.31,174.82 184.47,174.68 184.63,175.35 184.80,175.69 184.96,175.36 185.13,174.48 185.29,173.93 185.45,172.52 185.62,171.86 185.78,173.14 185.95,174.41 186.11,175.65 186.27,176.91 186.44,178.16 186.60,178.64 186.77,179.74 186.93,180.97 187.09,181.59 187.26,182.80 187.42,184.01 187.59,184.88 187.75,186.05 187.91,187.26 188.08,185.64 188.24,183.34 188.41,183.59 188.57,181.57 188.73,179.69 188.90,179.98 189.06,181.20 189.23,182.36 189.39,180.03 189.55,181.24 189.72,182.46 189.88,183.29 190.05,182.35 190.21,182.64 190.37,181.35 190.54,179.47 190.70,178.06 190.87,175.70 191.03,174.42 191.19,173.40 191.36,171.00 191.52,171.34 191.69,172.50 191.85,172.84 192.01,174.10 192.18,174.94 192.34,175.57 192.50,176.06 192.67,177.13 192.83,178.37 193.00,178.84 193.16,179.67 193.32,180.70 193.49,181.92 193.65,182.66 193.82,183.87 193.98,184.51 194.14,185.25 194.31,185.76 194.47,186.19 194.64,185.30 194.80,186.09 194.96,186.80 195.13,187.99 195.29,188.33 195.46,189.50 195.62,190.68 195.78,191.67 195.95,192.16 196.11,193.32 196.28,193.71 196.44,191.51 196.60,192.65 196.77,191.84 196.93,192.55 197.10,193.31 197.26,194.18 197.42,194.31 197.59,195.46 197.75,196.30 197.92,196.75 198.08,196.43 198.24,196.92 198.41,197.48 198.57,197.78 198.74,198.90 198.90,200.03 199.06,199.13 199.23,200.00 199.39,201.13 199.56,202.25 199.72,201.77 199.88,200.32 200.05,200.99 200.21,201.27 200.38,200.28 200.54,199.92 200.70,200.18 200.87,201.30 201.03,199.96 201.20,199.49 201.36,199.71 201.52,200.30 201.69,200.54 201.85,200.89 202.02,201.34 202.18,201.86 202.34,200.24 202.51,201.34 202.67,199.67 202.84,200.81 203.00,199.45 203.16,200.12 203.33,200.63 203.49,201.75 203.66,202.63 203.82,202.88 203.98,203.26 204.15,203.80 204.31,204.49 204.48,204.81 204.64,205.90 204.80,207.00 204.97,207.32 205.13,208.24 205.30,207.50 205.46,205.43 205.62,203.35 205.79,202.41 205.95,201.81 206.12,199.69 206.28,198.10 206.44,198.46 206.61,199.01 206.77,199.21 206.94,197.05 207.10,197.46 207.26,196.96 207.43,196.73 207.59,197.02 207.76,197.40 207.92,198.20 208.08,198.68 208.25,197.18 208.41,198.04 208.58,198.49 208.74,198.97 208.90,199.44 209.07,197.29 209.23,198.34 209.39,198.76 209.56,199.53 209.72,199.04 209.89,198.71 210.05,198.95 210.21,199.22 210.38,200.18 210.54,198.92 210.71,198.06 210.87,198.67 211.03,198.20 211.20,198.64 211.36,198.92 211.53,199.65 211.69,197.49 211.85,195.30 212.02,193.10 212.18,194.24 212.35,192.67 212.51,193.83 212.67,194.98 212.84,196.12 213.00,197.04 213.17,197.25 213.33,198.34 213.49,196.98 213.66,196.27 213.82,196.57 213.99,196.92 214.15,197.45 214.31,195.28 214.48,196.42 214.64,197.57 214.81,198.51 214.97,199.65 215.13,200.76 215.30,201.86 215.46,202.66 215.63,203.74 215.79,202.96 215.95,201.87 216.12,201.61 216.28,202.06 216.45,199.93 216.61,198.64 216.77,199.66 216.94,200.30 217.10,201.41 217.27,201.72 217.43,202.38 217.59,202.85 217.76,203.97 217.92,204.74 218.09,205.38 218.25,205.70 218.41,206.50 218.58,204.99 218.74,203.82 218.91,201.70 219.07,200.36 219.23,201.20 219.40,201.82 219.56,202.20 219.73,203.25 219.89,204.25 220.05,202.72 220.22,200.76 220.38,198.62 220.55,199.47 220.71,197.95 220.87,198.65 221.04,199.72 221.20,200.85 221.37,201.15 221.53,200.23 221.69,201.07 221.86,201.53 222.02,202.23 222.19,201.70 222.35,201.06 222.51,200.54 222.68,201.03 222.84,202.15 223.01,202.43 223.17,200.31 223.33,198.69 223.50,199.82 223.66,200.67 223.83,198.53 223.99,196.36 224.15,197.50 224.32,198.62 224.48,199.43 224.65,200.56 224.81,200.91 224.97,201.70 225.14,202.82 225.30,201.05 225.47,202.06 225.63,203.16 225.79,201.03 225.96,202.13 226.12,203.24 226.28,204.33 226.45,205.44 226.61,206.24 226.78,204.15 226.94,205.17 227.10,206.26 227.27,204.18 227.43,205.28 227.60,203.79 227.76,204.73 227.92,205.84 228.09,206.86 228.25,207.33 228.42,208.42 228.58,209.51 228.74,210.19 228.91,211.24 229.07,212.30 229.24,212.64 229.40,213.28 229.56,214.33 229.73,215.37 229.89,216.40 230.06,215.35 230.22,216.02 230.38,214.03 230.55,212.56 230.71,211.49 230.88,212.01 231.04,212.36 231.20,210.33 231.37,208.27 231.53,206.71 231.70,205.43 231.86,204.45 232.02,204.94 232.19,206.01 232.35,207.11 232.52,208.11 232.68,209.19 232.84,209.90 233.01,208.05 233.17,209.14 233.34,208.00 233.50,209.09 233.66,209.33 233.83,207.27 233.99,208.34 234.16,209.05 234.32,210.10 234.48,208.85 234.65,206.77 234.81,207.84 234.98,208.93 235.14,209.98 235.30,211.04 235.47,212.09 235.63,210.03 235.80,211.09 235.96,212.14 236.12,210.10 236.29,211.16 236.45,212.22 236.62,213.26 236.78,212.22 236.94,213.28 237.11,214.30 237.27,215.34 237.44,213.55 237.60,214.52 237.76,214.65 237.93,215.44 238.09,215.73 238.26,213.73 238.42,212.13 238.58,213.20 238.75,211.86 238.91,210.71 239.08,211.72 239.24,212.34 239.40,213.35 239.57,214.33 239.73,215.11 239.90,215.86 240.06,216.89 240.22,217.88 240.39,218.71 240.55,219.74 240.72,220.09 240.88,221.09 241.04,221.50 241.21,222.49 241.37,220.54 241.54,221.56 241.70,219.61 241.86,217.66 242.03,215.68 242.19,213.94 242.36,212.84 242.52,212.03 242.68,211.27 242.85,211.92 243.01,212.23 243.18,212.68 243.34,212.92 243.50,213.24 243.67,214.16 243.83,214.87 243.99,212.86 244.16,210.84 244.32,209.40 244.49,209.16 244.65,208.81 244.81,209.08 244.98,210.14 245.14,209.35 245.31,208.48 245.47,207.53 245.63,208.02 245.80,208.37 245.96,208.88 246.13,209.26 246.29,209.50 246.45,210.39 246.62,210.62 246.78,211.06 246.95,211.84 247.11,212.90 247.27,213.97 247.44,214.49 247.60,214.75 247.77,215.25 247.93,215.82 248.09,216.86 248.26,217.13 248.42,217.70 248.59,215.73 248.75,214.93 248.91,213.91 249.08,213.38 249.24,212.60 249.41,212.72 249.57,213.04 249.73,212.66 249.90,212.01 250.06,212.68 250.23,213.00 250.39,214.06 250.55,214.96 250.72,216.01 250.88,216.77 251.05,216.44 251.21,217.37 251.37,217.93 251.54,218.15 251.70,218.35 251.87,219.31 252.03,219.65 252.19,218.98 252.36,219.16 252.52,220.05 252.69,221.08 252.85,221.60 253.01,220.62 253.18,220.96 253.34,219.87 253.51,219.32 253.67,219.00 253.83,218.77 254.00,219.81 254.16,220.18 254.33,220.40 254.49,221.41 254.65,222.28 254.82,220.71 254.98,220.46 255.15,220.89 255.31,221.09 255.47,221.59 255.64,221.85 255.80,222.86 255.97,223.86 256.13,224.07 256.29,222.16 256.46,222.72 256.62,222.88 256.79,223.83 256.95,223.14 257.11,222.58 257.28,221.81 257.44,221.49 257.61,222.05 257.77,220.24 257.93,219.69 258.10,219.27 258.26,218.33 258.43,217.96 258.59,217.66 258.75,217.42 258.92,215.65 259.08,214.11 259.25,212.11 259.41,211.12 259.57,212.17 259.74,213.22 259.90,214.29 260.07,215.32 260.23,215.81 260.39,215.86 260.56,216.21 260.72,216.54 260.88,216.64 261.05,214.66 261.21,212.66 261.38,211.77 261.54,209.74 261.70,210.45 261.87,209.95 262.03,209.78 262.20,210.47 262.36,211.54 262.52,212.06 262.69,211.40 262.85,211.53 263.02,210.63 263.18,210.80 263.34,211.02 263.51,211.36 263.67,210.67 263.84,210.93 264.00,211.51 264.16,210.48 264.33,211.00 264.49,211.21 264.66,212.27 264.82,210.81 264.98,211.15 265.15,211.38 265.31,211.92 265.48,212.47 265.64,212.75 265.80,212.98 265.97,213.13 266.13,212.13 266.30,210.31 266.46,210.71 266.62,210.09 266.79,208.21 266.95,209.22 267.12,210.30 267.28,211.11 267.44,210.46 267.61,209.85 267.77,209.63 267.94,209.09 268.10,209.24 268.26,209.64 268.43,208.34 268.59,207.78 268.76,208.06 268.92,207.92 269.08,208.86 269.25,209.43 269.41,207.37 269.58,208.46 269.74,209.05 269.90,210.12 270.07,210.91 270.23,211.97 270.40,211.64 270.56,212.56 270.72,213.24 270.89,213.51 271.05,214.11 271.22,215.16 271.38,215.76 271.54,215.14 271.71,215.51 271.87,214.38 272.04,214.50 272.20,213.99 272.36,213.37 272.53,213.52 272.69,213.10 272.86,212.68 273.02,212.95 273.18,213.23 273.35,214.03 273.51,214.58 273.68,215.47 273.84,214.79 274.00,215.39 274.17,215.01 274.33,215.36 274.50,213.37 274.66,211.34 274.82,211.43 274.99,209.39 275.15,210.35 275.32,208.74 275.48,209.82 275.64,210.77 275.81,211.81 275.97,212.76 276.14,213.13 276.30,213.44 276.46,211.60 276.63,209.69 276.79,208.08 276.96,208.91 277.12,206.85 277.28,207.48 277.45,208.56 277.61,209.63 277.77,210.28 277.94,211.05 278.10,212.10 278.27,210.44 278.43,209.33 278.59,210.08 278.76,210.44 278.92,211.52 279.09,209.48 279.25,208.50 279.41,209.15 279.58,209.57 279.74,210.63 279.91,210.89 280.07,211.11 280.23,211.38 280.40,211.65 280.56,212.71 280.73,213.30 280.89,214.35 281.05,214.67 281.22,212.66 281.38,211.53 281.55,212.59 281.71,213.36 281.87,214.40 282.04,215.45 282.20,215.94 282.37,216.98 282.53,217.16 282.69,216.98 282.86,216.80 283.02,216.46 283.19,216.11 283.35,214.84 283.51,215.55 283.68,215.79 283.84,216.33 284.01,217.36 284.17,218.10 284.33,218.33 284.50,217.57 284.66,218.27 284.83,218.86 284.99,219.21 285.15,219.85 285.32,220.16 285.48,221.17 285.65,219.99 285.81,220.38 285.97,220.61 286.14,221.27 286.30,222.28 286.47,221.35 286.63,221.94 286.79,222.79 286.96,223.26 287.12,223.64 287.29,224.00 287.45,224.72 287.61,222.81 287.78,223.09 287.94,221.54 288.11,222.18 288.27,222.61 288.43,221.14 288.60,221.48 288.76,219.53 288.93,220.54 289.09,221.56 289.25,222.58 289.42,222.76 289.58,223.56 289.75,224.57 289.91,222.65 290.07,220.72 290.24,219.22 290.40,217.88 290.57,218.21 290.73,218.98 290.89,219.70 291.06,218.13 291.22,219.15 291.39,220.17 291.55,218.24 291.71,217.55 291.88,218.59 292.04,219.21 292.21,219.64 292.37,220.07 292.53,220.45 292.70,220.83 292.86,221.84 293.03,219.89 293.19,217.94 293.35,218.96 293.52,217.84 293.68,218.40 293.85,219.43 294.01,220.44 294.17,221.41 294.34,222.43 294.50,223.44 294.66,221.52 294.83,222.53 294.99,222.85 295.16,223.05 295.32,221.13 295.48,219.17 295.65,219.83 295.81,220.13 295.98,221.02 296.14,221.74 296.30,221.95 296.47,222.96 296.63,223.97 296.80,224.47 296.96,223.03 297.12,224.03 297.29,225.03 297.45,225.38 297.62,226.17 297.78,225.76 297.94,226.75 298.11,227.75 298.27,228.48 298.44,229.02 298.60,230.00 298.76,228.15 298.93,228.89 299.09,228.09 299.26,226.86 299.42,224.97 299.58,223.06 299.75,223.79 299.91,224.78 300.08,224.34 300.24,223.39 300.40,223.82 300.57,224.76 300.73,223.45 300.90,222.46 301.06,220.66 301.22,219.87 301.39,219.19 301.55,217.23 301.72,215.25 301.88,213.26 302.04,214.18 302.21,215.18 302.37,214.73 302.54,213.83 302.70,214.89 302.86,215.75 303.03,216.72 303.19,214.73 303.36,215.51 303.52,216.25 303.68,215.94 303.85,216.12 304.01,217.16 304.18,218.19 304.34,218.40 304.50,216.41 304.67,214.84 304.83,213.73 305.00,213.20 305.16,212.74 305.32,210.71 305.49,209.65 305.65,208.21 305.82,208.42 305.98,207.18 306.14,206.56 306.31,206.88 306.47,207.03 306.64,206.38 306.80,204.87 306.96,203.71 307.13,203.20 307.29,202.72 307.46,203.33 307.62,203.81 307.78,204.70 307.95,205.45 308.11,206.32 308.28,207.13 308.44,181.75 308.60,182.19 308.77,183.14 308.93,184.34 309.10,185.35 309.26,186.36 309.42,187.55 309.59,188.53 309.75,189.72 309.92,190.55 310.08,191.55 310.24,192.23 310.41,190.01 310.57,189.62 310.74,188.50 310.90,188.85 311.06,190.04 311.23,191.22 311.39,191.76 311.55,190.17 311.72,189.03 311.88,189.83 312.05,190.51 312.21,191.24 312.37,191.91 312.54,192.82 312.70,192.27 312.87,192.59 313.03,191.09 313.19,189.87 313.36,191.04 313.52,192.19 313.69,192.51 313.85,192.72 314.01,193.73 314.18,194.15 314.34,193.24 314.51,194.41 314.67,194.77 314.83,193.90 315.00,193.23 315.16,192.48 315.33,191.96 315.49,192.13 315.65,192.56 315.82,192.72 315.98,193.13 316.15,193.76 316.31,194.53 316.47,194.95 316.64,195.14 316.80,195.43 316.97,194.68 317.13,195.40 317.29,196.55 317.46,197.27 317.62,197.76 317.79,198.07 317.95,198.80 318.11,199.43 318.28,200.18 318.44,200.05 318.61,200.51 318.77,198.35 318.93,199.47 319.10,200.16 319.26,199.41 319.43,198.99 319.59,198.72 319.75,198.17 319.92,198.58 320.08,198.80 320.25,199.72 320.41,199.78 320.57,200.21 320.74,200.80 320.90,200.31 321.07,198.15 321.23,198.79 321.39,199.39 321.56,198.72 321.72,197.35 321.89,196.38 322.05,195.46 322.21,195.94 322.38,194.61 322.54,195.77 322.71,196.25 322.87,196.49 323.03,197.14 323.20,197.73 323.36,198.37 323.53,198.56 323.69,197.99 323.85,197.33 324.02,196.98 324.18,196.37 324.35,195.29 324.51,194.58 324.67,194.90 324.84,194.43 325.00,193.82 325.17,193.05 325.33,193.49 325.49,192.90 325.66,192.40 325.82,191.72 325.99,191.42 326.15,191.95 326.31,191.81 326.48,191.00 326.64,190.18 326.81,190.31 326.97,190.19 327.13,190.95 327.30,191.29 327.46,192.08 327.63,191.19 327.79,191.84 327.95,192.17 328.12,192.57 328.28,193.18 328.45,193.55 328.61,194.08 328.77,191.87 328.94,189.65 329.10,188.47 329.26,188.89 329.43,189.26 329.59,189.89 329.76,187.91 329.92,185.69 330.08,184.99 330.25,184.25 330.41,182.99 330.58,182.07 330.74,181.27 330.90,182.50 331.07,183.72 331.23,184.48 331.40,185.14 331.56,185.99 331.72,186.83 331.89,187.23 332.05,185.72 332.22,186.13 332.38,187.26 332.54,187.98 332.71,186.01 332.87,184.73 333.04,183.18 333.20,182.15 333.36,180.75 333.53,181.39 333.69,179.05 333.86,180.29 334.02,181.01 334.18,182.04 334.35,183.26 334.51,183.70 334.68,184.49 334.84,182.72 335.00,183.94 335.17,184.32 335.33,183.06 335.50,181.57 335.66,181.95 335.82,182.26 335.99,182.74 336.15,182.31 336.32,181.84 336.48,182.19 336.64,182.33 336.81,181.66 336.97,181.94 337.14,181.33 337.30,181.20 337.46,180.98 337.63,180.62 337.79,181.54 337.96,182.27 338.12,183.50 338.28,184.21 338.45,185.42 338.61,185.65 338.78,186.54 338.94,185.46 339.10,186.23 339.27,187.02 339.43,187.25 339.60,187.65 339.76,188.55 339.92,186.30 340.09,184.81 340.25,185.02 340.42,183.80 340.58,182.72 340.74,182.30 340.91,181.88 341.07,183.03 341.24,184.20 341.40,185.05 341.56,186.24 341.73,187.44 341.89,187.79 342.06,188.10 342.22,188.85 342.38,189.39 342.55,189.73 342.71,190.91 342.88,191.14 343.04,192.31 343.20,193.22 343.37,192.32 343.53,190.25 343.70,189.74 343.86,189.29 344.02,187.28 344.19,185.74 344.35,186.15 344.52,186.71 344.68,187.37 344.84,187.24 345.01,186.03 345.17,186.77 345.34,187.07 345.50,187.74 345.66,188.49 345.83,188.70 345.99,189.11 346.15,189.59 346.32,189.98 346.48,191.16 346.65,191.83 346.81,192.96 346.97,193.25 347.14,193.72 347.30,193.92 347.47,192.96 347.63,192.37 347.79,192.88 347.96,190.79 348.12,190.98 348.29,191.98 348.45,191.26 348.61,191.39 348.78,190.36 348.94,190.98 349.11,191.36 349.27,190.96 349.43,190.12 349.60,189.63 349.76,189.90 349.93,190.49 350.09,189.06 350.25,188.63 350.42,187.74 350.58,188.21 350.75,188.45 350.91,189.22 351.07,189.75 351.24,190.27 351.40,191.04 351.57,191.68 351.73,191.92 351.89,192.94 352.06,194.11 352.22,194.48 352.39,192.28 352.55,190.83 352.71,191.07 352.88,192.22 353.04,191.44 353.21,190.98 353.37,190.17 353.53,190.51 353.70,190.77 353.86,189.39 354.03,188.63 354.19,189.02 354.35,189.28 354.52,188.60 354.68,188.99 354.85,189.24 355.01,188.20 355.17,188.31 355.34,186.69 355.50,187.49 355.67,186.61 355.83,187.26 355.99,187.67 356.16,188.09 356.32,188.44 356.49,189.09 356.65,189.40 356.81,190.58 356.98,191.57 357.14,192.73 357.31,192.13 357.47,193.05 357.63,193.18 357.80,193.30 357.96,192.34 358.13,191.25 358.29,190.70 358.45,190.35 358.62,190.67 358.78,190.79 358.95,190.87 359.11,190.48 359.27,190.70 359.44,190.81 359.60,191.03 359.77,190.12 359.93,190.53 360.09,190.11 360.26,190.51 360.42,190.72 360.59,191.22 360.75,190.88 360.91,191.29 361.08,191.48 361.24,192.20 361.41,192.40 361.57,192.19 361.73,192.37 361.90,192.54 362.06,193.05 362.23,193.55 362.39,193.86 362.55,191.64 362.72,190.10 362.88,187.85 363.04,185.58 363.21,186.76 363.37,184.83 363.54,186.02 363.70,187.21 363.86,188.10 364.03,185.99 364.19,184.84 364.36,184.08 364.52,183.35 364.68,183.71 364.85,184.25 365.01,184.70 365.18,184.00 365.34,181.70 365.50,182.56 365.67,183.73 365.83,184.51 366.00,183.97 366.16,184.82 366.32,186.02 366.49,186.71 366.65,186.10 366.82,185.34 366.98,185.77 367.14,186.30 367.31,186.57 367.47,187.03 367.64,184.75 367.80,185.71 367.96,186.29 368.13,187.47 368.29,187.93 368.46,189.11 368.62,189.65 368.78,188.94 368.95,189.21 369.11,188.59 369.28,188.86 369.44,190.05 369.60,190.51 369.77,190.94 369.93,191.14 370.10,192.12 370.26,192.43 370.42,191.56 370.59,189.34 370.75,190.03 370.92,190.54 371.08,190.76 371.24,191.21 371.41,191.18 371.57,191.45 371.74,191.84 371.90,189.61 372.06,188.23 372.23,188.87 372.39,189.51 372.56,189.69 372.72,188.80 372.88,189.88 373.05,190.88 373.21,191.39 373.38,191.97 373.54,192.27 373.70,193.05 373.87,193.51 374.03,192.63 374.20,192.25 374.36,192.58 374.52,193.10 374.69,193.41 374.85,193.67 375.02,193.95 375.18,194.51 375.34,195.37 375.51,193.56 375.67,192.01 375.84,190.77 376.00,191.59 376.16,192.53 376.33,190.57 376.49,191.74 376.66,192.17 376.82,193.32 376.98,192.81 377.15,193.37 377.31,192.25 377.48,193.42 377.64,194.13 377.80,194.58 377.97,195.72 378.13,193.52 378.30,191.30 378.46,192.47 378.62,193.63 378.79,194.62 378.95,195.78 379.12,196.66 379.28,195.47 379.44,196.27 379.61,197.20 379.77,196.36 379.93,196.87 380.10,197.93 380.26,196.56 380.43,197.04 380.59,198.18 380.75,198.80 380.92,199.45 381.08,200.57 381.25,201.29 381.41,202.42 381.57,203.53 381.74,204.63 381.90,205.07 382.07,206.05 382.23,205.23 382.39,205.63 382.56,206.17 382.72,204.36 382.89,203.26 383.05,202.19 383.21,201.43 383.38,200.43 383.54,200.80 383.71,198.66 383.87,196.49 384.03,195.03 384.20,194.04 384.36,194.54 384.53,194.97 384.69,193.71 384.85,194.88 385.02,195.48 385.18,194.34 385.35,193.46 385.51,194.57 385.67,194.76 385.84,195.70 386.00,196.07 386.17,194.85 386.33,195.98 386.49,193.80 386.66,191.57 386.82,192.73 386.99,193.70 387.15,194.40 387.31,195.52 387.48,196.66 387.64,197.20 387.81,198.33 387.97,196.14 388.13,197.27 388.30,198.38 388.46,196.21 388.63,197.34 388.79,198.45 388.95,196.27 389.12,195.37 389.28,196.41 389.45,197.53 389.61,195.35 389.77,193.16 389.94,191.94 390.10,190.27 390.27,191.34 390.43,191.50 390.59,192.34 390.76,192.79 390.92,190.58 391.09,191.59 391.25,191.79 391.41,192.95 391.58,194.10 391.74,192.07 391.91,190.81 392.07,191.55 392.23,190.80 392.40,191.73 392.56,192.42 392.73,193.08 392.89,194.02 393.05,194.52 393.22,195.66 393.38,196.43 393.55,197.01 393.71,197.52 393.87,197.97 394.04,199.09 394.20,200.14 394.37,197.98 394.53,199.10 394.69,200.24 394.86,201.28 395.02,199.15 395.19,197.37 395.35,195.20 395.51,195.86 395.68,195.13 395.84,195.44 396.01,194.62 396.17,195.04 396.33,194.76 396.50,195.43 396.66,195.72 396.82,194.20 396.99,192.00 397.15,192.70 397.32,191.88 397.48,191.33 397.64,191.01 397.81,191.28 397.97,191.68 398.14,192.85 398.30,191.91 398.46,191.26 398.63,190.70 398.79,190.01 398.96,190.36 399.12,189.91 399.28,190.24 399.45,190.75 399.61,191.22 399.78,191.99 399.94,192.30 400.10,192.61 400.27,192.92 400.43,193.74 400.60,194.44 400.76,195.37 400.92,195.83 401.09,196.13 401.25,196.61 401.42,197.75 401.58,198.60 401.74,198.97 401.91,196.80 402.07,196.33 402.24,196.06 402.40,196.51 402.56,196.61 402.73,196.73 402.89,196.24 403.06,196.31 403.22,196.57 403.38,197.21 403.55,197.78 403.71,198.04 403.88,198.44 404.04,198.08 404.20,197.93 404.37,199.06 404.53,199.67 404.70,200.05 404.86,200.27 405.02,200.59 405.19,200.82 405.35,201.41 405.52,201.84 405.68,202.15 405.84,202.30 406.01,202.54 406.17,202.75 406.34,202.90 406.50,203.17 406.66,203.56 406.83,202.45 406.99,202.18 407.16,201.11 407.32,200.54 407.48,200.00 407.65,200.27 407.81,199.84 407.98,200.54 408.14,200.99 408.30,200.63 408.47,201.32 408.63,200.45 408.80,200.00 408.96,198.92 409.12,199.20 409.29,199.58 409.45,199.23 409.62,199.43 409.78,199.74 409.94,200.23 410.11,201.36 410.27,202.47 410.44,202.75 410.60,200.63 410.76,199.78 410.93,199.13 411.09,199.78 411.26,200.50 411.42,199.81 411.58,199.01 411.75,199.22 411.91,199.96 412.08,198.54 412.24,199.08 412.40,199.39 412.57,198.99 412.73,198.68 412.90,198.36 413.06,198.46 413.22,198.89 413.39,198.33 413.55,197.87 413.72,197.27 413.88,198.41 414.04,199.55 414.21,200.15 414.37,199.40 414.53,200.52 414.70,200.27 414.86,200.62 415.03,200.17 415.19,199.23 415.35,198.69 415.52,198.96 415.68,199.16 415.85,199.30 416.01,197.51 416.17,196.60 416.34,197.12 416.50,194.95 416.67,195.56 416.83,195.84 416.99,195.53 417.16,195.24 417.32,194.66 417.49,194.50 417.65,195.65 417.81,196.80 417.98,197.72 418.14,198.14 418.31,198.43 418.47,198.62 418.63,199.09 418.80,197.75 418.96,197.26 419.13,197.41 419.29,197.80 419.45,197.97 419.62,198.81 419.78,199.13 419.95,199.42 420.11,199.57 420.27,199.89 420.44,200.14 420.60,200.33 420.77,200.49 420.93,200.04 421.09,199.08 421.26,197.65 421.42,197.29 421.59,195.90 421.75,196.74 421.91,197.74 422.08,197.24 422.24,196.93 422.41,196.53 422.57,195.80 422.73,195.56 422.90,195.01 423.06,195.19 423.23,195.50 423.39,195.84 423.55,196.03 423.72,196.35 423.88,195.66 424.05,196.31 424.21,196.88 424.37,196.57 424.54,197.23 424.70,197.84 424.87,198.31 425.03,198.75 425.19,196.58 425.36,194.40 425.52,195.46 425.69,195.77 425.85,196.02 426.01,196.33 426.18,197.47 426.34,198.61 426.51,198.27 426.67,198.56 426.83,197.61 427.00,198.16 427.16,198.67 427.33,198.91 427.49,199.42 427.65,200.37 427.82,199.68 427.98,200.03 428.15,199.18 428.31,199.38 428.47,199.03 428.64,198.90 428.80,199.85 428.97,199.03 429.13,199.29 429.29,199.50 429.46,197.85 429.62,198.24 429.79,199.03 429.95,199.49 430.11,199.99 430.28,199.86 430.44,197.71 430.61,195.55 430.77,196.31 430.93,195.24 431.10,195.96 431.26,193.78 431.42,194.33 431.59,193.53 431.75,193.15 431.92,193.50 432.08,193.71 432.24,194.38 432.41,192.73 432.57,191.40 432.74,189.85 432.90,188.49 433.06,186.24 433.23,186.92 433.39,188.11 433.56,189.30 433.72,189.64 433.88,190.32 434.05,189.31 434.21,188.27 434.38,188.80 434.54,189.25 434.70,188.28 434.87,187.21 435.03,185.10 435.20,183.69 435.36,183.01 435.52,183.43 435.69,182.96 435.85,183.29 436.02,183.50 436.18,183.71 436.34,184.58 436.51,185.02 436.67,183.94 436.84,185.15 437.00,185.28 437.16,182.99 437.33,184.20 437.49,184.62 437.66,185.61 437.82,186.81 437.98,187.32 438.15,187.53 438.31,186.89 438.48,185.90 438.64,185.52 438.80,185.61 438.97,185.22 439.13,184.80 439.30,184.45 439.46,184.17 439.62,184.28 439.79,184.47 439.95,183.56 440.12,183.81 440.28,184.36 440.44,183.93 440.61,184.24 440.77,185.01 440.94,185.28 441.10,184.60 441.26,184.89 441.43,184.75 441.59,185.10 441.76,185.60 441.92,185.88 442.08,186.41 442.25,186.98 442.41,187.37 442.58,187.76 442.74,187.97 442.90,188.61 443.07,189.65 443.23,190.38 443.40,190.99 443.56,191.35 443.72,191.99 443.89,189.77 444.05,190.05 444.22,188.55 444.38,188.75 444.54,188.12 444.71,188.59 444.87,188.70 445.04,188.80 445.20,189.31 445.36,187.05 445.53,188.24 445.69,189.18 445.86,190.30 446.02,190.48 446.18,191.30 446.35,189.07 446.51,188.11 446.68,186.99 446.84,185.74 447.00,184.95 447.17,185.53 447.33,186.73 447.50,187.92 447.66,185.66 447.82,184.58 447.99,184.02 448.15,184.84 448.31,184.15 448.48,184.50 448.64,184.72 448.81,182.42 448.97,180.10 449.13,181.32 449.30,180.30 449.46,181.08 449.63,182.30 449.79,183.05 449.95,183.70 450.12,184.25 450.28,185.23 450.45,186.40 450.61,184.27 450.77,183.55 450.94,183.68 451.10,183.47 451.27,181.47 451.43,179.13 451.59,179.75 451.76,180.19 451.92,180.85 452.09,181.35 452.25,179.23 452.41,180.44 452.58,181.32 452.74,182.47 452.91,183.69 453.07,184.89 453.23,186.10 453.40,185.55 453.56,186.38 453.73,187.41 453.89,188.51 454.05,189.62 454.22,190.06 454.38,190.77 454.55,188.54 454.71,189.26 454.87,187.30 455.04,186.56 455.20,185.20 455.37,182.90 455.53,184.10 455.69,184.80 455.86,186.00 456.02,186.75 456.19,185.53 456.35,184.45 456.51,184.90 456.68,185.92 456.84,184.66 457.01,182.97 457.17,182.27 457.33,181.36 457.50,179.04 457.66,177.03 457.83,177.82 457.99,178.08 458.15,177.23 458.32,178.35 458.48,179.29 458.65,180.16 458.81,177.82 458.97,178.55 459.14,178.79 459.30,179.06 459.47,179.61 459.63,180.84 459.79,178.48 459.96,176.35 460.12,177.27 460.29,176.07 460.45,175.83 460.61,175.17 460.78,172.77 460.94,171.53 461.11,170.48 461.27,169.54 461.43,168.24 461.60,168.49 461.76,167.28 461.93,167.67 462.09,168.05 462.25,167.17 462.42,166.80 462.58,167.37 462.75,168.26 462.91,167.54 463.07,168.03 463.24,168.43 463.40,168.61 463.57,169.32 463.73,169.94 463.89,181.75 464.06,182.53 464.22,180.22 464.39,177.86 464.55,179.08 464.71,180.29 464.88,181.51 465.04,182.69 465.20,180.36 465.37,181.56 465.53,182.77 465.70,183.83 465.86,182.27 466.02,179.92 466.19,178.11 466.35,175.73 466.52,173.51 466.68,171.07 466.84,172.32 467.01,173.57 467.17,171.15 467.34,168.73 467.50,169.98 467.66,167.51 467.83,168.81 467.99,166.33 468.16,167.61 468.32,168.89 468.48,166.41 468.65,167.69 468.81,168.98 468.98,170.23 469.14,171.48 469.30,172.72 469.47,173.97 469.63,171.55 469.80,169.09 469.96,170.37 470.12,171.62 470.29,172.86 470.45,174.10 470.62,175.34 470.78,172.92 470.94,174.18 471.11,171.94 471.27,169.51 471.44,170.77 471.60,172.03 471.76,173.28 471.93,174.36 472.09,171.93 472.26,173.19 472.42,174.43 472.58,175.68 472.75,176.90 472.91,178.12 473.08,179.35 473.24,180.57 473.40,181.76 473.57,179.41 473.73,180.62 473.90,178.27 474.06,179.49 474.22,177.86 474.39,179.09 474.55,180.32 474.72,179.59 474.88,180.54 475.04,178.19 475.21,179.41 475.37,180.44 475.54,181.35 475.70,182.55 475.86,180.23 476.03,180.75 476.19,181.95 476.36,183.14 476.52,184.34 476.68,182.78 476.85,183.97 477.01,185.18 477.18,182.88 477.34,184.10 477.50,184.90 477.67,186.07 477.83,187.26 478.00,184.96 478.16,182.64 478.32,180.30 478.49,177.94 478.65,179.18 478.82,180.39 478.98,181.61 479.14,179.25 479.31,180.46 479.47,181.66 479.64,182.89 479.80,184.08 479.96,185.23 480.13,186.41 480.29,187.62 480.46,188.78 480.62,186.51 480.78,184.20 480.95,181.88 481.11,183.10 481.28,184.32 481.44,185.50 481.60,186.68 481.77,184.38 481.93,182.06 482.09,183.27 482.26,180.93 482.42,178.57 482.59,176.19 482.75,177.42 482.91,175.02 483.08,172.60 483.24,170.16 483.41,171.40 483.57,172.65 483.73,173.90 483.90,175.14 484.06,176.37 484.23,177.54 484.39,178.78 484.55,180.01 484.72,181.21 484.88,182.40 485.05,183.60 485.21,184.08 485.37,185.25 485.54,186.45 485.70,187.62 485.87,188.79 486.03,186.53 486.19,184.23 486.36,185.41 486.52,186.60 486.69,187.76 486.85,188.92 487.01,190.08 487.18,191.23 487.34,192.40 487.51,193.54 487.67,194.67 487.83,195.81 488.00,196.94 488.16,198.05 488.33,199.17 488.49,200.28 488.65,198.13 488.82,195.95 488.98,193.75 489.15,192.14 489.31,189.90 489.47,187.64 489.64,185.38 489.80,183.07 489.97,180.74 490.13,181.97 490.29,179.62 490.46,180.61 490.62,181.82 490.79,179.48 490.95,180.68 491.11,181.91 491.28,183.13 491.44,184.22 491.61,185.44 491.77,186.62 491.93,187.81 492.10,185.51 492.26,186.69 492.43,187.87 492.59,189.06 492.75,190.21 492.92,187.94 493.08,189.11 493.25,190.27 493.41,191.42 493.57,192.56 493.74,190.34 493.90,188.08 494.07,189.25 494.23,190.42 494.39,191.57 494.56,192.72 494.72,190.48 494.89,191.64 495.05,192.78 495.21,193.92 495.38,195.08 495.54,196.22 495.71,197.36 495.87,195.94 496.03,197.06 496.20,198.18 496.36,199.31 496.53,197.13 496.69,194.94 496.85,196.06 497.02,197.18 497.18,198.30 497.35,199.40 497.51,197.23 497.67,195.04 497.84,192.83 498.00,193.98 498.17,195.13 498.33,196.29 498.49,197.43 498.66,198.56 498.82,197.43 498.99,198.55 499.15,199.65 499.31,200.77 499.48,201.87 499.64,202.35 499.80,200.20 499.97,201.33 500.13,202.42 500.30,200.29 500.46,201.39 500.62,202.49 500.79,203.58 500.95,204.67 501.12,205.74 501.28,206.84 501.44,207.91 501.61,205.83 501.77,206.90 501.94,207.98 502.10,208.95 502.26,210.01 502.43,211.07 502.59,211.68 502.76,212.74 502.92,210.71 503.08,211.76 503.25,212.82 503.41,213.87 503.58,214.92 503.74,215.79 503.90,216.84 504.07,214.83 504.23,212.81 504.40,210.78 504.56,208.73 504.72,206.67 504.89,204.99 505.05,206.08 505.22,207.17 505.38,208.23 505.54,209.11 505.71,210.17 505.87,208.12 506.04,208.40 506.20,206.31 506.36,207.37 506.53,208.44 506.69,206.39 506.86,204.28 507.02,202.16 507.18,202.72 507.35,200.59 507.51,201.70 507.68,199.55 507.84,200.68 508.00,198.52 508.17,196.34 508.33,197.49 508.50,195.29 508.66,193.07 508.82,190.83 508.99,188.58 509.15,189.75 509.32,190.92 509.48,192.06 509.64,193.21 509.81,194.35 509.97,195.48 510.14,196.61 510.30,197.74 510.46,198.85 510.63,199.97 510.79,201.07 510.96,202.17 511.12,203.26 511.28,201.13 511.45,198.97 511.61,200.08 511.78,201.18 511.94,199.03 512.10,196.84 512.27,194.65 512.43,192.42 512.60,190.17 512.76,187.91 512.92,185.63 513.09,186.79 513.25,187.96 513.42,185.66 513.58,183.35 513.74,184.55 513.91,185.75 514.07,183.46 514.24,181.14 514.40,179.17 514.56,180.38 514.73,181.61 514.89,179.26 515.06,176.89 515.22,174.49 515.38,172.09 515.55,173.33 515.71,174.58 515.88,172.15 516.04,173.38 516.20,174.62 516.37,175.85 516.53,173.45 516.69,174.69 516.86,175.91 517.02,177.15 517.19,178.36 517.35,179.61 517.51,177.23 517.68,174.84 517.84,172.42 518.01,173.67 518.17,171.23 518.33,168.78 518.50,166.31 518.66,163.82 518.83,161.31 518.99,158.77 519.15,156.20 519.32,157.51 519.48,158.55 519.65,159.86 519.81,161.16 519.97,162.48 520.14,163.76 520.30,164.61 520.47,165.89 520.63,163.39 520.79,160.88 520.96,162.19 521.12,159.68 521.29,161.00 521.45,158.46 521.61,159.16 521.78,160.49 521.94,157.92 522.11,155.35 522.27,156.68 522.43,157.59 522.60,156.16 522.76,157.23 522.93,158.58 523.09,159.89 523.25,161.20 523.42,162.52 523.58,159.99 523.75,161.31 523.91,159.23 524.07,160.56 524.24,161.86 524.40,163.15 524.57,164.45 524.73,165.73 524.89,163.23 525.06,161.29 525.22,158.76 525.39,156.18 525.55,153.58 525.71,154.92 525.88,152.31 526.04,150.52 526.21,151.88 526.37,153.23 526.53,150.59 526.70,151.95 526.86,150.45 527.03,147.80 527.19,149.16 527.35,150.53 527.52,151.89 527.68,153.23 527.85,150.59 528.01,147.94 528.17,145.25 528.34,143.95 528.50,141.24 528.67,138.51 528.83,139.93 528.99,137.16 529.16,134.36 529.32,131.53 529.49,128.67 529.65,130.14 529.81,131.61 529.98,133.06 530.14,134.52 530.31,135.97 530.47,137.39 530.63,134.60 530.80,136.04 530.96,137.46 531.13,138.88 531.29,140.29 531.45,141.69 531.62,138.94 531.78,140.36 531.95,137.59 532.11,134.80 532.27,136.24 532.44,137.65 532.60,139.08 532.77,136.30 532.93,133.50 533.09,134.96 533.26,136.40 533.42,137.82 533.58,139.24 533.75,140.36 533.91,141.76 534.08,142.60 534.24,139.86 534.40,137.11 534.57,138.51 534.73,135.73 534.90,132.91 535.06,134.35 535.22,131.61 535.39,133.08 535.55,134.53 535.72,135.98 535.88,137.40 536.04,138.81 536.21,140.24 536.37,137.48 536.54,134.68 536.70,131.86 536.86,133.33 537.03,134.76 537.19,136.20 537.36,137.64 537.52,134.85 537.68,132.02 537.85,133.46 538.01,134.89 538.18,136.32 538.34,133.52 538.50,134.95 538.67,136.38 538.83,137.81 539.00,135.01 539.16,132.22 539.32,133.67 539.49,135.11 539.65,136.54 539.82,133.73 539.98,130.90 540.14,128.06 540.31,125.21 540.47,126.70 540.64,123.80 540.80,120.86 540.96,117.91 541.13,114.92 541.29,116.45 541.46,118.00 541.62,119.51 541.78,116.70 541.95,118.21 542.11,115.24 542.28,116.78 542.44,118.31 542.60,119.83 542.77,121.34 542.93,118.40 543.10,119.93 543.26,116.95 543.42,118.47 543.59,115.49 543.75,112.48 543.92,114.04 544.08,115.58 544.24,117.12 544.41,118.46 544.57,115.49 544.74,112.49 544.90,109.69 545.06,111.27 545.23,112.86 545.39,114.08 545.56,115.61 545.72,117.13 545.88,118.66 546.05,120.20 546.21,121.45 546.38,118.49 546.54,115.52 546.70,112.51 546.87,109.46 547.03,106.40 547.20,103.30 547.36,100.17 547.52,101.77 547.69,103.35 547.85,104.94 548.02,101.82 548.18,98.67 548.34,95.51 548.51,92.32 548.67,89.11 548.84,90.78 549.00,92.43 549.16,94.07 549.33,95.71 549.49,97.38 549.66,94.20 549.82,95.84 549.98,97.48 550.15,99.14 550.31,96.00 550.47,97.65 550.64,99.26 550.80,100.86 550.97,102.46 551.13,99.33 551.29,96.16 551.46,92.95 551.62,89.70 551.79,86.43 551.95,88.11 552.11,89.79 552.28,91.47 552.44,88.24 552.61,89.93 552.77,91.63 552.93,88.38 553.10,90.08 553.26,91.39 553.43,93.05 553.59,94.71 553.75,96.39 553.92,98.05 554.08,99.54 554.25,96.39 554.41,98.03 554.57,94.88 554.74,96.52 554.90,98.15 555.07,99.77 555.23,96.61 555.39,98.10 555.56,94.92 555.72,91.74 555.89,93.29 556.05,91.23 556.21,92.88 556.38,94.52 556.54,96.19 556.71,92.99 556.87,89.76 557.03,91.46 557.20,88.21 557.36,89.87 557.53,86.64 557.69,88.31 557.85,90.02 558.02,87.79 558.18,89.46 558.35,91.12 558.51,92.77 558.67,94.43 558.84,96.08 559.00,92.92 559.17,94.56 559.33,91.34 559.49,88.11 559.66,89.77 559.82,91.44 559.99,93.12 560.15,89.89 560.31,86.62 560.48,83.34 560.64,84.63 560.81,85.41 560.97,83.56 561.13,85.27 561.30,81.97 561.46,83.68 561.63,80.36 561.79,77.02 561.95,73.67 562.12,75.41 562.28,77.14 562.45,78.90 562.61,80.64 562.77,77.33 562.94,75.65 563.10,72.24 563.27,73.98 563.43,75.77 563.59,77.51 563.76,74.13 563.92,70.73 564.09,67.30 564.25,63.84 564.41,60.31 564.58,56.75 564.74,53.15 564.91,49.53 565.07,51.40 565.23,52.06 565.40,53.90 565.56,55.76 565.73,57.59 565.89,59.43 566.05,61.27 566.22,63.12 566.38,64.91 566.55,66.74 566.71,63.26 566.87,59.76 567.04,56.50 567.20,58.32 567.36,54.77 567.53,56.60 567.69,53.02 567.86,54.90 568.02,51.32 568.18,47.69 568.35,45.75 568.51,47.63 568.68,43.95 568.84,45.86 569.00,43.73 569.17,45.27 569.33,47.15 569.50,43.47 569.66,45.40 569.82,47.30 569.99,49.19 570.15,50.51 570.32,52.37 570.48,53.94 570.64,55.80 570.81,57.64 570.97,59.46 571.14,61.29 571.30,57.75 571.46,54.17 571.63,50.56 571.79,52.42 571.96,54.27 572.12,52.51 572.28,53.59 572.45,49.97 572.61,46.33 572.78,48.22 572.94,50.09 573.10,51.96 573.27,53.29 573.43,55.13 573.60,57.00 573.76,58.83 573.92,60.68 574.09,62.52 574.25,64.30 574.42,66.09 574.58,62.61 574.74,64.43 574.91,61.51 575.07,63.30 575.24,59.77 575.40,56.23 575.56,58.06 575.73,59.89 575.89,61.73 576.06,63.14 576.22,64.94 576.38,65.71 576.55,62.23 576.71,58.68 576.88,55.12 577.04,51.51 577.20,47.89 577.37,44.21 577.53,40.52 577.70,42.43 577.86,44.34 578.02,40.63 578.19,42.54 578.35,44.45 578.52,46.33 578.68,48.21 578.84,50.08 579.01,46.52 579.17,42.84 579.34,44.74 579.50,41.02 579.66,37.26 579.83,33.51 579.99,35.46 580.16,37.42 580.32,33.67 580.48,35.63 580.65,37.57 580.81,33.80 580.98,30.00 581.14,31.98 581.30,33.95 581.47,35.92 581.63,37.73 581.80,38.72 581.96,34.94 582.12,31.17 582.29,33.16 582.45,30.44 582.62,32.24 582.78,34.23 582.94,36.18 583.11,38.12 583.27,40.08 583.44,41.98 583.60,43.87 583.76,45.77 583.93,42.10 584.09,44.03 584.26,44.87 584.42,46.76 584.58,48.69 584.75,50.56 584.91,52.47 585.07,54.33 585.24,56.21 585.40,58.05 585.57,54.46 585.73,56.32 585.89,52.72 586.06,54.57 586.22,56.44 586.39,53.09 586.55,50.59 586.71,52.45 586.88,49.71 587.04,51.59 587.21,49.25 587.37,51.14 587.53,53.03 587.70,54.88 587.86,56.74 588.03,53.13 588.19,54.97 588.35,56.83 588.52,54.24 588.68,56.08 588.85,52.49 589.01,48.96 589.17,50.85 589.34,52.75 589.50,54.63 589.67,56.19 589.83,58.03 589.99,58.89 590.16,60.42 590.32,56.88 590.49,53.50 590.65,55.39 590.81,53.87 590.98,55.73 591.14,57.43 591.31,59.28 591.47,61.14 591.63,62.94 591.80,64.74 591.96,66.53 592.13,68.35 592.29,64.88 592.45,66.65 592.62,68.19 592.78,69.97 592.95,66.49 593.11,68.28 593.27,70.05 593.44,71.81 593.60,73.58 593.77,75.37 593.93,71.97 594.09,68.54 594.26,65.09 594.42,66.88 594.59,68.66 594.75,65.19 594.91,66.16 595.08,67.96 595.24,69.43 595.41,65.97 595.57,64.36 595.73,66.19 595.90,67.28 596.06,63.80 596.23,65.62 596.39,62.14 596.55,63.97 596.72,65.29 596.88,66.54 597.05,68.32 597.21,70.10 597.37,71.87 597.54,73.64 597.70,75.41 597.87,72.02 598.03,68.58 598.19,65.16 598.36,61.68 598.52,63.53 598.69,65.33 598.85,67.12 599.01,68.91 599.18,70.72 599.34,67.27 599.51,69.04 599.67,70.81 599.83,67.41 600.00,69.19 600.16,69.95 600.33,71.71 600.49,73.48 600.65,74.49 600.82,76.23 600.98,74.10 601.15,70.68 601.31,72.43 601.47,74.19 601.64,75.95 601.80,72.59 601.96,74.37 602.13,76.10 602.29,77.85 602.46,75.03 602.62,71.67 602.78,68.25 602.95,66.73 603.11,63.72 603.28,65.51 603.44,67.32 603.60,68.12 603.77,69.91 603.93,67.97 604.10,69.75 604.26,71.55 604.42,68.11 604.59,69.89 604.75,71.66 604.92,73.43 605.08,70.00 605.24,66.56 605.41,63.09 605.57,64.89 605.74,66.37 605.90,68.15 606.06,69.93 606.23,67.17 606.39,68.95 606.56,70.70 606.72,72.47 606.88,73.22 607.05,74.96 607.21,76.74 607.38,73.37 607.54,69.96 607.70,66.52 607.87,68.32 608.03,69.75 608.20,70.66 608.36,67.20 608.52,63.71 608.69,60.18 608.85,56.62 609.02,58.45 609.18,60.28 609.34,62.08 609.51,63.89 609.67,62.40 609.84,58.88 610.00,60.73" fill="none" stroke="#2563eb" stroke-width="1.5"/><text x="30" y="252" font-size="11" fill="#555">min 79580.43 / max 164225.26</text></svg>
